G04 EAGLE Gerber RS-274X export*
G75*
%MOMM*%
%FSLAX34Y34*%
%LPD*%
%INBottom Copper*%
%IPPOS*%
%AMOC8*
5,1,8,0,0,1.08239X$1,22.5*%
G01*
%ADD10C,1.879600*%
%ADD11C,0.908000*%
%ADD12C,1.582200*%
%ADD13C,1.980000*%
%ADD14C,0.705600*%
%ADD15C,0.755600*%
%ADD16C,0.203200*%
%ADD17C,1.200000*%
%ADD18C,0.254000*%
%ADD19C,0.400000*%
%ADD20C,0.304800*%
%ADD21C,15.000000*%

G36*
X259037Y7629D02*
X259037Y7629D01*
X259107Y7628D01*
X259195Y7649D01*
X259284Y7661D01*
X259349Y7686D01*
X259417Y7703D01*
X259496Y7745D01*
X259579Y7778D01*
X259636Y7819D01*
X259698Y7851D01*
X259764Y7912D01*
X259837Y7964D01*
X259881Y8018D01*
X259933Y8065D01*
X259982Y8140D01*
X260040Y8209D01*
X260069Y8273D01*
X260108Y8331D01*
X260137Y8416D01*
X260175Y8497D01*
X260188Y8566D01*
X260211Y8632D01*
X260218Y8721D01*
X260235Y8809D01*
X260231Y8879D01*
X260236Y8949D01*
X260221Y9037D01*
X260215Y9127D01*
X260194Y9193D01*
X260182Y9262D01*
X260145Y9344D01*
X260117Y9429D01*
X260080Y9488D01*
X260051Y9552D01*
X259995Y9622D01*
X259947Y9698D01*
X259896Y9746D01*
X259853Y9800D01*
X259781Y9855D01*
X259715Y9916D01*
X259654Y9950D01*
X259598Y9992D01*
X259454Y10063D01*
X247632Y14960D01*
X235056Y23362D01*
X224362Y34056D01*
X215960Y46632D01*
X210172Y60604D01*
X207221Y75438D01*
X207221Y90562D01*
X210172Y105396D01*
X215960Y119368D01*
X224362Y131944D01*
X235056Y142638D01*
X247632Y151040D01*
X261604Y156828D01*
X276438Y159779D01*
X291562Y159779D01*
X306396Y156828D01*
X320368Y151040D01*
X332944Y142638D01*
X343638Y131944D01*
X352040Y119368D01*
X357437Y106339D01*
X357472Y106278D01*
X357498Y106213D01*
X357550Y106141D01*
X357595Y106063D01*
X357644Y106013D01*
X357684Y105956D01*
X357754Y105899D01*
X357816Y105834D01*
X357876Y105798D01*
X357929Y105753D01*
X358011Y105715D01*
X358087Y105668D01*
X358154Y105647D01*
X358217Y105618D01*
X358305Y105601D01*
X358391Y105574D01*
X358461Y105571D01*
X358530Y105558D01*
X358619Y105564D01*
X358709Y105559D01*
X358777Y105573D01*
X358847Y105578D01*
X358932Y105605D01*
X359020Y105624D01*
X359083Y105654D01*
X359149Y105676D01*
X359225Y105724D01*
X359306Y105763D01*
X359359Y105809D01*
X359418Y105846D01*
X359480Y105911D01*
X359548Y105970D01*
X359588Y106027D01*
X359636Y106078D01*
X359679Y106156D01*
X359731Y106230D01*
X359756Y106295D01*
X359790Y106356D01*
X359812Y106443D01*
X359844Y106527D01*
X359852Y106596D01*
X359869Y106664D01*
X359879Y106825D01*
X359879Y353730D01*
X359864Y353848D01*
X359857Y353967D01*
X359845Y354005D01*
X359839Y354046D01*
X359796Y354156D01*
X359759Y354269D01*
X359737Y354304D01*
X359722Y354341D01*
X359653Y354437D01*
X359589Y354538D01*
X359559Y354566D01*
X359536Y354599D01*
X359444Y354675D01*
X359357Y354756D01*
X359322Y354776D01*
X359291Y354801D01*
X359183Y354852D01*
X359079Y354910D01*
X359039Y354920D01*
X359003Y354937D01*
X358886Y354959D01*
X358771Y354989D01*
X358711Y354993D01*
X358691Y354997D01*
X358670Y354995D01*
X358610Y354999D01*
X309000Y354999D01*
X308999Y355000D01*
X308999Y531000D01*
X309000Y531001D01*
X358610Y531001D01*
X358728Y531016D01*
X358847Y531023D01*
X358885Y531036D01*
X358926Y531041D01*
X359036Y531084D01*
X359149Y531121D01*
X359184Y531143D01*
X359221Y531158D01*
X359317Y531227D01*
X359418Y531291D01*
X359446Y531321D01*
X359479Y531344D01*
X359555Y531436D01*
X359636Y531523D01*
X359656Y531558D01*
X359681Y531589D01*
X359732Y531697D01*
X359790Y531801D01*
X359800Y531841D01*
X359817Y531877D01*
X359839Y531994D01*
X359869Y532109D01*
X359873Y532169D01*
X359877Y532189D01*
X359875Y532210D01*
X359879Y532270D01*
X359879Y591110D01*
X359864Y591228D01*
X359857Y591347D01*
X359844Y591385D01*
X359839Y591426D01*
X359796Y591536D01*
X359759Y591649D01*
X359737Y591684D01*
X359722Y591721D01*
X359653Y591817D01*
X359589Y591918D01*
X359559Y591946D01*
X359536Y591979D01*
X359444Y592055D01*
X359357Y592136D01*
X359322Y592156D01*
X359291Y592181D01*
X359183Y592232D01*
X359079Y592290D01*
X359039Y592300D01*
X359003Y592317D01*
X358886Y592339D01*
X358771Y592369D01*
X358711Y592373D01*
X358691Y592377D01*
X358670Y592375D01*
X358610Y592379D01*
X106457Y592379D01*
X106422Y592375D01*
X106387Y592377D01*
X106265Y592355D01*
X106142Y592339D01*
X106109Y592327D01*
X106074Y592320D01*
X105961Y592268D01*
X105846Y592222D01*
X105818Y592202D01*
X105786Y592187D01*
X105689Y592108D01*
X105588Y592036D01*
X105566Y592009D01*
X105539Y591986D01*
X105465Y591886D01*
X105386Y591791D01*
X105371Y591759D01*
X105350Y591731D01*
X105303Y591615D01*
X105250Y591503D01*
X105244Y591469D01*
X105230Y591436D01*
X105214Y591312D01*
X105190Y591191D01*
X105193Y591156D01*
X105188Y591121D01*
X105202Y590997D01*
X105210Y590873D01*
X105221Y590840D01*
X105225Y590805D01*
X105270Y590689D01*
X105308Y590571D01*
X105327Y590541D01*
X105340Y590508D01*
X105412Y590407D01*
X105478Y590302D01*
X105504Y590278D01*
X105524Y590249D01*
X105619Y590169D01*
X105710Y590084D01*
X105741Y590067D01*
X105767Y590044D01*
X105880Y589990D01*
X105988Y589930D01*
X106022Y589922D01*
X106054Y589906D01*
X106210Y589865D01*
X106396Y589828D01*
X120368Y584040D01*
X132944Y575638D01*
X143638Y564944D01*
X152040Y552368D01*
X157828Y538396D01*
X160779Y523562D01*
X160779Y508438D01*
X157828Y493604D01*
X152040Y479632D01*
X143638Y467056D01*
X132944Y456362D01*
X120368Y447960D01*
X114810Y445657D01*
X114749Y445623D01*
X114684Y445597D01*
X114612Y445544D01*
X114533Y445500D01*
X114483Y445451D01*
X114427Y445410D01*
X114370Y445341D01*
X114305Y445278D01*
X114269Y445219D01*
X114224Y445165D01*
X114186Y445084D01*
X114139Y445007D01*
X114118Y444940D01*
X114089Y444877D01*
X114072Y444789D01*
X114045Y444703D01*
X114042Y444634D01*
X114029Y444565D01*
X114034Y444475D01*
X114030Y444386D01*
X114044Y444317D01*
X114048Y444248D01*
X114076Y444162D01*
X114094Y444074D01*
X114125Y444011D01*
X114147Y443945D01*
X114195Y443869D01*
X114234Y443788D01*
X114279Y443735D01*
X114317Y443676D01*
X114382Y443615D01*
X114440Y443546D01*
X114498Y443506D01*
X114548Y443458D01*
X114627Y443415D01*
X114700Y443363D01*
X114766Y443339D01*
X114827Y443305D01*
X114914Y443283D01*
X114998Y443251D01*
X115067Y443243D01*
X115135Y443225D01*
X115295Y443215D01*
X142744Y443215D01*
X142842Y443228D01*
X142941Y443231D01*
X142999Y443247D01*
X143059Y443255D01*
X143151Y443292D01*
X143246Y443319D01*
X143299Y443350D01*
X143355Y443372D01*
X143435Y443430D01*
X143520Y443481D01*
X143596Y443547D01*
X143612Y443559D01*
X143620Y443568D01*
X143641Y443587D01*
X164188Y464134D01*
X166494Y466440D01*
X174244Y466440D01*
X174342Y466453D01*
X174441Y466456D01*
X174499Y466472D01*
X174559Y466480D01*
X174651Y466517D01*
X174746Y466544D01*
X174799Y466575D01*
X174855Y466597D01*
X174935Y466655D01*
X175020Y466706D01*
X175096Y466772D01*
X175112Y466784D01*
X175120Y466793D01*
X175141Y466812D01*
X177072Y468742D01*
X177132Y468821D01*
X177200Y468893D01*
X177224Y468936D01*
X177233Y468947D01*
X177238Y468957D01*
X177266Y468994D01*
X177306Y469085D01*
X177354Y469171D01*
X177369Y469230D01*
X177393Y469285D01*
X177408Y469383D01*
X177433Y469479D01*
X177439Y469579D01*
X177443Y469600D01*
X177441Y469612D01*
X177443Y469640D01*
X177443Y471105D01*
X178289Y473148D01*
X179852Y474711D01*
X181841Y475534D01*
X181962Y475604D01*
X182085Y475668D01*
X182100Y475682D01*
X182117Y475692D01*
X182217Y475789D01*
X182320Y475882D01*
X182331Y475899D01*
X182346Y475913D01*
X182418Y476032D01*
X182495Y476148D01*
X182501Y476167D01*
X182512Y476184D01*
X182553Y476317D01*
X182598Y476449D01*
X182600Y476469D01*
X182606Y476488D01*
X182612Y476627D01*
X182623Y476766D01*
X182620Y476786D01*
X182621Y476806D01*
X182593Y476942D01*
X182569Y477079D01*
X182560Y477098D01*
X182556Y477117D01*
X182495Y477243D01*
X182438Y477369D01*
X182426Y477385D01*
X182417Y477403D01*
X182326Y477509D01*
X182240Y477618D01*
X182223Y477630D01*
X182210Y477645D01*
X182096Y477725D01*
X181986Y477809D01*
X181960Y477821D01*
X181950Y477828D01*
X181931Y477836D01*
X181841Y477880D01*
X180852Y478289D01*
X179289Y479852D01*
X178443Y481895D01*
X178443Y484105D01*
X179289Y486148D01*
X180852Y487711D01*
X181422Y487947D01*
X181447Y487961D01*
X181475Y487970D01*
X181585Y488040D01*
X181698Y488104D01*
X181719Y488125D01*
X181744Y488140D01*
X181833Y488235D01*
X181926Y488325D01*
X181942Y488351D01*
X181962Y488372D01*
X182025Y488486D01*
X182093Y488597D01*
X182101Y488625D01*
X182116Y488651D01*
X182148Y488776D01*
X182186Y488900D01*
X182188Y488930D01*
X182195Y488959D01*
X182205Y489119D01*
X182205Y525411D01*
X182193Y525509D01*
X182190Y525608D01*
X182173Y525666D01*
X182165Y525726D01*
X182129Y525818D01*
X182101Y525913D01*
X182071Y525965D01*
X182048Y526022D01*
X181990Y526102D01*
X181940Y526187D01*
X181874Y526263D01*
X181862Y526279D01*
X181852Y526287D01*
X181834Y526308D01*
X180289Y527852D01*
X179443Y529895D01*
X179443Y532105D01*
X180289Y534148D01*
X181852Y535711D01*
X183895Y536557D01*
X186105Y536557D01*
X188148Y535711D01*
X189711Y534148D01*
X190557Y532105D01*
X190557Y529895D01*
X189711Y527852D01*
X188166Y526308D01*
X188106Y526230D01*
X188038Y526158D01*
X188009Y526105D01*
X187972Y526057D01*
X187932Y525966D01*
X187884Y525879D01*
X187869Y525821D01*
X187845Y525765D01*
X187830Y525667D01*
X187805Y525571D01*
X187799Y525471D01*
X187795Y525451D01*
X187797Y525439D01*
X187795Y525411D01*
X187795Y487589D01*
X187807Y487491D01*
X187810Y487392D01*
X187827Y487334D01*
X187835Y487274D01*
X187871Y487182D01*
X187899Y487087D01*
X187929Y487035D01*
X187952Y486978D01*
X188010Y486898D01*
X188060Y486813D01*
X188126Y486737D01*
X188138Y486721D01*
X188148Y486713D01*
X188166Y486692D01*
X188711Y486148D01*
X189557Y484105D01*
X189557Y482292D01*
X189574Y482154D01*
X189576Y482137D01*
X189579Y482083D01*
X189581Y482076D01*
X189587Y482015D01*
X189594Y481996D01*
X189597Y481976D01*
X189648Y481847D01*
X189695Y481716D01*
X189706Y481699D01*
X189714Y481681D01*
X189795Y481568D01*
X189873Y481453D01*
X189889Y481440D01*
X189900Y481423D01*
X190008Y481335D01*
X190112Y481242D01*
X190130Y481233D01*
X190145Y481220D01*
X190271Y481161D01*
X190395Y481098D01*
X190415Y481093D01*
X190433Y481085D01*
X190569Y481059D01*
X190705Y481028D01*
X190726Y481029D01*
X190745Y481025D01*
X190884Y481034D01*
X191023Y481038D01*
X191043Y481044D01*
X191063Y481045D01*
X191195Y481088D01*
X191329Y481126D01*
X191346Y481137D01*
X191365Y481143D01*
X191483Y481217D01*
X191603Y481288D01*
X191624Y481306D01*
X191634Y481313D01*
X191648Y481328D01*
X191723Y481394D01*
X208632Y498303D01*
X252106Y498303D01*
X252204Y498315D01*
X252303Y498318D01*
X252362Y498335D01*
X252422Y498343D01*
X252514Y498379D01*
X252609Y498407D01*
X252661Y498437D01*
X252717Y498460D01*
X252797Y498518D01*
X252883Y498568D01*
X252958Y498634D01*
X252975Y498646D01*
X252983Y498656D01*
X253004Y498674D01*
X273095Y518766D01*
X273168Y518860D01*
X273247Y518949D01*
X273265Y518985D01*
X273290Y519017D01*
X273337Y519127D01*
X273392Y519232D01*
X273400Y519272D01*
X273416Y519309D01*
X273435Y519427D01*
X273461Y519543D01*
X273460Y519583D01*
X273466Y519623D01*
X273455Y519742D01*
X273452Y519861D01*
X273440Y519899D01*
X273436Y519940D01*
X273396Y520052D01*
X273363Y520166D01*
X273343Y520201D01*
X273329Y520239D01*
X273262Y520338D01*
X273202Y520440D01*
X273162Y520485D01*
X273150Y520502D01*
X273135Y520516D01*
X273095Y520561D01*
X234807Y558850D01*
X232221Y561435D01*
X232221Y565748D01*
X232209Y565847D01*
X232206Y565945D01*
X232189Y566003D01*
X232181Y566064D01*
X232145Y566156D01*
X232117Y566251D01*
X232087Y566303D01*
X232064Y566359D01*
X232006Y566439D01*
X231956Y566525D01*
X231890Y566600D01*
X231878Y566617D01*
X231868Y566625D01*
X231849Y566646D01*
X231501Y566994D01*
X230693Y568944D01*
X230693Y571056D01*
X231501Y573006D01*
X232994Y574499D01*
X234944Y575307D01*
X237056Y575307D01*
X239006Y574499D01*
X240499Y573006D01*
X241307Y571056D01*
X241307Y568944D01*
X240499Y566994D01*
X240151Y566646D01*
X240090Y566567D01*
X240022Y566495D01*
X239993Y566442D01*
X239956Y566394D01*
X239916Y566303D01*
X239868Y566217D01*
X239853Y566158D01*
X239829Y566103D01*
X239814Y566005D01*
X239789Y565909D01*
X239783Y565809D01*
X239779Y565788D01*
X239781Y565776D01*
X239779Y565748D01*
X239779Y565091D01*
X239791Y564993D01*
X239794Y564894D01*
X239811Y564836D01*
X239819Y564775D01*
X239855Y564683D01*
X239883Y564588D01*
X239913Y564536D01*
X239936Y564480D01*
X239994Y564400D01*
X240044Y564314D01*
X240110Y564239D01*
X240122Y564222D01*
X240132Y564215D01*
X240150Y564193D01*
X278665Y525678D01*
X278744Y525618D01*
X278816Y525550D01*
X278869Y525521D01*
X278917Y525484D01*
X279008Y525444D01*
X279094Y525396D01*
X279153Y525381D01*
X279209Y525357D01*
X279307Y525342D01*
X279402Y525317D01*
X279502Y525311D01*
X279523Y525307D01*
X279535Y525309D01*
X279563Y525307D01*
X280056Y525307D01*
X282006Y524499D01*
X283499Y523006D01*
X283763Y522367D01*
X283798Y522307D01*
X283824Y522242D01*
X283876Y522169D01*
X283921Y522091D01*
X283969Y522041D01*
X284010Y521984D01*
X284080Y521927D01*
X284142Y521863D01*
X284202Y521826D01*
X284255Y521782D01*
X284337Y521743D01*
X284413Y521696D01*
X284480Y521676D01*
X284543Y521646D01*
X284631Y521629D01*
X284717Y521603D01*
X284787Y521599D01*
X284856Y521586D01*
X284945Y521592D01*
X285035Y521588D01*
X285103Y521602D01*
X285173Y521606D01*
X285258Y521634D01*
X285346Y521652D01*
X285409Y521683D01*
X285475Y521704D01*
X285551Y521752D01*
X285632Y521792D01*
X285685Y521837D01*
X285744Y521874D01*
X285806Y521940D01*
X285874Y521998D01*
X285914Y522055D01*
X285962Y522106D01*
X286006Y522185D01*
X286057Y522258D01*
X286082Y522323D01*
X286116Y522384D01*
X286138Y522472D01*
X286170Y522555D01*
X286178Y522625D01*
X286195Y522692D01*
X286205Y522853D01*
X286205Y540158D01*
X288214Y542166D01*
X314688Y568641D01*
X314707Y568664D01*
X314729Y568683D01*
X314804Y568789D01*
X314883Y568892D01*
X314895Y568919D01*
X314912Y568943D01*
X314958Y569065D01*
X315010Y569184D01*
X315014Y569213D01*
X315025Y569241D01*
X315039Y569370D01*
X315060Y569498D01*
X315057Y569527D01*
X315060Y569557D01*
X315042Y569685D01*
X315030Y569815D01*
X315020Y569842D01*
X315016Y569872D01*
X314964Y570024D01*
X313823Y572777D01*
X313823Y577223D01*
X315525Y581331D01*
X318669Y584475D01*
X322777Y586177D01*
X327223Y586177D01*
X331331Y584475D01*
X334475Y581331D01*
X336177Y577223D01*
X336177Y572777D01*
X334475Y568669D01*
X331331Y565525D01*
X327223Y563823D01*
X322777Y563823D01*
X320024Y564964D01*
X319996Y564971D01*
X319969Y564985D01*
X319842Y565013D01*
X319717Y565047D01*
X319688Y565048D01*
X319659Y565054D01*
X319529Y565050D01*
X319399Y565053D01*
X319371Y565046D01*
X319341Y565045D01*
X319216Y565009D01*
X319090Y564978D01*
X319064Y564965D01*
X319036Y564956D01*
X318924Y564890D01*
X318809Y564830D01*
X318787Y564810D01*
X318762Y564795D01*
X318641Y564688D01*
X292166Y538214D01*
X292106Y538136D01*
X292038Y538064D01*
X292009Y538011D01*
X291972Y537963D01*
X291932Y537872D01*
X291884Y537785D01*
X291869Y537727D01*
X291845Y537671D01*
X291830Y537573D01*
X291805Y537477D01*
X291799Y537377D01*
X291795Y537357D01*
X291797Y537345D01*
X291795Y537317D01*
X291795Y497683D01*
X291807Y497585D01*
X291810Y497486D01*
X291827Y497428D01*
X291835Y497368D01*
X291871Y497276D01*
X291899Y497181D01*
X291929Y497128D01*
X291952Y497072D01*
X292010Y496992D01*
X292060Y496907D01*
X292126Y496831D01*
X292138Y496815D01*
X292148Y496807D01*
X292166Y496786D01*
X300795Y488158D01*
X300795Y378842D01*
X298928Y376976D01*
X298868Y376898D01*
X298800Y376826D01*
X298771Y376773D01*
X298734Y376725D01*
X298694Y376634D01*
X298646Y376547D01*
X298631Y376489D01*
X298607Y376433D01*
X298592Y376335D01*
X298567Y376239D01*
X298561Y376139D01*
X298557Y376119D01*
X298559Y376107D01*
X298557Y376079D01*
X298557Y373895D01*
X297711Y371852D01*
X296148Y370289D01*
X295439Y369996D01*
X295396Y369971D01*
X295349Y369954D01*
X295258Y369892D01*
X295162Y369838D01*
X295127Y369803D01*
X295086Y369776D01*
X295013Y369693D01*
X294934Y369617D01*
X294908Y369574D01*
X294875Y369537D01*
X294825Y369439D01*
X294768Y369346D01*
X294753Y369298D01*
X294731Y369254D01*
X294706Y369147D01*
X294674Y369042D01*
X294672Y368992D01*
X294661Y368944D01*
X294664Y368834D01*
X294659Y368724D01*
X294669Y368675D01*
X294671Y368626D01*
X294701Y368520D01*
X294723Y368413D01*
X294745Y368368D01*
X294759Y368320D01*
X294815Y368226D01*
X294863Y368127D01*
X294895Y368089D01*
X294921Y368046D01*
X295027Y367925D01*
X298795Y364158D01*
X298795Y350806D01*
X298801Y350756D01*
X298799Y350707D01*
X298821Y350599D01*
X298835Y350490D01*
X298853Y350444D01*
X298863Y350395D01*
X298911Y350296D01*
X298952Y350194D01*
X298981Y350154D01*
X299003Y350109D01*
X299074Y350026D01*
X299138Y349937D01*
X299177Y349905D01*
X299209Y349867D01*
X299299Y349804D01*
X299383Y349734D01*
X299428Y349713D01*
X299469Y349684D01*
X299572Y349645D01*
X299671Y349599D01*
X299720Y349589D01*
X299766Y349572D01*
X299876Y349559D01*
X299983Y349539D01*
X300033Y349542D01*
X300082Y349536D01*
X300191Y349552D01*
X300301Y349559D01*
X300348Y349574D01*
X300397Y349581D01*
X300550Y349633D01*
X304277Y351177D01*
X308723Y351177D01*
X312831Y349475D01*
X315975Y346331D01*
X317677Y342223D01*
X317677Y337777D01*
X315975Y333669D01*
X312831Y330525D01*
X308723Y328823D01*
X304277Y328823D01*
X300169Y330525D01*
X299269Y331424D01*
X299160Y331509D01*
X299053Y331598D01*
X299034Y331607D01*
X299018Y331619D01*
X298891Y331674D01*
X298765Y331734D01*
X298745Y331737D01*
X298726Y331746D01*
X298588Y331767D01*
X298452Y331793D01*
X298432Y331792D01*
X298412Y331795D01*
X298273Y331782D01*
X298135Y331774D01*
X298116Y331767D01*
X298096Y331766D01*
X297964Y331718D01*
X297833Y331676D01*
X297815Y331665D01*
X297796Y331658D01*
X297681Y331580D01*
X297564Y331506D01*
X297550Y331491D01*
X297533Y331479D01*
X297441Y331375D01*
X297346Y331274D01*
X297336Y331256D01*
X297323Y331241D01*
X297260Y331117D01*
X297192Y330995D01*
X297187Y330976D01*
X297178Y330958D01*
X297148Y330822D01*
X297113Y330687D01*
X297111Y330659D01*
X297108Y330647D01*
X297109Y330627D01*
X297103Y330527D01*
X297103Y324576D01*
X297118Y324458D01*
X297125Y324339D01*
X297138Y324301D01*
X297143Y324260D01*
X297186Y324150D01*
X297223Y324037D01*
X297245Y324002D01*
X297260Y323965D01*
X297329Y323869D01*
X297393Y323768D01*
X297423Y323740D01*
X297446Y323707D01*
X297538Y323631D01*
X297625Y323550D01*
X297660Y323530D01*
X297691Y323505D01*
X297799Y323454D01*
X297903Y323396D01*
X297943Y323386D01*
X297979Y323369D01*
X298096Y323347D01*
X298211Y323317D01*
X298271Y323313D01*
X298291Y323309D01*
X298312Y323311D01*
X298372Y323307D01*
X299056Y323307D01*
X301006Y322499D01*
X302499Y321006D01*
X303307Y319056D01*
X303307Y316944D01*
X302499Y314994D01*
X301006Y313501D01*
X299056Y312693D01*
X296944Y312693D01*
X294994Y313501D01*
X293501Y314994D01*
X292693Y316944D01*
X292693Y318829D01*
X292681Y318927D01*
X292678Y319026D01*
X292661Y319084D01*
X292653Y319144D01*
X292617Y319236D01*
X292589Y319331D01*
X292559Y319384D01*
X292536Y319440D01*
X292478Y319520D01*
X292428Y319605D01*
X292362Y319681D01*
X292350Y319697D01*
X292340Y319705D01*
X292322Y319726D01*
X291513Y320534D01*
X291513Y339742D01*
X291496Y339879D01*
X291483Y340018D01*
X291476Y340037D01*
X291473Y340057D01*
X291422Y340186D01*
X291375Y340317D01*
X291364Y340334D01*
X291356Y340353D01*
X291275Y340465D01*
X291197Y340580D01*
X291181Y340594D01*
X291170Y340610D01*
X291062Y340699D01*
X290958Y340791D01*
X290940Y340800D01*
X290925Y340813D01*
X290799Y340872D01*
X290675Y340936D01*
X290655Y340940D01*
X290637Y340949D01*
X290501Y340975D01*
X290365Y341005D01*
X290344Y341005D01*
X290325Y341008D01*
X290186Y341000D01*
X290047Y340996D01*
X290027Y340990D01*
X290007Y340989D01*
X289875Y340946D01*
X289741Y340907D01*
X289724Y340897D01*
X289705Y340891D01*
X289587Y340816D01*
X289467Y340746D01*
X289446Y340727D01*
X289436Y340720D01*
X289422Y340706D01*
X289347Y340639D01*
X270819Y322112D01*
X268810Y320103D01*
X246476Y320103D01*
X246378Y320090D01*
X246279Y320087D01*
X246220Y320071D01*
X246160Y320063D01*
X246068Y320026D01*
X245973Y319999D01*
X245921Y319968D01*
X245865Y319946D01*
X245785Y319888D01*
X245699Y319837D01*
X245624Y319771D01*
X245607Y319759D01*
X245600Y319750D01*
X245578Y319731D01*
X241678Y315831D01*
X241618Y315753D01*
X241550Y315681D01*
X241521Y315628D01*
X241484Y315580D01*
X241444Y315489D01*
X241396Y315402D01*
X241381Y315344D01*
X241357Y315288D01*
X241342Y315190D01*
X241317Y315094D01*
X241311Y314994D01*
X241307Y314974D01*
X241309Y314962D01*
X241308Y314946D01*
X240499Y312994D01*
X239006Y311501D01*
X237056Y310693D01*
X235171Y310693D01*
X235073Y310681D01*
X234974Y310678D01*
X234916Y310661D01*
X234856Y310653D01*
X234764Y310617D01*
X234669Y310589D01*
X234616Y310559D01*
X234560Y310536D01*
X234480Y310478D01*
X234395Y310428D01*
X234319Y310362D01*
X234303Y310350D01*
X234295Y310340D01*
X234274Y310322D01*
X205166Y281214D01*
X205106Y281136D01*
X205038Y281064D01*
X205009Y281011D01*
X204972Y280963D01*
X204932Y280872D01*
X204884Y280785D01*
X204869Y280727D01*
X204845Y280671D01*
X204830Y280573D01*
X204805Y280477D01*
X204799Y280377D01*
X204795Y280357D01*
X204797Y280345D01*
X204795Y280317D01*
X204795Y278236D01*
X204807Y278138D01*
X204810Y278039D01*
X204827Y277980D01*
X204835Y277920D01*
X204871Y277828D01*
X204899Y277733D01*
X204929Y277681D01*
X204952Y277625D01*
X205010Y277545D01*
X205060Y277459D01*
X205126Y277384D01*
X205138Y277367D01*
X205148Y277360D01*
X205166Y277338D01*
X206499Y276006D01*
X207307Y274056D01*
X207307Y271944D01*
X206499Y269994D01*
X205006Y268501D01*
X203056Y267693D01*
X200944Y267693D01*
X198994Y268501D01*
X197961Y269534D01*
X197852Y269618D01*
X197745Y269708D01*
X197726Y269716D01*
X197710Y269729D01*
X197583Y269784D01*
X197457Y269843D01*
X197437Y269847D01*
X197418Y269855D01*
X197280Y269877D01*
X197144Y269903D01*
X197124Y269902D01*
X197104Y269905D01*
X196965Y269892D01*
X196827Y269883D01*
X196808Y269877D01*
X196788Y269875D01*
X196656Y269828D01*
X196525Y269785D01*
X196507Y269774D01*
X196488Y269767D01*
X196373Y269689D01*
X196256Y269615D01*
X196242Y269600D01*
X196225Y269589D01*
X196133Y269485D01*
X196038Y269383D01*
X196028Y269366D01*
X196015Y269350D01*
X195952Y269227D01*
X195884Y269105D01*
X195879Y269085D01*
X195870Y269067D01*
X195840Y268931D01*
X195805Y268797D01*
X195803Y268769D01*
X195800Y268757D01*
X195801Y268736D01*
X195795Y268636D01*
X195795Y253236D01*
X195807Y253138D01*
X195810Y253039D01*
X195827Y252980D01*
X195835Y252920D01*
X195871Y252828D01*
X195899Y252733D01*
X195929Y252681D01*
X195952Y252625D01*
X196010Y252545D01*
X196060Y252459D01*
X196126Y252384D01*
X196138Y252367D01*
X196148Y252360D01*
X196166Y252338D01*
X197499Y251006D01*
X198307Y249056D01*
X198307Y246944D01*
X197499Y244994D01*
X196006Y243501D01*
X194056Y242693D01*
X192714Y242693D01*
X192577Y242676D01*
X192438Y242663D01*
X192419Y242656D01*
X192399Y242653D01*
X192270Y242602D01*
X192139Y242555D01*
X192122Y242544D01*
X192103Y242536D01*
X191991Y242455D01*
X191875Y242377D01*
X191862Y242361D01*
X191846Y242350D01*
X191757Y242242D01*
X191665Y242138D01*
X191656Y242120D01*
X191643Y242105D01*
X191584Y241979D01*
X191520Y241855D01*
X191516Y241835D01*
X191507Y241817D01*
X191481Y241681D01*
X191451Y241545D01*
X191451Y241524D01*
X191448Y241505D01*
X191456Y241366D01*
X191460Y241227D01*
X191466Y241207D01*
X191467Y241187D01*
X191510Y241055D01*
X191549Y240921D01*
X191559Y240904D01*
X191565Y240885D01*
X191640Y240767D01*
X191710Y240647D01*
X191729Y240626D01*
X191735Y240616D01*
X191750Y240602D01*
X191817Y240527D01*
X195306Y237037D01*
X195385Y236976D01*
X195457Y236908D01*
X195510Y236879D01*
X195558Y236842D01*
X195649Y236803D01*
X195735Y236755D01*
X195794Y236740D01*
X195849Y236716D01*
X195947Y236700D01*
X196043Y236675D01*
X196143Y236669D01*
X196164Y236666D01*
X196176Y236667D01*
X196204Y236665D01*
X200989Y236665D01*
X201087Y236678D01*
X201186Y236681D01*
X201244Y236697D01*
X201304Y236705D01*
X201396Y236742D01*
X201491Y236769D01*
X201544Y236800D01*
X201600Y236822D01*
X201680Y236880D01*
X201765Y236931D01*
X201841Y236997D01*
X201857Y237009D01*
X201865Y237018D01*
X201886Y237037D01*
X215897Y251048D01*
X270926Y251048D01*
X289053Y232921D01*
X289053Y225708D01*
X289065Y225610D01*
X289068Y225511D01*
X289085Y225452D01*
X289093Y225392D01*
X289129Y225300D01*
X289157Y225205D01*
X289187Y225153D01*
X289210Y225097D01*
X289268Y225017D01*
X289318Y224931D01*
X289384Y224856D01*
X289396Y224839D01*
X289406Y224832D01*
X289424Y224810D01*
X290249Y223986D01*
X291057Y222036D01*
X291057Y219924D01*
X290249Y217974D01*
X288756Y216481D01*
X286806Y215673D01*
X284694Y215673D01*
X282744Y216481D01*
X281251Y217974D01*
X280443Y219924D01*
X280443Y222036D01*
X281251Y223986D01*
X282076Y224810D01*
X282136Y224889D01*
X282204Y224961D01*
X282233Y225014D01*
X282270Y225062D01*
X282310Y225153D01*
X282358Y225239D01*
X282373Y225298D01*
X282397Y225354D01*
X282412Y225451D01*
X282437Y225547D01*
X282443Y225647D01*
X282447Y225668D01*
X282445Y225680D01*
X282447Y225708D01*
X282447Y229659D01*
X282435Y229757D01*
X282432Y229856D01*
X282415Y229914D01*
X282407Y229974D01*
X282371Y230066D01*
X282343Y230161D01*
X282313Y230214D01*
X282290Y230270D01*
X282232Y230350D01*
X282182Y230435D01*
X282116Y230511D01*
X282104Y230527D01*
X282094Y230535D01*
X282076Y230556D01*
X268561Y244071D01*
X268483Y244131D01*
X268411Y244199D01*
X268358Y244228D01*
X268310Y244265D01*
X268219Y244305D01*
X268132Y244353D01*
X268074Y244368D01*
X268018Y244392D01*
X267920Y244407D01*
X267824Y244432D01*
X267724Y244438D01*
X267704Y244442D01*
X267692Y244440D01*
X267664Y244442D01*
X266189Y244442D01*
X266051Y244425D01*
X265913Y244412D01*
X265894Y244405D01*
X265874Y244402D01*
X265745Y244351D01*
X265614Y244304D01*
X265597Y244293D01*
X265578Y244285D01*
X265466Y244204D01*
X265351Y244126D01*
X265337Y244110D01*
X265321Y244099D01*
X265232Y243991D01*
X265140Y243887D01*
X265131Y243869D01*
X265118Y243854D01*
X265059Y243728D01*
X264995Y243604D01*
X264991Y243584D01*
X264982Y243566D01*
X264956Y243430D01*
X264926Y243294D01*
X264926Y243273D01*
X264923Y243254D01*
X264931Y243115D01*
X264936Y242976D01*
X264941Y242956D01*
X264942Y242936D01*
X264985Y242804D01*
X265024Y242670D01*
X265034Y242653D01*
X265040Y242634D01*
X265115Y242516D01*
X265185Y242396D01*
X265204Y242375D01*
X265211Y242365D01*
X265226Y242351D01*
X265292Y242275D01*
X265484Y242083D01*
X266292Y240133D01*
X266292Y238022D01*
X265484Y236071D01*
X264151Y234739D01*
X264091Y234661D01*
X264023Y234589D01*
X263994Y234536D01*
X263957Y234488D01*
X263917Y234397D01*
X263869Y234310D01*
X263854Y234252D01*
X263830Y234196D01*
X263815Y234098D01*
X263790Y234002D01*
X263785Y233925D01*
X197273Y167414D01*
X197213Y167335D01*
X197145Y167263D01*
X197116Y167210D01*
X197079Y167162D01*
X197039Y167071D01*
X196991Y166985D01*
X196976Y166926D01*
X196952Y166871D01*
X196937Y166773D01*
X196912Y166677D01*
X196906Y166577D01*
X196902Y166556D01*
X196904Y166544D01*
X196902Y166516D01*
X196902Y164632D01*
X196094Y162681D01*
X194601Y161189D01*
X192651Y160381D01*
X190539Y160381D01*
X188589Y161189D01*
X187096Y162681D01*
X186288Y164632D01*
X186288Y166743D01*
X187096Y168694D01*
X188589Y170186D01*
X190539Y170994D01*
X192424Y170994D01*
X192522Y171007D01*
X192621Y171010D01*
X192679Y171026D01*
X192739Y171034D01*
X192831Y171071D01*
X192926Y171098D01*
X192979Y171129D01*
X193035Y171151D01*
X193115Y171209D01*
X193200Y171260D01*
X193276Y171326D01*
X193292Y171338D01*
X193300Y171347D01*
X193321Y171366D01*
X256359Y234404D01*
X256432Y234498D01*
X256511Y234587D01*
X256529Y234623D01*
X256554Y234655D01*
X256601Y234765D01*
X256655Y234871D01*
X256664Y234910D01*
X256680Y234947D01*
X256699Y235065D01*
X256725Y235181D01*
X256724Y235221D01*
X256730Y235261D01*
X256719Y235380D01*
X256715Y235499D01*
X256704Y235538D01*
X256700Y235578D01*
X256660Y235690D01*
X256627Y235804D01*
X256606Y235839D01*
X256593Y235877D01*
X256526Y235975D01*
X255678Y238022D01*
X255678Y240133D01*
X256486Y242083D01*
X256678Y242275D01*
X256763Y242385D01*
X256852Y242492D01*
X256861Y242511D01*
X256873Y242527D01*
X256928Y242654D01*
X256988Y242780D01*
X256991Y242800D01*
X256999Y242819D01*
X257021Y242956D01*
X257047Y243093D01*
X257046Y243113D01*
X257049Y243133D01*
X257036Y243271D01*
X257028Y243410D01*
X257021Y243429D01*
X257019Y243449D01*
X256972Y243581D01*
X256930Y243712D01*
X256919Y243729D01*
X256912Y243749D01*
X256834Y243864D01*
X256759Y243981D01*
X256745Y243995D01*
X256733Y244012D01*
X256629Y244104D01*
X256528Y244199D01*
X256510Y244209D01*
X256495Y244222D01*
X256371Y244286D01*
X256249Y244353D01*
X256230Y244358D01*
X256212Y244367D01*
X256076Y244397D01*
X255941Y244432D01*
X255913Y244434D01*
X255901Y244437D01*
X255881Y244436D01*
X255781Y244442D01*
X219159Y244442D01*
X219061Y244430D01*
X218962Y244427D01*
X218903Y244410D01*
X218843Y244402D01*
X218751Y244366D01*
X218656Y244338D01*
X218604Y244308D01*
X218548Y244285D01*
X218468Y244227D01*
X218382Y244177D01*
X218307Y244111D01*
X218290Y244099D01*
X218282Y244089D01*
X218261Y244071D01*
X204251Y230060D01*
X198882Y230060D01*
X198764Y230045D01*
X198645Y230037D01*
X198607Y230025D01*
X198566Y230020D01*
X198456Y229976D01*
X198343Y229939D01*
X198308Y229918D01*
X198271Y229903D01*
X198175Y229833D01*
X198074Y229769D01*
X198046Y229740D01*
X198013Y229716D01*
X197937Y229624D01*
X197856Y229538D01*
X197836Y229502D01*
X197811Y229471D01*
X197760Y229363D01*
X197702Y229259D01*
X197692Y229220D01*
X197675Y229183D01*
X197653Y229067D01*
X197623Y228951D01*
X197619Y228891D01*
X197615Y228871D01*
X197617Y228851D01*
X197613Y228791D01*
X197613Y227182D01*
X197630Y227045D01*
X197635Y226964D01*
X197639Y226953D01*
X197643Y226905D01*
X197650Y226886D01*
X197653Y226866D01*
X197704Y226737D01*
X197751Y226606D01*
X197762Y226589D01*
X197770Y226571D01*
X197851Y226458D01*
X197929Y226343D01*
X197945Y226330D01*
X197956Y226313D01*
X198064Y226225D01*
X198168Y226133D01*
X198186Y226123D01*
X198201Y226110D01*
X198327Y226051D01*
X198451Y225988D01*
X198471Y225983D01*
X198489Y225975D01*
X198625Y225949D01*
X198761Y225918D01*
X198782Y225919D01*
X198801Y225915D01*
X198940Y225924D01*
X199079Y225928D01*
X199099Y225934D01*
X199119Y225935D01*
X199251Y225978D01*
X199385Y226016D01*
X199402Y226027D01*
X199421Y226033D01*
X199504Y226085D01*
X199512Y226089D01*
X199533Y226103D01*
X199539Y226107D01*
X199659Y226178D01*
X199680Y226197D01*
X199690Y226203D01*
X199704Y226218D01*
X199768Y226274D01*
X199770Y226275D01*
X199771Y226276D01*
X199780Y226284D01*
X199994Y226499D01*
X201944Y227307D01*
X204056Y227307D01*
X206006Y226499D01*
X207499Y225006D01*
X208307Y223056D01*
X208307Y220944D01*
X207499Y218994D01*
X206166Y217662D01*
X206106Y217583D01*
X206038Y217511D01*
X206009Y217458D01*
X205972Y217410D01*
X205932Y217319D01*
X205884Y217233D01*
X205869Y217174D01*
X205845Y217118D01*
X205830Y217021D01*
X205805Y216925D01*
X205799Y216825D01*
X205795Y216804D01*
X205797Y216792D01*
X205795Y216764D01*
X205795Y208783D01*
X203786Y206774D01*
X173844Y176833D01*
X173784Y176755D01*
X173716Y176682D01*
X173687Y176629D01*
X173650Y176582D01*
X173610Y176491D01*
X173562Y176404D01*
X173547Y176345D01*
X173523Y176290D01*
X173508Y176192D01*
X173483Y176096D01*
X173477Y175996D01*
X173473Y175976D01*
X173475Y175963D01*
X173473Y175935D01*
X173473Y156520D01*
X148166Y131214D01*
X148106Y131136D01*
X148038Y131064D01*
X148009Y131011D01*
X147972Y130963D01*
X147932Y130872D01*
X147884Y130785D01*
X147869Y130727D01*
X147845Y130671D01*
X147830Y130573D01*
X147805Y130477D01*
X147799Y130377D01*
X147795Y130357D01*
X147797Y130345D01*
X147795Y130317D01*
X147795Y85463D01*
X147807Y85365D01*
X147810Y85266D01*
X147827Y85208D01*
X147835Y85148D01*
X147871Y85055D01*
X147899Y84960D01*
X147929Y84908D01*
X147952Y84852D01*
X148010Y84772D01*
X148060Y84686D01*
X148126Y84611D01*
X148138Y84595D01*
X148148Y84587D01*
X148166Y84566D01*
X150089Y82643D01*
X150089Y52389D01*
X150101Y52291D01*
X150104Y52192D01*
X150121Y52134D01*
X150129Y52074D01*
X150165Y51982D01*
X150193Y51887D01*
X150223Y51834D01*
X150246Y51778D01*
X150304Y51698D01*
X150354Y51613D01*
X150420Y51537D01*
X150432Y51521D01*
X150442Y51513D01*
X150460Y51492D01*
X153274Y48678D01*
X153352Y48618D01*
X153424Y48550D01*
X153477Y48521D01*
X153525Y48484D01*
X153616Y48444D01*
X153703Y48396D01*
X153761Y48381D01*
X153817Y48357D01*
X153915Y48342D01*
X154011Y48317D01*
X154111Y48311D01*
X154131Y48307D01*
X154143Y48309D01*
X154171Y48307D01*
X156056Y48307D01*
X158006Y47499D01*
X159499Y46006D01*
X160307Y44056D01*
X160307Y41944D01*
X159499Y39994D01*
X158006Y38501D01*
X156056Y37693D01*
X153944Y37693D01*
X151994Y38501D01*
X150501Y39994D01*
X149693Y41944D01*
X149693Y43829D01*
X149681Y43927D01*
X149678Y44026D01*
X149661Y44084D01*
X149653Y44144D01*
X149617Y44236D01*
X149589Y44331D01*
X149559Y44384D01*
X149536Y44440D01*
X149478Y44520D01*
X149428Y44605D01*
X149362Y44681D01*
X149350Y44697D01*
X149340Y44705D01*
X149322Y44726D01*
X147969Y46078D01*
X147860Y46163D01*
X147753Y46252D01*
X147734Y46261D01*
X147718Y46273D01*
X147591Y46328D01*
X147465Y46388D01*
X147445Y46391D01*
X147426Y46399D01*
X147288Y46421D01*
X147152Y46447D01*
X147132Y46446D01*
X147112Y46449D01*
X146973Y46436D01*
X146835Y46428D01*
X146816Y46421D01*
X146796Y46420D01*
X146664Y46372D01*
X146533Y46330D01*
X146515Y46319D01*
X146496Y46312D01*
X146381Y46234D01*
X146264Y46159D01*
X146250Y46145D01*
X146233Y46133D01*
X146141Y46029D01*
X146046Y45928D01*
X146036Y45910D01*
X146023Y45895D01*
X145959Y45771D01*
X145892Y45649D01*
X145887Y45630D01*
X145878Y45612D01*
X145848Y45476D01*
X145813Y45341D01*
X145811Y45313D01*
X145808Y45301D01*
X145809Y45281D01*
X145803Y45181D01*
X145803Y36378D01*
X145806Y36348D01*
X145804Y36319D01*
X145826Y36191D01*
X145843Y36062D01*
X145853Y36035D01*
X145858Y36006D01*
X145912Y35887D01*
X145960Y35766D01*
X145977Y35743D01*
X145989Y35716D01*
X146070Y35614D01*
X146146Y35509D01*
X146169Y35490D01*
X146188Y35467D01*
X146291Y35389D01*
X146391Y35306D01*
X146418Y35294D01*
X146442Y35276D01*
X146586Y35205D01*
X148831Y34275D01*
X151975Y31131D01*
X153677Y27023D01*
X153677Y22577D01*
X151975Y18469D01*
X148831Y15325D01*
X144723Y13623D01*
X140277Y13623D01*
X136169Y15325D01*
X133025Y18469D01*
X131246Y22764D01*
X131182Y22876D01*
X131123Y22991D01*
X131103Y23014D01*
X131088Y23040D01*
X130998Y23133D01*
X130913Y23230D01*
X130888Y23247D01*
X130867Y23269D01*
X130757Y23336D01*
X130650Y23409D01*
X130622Y23419D01*
X130596Y23435D01*
X130472Y23473D01*
X130351Y23517D01*
X130321Y23520D01*
X130292Y23528D01*
X130163Y23534D01*
X130034Y23547D01*
X130004Y23542D01*
X129974Y23543D01*
X129848Y23517D01*
X129720Y23497D01*
X129692Y23485D01*
X129663Y23479D01*
X129546Y23422D01*
X129428Y23371D01*
X129404Y23353D01*
X129377Y23339D01*
X129279Y23255D01*
X129177Y23177D01*
X129158Y23153D01*
X129135Y23133D01*
X129061Y23027D01*
X128981Y22925D01*
X128969Y22898D01*
X128952Y22873D01*
X128906Y22752D01*
X128855Y22634D01*
X128845Y22592D01*
X128839Y22576D01*
X128837Y22554D01*
X128820Y22477D01*
X128745Y22004D01*
X128164Y20217D01*
X127311Y18543D01*
X126206Y17022D01*
X124878Y15694D01*
X123357Y14589D01*
X121683Y13736D01*
X119896Y13155D01*
X119639Y13115D01*
X119639Y23530D01*
X119624Y23648D01*
X119617Y23767D01*
X119604Y23805D01*
X119599Y23845D01*
X119556Y23956D01*
X119519Y24069D01*
X119497Y24103D01*
X119482Y24141D01*
X119412Y24237D01*
X119349Y24338D01*
X119319Y24366D01*
X119295Y24398D01*
X119204Y24474D01*
X119117Y24556D01*
X119082Y24575D01*
X119051Y24601D01*
X118943Y24652D01*
X118839Y24709D01*
X118799Y24720D01*
X118763Y24737D01*
X118646Y24759D01*
X118531Y24789D01*
X118470Y24793D01*
X118450Y24797D01*
X118430Y24795D01*
X118370Y24799D01*
X117099Y24799D01*
X117099Y24801D01*
X118370Y24801D01*
X118488Y24816D01*
X118607Y24823D01*
X118645Y24836D01*
X118685Y24841D01*
X118796Y24885D01*
X118909Y24921D01*
X118944Y24943D01*
X118981Y24958D01*
X119077Y25028D01*
X119178Y25091D01*
X119206Y25121D01*
X119239Y25145D01*
X119314Y25236D01*
X119396Y25323D01*
X119416Y25358D01*
X119441Y25390D01*
X119492Y25497D01*
X119550Y25602D01*
X119560Y25641D01*
X119577Y25677D01*
X119599Y25794D01*
X119629Y25909D01*
X119633Y25970D01*
X119637Y25990D01*
X119635Y26010D01*
X119639Y26070D01*
X119639Y36485D01*
X119896Y36445D01*
X121683Y35864D01*
X123357Y35011D01*
X124878Y33906D01*
X126206Y32578D01*
X127311Y31057D01*
X128164Y29383D01*
X128745Y27596D01*
X128820Y27123D01*
X128855Y27000D01*
X128886Y26874D01*
X128900Y26847D01*
X128908Y26818D01*
X128974Y26707D01*
X129034Y26593D01*
X129055Y26570D01*
X129070Y26544D01*
X129162Y26453D01*
X129248Y26357D01*
X129274Y26341D01*
X129295Y26319D01*
X129406Y26253D01*
X129514Y26182D01*
X129543Y26173D01*
X129569Y26157D01*
X129693Y26121D01*
X129815Y26079D01*
X129845Y26077D01*
X129874Y26068D01*
X130003Y26064D01*
X130132Y26054D01*
X130162Y26059D01*
X130192Y26058D01*
X130318Y26086D01*
X130445Y26108D01*
X130473Y26121D01*
X130502Y26127D01*
X130617Y26186D01*
X130735Y26239D01*
X130759Y26258D01*
X130786Y26271D01*
X130882Y26357D01*
X130984Y26438D01*
X131002Y26462D01*
X131024Y26482D01*
X131097Y26588D01*
X131175Y26692D01*
X131194Y26730D01*
X131203Y26744D01*
X131211Y26765D01*
X131246Y26836D01*
X133025Y31131D01*
X136169Y34275D01*
X138414Y35205D01*
X138439Y35220D01*
X138467Y35229D01*
X138577Y35298D01*
X138690Y35363D01*
X138711Y35383D01*
X138736Y35399D01*
X138825Y35494D01*
X138918Y35584D01*
X138934Y35609D01*
X138954Y35631D01*
X139017Y35744D01*
X139085Y35855D01*
X139093Y35883D01*
X139108Y35909D01*
X139140Y36035D01*
X139178Y36159D01*
X139180Y36188D01*
X139187Y36217D01*
X139197Y36378D01*
X139197Y77606D01*
X139185Y77704D01*
X139182Y77803D01*
X139165Y77862D01*
X139157Y77922D01*
X139121Y78014D01*
X139093Y78109D01*
X139063Y78161D01*
X139040Y78217D01*
X138982Y78297D01*
X138932Y78383D01*
X138866Y78458D01*
X138854Y78475D01*
X138844Y78483D01*
X138826Y78504D01*
X129004Y88326D01*
X128925Y88386D01*
X128853Y88454D01*
X128800Y88483D01*
X128752Y88520D01*
X128661Y88560D01*
X128575Y88608D01*
X128516Y88623D01*
X128461Y88647D01*
X128363Y88662D01*
X128267Y88687D01*
X128167Y88693D01*
X128146Y88697D01*
X128134Y88695D01*
X128106Y88697D01*
X93632Y88697D01*
X86480Y95850D01*
X86401Y95910D01*
X86329Y95978D01*
X86276Y96007D01*
X86228Y96044D01*
X86137Y96084D01*
X86051Y96132D01*
X85992Y96147D01*
X85937Y96171D01*
X85839Y96186D01*
X85743Y96211D01*
X85643Y96217D01*
X85623Y96221D01*
X85610Y96219D01*
X85582Y96221D01*
X85435Y96221D01*
X83221Y98435D01*
X83221Y99748D01*
X83209Y99846D01*
X83206Y99945D01*
X83189Y100004D01*
X83181Y100064D01*
X83145Y100156D01*
X83117Y100251D01*
X83087Y100303D01*
X83064Y100359D01*
X83006Y100439D01*
X82956Y100525D01*
X82890Y100600D01*
X82878Y100617D01*
X82868Y100624D01*
X82850Y100646D01*
X82501Y100994D01*
X81693Y102944D01*
X81693Y104110D01*
X81681Y104208D01*
X81678Y104307D01*
X81661Y104366D01*
X81653Y104426D01*
X81617Y104518D01*
X81589Y104613D01*
X81559Y104665D01*
X81536Y104721D01*
X81478Y104801D01*
X81428Y104887D01*
X81362Y104962D01*
X81350Y104979D01*
X81340Y104987D01*
X81322Y105008D01*
X76697Y109632D01*
X76697Y138272D01*
X76685Y138370D01*
X76682Y138469D01*
X76665Y138528D01*
X76657Y138588D01*
X76621Y138680D01*
X76593Y138775D01*
X76563Y138827D01*
X76540Y138883D01*
X76482Y138963D01*
X76432Y139049D01*
X76366Y139124D01*
X76354Y139141D01*
X76344Y139148D01*
X76326Y139170D01*
X75501Y139994D01*
X74693Y141944D01*
X74693Y144056D01*
X75501Y146006D01*
X76326Y146830D01*
X76386Y146909D01*
X76454Y146981D01*
X76483Y147034D01*
X76520Y147082D01*
X76560Y147173D01*
X76608Y147259D01*
X76623Y147318D01*
X76647Y147374D01*
X76662Y147471D01*
X76687Y147567D01*
X76693Y147667D01*
X76697Y147688D01*
X76695Y147700D01*
X76697Y147728D01*
X76697Y148936D01*
X76682Y149054D01*
X76675Y149173D01*
X76662Y149211D01*
X76657Y149252D01*
X76614Y149362D01*
X76577Y149475D01*
X76555Y149510D01*
X76540Y149547D01*
X76471Y149643D01*
X76407Y149744D01*
X76377Y149772D01*
X76354Y149805D01*
X76262Y149881D01*
X76175Y149962D01*
X76140Y149982D01*
X76109Y150007D01*
X76001Y150058D01*
X75897Y150116D01*
X75857Y150126D01*
X75821Y150143D01*
X75704Y150165D01*
X75589Y150195D01*
X75529Y150199D01*
X75509Y150203D01*
X75488Y150201D01*
X75428Y150205D01*
X68683Y150205D01*
X68585Y150193D01*
X68486Y150190D01*
X68428Y150173D01*
X68368Y150165D01*
X68276Y150129D01*
X68181Y150101D01*
X68128Y150071D01*
X68072Y150048D01*
X67992Y149990D01*
X67907Y149940D01*
X67831Y149874D01*
X67815Y149862D01*
X67807Y149852D01*
X67786Y149834D01*
X62166Y144214D01*
X62106Y144136D01*
X62038Y144064D01*
X62009Y144011D01*
X61972Y143963D01*
X61932Y143872D01*
X61884Y143785D01*
X61869Y143727D01*
X61845Y143671D01*
X61830Y143573D01*
X61805Y143477D01*
X61799Y143377D01*
X61795Y143357D01*
X61797Y143345D01*
X61795Y143317D01*
X61795Y121236D01*
X61807Y121138D01*
X61810Y121039D01*
X61827Y120980D01*
X61835Y120920D01*
X61871Y120828D01*
X61899Y120733D01*
X61929Y120681D01*
X61952Y120625D01*
X62010Y120545D01*
X62060Y120459D01*
X62126Y120384D01*
X62138Y120367D01*
X62148Y120360D01*
X62166Y120338D01*
X63499Y119006D01*
X64307Y117056D01*
X64307Y114944D01*
X63499Y112994D01*
X62420Y111916D01*
X62360Y111837D01*
X62292Y111765D01*
X62263Y111712D01*
X62226Y111664D01*
X62186Y111573D01*
X62138Y111487D01*
X62123Y111428D01*
X62099Y111372D01*
X62084Y111275D01*
X62059Y111179D01*
X62053Y111079D01*
X62049Y111058D01*
X62051Y111046D01*
X62049Y111018D01*
X62049Y105789D01*
X62061Y105690D01*
X62064Y105591D01*
X62081Y105533D01*
X62089Y105473D01*
X62125Y105381D01*
X62153Y105286D01*
X62183Y105234D01*
X62206Y105177D01*
X62264Y105097D01*
X62314Y105012D01*
X62380Y104937D01*
X62392Y104920D01*
X62402Y104912D01*
X62420Y104891D01*
X85891Y81420D01*
X85969Y81360D01*
X86041Y81292D01*
X86094Y81263D01*
X86142Y81226D01*
X86233Y81186D01*
X86320Y81138D01*
X86379Y81123D01*
X86434Y81099D01*
X86532Y81084D01*
X86628Y81059D01*
X86728Y81053D01*
X86748Y81049D01*
X86761Y81051D01*
X86789Y81049D01*
X92018Y81049D01*
X92116Y81061D01*
X92215Y81064D01*
X92274Y81081D01*
X92334Y81089D01*
X92426Y81125D01*
X92521Y81153D01*
X92573Y81183D01*
X92629Y81206D01*
X92709Y81264D01*
X92795Y81314D01*
X92870Y81380D01*
X92887Y81392D01*
X92894Y81402D01*
X92916Y81420D01*
X93994Y82499D01*
X95944Y83307D01*
X98056Y83307D01*
X100006Y82499D01*
X101499Y81006D01*
X102307Y79056D01*
X102307Y76944D01*
X101499Y74994D01*
X100006Y73501D01*
X98056Y72693D01*
X95944Y72693D01*
X93994Y73501D01*
X92916Y74580D01*
X92837Y74640D01*
X92765Y74708D01*
X92712Y74737D01*
X92664Y74774D01*
X92573Y74814D01*
X92487Y74862D01*
X92428Y74877D01*
X92372Y74901D01*
X92275Y74916D01*
X92179Y74941D01*
X92079Y74947D01*
X92058Y74951D01*
X92046Y74949D01*
X92018Y74951D01*
X83737Y74951D01*
X55951Y102737D01*
X55951Y104534D01*
X55943Y104603D01*
X55944Y104673D01*
X55923Y104760D01*
X55911Y104849D01*
X55886Y104914D01*
X55869Y104982D01*
X55827Y105062D01*
X55794Y105145D01*
X55753Y105201D01*
X55721Y105263D01*
X55660Y105330D01*
X55608Y105402D01*
X55554Y105447D01*
X55507Y105499D01*
X55432Y105548D01*
X55363Y105605D01*
X55299Y105635D01*
X55241Y105673D01*
X55156Y105702D01*
X55075Y105741D01*
X55006Y105754D01*
X54940Y105776D01*
X54851Y105784D01*
X54763Y105800D01*
X54693Y105796D01*
X54623Y105802D01*
X54535Y105786D01*
X54445Y105781D01*
X54379Y105759D01*
X54310Y105747D01*
X54228Y105710D01*
X54143Y105683D01*
X54084Y105645D01*
X54020Y105617D01*
X53950Y105560D01*
X53874Y105512D01*
X53826Y105462D01*
X53771Y105418D01*
X53717Y105346D01*
X53656Y105281D01*
X53622Y105220D01*
X53580Y105164D01*
X53509Y105019D01*
X53499Y104994D01*
X52006Y103501D01*
X50056Y102693D01*
X47944Y102693D01*
X45994Y103501D01*
X44501Y104994D01*
X43693Y106944D01*
X43693Y109056D01*
X44501Y111006D01*
X44850Y111354D01*
X44910Y111433D01*
X44978Y111505D01*
X45007Y111558D01*
X45044Y111606D01*
X45084Y111697D01*
X45132Y111783D01*
X45147Y111842D01*
X45171Y111898D01*
X45186Y111995D01*
X45211Y112091D01*
X45217Y112191D01*
X45221Y112212D01*
X45219Y112224D01*
X45221Y112252D01*
X45221Y121748D01*
X45209Y121846D01*
X45206Y121945D01*
X45189Y122004D01*
X45181Y122064D01*
X45145Y122156D01*
X45117Y122251D01*
X45087Y122303D01*
X45064Y122359D01*
X45006Y122439D01*
X44956Y122525D01*
X44890Y122600D01*
X44878Y122617D01*
X44868Y122624D01*
X44850Y122646D01*
X44501Y122994D01*
X43693Y124944D01*
X43693Y127056D01*
X44501Y129006D01*
X45580Y130084D01*
X45640Y130163D01*
X45708Y130235D01*
X45737Y130288D01*
X45774Y130336D01*
X45814Y130427D01*
X45862Y130513D01*
X45877Y130572D01*
X45901Y130628D01*
X45916Y130725D01*
X45941Y130821D01*
X45947Y130921D01*
X45951Y130942D01*
X45949Y130954D01*
X45951Y130982D01*
X45951Y147018D01*
X45939Y147116D01*
X45936Y147215D01*
X45919Y147274D01*
X45911Y147334D01*
X45875Y147426D01*
X45847Y147521D01*
X45817Y147573D01*
X45794Y147629D01*
X45736Y147709D01*
X45686Y147795D01*
X45620Y147870D01*
X45608Y147887D01*
X45598Y147894D01*
X45580Y147916D01*
X44916Y148580D01*
X44837Y148640D01*
X44765Y148708D01*
X44712Y148737D01*
X44664Y148774D01*
X44573Y148814D01*
X44487Y148862D01*
X44428Y148877D01*
X44372Y148901D01*
X44275Y148916D01*
X44179Y148941D01*
X44079Y148947D01*
X44058Y148951D01*
X44046Y148949D01*
X44018Y148951D01*
X26737Y148951D01*
X24580Y151109D01*
X20109Y155580D01*
X17951Y157737D01*
X17951Y180018D01*
X17939Y180116D01*
X17936Y180215D01*
X17919Y180274D01*
X17911Y180334D01*
X17875Y180426D01*
X17847Y180521D01*
X17817Y180573D01*
X17794Y180629D01*
X17736Y180710D01*
X17686Y180795D01*
X17620Y180870D01*
X17608Y180887D01*
X17598Y180895D01*
X17579Y180916D01*
X16501Y181994D01*
X15693Y183944D01*
X15693Y186056D01*
X16501Y188006D01*
X17994Y189499D01*
X19944Y190307D01*
X22056Y190307D01*
X24006Y189499D01*
X25499Y188006D01*
X26307Y186056D01*
X26307Y183944D01*
X25499Y181994D01*
X24421Y180916D01*
X24360Y180838D01*
X24292Y180765D01*
X24263Y180712D01*
X24226Y180664D01*
X24186Y180574D01*
X24138Y180487D01*
X24123Y180428D01*
X24099Y180373D01*
X24084Y180275D01*
X24059Y180179D01*
X24053Y180079D01*
X24049Y180058D01*
X24051Y180046D01*
X24049Y180018D01*
X24049Y160789D01*
X24061Y160690D01*
X24064Y160591D01*
X24081Y160533D01*
X24089Y160473D01*
X24125Y160381D01*
X24153Y160286D01*
X24183Y160234D01*
X24206Y160177D01*
X24264Y160097D01*
X24314Y160012D01*
X24380Y159936D01*
X24392Y159920D01*
X24402Y159912D01*
X24420Y159891D01*
X28891Y155420D01*
X28969Y155360D01*
X29041Y155292D01*
X29094Y155263D01*
X29142Y155226D01*
X29233Y155186D01*
X29320Y155138D01*
X29378Y155123D01*
X29434Y155099D01*
X29532Y155084D01*
X29628Y155059D01*
X29728Y155053D01*
X29748Y155049D01*
X29761Y155051D01*
X29789Y155049D01*
X30407Y155049D01*
X30457Y155055D01*
X30506Y155053D01*
X30614Y155075D01*
X30723Y155089D01*
X30769Y155107D01*
X30818Y155117D01*
X30916Y155165D01*
X31019Y155206D01*
X31059Y155235D01*
X31103Y155257D01*
X31187Y155328D01*
X31276Y155392D01*
X31308Y155431D01*
X31345Y155463D01*
X31409Y155553D01*
X31479Y155637D01*
X31500Y155682D01*
X31529Y155723D01*
X31567Y155826D01*
X31614Y155925D01*
X31624Y155974D01*
X31641Y156020D01*
X31653Y156130D01*
X31674Y156237D01*
X31671Y156287D01*
X31676Y156336D01*
X31661Y156445D01*
X31654Y156555D01*
X31639Y156602D01*
X31632Y156651D01*
X31580Y156804D01*
X30693Y158944D01*
X30693Y161056D01*
X31501Y163006D01*
X32994Y164499D01*
X34944Y165307D01*
X37056Y165307D01*
X39006Y164499D01*
X40084Y163420D01*
X40163Y163360D01*
X40235Y163292D01*
X40288Y163263D01*
X40336Y163226D01*
X40427Y163186D01*
X40513Y163138D01*
X40572Y163123D01*
X40628Y163099D01*
X40725Y163084D01*
X40821Y163059D01*
X40921Y163053D01*
X40942Y163049D01*
X40954Y163051D01*
X40982Y163049D01*
X71553Y163049D01*
X71652Y163061D01*
X71751Y163064D01*
X71809Y163081D01*
X71869Y163089D01*
X71961Y163125D01*
X72056Y163153D01*
X72108Y163183D01*
X72165Y163206D01*
X72245Y163264D01*
X72330Y163314D01*
X72405Y163380D01*
X72422Y163392D01*
X72430Y163402D01*
X72451Y163420D01*
X74322Y165291D01*
X74382Y165369D01*
X74450Y165441D01*
X74479Y165494D01*
X74516Y165542D01*
X74556Y165633D01*
X74604Y165720D01*
X74619Y165779D01*
X74643Y165834D01*
X74658Y165932D01*
X74683Y166028D01*
X74689Y166128D01*
X74693Y166148D01*
X74691Y166161D01*
X74693Y166189D01*
X74693Y167714D01*
X75501Y169664D01*
X76994Y171157D01*
X78944Y171965D01*
X81056Y171965D01*
X83006Y171157D01*
X83038Y171124D01*
X83148Y171039D01*
X83255Y170950D01*
X83274Y170942D01*
X83290Y170929D01*
X83418Y170874D01*
X83543Y170815D01*
X83563Y170811D01*
X83582Y170803D01*
X83719Y170781D01*
X83856Y170755D01*
X83876Y170756D01*
X83896Y170753D01*
X84034Y170766D01*
X84173Y170775D01*
X84192Y170781D01*
X84212Y170783D01*
X84343Y170830D01*
X84475Y170873D01*
X84493Y170884D01*
X84512Y170891D01*
X84626Y170969D01*
X84744Y171043D01*
X84758Y171058D01*
X84775Y171069D01*
X84867Y171173D01*
X84962Y171275D01*
X84972Y171292D01*
X84985Y171308D01*
X85048Y171431D01*
X85116Y171553D01*
X85121Y171573D01*
X85130Y171591D01*
X85160Y171727D01*
X85195Y171861D01*
X85197Y171889D01*
X85200Y171901D01*
X85199Y171922D01*
X85205Y172022D01*
X85205Y247098D01*
X85199Y247148D01*
X85201Y247197D01*
X85179Y247305D01*
X85165Y247414D01*
X85147Y247460D01*
X85137Y247509D01*
X85089Y247607D01*
X85048Y247710D01*
X85019Y247750D01*
X84997Y247794D01*
X84926Y247878D01*
X84862Y247967D01*
X84823Y247999D01*
X84791Y248036D01*
X84701Y248100D01*
X84617Y248170D01*
X84572Y248191D01*
X84531Y248220D01*
X84428Y248258D01*
X84329Y248305D01*
X84280Y248315D01*
X84234Y248332D01*
X84124Y248344D01*
X84017Y248365D01*
X83967Y248362D01*
X83918Y248367D01*
X83809Y248352D01*
X83699Y248345D01*
X83652Y248330D01*
X83603Y248323D01*
X83450Y248271D01*
X82056Y247693D01*
X79944Y247693D01*
X77994Y248501D01*
X76916Y249580D01*
X76837Y249640D01*
X76765Y249708D01*
X76712Y249737D01*
X76664Y249774D01*
X76573Y249814D01*
X76487Y249862D01*
X76428Y249877D01*
X76372Y249901D01*
X76275Y249916D01*
X76179Y249941D01*
X76079Y249947D01*
X76058Y249951D01*
X76046Y249949D01*
X76018Y249951D01*
X57789Y249951D01*
X57690Y249939D01*
X57591Y249936D01*
X57533Y249919D01*
X57473Y249911D01*
X57381Y249875D01*
X57286Y249847D01*
X57234Y249817D01*
X57177Y249794D01*
X57097Y249736D01*
X57012Y249686D01*
X56937Y249620D01*
X56920Y249608D01*
X56912Y249598D01*
X56891Y249580D01*
X45678Y238367D01*
X45618Y238289D01*
X45550Y238217D01*
X45521Y238164D01*
X45484Y238116D01*
X45444Y238025D01*
X45396Y237938D01*
X45381Y237879D01*
X45357Y237824D01*
X45342Y237726D01*
X45317Y237630D01*
X45311Y237530D01*
X45307Y237510D01*
X45309Y237497D01*
X45307Y237469D01*
X45307Y235944D01*
X44499Y233994D01*
X43006Y232501D01*
X41056Y231693D01*
X38944Y231693D01*
X36994Y232501D01*
X35501Y233994D01*
X35491Y234019D01*
X35456Y234080D01*
X35430Y234145D01*
X35378Y234218D01*
X35333Y234296D01*
X35285Y234346D01*
X35244Y234402D01*
X35174Y234460D01*
X35112Y234524D01*
X35052Y234561D01*
X34999Y234605D01*
X34917Y234643D01*
X34841Y234690D01*
X34774Y234711D01*
X34711Y234741D01*
X34623Y234757D01*
X34537Y234784D01*
X34467Y234787D01*
X34398Y234800D01*
X34309Y234795D01*
X34219Y234799D01*
X34151Y234785D01*
X34081Y234781D01*
X33996Y234753D01*
X33908Y234735D01*
X33845Y234704D01*
X33779Y234683D01*
X33703Y234635D01*
X33622Y234595D01*
X33569Y234550D01*
X33510Y234512D01*
X33448Y234447D01*
X33380Y234389D01*
X33340Y234332D01*
X33292Y234281D01*
X33249Y234202D01*
X33197Y234129D01*
X33172Y234063D01*
X33138Y234002D01*
X33116Y233915D01*
X33084Y233831D01*
X33076Y233762D01*
X33059Y233694D01*
X33049Y233534D01*
X33049Y225789D01*
X33061Y225690D01*
X33064Y225591D01*
X33081Y225533D01*
X33089Y225473D01*
X33125Y225381D01*
X33153Y225286D01*
X33183Y225234D01*
X33206Y225177D01*
X33264Y225097D01*
X33314Y225012D01*
X33380Y224937D01*
X33392Y224920D01*
X33402Y224912D01*
X33420Y224891D01*
X33891Y224420D01*
X33969Y224360D01*
X34041Y224292D01*
X34094Y224263D01*
X34142Y224226D01*
X34233Y224186D01*
X34320Y224138D01*
X34379Y224123D01*
X34434Y224099D01*
X34532Y224084D01*
X34628Y224059D01*
X34728Y224053D01*
X34748Y224049D01*
X34761Y224051D01*
X34789Y224049D01*
X48263Y224049D01*
X65633Y206678D01*
X65711Y206618D01*
X65783Y206550D01*
X65836Y206521D01*
X65884Y206484D01*
X65975Y206444D01*
X66062Y206396D01*
X66121Y206381D01*
X66176Y206357D01*
X66274Y206342D01*
X66370Y206317D01*
X66470Y206311D01*
X66490Y206307D01*
X66503Y206309D01*
X66531Y206307D01*
X68056Y206307D01*
X70196Y205420D01*
X70244Y205407D01*
X70289Y205386D01*
X70397Y205365D01*
X70503Y205336D01*
X70553Y205335D01*
X70602Y205326D01*
X70711Y205333D01*
X70821Y205331D01*
X70869Y205343D01*
X70919Y205346D01*
X71023Y205380D01*
X71130Y205405D01*
X71174Y205428D01*
X71221Y205444D01*
X71314Y205503D01*
X71411Y205554D01*
X71448Y205587D01*
X71490Y205614D01*
X71565Y205694D01*
X71647Y205768D01*
X71674Y205809D01*
X71708Y205846D01*
X71761Y205942D01*
X71821Y206034D01*
X71838Y206081D01*
X71862Y206124D01*
X71889Y206230D01*
X71925Y206334D01*
X71929Y206384D01*
X71941Y206432D01*
X71951Y206593D01*
X71951Y230018D01*
X71939Y230116D01*
X71936Y230215D01*
X71919Y230274D01*
X71911Y230334D01*
X71875Y230426D01*
X71847Y230521D01*
X71817Y230573D01*
X71794Y230629D01*
X71736Y230709D01*
X71686Y230795D01*
X71620Y230870D01*
X71608Y230887D01*
X71598Y230894D01*
X71580Y230916D01*
X70501Y231994D01*
X69693Y233944D01*
X69693Y236056D01*
X70501Y238006D01*
X71994Y239499D01*
X73944Y240307D01*
X76056Y240307D01*
X78006Y239499D01*
X79499Y238006D01*
X80307Y236056D01*
X80307Y233944D01*
X79499Y231994D01*
X78420Y230916D01*
X78360Y230837D01*
X78292Y230765D01*
X78263Y230712D01*
X78226Y230664D01*
X78186Y230573D01*
X78138Y230487D01*
X78123Y230428D01*
X78099Y230372D01*
X78084Y230275D01*
X78059Y230179D01*
X78053Y230079D01*
X78049Y230058D01*
X78051Y230046D01*
X78049Y230018D01*
X78049Y193737D01*
X68678Y184367D01*
X68618Y184289D01*
X68550Y184217D01*
X68521Y184164D01*
X68484Y184116D01*
X68444Y184025D01*
X68396Y183938D01*
X68381Y183879D01*
X68357Y183824D01*
X68342Y183726D01*
X68317Y183630D01*
X68311Y183530D01*
X68307Y183510D01*
X68309Y183497D01*
X68307Y183469D01*
X68307Y181944D01*
X67499Y179994D01*
X66006Y178501D01*
X64056Y177693D01*
X61944Y177693D01*
X59994Y178501D01*
X58501Y179994D01*
X57693Y181944D01*
X57693Y184056D01*
X58501Y186006D01*
X59994Y187499D01*
X61944Y188307D01*
X63469Y188307D01*
X63568Y188319D01*
X63667Y188322D01*
X63725Y188339D01*
X63785Y188347D01*
X63877Y188383D01*
X63972Y188411D01*
X64024Y188441D01*
X64081Y188464D01*
X64161Y188522D01*
X64246Y188572D01*
X64321Y188638D01*
X64338Y188650D01*
X64346Y188660D01*
X64367Y188678D01*
X69222Y193533D01*
X69265Y193589D01*
X69315Y193637D01*
X69362Y193714D01*
X69417Y193784D01*
X69444Y193849D01*
X69481Y193909D01*
X69507Y193994D01*
X69543Y194076D01*
X69554Y194146D01*
X69575Y194213D01*
X69579Y194302D01*
X69593Y194390D01*
X69586Y194460D01*
X69590Y194530D01*
X69571Y194618D01*
X69563Y194707D01*
X69539Y194773D01*
X69525Y194842D01*
X69486Y194922D01*
X69455Y195006D01*
X69416Y195064D01*
X69385Y195127D01*
X69327Y195195D01*
X69277Y195269D01*
X69224Y195316D01*
X69179Y195369D01*
X69106Y195421D01*
X69038Y195480D01*
X68976Y195512D01*
X68919Y195552D01*
X68835Y195584D01*
X68755Y195625D01*
X68687Y195640D01*
X68621Y195665D01*
X68532Y195675D01*
X68445Y195694D01*
X68375Y195692D01*
X68305Y195700D01*
X68259Y195693D01*
X65944Y195693D01*
X63994Y196501D01*
X62501Y197994D01*
X61693Y199944D01*
X61693Y201469D01*
X61681Y201568D01*
X61678Y201667D01*
X61661Y201725D01*
X61653Y201785D01*
X61617Y201877D01*
X61589Y201972D01*
X61559Y202024D01*
X61536Y202081D01*
X61478Y202161D01*
X61428Y202246D01*
X61362Y202321D01*
X61350Y202338D01*
X61340Y202346D01*
X61322Y202367D01*
X46109Y217580D01*
X46031Y217640D01*
X45959Y217708D01*
X45906Y217737D01*
X45858Y217774D01*
X45767Y217814D01*
X45680Y217862D01*
X45621Y217877D01*
X45566Y217901D01*
X45468Y217916D01*
X45372Y217941D01*
X45272Y217947D01*
X45252Y217951D01*
X45239Y217949D01*
X45211Y217951D01*
X31737Y217951D01*
X26951Y222737D01*
X26951Y255263D01*
X51322Y279633D01*
X51382Y279711D01*
X51450Y279783D01*
X51479Y279836D01*
X51516Y279884D01*
X51556Y279975D01*
X51604Y280062D01*
X51619Y280121D01*
X51643Y280176D01*
X51658Y280274D01*
X51683Y280370D01*
X51689Y280470D01*
X51693Y280490D01*
X51691Y280503D01*
X51693Y280531D01*
X51693Y282056D01*
X52501Y284006D01*
X53994Y285499D01*
X55944Y286307D01*
X56437Y286307D01*
X56535Y286319D01*
X56634Y286322D01*
X56692Y286339D01*
X56753Y286347D01*
X56845Y286383D01*
X56940Y286411D01*
X56992Y286441D01*
X57048Y286464D01*
X57128Y286522D01*
X57214Y286572D01*
X57289Y286638D01*
X57306Y286650D01*
X57313Y286660D01*
X57335Y286678D01*
X65850Y295193D01*
X65910Y295272D01*
X65978Y295344D01*
X66007Y295397D01*
X66044Y295445D01*
X66084Y295536D01*
X66132Y295622D01*
X66147Y295681D01*
X66171Y295737D01*
X66186Y295835D01*
X66211Y295930D01*
X66217Y296030D01*
X66221Y296051D01*
X66219Y296063D01*
X66221Y296091D01*
X66221Y393909D01*
X66209Y394007D01*
X66206Y394106D01*
X66189Y394164D01*
X66181Y394225D01*
X66145Y394317D01*
X66117Y394412D01*
X66087Y394464D01*
X66064Y394520D01*
X66006Y394600D01*
X65956Y394686D01*
X65890Y394761D01*
X65878Y394778D01*
X65868Y394785D01*
X65850Y394807D01*
X63554Y397102D01*
X63515Y397132D01*
X63481Y397169D01*
X63390Y397230D01*
X63303Y397297D01*
X63257Y397317D01*
X63216Y397344D01*
X63112Y397380D01*
X63011Y397423D01*
X62962Y397431D01*
X62915Y397447D01*
X62805Y397456D01*
X62697Y397473D01*
X62647Y397468D01*
X62598Y397472D01*
X62490Y397454D01*
X62380Y397443D01*
X62333Y397426D01*
X62284Y397418D01*
X62184Y397373D01*
X62081Y397336D01*
X62040Y397308D01*
X61994Y397287D01*
X61909Y397219D01*
X61818Y397157D01*
X61785Y397120D01*
X61746Y397089D01*
X61680Y397001D01*
X61607Y396919D01*
X61585Y396874D01*
X61555Y396835D01*
X61484Y396690D01*
X61475Y396669D01*
X58331Y393525D01*
X54223Y391823D01*
X49777Y391823D01*
X45669Y393525D01*
X42525Y396669D01*
X41602Y398897D01*
X41568Y398957D01*
X41542Y399022D01*
X41489Y399095D01*
X41445Y399173D01*
X41396Y399223D01*
X41355Y399279D01*
X41286Y399337D01*
X41223Y399401D01*
X41164Y399438D01*
X41110Y399482D01*
X41029Y399521D01*
X40952Y399567D01*
X40885Y399588D01*
X40822Y399618D01*
X40734Y399635D01*
X40648Y399661D01*
X40578Y399664D01*
X40510Y399678D01*
X40420Y399672D01*
X40331Y399676D01*
X40262Y399662D01*
X40193Y399658D01*
X40107Y399630D01*
X40019Y399612D01*
X39956Y399581D01*
X39890Y399560D01*
X39814Y399512D01*
X39733Y399472D01*
X39680Y399427D01*
X39621Y399390D01*
X39560Y399324D01*
X39491Y399266D01*
X39451Y399209D01*
X39403Y399158D01*
X39360Y399079D01*
X39308Y399006D01*
X39284Y398940D01*
X39250Y398879D01*
X39228Y398793D01*
X39196Y398708D01*
X39188Y398639D01*
X39170Y398572D01*
X39160Y398411D01*
X39160Y384036D01*
X39173Y383938D01*
X39176Y383839D01*
X39192Y383781D01*
X39200Y383721D01*
X39237Y383629D01*
X39264Y383534D01*
X39295Y383481D01*
X39317Y383425D01*
X39375Y383345D01*
X39426Y383260D01*
X39492Y383184D01*
X39504Y383168D01*
X39513Y383160D01*
X39532Y383139D01*
X45149Y377522D01*
X45172Y377504D01*
X45191Y377481D01*
X45297Y377407D01*
X45400Y377327D01*
X45427Y377315D01*
X45451Y377298D01*
X45573Y377252D01*
X45692Y377201D01*
X45721Y377196D01*
X45749Y377186D01*
X45878Y377171D01*
X46006Y377151D01*
X46035Y377154D01*
X46065Y377150D01*
X46193Y377169D01*
X46323Y377181D01*
X46350Y377191D01*
X46380Y377195D01*
X46532Y377247D01*
X48777Y378177D01*
X53223Y378177D01*
X57331Y376475D01*
X60475Y373331D01*
X62177Y369223D01*
X62177Y364777D01*
X60475Y360669D01*
X57331Y357525D01*
X53223Y355823D01*
X48777Y355823D01*
X47008Y356556D01*
X46980Y356564D01*
X46953Y356577D01*
X46826Y356606D01*
X46701Y356640D01*
X46672Y356640D01*
X46643Y356647D01*
X46513Y356643D01*
X46383Y356645D01*
X46354Y356638D01*
X46325Y356637D01*
X46200Y356601D01*
X46074Y356571D01*
X46048Y356557D01*
X46019Y356549D01*
X45908Y356483D01*
X45793Y356422D01*
X45771Y356402D01*
X45746Y356387D01*
X45625Y356281D01*
X45150Y355807D01*
X45090Y355728D01*
X45022Y355656D01*
X44993Y355603D01*
X44956Y355555D01*
X44916Y355464D01*
X44868Y355378D01*
X44853Y355319D01*
X44829Y355263D01*
X44814Y355166D01*
X44789Y355070D01*
X44783Y354970D01*
X44779Y354949D01*
X44781Y354937D01*
X44779Y354909D01*
X44779Y295252D01*
X44791Y295154D01*
X44794Y295055D01*
X44811Y294996D01*
X44819Y294936D01*
X44855Y294844D01*
X44883Y294749D01*
X44913Y294697D01*
X44936Y294641D01*
X44994Y294561D01*
X45044Y294475D01*
X45110Y294400D01*
X45122Y294383D01*
X45132Y294376D01*
X45150Y294354D01*
X45499Y294006D01*
X46307Y292056D01*
X46307Y289944D01*
X45499Y287994D01*
X44006Y286501D01*
X42056Y285693D01*
X39944Y285693D01*
X37994Y286501D01*
X36501Y287994D01*
X35693Y289944D01*
X35693Y292056D01*
X36501Y294006D01*
X36850Y294354D01*
X36910Y294433D01*
X36978Y294505D01*
X37007Y294558D01*
X37044Y294606D01*
X37084Y294697D01*
X37132Y294783D01*
X37147Y294842D01*
X37171Y294898D01*
X37186Y294995D01*
X37211Y295091D01*
X37217Y295191D01*
X37221Y295212D01*
X37219Y295224D01*
X37221Y295252D01*
X37221Y358565D01*
X40281Y361625D01*
X40299Y361648D01*
X40321Y361667D01*
X40396Y361773D01*
X40476Y361876D01*
X40488Y361903D01*
X40504Y361927D01*
X40550Y362049D01*
X40602Y362168D01*
X40607Y362197D01*
X40617Y362225D01*
X40632Y362354D01*
X40652Y362482D01*
X40649Y362511D01*
X40652Y362541D01*
X40634Y362669D01*
X40622Y362799D01*
X40612Y362826D01*
X40608Y362856D01*
X40556Y363008D01*
X39823Y364777D01*
X39823Y369223D01*
X40753Y371468D01*
X40761Y371497D01*
X40774Y371523D01*
X40803Y371650D01*
X40837Y371775D01*
X40838Y371804D01*
X40844Y371833D01*
X40840Y371963D01*
X40842Y372093D01*
X40835Y372121D01*
X40834Y372151D01*
X40798Y372276D01*
X40768Y372402D01*
X40754Y372428D01*
X40746Y372456D01*
X40680Y372568D01*
X40619Y372683D01*
X40599Y372705D01*
X40584Y372730D01*
X40478Y372851D01*
X34861Y378468D01*
X32555Y380774D01*
X32555Y397223D01*
X32546Y397292D01*
X32547Y397362D01*
X32526Y397449D01*
X32515Y397538D01*
X32489Y397603D01*
X32473Y397671D01*
X32431Y397750D01*
X32398Y397834D01*
X32357Y397890D01*
X32324Y397952D01*
X32264Y398019D01*
X32211Y398091D01*
X32157Y398136D01*
X32110Y398187D01*
X32035Y398237D01*
X31966Y398294D01*
X31903Y398324D01*
X31845Y398362D01*
X31760Y398391D01*
X31678Y398430D01*
X31610Y398443D01*
X31544Y398465D01*
X31454Y398473D01*
X31366Y398489D01*
X31296Y398485D01*
X31227Y398491D01*
X31138Y398475D01*
X31049Y398470D01*
X30982Y398448D01*
X30913Y398436D01*
X30831Y398399D01*
X30746Y398372D01*
X30687Y398334D01*
X30623Y398306D01*
X30553Y398250D01*
X30477Y398202D01*
X30430Y398151D01*
X30375Y398107D01*
X30321Y398035D01*
X30259Y397970D01*
X30226Y397909D01*
X30184Y397853D01*
X30113Y397708D01*
X29475Y396169D01*
X26331Y393025D01*
X22223Y391323D01*
X17777Y391323D01*
X13669Y393025D01*
X10525Y396169D01*
X10063Y397285D01*
X10028Y397345D01*
X10002Y397410D01*
X9950Y397483D01*
X9905Y397561D01*
X9857Y397611D01*
X9816Y397668D01*
X9746Y397725D01*
X9684Y397789D01*
X9624Y397826D01*
X9571Y397870D01*
X9489Y397909D01*
X9413Y397956D01*
X9346Y397976D01*
X9283Y398006D01*
X9195Y398023D01*
X9109Y398049D01*
X9039Y398053D01*
X8970Y398066D01*
X8881Y398060D01*
X8791Y398064D01*
X8723Y398050D01*
X8653Y398046D01*
X8568Y398018D01*
X8480Y398000D01*
X8417Y397969D01*
X8351Y397948D01*
X8275Y397900D01*
X8194Y397860D01*
X8141Y397815D01*
X8082Y397778D01*
X8020Y397712D01*
X7952Y397654D01*
X7912Y397597D01*
X7864Y397546D01*
X7821Y397468D01*
X7769Y397394D01*
X7744Y397329D01*
X7710Y397268D01*
X7688Y397181D01*
X7656Y397097D01*
X7648Y397027D01*
X7631Y396960D01*
X7621Y396799D01*
X7621Y373201D01*
X7629Y373132D01*
X7628Y373062D01*
X7649Y372974D01*
X7661Y372885D01*
X7686Y372820D01*
X7703Y372753D01*
X7745Y372673D01*
X7778Y372590D01*
X7819Y372533D01*
X7851Y372472D01*
X7912Y372405D01*
X7964Y372332D01*
X8018Y372288D01*
X8065Y372236D01*
X8140Y372187D01*
X8209Y372130D01*
X8273Y372100D01*
X8331Y372061D01*
X8416Y372032D01*
X8497Y371994D01*
X8566Y371981D01*
X8632Y371958D01*
X8721Y371951D01*
X8809Y371934D01*
X8879Y371939D01*
X8949Y371933D01*
X9037Y371948D01*
X9127Y371954D01*
X9193Y371975D01*
X9262Y371987D01*
X9344Y372024D01*
X9429Y372052D01*
X9488Y372089D01*
X9552Y372118D01*
X9622Y372174D01*
X9698Y372222D01*
X9746Y372273D01*
X9800Y372317D01*
X9855Y372388D01*
X9916Y372454D01*
X9950Y372515D01*
X9992Y372571D01*
X10063Y372715D01*
X10525Y373831D01*
X13669Y376975D01*
X17777Y378677D01*
X22223Y378677D01*
X26331Y376975D01*
X29475Y373831D01*
X31177Y369723D01*
X31177Y365277D01*
X29475Y361169D01*
X26331Y358025D01*
X22223Y356323D01*
X17777Y356323D01*
X13669Y358025D01*
X10525Y361169D01*
X10063Y362285D01*
X10028Y362345D01*
X10002Y362410D01*
X9950Y362483D01*
X9905Y362561D01*
X9857Y362611D01*
X9816Y362668D01*
X9746Y362725D01*
X9684Y362789D01*
X9624Y362826D01*
X9571Y362870D01*
X9489Y362909D01*
X9413Y362956D01*
X9346Y362976D01*
X9283Y363006D01*
X9195Y363023D01*
X9109Y363049D01*
X9039Y363053D01*
X8970Y363066D01*
X8881Y363060D01*
X8791Y363064D01*
X8723Y363050D01*
X8653Y363046D01*
X8568Y363018D01*
X8480Y363000D01*
X8417Y362969D01*
X8351Y362948D01*
X8275Y362900D01*
X8194Y362860D01*
X8141Y362815D01*
X8082Y362778D01*
X8020Y362712D01*
X7952Y362654D01*
X7912Y362597D01*
X7864Y362546D01*
X7821Y362468D01*
X7769Y362394D01*
X7744Y362329D01*
X7710Y362268D01*
X7688Y362181D01*
X7656Y362097D01*
X7648Y362027D01*
X7631Y361960D01*
X7621Y361799D01*
X7621Y34181D01*
X7638Y34044D01*
X7651Y33905D01*
X7658Y33886D01*
X7661Y33866D01*
X7712Y33737D01*
X7759Y33606D01*
X7770Y33589D01*
X7778Y33570D01*
X7859Y33457D01*
X7937Y33342D01*
X7953Y33329D01*
X7964Y33313D01*
X8072Y33224D01*
X8176Y33132D01*
X8194Y33123D01*
X8209Y33110D01*
X8335Y33051D01*
X8459Y32987D01*
X8479Y32983D01*
X8497Y32974D01*
X8633Y32948D01*
X8769Y32918D01*
X8790Y32918D01*
X8809Y32914D01*
X8948Y32923D01*
X9087Y32927D01*
X9107Y32933D01*
X9127Y32934D01*
X9259Y32977D01*
X9393Y33016D01*
X9410Y33026D01*
X9429Y33032D01*
X9547Y33107D01*
X9667Y33177D01*
X9688Y33196D01*
X9698Y33202D01*
X9712Y33217D01*
X9787Y33284D01*
X11885Y35381D01*
X16177Y37159D01*
X20823Y37159D01*
X25115Y35381D01*
X28401Y32095D01*
X30179Y27803D01*
X30179Y23157D01*
X28401Y18865D01*
X25115Y15579D01*
X20823Y13801D01*
X16177Y13801D01*
X11885Y15579D01*
X9787Y17676D01*
X9678Y17762D01*
X9571Y17850D01*
X9552Y17859D01*
X9536Y17871D01*
X9408Y17927D01*
X9283Y17986D01*
X9263Y17990D01*
X9244Y17998D01*
X9106Y18020D01*
X8970Y18046D01*
X8950Y18044D01*
X8930Y18047D01*
X8791Y18034D01*
X8653Y18026D01*
X8634Y18020D01*
X8614Y18018D01*
X8482Y17970D01*
X8351Y17928D01*
X8333Y17917D01*
X8314Y17910D01*
X8199Y17832D01*
X8082Y17758D01*
X8068Y17743D01*
X8051Y17731D01*
X7959Y17627D01*
X7864Y17526D01*
X7854Y17508D01*
X7841Y17493D01*
X7777Y17369D01*
X7710Y17247D01*
X7705Y17228D01*
X7696Y17210D01*
X7666Y17074D01*
X7631Y16940D01*
X7629Y16911D01*
X7626Y16899D01*
X7627Y16879D01*
X7621Y16779D01*
X7621Y8890D01*
X7636Y8772D01*
X7643Y8653D01*
X7656Y8615D01*
X7661Y8574D01*
X7704Y8464D01*
X7741Y8351D01*
X7763Y8316D01*
X7778Y8279D01*
X7847Y8183D01*
X7911Y8082D01*
X7941Y8054D01*
X7964Y8021D01*
X8056Y7945D01*
X8143Y7864D01*
X8178Y7844D01*
X8209Y7819D01*
X8317Y7768D01*
X8421Y7710D01*
X8461Y7700D01*
X8497Y7683D01*
X8614Y7661D01*
X8729Y7631D01*
X8789Y7627D01*
X8809Y7623D01*
X8830Y7625D01*
X8890Y7621D01*
X258968Y7621D01*
X259037Y7629D01*
G37*
G36*
X222443Y306807D02*
X222443Y306807D01*
X222512Y306809D01*
X222599Y306834D01*
X222687Y306849D01*
X222751Y306878D01*
X222818Y306897D01*
X222895Y306943D01*
X222977Y306980D01*
X223032Y307023D01*
X223092Y307059D01*
X223213Y307165D01*
X230322Y314274D01*
X230382Y314352D01*
X230450Y314424D01*
X230479Y314477D01*
X230516Y314525D01*
X230556Y314616D01*
X230604Y314703D01*
X230619Y314761D01*
X230643Y314817D01*
X230658Y314915D01*
X230683Y315011D01*
X230689Y315111D01*
X230693Y315131D01*
X230691Y315143D01*
X230693Y315171D01*
X230693Y317056D01*
X231501Y319006D01*
X232994Y320499D01*
X234944Y321307D01*
X237056Y321307D01*
X237823Y320989D01*
X237852Y320981D01*
X237878Y320968D01*
X238005Y320939D01*
X238130Y320905D01*
X238160Y320904D01*
X238188Y320898D01*
X238318Y320902D01*
X238448Y320900D01*
X238477Y320907D01*
X238506Y320908D01*
X238631Y320944D01*
X238757Y320974D01*
X238783Y320988D01*
X238812Y320996D01*
X238924Y321062D01*
X239038Y321123D01*
X239060Y321142D01*
X239086Y321157D01*
X239207Y321264D01*
X243635Y325692D01*
X265969Y325692D01*
X266067Y325705D01*
X266166Y325708D01*
X266225Y325724D01*
X266285Y325732D01*
X266377Y325769D01*
X266472Y325796D01*
X266524Y325827D01*
X266580Y325849D01*
X266660Y325907D01*
X266746Y325958D01*
X266821Y326024D01*
X266838Y326036D01*
X266845Y326045D01*
X266867Y326064D01*
X286394Y345591D01*
X286454Y345669D01*
X286522Y345741D01*
X286551Y345794D01*
X286588Y345842D01*
X286628Y345933D01*
X286676Y346020D01*
X286691Y346078D01*
X286715Y346134D01*
X286730Y346232D01*
X286755Y346328D01*
X286761Y346421D01*
X286763Y346430D01*
X286762Y346434D01*
X286765Y346448D01*
X286763Y346460D01*
X286765Y346488D01*
X286765Y346915D01*
X288299Y348448D01*
X288359Y348527D01*
X288427Y348599D01*
X288456Y348652D01*
X288493Y348700D01*
X288533Y348791D01*
X288581Y348877D01*
X288596Y348936D01*
X288620Y348991D01*
X288635Y349089D01*
X288660Y349185D01*
X288666Y349285D01*
X288670Y349306D01*
X288668Y349318D01*
X288670Y349346D01*
X288670Y358362D01*
X288658Y358460D01*
X288655Y358559D01*
X288638Y358617D01*
X288630Y358677D01*
X288594Y358769D01*
X288566Y358864D01*
X288536Y358917D01*
X288513Y358973D01*
X288455Y359053D01*
X288405Y359138D01*
X288339Y359214D01*
X288327Y359230D01*
X288317Y359238D01*
X288299Y359259D01*
X280867Y366691D01*
X278858Y368700D01*
X278858Y373841D01*
X278840Y373979D01*
X278827Y374118D01*
X278820Y374137D01*
X278818Y374157D01*
X278767Y374286D01*
X278720Y374417D01*
X278708Y374434D01*
X278701Y374452D01*
X278619Y374565D01*
X278541Y374680D01*
X278526Y374693D01*
X278514Y374710D01*
X278407Y374799D01*
X278303Y374890D01*
X278285Y374900D01*
X278269Y374913D01*
X278143Y374972D01*
X278019Y375035D01*
X278000Y375040D01*
X277981Y375048D01*
X277845Y375074D01*
X277709Y375105D01*
X277689Y375104D01*
X277669Y375108D01*
X277530Y375099D01*
X277391Y375095D01*
X277372Y375089D01*
X277352Y375088D01*
X277219Y375045D01*
X277086Y375007D01*
X277068Y374996D01*
X277049Y374990D01*
X276932Y374916D01*
X276812Y374845D01*
X276791Y374827D01*
X276780Y374820D01*
X276766Y374805D01*
X276691Y374739D01*
X276117Y374164D01*
X276116Y374164D01*
X267501Y365549D01*
X267458Y365494D01*
X267408Y365445D01*
X267361Y365369D01*
X267306Y365297D01*
X267278Y365233D01*
X267242Y365174D01*
X267215Y365088D01*
X267180Y365006D01*
X267169Y364937D01*
X267148Y364870D01*
X267144Y364780D01*
X267130Y364692D01*
X267136Y364622D01*
X267133Y364552D01*
X267151Y364465D01*
X267160Y364375D01*
X267183Y364309D01*
X267197Y364241D01*
X267237Y364160D01*
X267267Y364076D01*
X267306Y364018D01*
X267337Y363955D01*
X267395Y363887D01*
X267446Y363812D01*
X267498Y363766D01*
X267544Y363713D01*
X267617Y363661D01*
X267684Y363602D01*
X267746Y363570D01*
X267804Y363530D01*
X267888Y363498D01*
X267968Y363457D01*
X268036Y363442D01*
X268101Y363417D01*
X268190Y363407D01*
X268278Y363388D01*
X268348Y363390D01*
X268417Y363382D01*
X268506Y363395D01*
X268596Y363397D01*
X268663Y363417D01*
X268732Y363427D01*
X268884Y363479D01*
X271777Y364677D01*
X276223Y364677D01*
X280331Y362975D01*
X283475Y359831D01*
X285177Y355723D01*
X285177Y351277D01*
X283475Y347169D01*
X280331Y344025D01*
X276223Y342323D01*
X271777Y342323D01*
X267669Y344025D01*
X264525Y347169D01*
X262823Y351277D01*
X262823Y355723D01*
X264021Y358616D01*
X264040Y358683D01*
X264068Y358747D01*
X264082Y358836D01*
X264105Y358922D01*
X264106Y358992D01*
X264117Y359061D01*
X264109Y359151D01*
X264110Y359240D01*
X264094Y359308D01*
X264088Y359378D01*
X264057Y359462D01*
X264036Y359550D01*
X264004Y359611D01*
X263980Y359677D01*
X263930Y359751D01*
X263888Y359831D01*
X263841Y359882D01*
X263801Y359940D01*
X263734Y360000D01*
X263674Y360066D01*
X263615Y360105D01*
X263563Y360151D01*
X263483Y360192D01*
X263408Y360241D01*
X263342Y360264D01*
X263280Y360295D01*
X263192Y360315D01*
X263107Y360344D01*
X263037Y360350D01*
X262969Y360365D01*
X262880Y360362D01*
X262790Y360369D01*
X262721Y360357D01*
X262652Y360355D01*
X262565Y360330D01*
X262477Y360315D01*
X262413Y360286D01*
X262346Y360267D01*
X262269Y360221D01*
X262187Y360184D01*
X262132Y360141D01*
X262072Y360105D01*
X261951Y359999D01*
X254166Y352214D01*
X254106Y352136D01*
X254038Y352064D01*
X254009Y352011D01*
X253972Y351963D01*
X253932Y351872D01*
X253884Y351785D01*
X253869Y351727D01*
X253845Y351671D01*
X253830Y351573D01*
X253805Y351477D01*
X253799Y351377D01*
X253795Y351357D01*
X253797Y351345D01*
X253795Y351317D01*
X253795Y342236D01*
X253807Y342138D01*
X253810Y342039D01*
X253827Y341980D01*
X253835Y341920D01*
X253871Y341828D01*
X253899Y341733D01*
X253929Y341681D01*
X253952Y341625D01*
X254010Y341545D01*
X254060Y341459D01*
X254126Y341384D01*
X254138Y341367D01*
X254148Y341360D01*
X254166Y341338D01*
X255499Y340006D01*
X256307Y338056D01*
X256307Y335944D01*
X255499Y333994D01*
X254006Y332501D01*
X252056Y331693D01*
X249944Y331693D01*
X247994Y332501D01*
X246501Y333994D01*
X245693Y335944D01*
X245693Y338056D01*
X246501Y340006D01*
X247834Y341338D01*
X247894Y341417D01*
X247962Y341489D01*
X247991Y341542D01*
X248028Y341590D01*
X248068Y341681D01*
X248116Y341767D01*
X248131Y341826D01*
X248155Y341882D01*
X248170Y341979D01*
X248195Y342075D01*
X248201Y342175D01*
X248205Y342196D01*
X248203Y342208D01*
X248205Y342236D01*
X248205Y354158D01*
X272164Y378116D01*
X272225Y378195D01*
X272293Y378267D01*
X272322Y378320D01*
X272359Y378368D01*
X272398Y378459D01*
X272446Y378545D01*
X272461Y378604D01*
X272485Y378659D01*
X272501Y378757D01*
X272526Y378853D01*
X272532Y378953D01*
X272535Y378974D01*
X272534Y378986D01*
X272536Y379014D01*
X272536Y434764D01*
X272523Y434862D01*
X272520Y434961D01*
X272504Y435020D01*
X272496Y435080D01*
X272459Y435172D01*
X272432Y435267D01*
X272401Y435319D01*
X272379Y435375D01*
X272321Y435455D01*
X272270Y435541D01*
X272204Y435616D01*
X272192Y435633D01*
X272183Y435640D01*
X272164Y435662D01*
X270832Y436994D01*
X270024Y438944D01*
X270024Y441056D01*
X270832Y443006D01*
X272324Y444499D01*
X274275Y445307D01*
X276589Y445307D01*
X276707Y445322D01*
X276825Y445329D01*
X276864Y445342D01*
X276904Y445347D01*
X277015Y445390D01*
X277128Y445427D01*
X277162Y445449D01*
X277200Y445464D01*
X277296Y445533D01*
X277397Y445597D01*
X277424Y445627D01*
X277457Y445650D01*
X277533Y445742D01*
X277615Y445829D01*
X277634Y445864D01*
X277660Y445895D01*
X277711Y446003D01*
X277768Y446107D01*
X277778Y446147D01*
X277795Y446183D01*
X277818Y446300D01*
X277848Y446415D01*
X277851Y446475D01*
X277855Y446495D01*
X277854Y446516D01*
X277858Y446576D01*
X277858Y448342D01*
X277845Y448440D01*
X277842Y448539D01*
X277826Y448597D01*
X277818Y448657D01*
X277782Y448749D01*
X277754Y448844D01*
X277723Y448897D01*
X277701Y448953D01*
X277643Y449033D01*
X277592Y449118D01*
X277526Y449194D01*
X277514Y449210D01*
X277505Y449218D01*
X277486Y449239D01*
X276154Y450571D01*
X275346Y452522D01*
X275346Y454633D01*
X276154Y456584D01*
X277646Y458076D01*
X279446Y458822D01*
X279489Y458846D01*
X279536Y458863D01*
X279627Y458925D01*
X279723Y458979D01*
X279758Y459014D01*
X279799Y459042D01*
X279872Y459124D01*
X279951Y459201D01*
X279977Y459243D01*
X280010Y459280D01*
X280060Y459378D01*
X280117Y459472D01*
X280132Y459519D01*
X280155Y459564D01*
X280179Y459671D01*
X280211Y459776D01*
X280213Y459825D01*
X280224Y459874D01*
X280221Y459984D01*
X280226Y460093D01*
X280216Y460142D01*
X280215Y460192D01*
X280184Y460297D01*
X280162Y460405D01*
X280140Y460450D01*
X280126Y460497D01*
X280070Y460592D01*
X280022Y460691D01*
X279990Y460728D01*
X279965Y460771D01*
X279858Y460892D01*
X276337Y464414D01*
X276258Y464474D01*
X276186Y464542D01*
X276133Y464571D01*
X276085Y464608D01*
X275994Y464648D01*
X275908Y464696D01*
X275849Y464711D01*
X275794Y464735D01*
X275696Y464750D01*
X275600Y464775D01*
X275500Y464781D01*
X275479Y464785D01*
X275467Y464783D01*
X275439Y464785D01*
X263411Y464785D01*
X263313Y464773D01*
X263214Y464770D01*
X263155Y464753D01*
X263095Y464745D01*
X263003Y464709D01*
X262908Y464681D01*
X262856Y464651D01*
X262800Y464628D01*
X262720Y464570D01*
X262634Y464520D01*
X262559Y464454D01*
X262542Y464442D01*
X262535Y464432D01*
X262513Y464414D01*
X261181Y463081D01*
X259231Y462273D01*
X257119Y462273D01*
X255169Y463081D01*
X253676Y464574D01*
X252868Y466524D01*
X252868Y468636D01*
X253062Y469104D01*
X253081Y469171D01*
X253109Y469236D01*
X253123Y469324D01*
X253146Y469411D01*
X253147Y469481D01*
X253158Y469550D01*
X253150Y469639D01*
X253151Y469729D01*
X253135Y469797D01*
X253129Y469866D01*
X253098Y469951D01*
X253077Y470038D01*
X253045Y470100D01*
X253021Y470166D01*
X252970Y470240D01*
X252928Y470319D01*
X252881Y470371D01*
X252842Y470429D01*
X252775Y470488D01*
X252715Y470555D01*
X252656Y470593D01*
X252604Y470639D01*
X252524Y470680D01*
X252449Y470729D01*
X252383Y470752D01*
X252321Y470784D01*
X252233Y470803D01*
X252148Y470833D01*
X252078Y470838D01*
X252010Y470853D01*
X251921Y470851D01*
X251831Y470858D01*
X251762Y470846D01*
X251692Y470844D01*
X251606Y470819D01*
X251518Y470803D01*
X251454Y470775D01*
X251387Y470755D01*
X251309Y470710D01*
X251228Y470673D01*
X251173Y470629D01*
X251113Y470594D01*
X251009Y470503D01*
X249056Y469693D01*
X246944Y469693D01*
X244994Y470501D01*
X243501Y471994D01*
X242693Y473944D01*
X242693Y476056D01*
X243501Y478006D01*
X244994Y479499D01*
X246944Y480307D01*
X249056Y480307D01*
X251006Y479499D01*
X252499Y478006D01*
X252717Y477480D01*
X252731Y477455D01*
X252740Y477427D01*
X252810Y477317D01*
X252874Y477204D01*
X252895Y477183D01*
X252910Y477158D01*
X253005Y477069D01*
X253095Y476976D01*
X253121Y476960D01*
X253142Y476940D01*
X253256Y476877D01*
X253367Y476809D01*
X253395Y476801D01*
X253421Y476786D01*
X253546Y476754D01*
X253670Y476716D01*
X253700Y476714D01*
X253729Y476707D01*
X253889Y476697D01*
X256868Y476697D01*
X256918Y476703D01*
X256967Y476701D01*
X257075Y476723D01*
X257184Y476737D01*
X257230Y476755D01*
X257279Y476765D01*
X257378Y476813D01*
X257480Y476854D01*
X257520Y476883D01*
X257564Y476905D01*
X257648Y476976D01*
X257737Y477040D01*
X257769Y477079D01*
X257806Y477111D01*
X257870Y477201D01*
X257940Y477285D01*
X257961Y477330D01*
X257989Y477371D01*
X258029Y477474D01*
X258075Y477573D01*
X258085Y477622D01*
X258102Y477668D01*
X258114Y477778D01*
X258135Y477885D01*
X258132Y477935D01*
X258137Y477984D01*
X258122Y478093D01*
X258115Y478203D01*
X258100Y478250D01*
X258093Y478299D01*
X258041Y478452D01*
X257443Y479895D01*
X257443Y482105D01*
X258289Y484148D01*
X259852Y485711D01*
X261895Y486557D01*
X264105Y486557D01*
X266148Y485711D01*
X267692Y484166D01*
X267770Y484106D01*
X267842Y484038D01*
X267895Y484009D01*
X267943Y483972D01*
X268034Y483932D01*
X268121Y483884D01*
X268179Y483869D01*
X268235Y483845D01*
X268333Y483830D01*
X268429Y483805D01*
X268529Y483799D01*
X268549Y483795D01*
X268561Y483797D01*
X268589Y483795D01*
X282158Y483795D01*
X286024Y479928D01*
X286102Y479868D01*
X286174Y479800D01*
X286227Y479771D01*
X286275Y479734D01*
X286366Y479694D01*
X286453Y479646D01*
X286511Y479631D01*
X286567Y479607D01*
X286665Y479592D01*
X286761Y479567D01*
X286861Y479561D01*
X286881Y479557D01*
X286893Y479559D01*
X286921Y479557D01*
X289105Y479557D01*
X291148Y478711D01*
X292711Y477148D01*
X292763Y477021D01*
X292798Y476960D01*
X292824Y476895D01*
X292876Y476822D01*
X292921Y476744D01*
X292969Y476694D01*
X293010Y476638D01*
X293080Y476580D01*
X293142Y476516D01*
X293202Y476479D01*
X293255Y476435D01*
X293337Y476397D01*
X293413Y476350D01*
X293480Y476329D01*
X293543Y476299D01*
X293631Y476283D01*
X293717Y476256D01*
X293787Y476253D01*
X293856Y476240D01*
X293945Y476245D01*
X294035Y476241D01*
X294103Y476255D01*
X294173Y476259D01*
X294258Y476287D01*
X294346Y476305D01*
X294409Y476336D01*
X294475Y476357D01*
X294551Y476406D01*
X294632Y476445D01*
X294685Y476490D01*
X294744Y476528D01*
X294806Y476593D01*
X294874Y476651D01*
X294914Y476708D01*
X294962Y476759D01*
X295005Y476838D01*
X295057Y476911D01*
X295082Y476977D01*
X295116Y477038D01*
X295138Y477125D01*
X295170Y477209D01*
X295178Y477278D01*
X295195Y477346D01*
X295205Y477506D01*
X295205Y485317D01*
X295193Y485415D01*
X295190Y485514D01*
X295173Y485572D01*
X295165Y485632D01*
X295129Y485724D01*
X295101Y485819D01*
X295071Y485872D01*
X295048Y485928D01*
X294990Y486008D01*
X294940Y486093D01*
X294874Y486169D01*
X294862Y486185D01*
X294852Y486193D01*
X294834Y486214D01*
X286205Y494842D01*
X286205Y517147D01*
X286197Y517216D01*
X286198Y517286D01*
X286177Y517373D01*
X286165Y517462D01*
X286140Y517527D01*
X286123Y517595D01*
X286081Y517675D01*
X286048Y517758D01*
X286007Y517815D01*
X285975Y517876D01*
X285914Y517943D01*
X285862Y518016D01*
X285808Y518060D01*
X285761Y518112D01*
X285686Y518161D01*
X285617Y518218D01*
X285553Y518248D01*
X285495Y518286D01*
X285410Y518316D01*
X285329Y518354D01*
X285260Y518367D01*
X285194Y518390D01*
X285105Y518397D01*
X285017Y518414D01*
X284947Y518409D01*
X284877Y518415D01*
X284789Y518399D01*
X284699Y518394D01*
X284633Y518372D01*
X284564Y518360D01*
X284482Y518323D01*
X284397Y518296D01*
X284338Y518259D01*
X284274Y518230D01*
X284204Y518174D01*
X284128Y518126D01*
X284080Y518075D01*
X284026Y518031D01*
X283972Y517960D01*
X283910Y517894D01*
X283876Y517833D01*
X283834Y517777D01*
X283763Y517633D01*
X283499Y516994D01*
X282006Y515501D01*
X280056Y514693D01*
X278890Y514693D01*
X278792Y514681D01*
X278693Y514678D01*
X278634Y514661D01*
X278574Y514653D01*
X278482Y514617D01*
X278387Y514589D01*
X278335Y514559D01*
X278279Y514536D01*
X278199Y514478D01*
X278113Y514428D01*
X278038Y514362D01*
X278021Y514350D01*
X278013Y514340D01*
X277992Y514322D01*
X255368Y491697D01*
X211894Y491697D01*
X211796Y491685D01*
X211697Y491682D01*
X211638Y491665D01*
X211578Y491657D01*
X211486Y491621D01*
X211391Y491593D01*
X211339Y491563D01*
X211283Y491540D01*
X211203Y491482D01*
X211117Y491432D01*
X211042Y491366D01*
X211025Y491354D01*
X211017Y491344D01*
X210996Y491326D01*
X188729Y469058D01*
X188723Y469051D01*
X188716Y469045D01*
X188627Y468926D01*
X188534Y468807D01*
X188530Y468798D01*
X188525Y468791D01*
X188454Y468647D01*
X187711Y466852D01*
X186148Y465289D01*
X184105Y464443D01*
X182640Y464443D01*
X182542Y464431D01*
X182443Y464428D01*
X182384Y464411D01*
X182324Y464403D01*
X182232Y464367D01*
X182137Y464339D01*
X182085Y464309D01*
X182029Y464286D01*
X181949Y464228D01*
X181863Y464178D01*
X181788Y464112D01*
X181771Y464100D01*
X181763Y464090D01*
X181742Y464072D01*
X180162Y462491D01*
X180089Y462397D01*
X180010Y462308D01*
X179992Y462272D01*
X179967Y462240D01*
X179920Y462131D01*
X179866Y462025D01*
X179857Y461985D01*
X179841Y461948D01*
X179822Y461830D01*
X179796Y461714D01*
X179797Y461674D01*
X179791Y461634D01*
X179802Y461515D01*
X179806Y461397D01*
X179817Y461358D01*
X179821Y461317D01*
X179861Y461205D01*
X179894Y461091D01*
X179915Y461056D01*
X179928Y461018D01*
X179995Y460919D01*
X180056Y460817D01*
X180095Y460772D01*
X180107Y460755D01*
X180122Y460742D01*
X180162Y460696D01*
X181711Y459148D01*
X182557Y457105D01*
X182557Y454895D01*
X181711Y452852D01*
X180148Y451289D01*
X178105Y450443D01*
X175921Y450443D01*
X175823Y450431D01*
X175724Y450428D01*
X175666Y450411D01*
X175606Y450403D01*
X175514Y450367D01*
X175419Y450339D01*
X175366Y450309D01*
X175310Y450286D01*
X175230Y450228D01*
X175145Y450178D01*
X175069Y450112D01*
X175053Y450100D01*
X175045Y450090D01*
X175024Y450072D01*
X156158Y431205D01*
X113683Y431205D01*
X113585Y431193D01*
X113486Y431190D01*
X113428Y431173D01*
X113368Y431165D01*
X113276Y431129D01*
X113181Y431101D01*
X113128Y431071D01*
X113072Y431048D01*
X112992Y430990D01*
X112907Y430940D01*
X112831Y430874D01*
X112815Y430862D01*
X112807Y430852D01*
X112786Y430834D01*
X112132Y430179D01*
X112113Y430156D01*
X112091Y430137D01*
X112016Y430031D01*
X111937Y429928D01*
X111925Y429901D01*
X111908Y429877D01*
X111862Y429755D01*
X111810Y429636D01*
X111806Y429607D01*
X111795Y429579D01*
X111781Y429450D01*
X111760Y429322D01*
X111763Y429293D01*
X111760Y429263D01*
X111778Y429135D01*
X111790Y429005D01*
X111800Y428978D01*
X111804Y428948D01*
X111856Y428796D01*
X112557Y427105D01*
X112557Y424895D01*
X111711Y422852D01*
X110148Y421289D01*
X108105Y420443D01*
X105895Y420443D01*
X103852Y421289D01*
X102289Y422852D01*
X101443Y424895D01*
X101443Y427105D01*
X101950Y428330D01*
X101964Y428378D01*
X101985Y428423D01*
X102005Y428530D01*
X102034Y428637D01*
X102035Y428686D01*
X102045Y428735D01*
X102038Y428845D01*
X102039Y428955D01*
X102028Y429003D01*
X102025Y429052D01*
X101991Y429157D01*
X101965Y429264D01*
X101942Y429308D01*
X101927Y429355D01*
X101868Y429448D01*
X101817Y429545D01*
X101783Y429582D01*
X101757Y429624D01*
X101677Y429699D01*
X101603Y429780D01*
X101561Y429808D01*
X101525Y429842D01*
X101429Y429895D01*
X101337Y429955D01*
X101290Y429971D01*
X101246Y429995D01*
X101140Y430022D01*
X101036Y430058D01*
X100987Y430062D01*
X100939Y430075D01*
X100778Y430085D01*
X94484Y430085D01*
X94346Y430067D01*
X94208Y430054D01*
X94189Y430047D01*
X94169Y430045D01*
X94040Y429994D01*
X93909Y429947D01*
X93892Y429935D01*
X93873Y429928D01*
X93761Y429846D01*
X93645Y429768D01*
X93632Y429753D01*
X93616Y429741D01*
X93527Y429634D01*
X93435Y429530D01*
X93426Y429512D01*
X93413Y429496D01*
X93354Y429371D01*
X93290Y429246D01*
X93286Y429226D01*
X93277Y429208D01*
X93251Y429072D01*
X93221Y428936D01*
X93221Y428916D01*
X93218Y428896D01*
X93226Y428758D01*
X93231Y428618D01*
X93236Y428599D01*
X93237Y428579D01*
X93280Y428446D01*
X93319Y428313D01*
X93329Y428295D01*
X93335Y428276D01*
X93410Y428158D01*
X93481Y428039D01*
X93490Y428028D01*
X94307Y426056D01*
X94307Y423771D01*
X94322Y423653D01*
X94329Y423534D01*
X94342Y423496D01*
X94347Y423455D01*
X94390Y423345D01*
X94427Y423232D01*
X94449Y423197D01*
X94464Y423160D01*
X94533Y423064D01*
X94597Y422963D01*
X94627Y422935D01*
X94650Y422902D01*
X94742Y422826D01*
X94829Y422745D01*
X94864Y422725D01*
X94895Y422700D01*
X95003Y422649D01*
X95107Y422591D01*
X95147Y422581D01*
X95183Y422564D01*
X95300Y422542D01*
X95415Y422512D01*
X95475Y422508D01*
X95495Y422504D01*
X95516Y422506D01*
X95576Y422502D01*
X97258Y422502D01*
X99209Y421694D01*
X100701Y420201D01*
X101509Y418251D01*
X101509Y417085D01*
X101522Y416987D01*
X101525Y416888D01*
X101541Y416829D01*
X101549Y416769D01*
X101586Y416677D01*
X101613Y416582D01*
X101644Y416530D01*
X101666Y416474D01*
X101724Y416394D01*
X101775Y416308D01*
X101841Y416233D01*
X101853Y416216D01*
X101862Y416208D01*
X101881Y416187D01*
X140463Y377606D01*
X140463Y350509D01*
X140475Y350411D01*
X140478Y350312D01*
X140495Y350253D01*
X140503Y350193D01*
X140539Y350101D01*
X140567Y350006D01*
X140597Y349954D01*
X140620Y349898D01*
X140678Y349817D01*
X140728Y349732D01*
X140795Y349657D01*
X140806Y349640D01*
X140816Y349632D01*
X140834Y349611D01*
X159821Y330625D01*
X159931Y330539D01*
X160038Y330451D01*
X160056Y330442D01*
X160072Y330430D01*
X160200Y330374D01*
X160326Y330315D01*
X160345Y330312D01*
X160364Y330303D01*
X160502Y330282D01*
X160638Y330256D01*
X160658Y330257D01*
X160678Y330254D01*
X160817Y330267D01*
X160955Y330275D01*
X160975Y330282D01*
X160995Y330283D01*
X161126Y330331D01*
X161258Y330373D01*
X161275Y330384D01*
X161294Y330391D01*
X161409Y330469D01*
X161527Y330543D01*
X161541Y330558D01*
X161557Y330570D01*
X161649Y330674D01*
X161745Y330775D01*
X161754Y330793D01*
X161768Y330808D01*
X161831Y330932D01*
X161898Y331054D01*
X161903Y331073D01*
X161912Y331091D01*
X161943Y331227D01*
X161978Y331362D01*
X161979Y331390D01*
X161982Y331402D01*
X161981Y331422D01*
X161988Y331522D01*
X161988Y359572D01*
X161975Y359670D01*
X161972Y359769D01*
X161956Y359827D01*
X161948Y359887D01*
X161911Y359979D01*
X161884Y360074D01*
X161853Y360127D01*
X161831Y360183D01*
X161773Y360263D01*
X161722Y360348D01*
X161656Y360424D01*
X161644Y360440D01*
X161635Y360448D01*
X161616Y360469D01*
X160284Y361801D01*
X159476Y363752D01*
X159476Y365863D01*
X160284Y367814D01*
X161776Y369306D01*
X163727Y370114D01*
X165838Y370114D01*
X167789Y369306D01*
X169281Y367814D01*
X170089Y365863D01*
X170089Y363752D01*
X169281Y361801D01*
X167949Y360469D01*
X167888Y360391D01*
X167820Y360319D01*
X167791Y360266D01*
X167754Y360218D01*
X167715Y360127D01*
X167667Y360040D01*
X167652Y359982D01*
X167628Y359926D01*
X167612Y359828D01*
X167587Y359732D01*
X167581Y359632D01*
X167578Y359612D01*
X167579Y359600D01*
X167577Y359572D01*
X167577Y350182D01*
X167583Y350133D01*
X167581Y350084D01*
X167603Y349976D01*
X167617Y349867D01*
X167635Y349821D01*
X167645Y349772D01*
X167694Y349674D01*
X167734Y349571D01*
X167763Y349531D01*
X167785Y349486D01*
X167856Y349403D01*
X167921Y349314D01*
X167959Y349282D01*
X167991Y349244D01*
X168081Y349181D01*
X168166Y349111D01*
X168211Y349090D01*
X168252Y349061D01*
X168354Y349022D01*
X168454Y348976D01*
X168502Y348966D01*
X168549Y348949D01*
X168658Y348936D01*
X168766Y348916D01*
X168815Y348919D01*
X168865Y348913D01*
X168974Y348929D01*
X169083Y348936D01*
X169131Y348951D01*
X169180Y348958D01*
X169332Y349010D01*
X170049Y349307D01*
X172160Y349307D01*
X174111Y348499D01*
X175603Y347006D01*
X175837Y346441D01*
X175862Y346398D01*
X175879Y346351D01*
X175941Y346260D01*
X175995Y346165D01*
X176030Y346129D01*
X176057Y346088D01*
X176140Y346015D01*
X176216Y345936D01*
X176259Y345910D01*
X176296Y345877D01*
X176394Y345827D01*
X176487Y345770D01*
X176535Y345755D01*
X176579Y345733D01*
X176686Y345709D01*
X176791Y345676D01*
X176841Y345674D01*
X176889Y345663D01*
X176999Y345666D01*
X177109Y345661D01*
X177158Y345671D01*
X177207Y345673D01*
X177313Y345703D01*
X177420Y345726D01*
X177465Y345747D01*
X177513Y345761D01*
X177607Y345817D01*
X177706Y345865D01*
X177744Y345898D01*
X177787Y345923D01*
X177908Y346029D01*
X178994Y347116D01*
X180564Y347766D01*
X180685Y347835D01*
X180808Y347900D01*
X180823Y347914D01*
X180841Y347924D01*
X180941Y348020D01*
X181044Y348114D01*
X181055Y348131D01*
X181069Y348145D01*
X181142Y348263D01*
X181218Y348380D01*
X181225Y348399D01*
X181235Y348416D01*
X181276Y348549D01*
X181321Y348680D01*
X181323Y348701D01*
X181329Y348720D01*
X181336Y348859D01*
X181347Y348997D01*
X181343Y349017D01*
X181344Y349038D01*
X181316Y349174D01*
X181292Y349311D01*
X181284Y349329D01*
X181280Y349349D01*
X181219Y349474D01*
X181162Y349601D01*
X181149Y349617D01*
X181140Y349635D01*
X181050Y349740D01*
X180963Y349849D01*
X180947Y349861D01*
X180934Y349877D01*
X180820Y349957D01*
X180709Y350040D01*
X180684Y350053D01*
X180674Y350060D01*
X180655Y350067D01*
X180565Y350111D01*
X178994Y350762D01*
X177501Y352255D01*
X176693Y354205D01*
X176693Y356316D01*
X177501Y358267D01*
X178994Y359760D01*
X179479Y359961D01*
X179523Y359985D01*
X179569Y360002D01*
X179660Y360064D01*
X179756Y360118D01*
X179791Y360153D01*
X179833Y360181D01*
X179905Y360263D01*
X179984Y360340D01*
X180010Y360382D01*
X180043Y360419D01*
X180093Y360517D01*
X180150Y360611D01*
X180165Y360658D01*
X180188Y360702D01*
X180212Y360810D01*
X180244Y360915D01*
X180246Y360964D01*
X180257Y361013D01*
X180254Y361122D01*
X180259Y361232D01*
X180249Y361281D01*
X180248Y361331D01*
X180217Y361436D01*
X180195Y361544D01*
X180173Y361588D01*
X180159Y361636D01*
X180103Y361731D01*
X180055Y361829D01*
X180023Y361867D01*
X179998Y361910D01*
X179891Y362031D01*
X178988Y362934D01*
X178180Y364884D01*
X178180Y366996D01*
X178988Y368946D01*
X180481Y370439D01*
X182431Y371247D01*
X184543Y371247D01*
X186493Y370439D01*
X187986Y368946D01*
X188794Y366996D01*
X188794Y364884D01*
X188086Y363176D01*
X188078Y363147D01*
X188065Y363121D01*
X188036Y362994D01*
X188002Y362869D01*
X188002Y362840D01*
X187995Y362811D01*
X187999Y362681D01*
X187997Y362551D01*
X188004Y362522D01*
X188005Y362493D01*
X188041Y362368D01*
X188071Y362242D01*
X188085Y362216D01*
X188093Y362187D01*
X188159Y362076D01*
X188220Y361961D01*
X188240Y361939D01*
X188255Y361913D01*
X188361Y361793D01*
X198117Y352037D01*
X198117Y325224D01*
X196108Y323215D01*
X194216Y321323D01*
X194198Y321299D01*
X194175Y321280D01*
X194100Y321174D01*
X194021Y321071D01*
X194009Y321044D01*
X193992Y321020D01*
X193946Y320899D01*
X193894Y320780D01*
X193890Y320750D01*
X193879Y320723D01*
X193865Y320594D01*
X193845Y320466D01*
X193847Y320436D01*
X193844Y320407D01*
X193862Y320278D01*
X193874Y320149D01*
X193884Y320121D01*
X193889Y320092D01*
X193941Y319940D01*
X194307Y319056D01*
X194307Y317199D01*
X194322Y317081D01*
X194329Y316962D01*
X194342Y316924D01*
X194347Y316884D01*
X194390Y316773D01*
X194427Y316660D01*
X194449Y316625D01*
X194464Y316588D01*
X194533Y316492D01*
X194597Y316391D01*
X194627Y316363D01*
X194650Y316331D01*
X194742Y316255D01*
X194829Y316173D01*
X194864Y316154D01*
X194895Y316128D01*
X195003Y316077D01*
X195107Y316020D01*
X195147Y316009D01*
X195183Y315992D01*
X195300Y315970D01*
X195415Y315940D01*
X195475Y315936D01*
X195495Y315932D01*
X195516Y315934D01*
X195576Y315930D01*
X196679Y315930D01*
X198629Y315122D01*
X199502Y314249D01*
X199596Y314176D01*
X199685Y314097D01*
X199721Y314079D01*
X199753Y314054D01*
X199862Y314007D01*
X199968Y313953D01*
X200008Y313944D01*
X200045Y313928D01*
X200163Y313909D01*
X200279Y313883D01*
X200319Y313884D01*
X200359Y313878D01*
X200478Y313889D01*
X200597Y313893D01*
X200635Y313904D01*
X200676Y313908D01*
X200788Y313948D01*
X200902Y313981D01*
X200937Y314002D01*
X200975Y314015D01*
X201074Y314082D01*
X201176Y314143D01*
X201221Y314183D01*
X201238Y314194D01*
X201252Y314209D01*
X201297Y314249D01*
X206834Y319786D01*
X206894Y319864D01*
X206962Y319936D01*
X206991Y319989D01*
X207028Y320037D01*
X207068Y320128D01*
X207116Y320215D01*
X207131Y320273D01*
X207155Y320329D01*
X207170Y320427D01*
X207195Y320523D01*
X207201Y320623D01*
X207205Y320643D01*
X207203Y320655D01*
X207205Y320683D01*
X207205Y346829D01*
X207486Y347109D01*
X207547Y347188D01*
X207615Y347260D01*
X207644Y347313D01*
X207681Y347361D01*
X207720Y347452D01*
X207768Y347538D01*
X207783Y347597D01*
X207807Y347653D01*
X207823Y347751D01*
X207847Y347846D01*
X207854Y347946D01*
X207857Y347967D01*
X207856Y347979D01*
X207858Y348007D01*
X207858Y349891D01*
X208666Y351842D01*
X210158Y353334D01*
X212109Y354142D01*
X214220Y354142D01*
X216170Y353334D01*
X217663Y351842D01*
X218471Y349891D01*
X218471Y347780D01*
X218366Y347525D01*
X218347Y347458D01*
X218319Y347394D01*
X218305Y347305D01*
X218282Y347218D01*
X218280Y347149D01*
X218270Y347080D01*
X218278Y346990D01*
X218277Y346900D01*
X218293Y346833D01*
X218299Y346763D01*
X218330Y346678D01*
X218351Y346591D01*
X218383Y346530D01*
X218407Y346464D01*
X218457Y346389D01*
X218499Y346310D01*
X218546Y346258D01*
X218586Y346201D01*
X218653Y346141D01*
X218713Y346075D01*
X218772Y346036D01*
X218824Y345990D01*
X218904Y345949D01*
X218979Y345900D01*
X219045Y345877D01*
X219107Y345845D01*
X219195Y345826D01*
X219280Y345797D01*
X219349Y345791D01*
X219418Y345776D01*
X219507Y345779D01*
X219597Y345771D01*
X219666Y345783D01*
X219735Y345785D01*
X219822Y345810D01*
X219910Y345826D01*
X219974Y345855D01*
X220041Y345874D01*
X220118Y345919D01*
X220200Y345956D01*
X220255Y346000D01*
X220315Y346035D01*
X220436Y346142D01*
X226822Y352528D01*
X226882Y352606D01*
X226950Y352678D01*
X226979Y352731D01*
X227016Y352779D01*
X227056Y352870D01*
X227104Y352957D01*
X227119Y353015D01*
X227143Y353071D01*
X227158Y353169D01*
X227183Y353264D01*
X227189Y353365D01*
X227193Y353385D01*
X227191Y353397D01*
X227193Y353425D01*
X227193Y355309D01*
X228001Y357260D01*
X229494Y358753D01*
X231444Y359561D01*
X233556Y359561D01*
X235506Y358753D01*
X236999Y357260D01*
X237807Y355309D01*
X237807Y353198D01*
X236999Y351248D01*
X235506Y349755D01*
X233556Y348947D01*
X231671Y348947D01*
X231573Y348935D01*
X231474Y348932D01*
X231416Y348915D01*
X231356Y348907D01*
X231264Y348871D01*
X231169Y348843D01*
X231116Y348812D01*
X231060Y348790D01*
X230980Y348732D01*
X230895Y348682D01*
X230819Y348615D01*
X230803Y348603D01*
X230795Y348594D01*
X230774Y348575D01*
X219166Y336968D01*
X219106Y336890D01*
X219038Y336818D01*
X219009Y336765D01*
X218972Y336717D01*
X218932Y336626D01*
X218884Y336539D01*
X218869Y336481D01*
X218845Y336425D01*
X218830Y336327D01*
X218805Y336231D01*
X218799Y336131D01*
X218795Y336111D01*
X218797Y336098D01*
X218795Y336070D01*
X218795Y315236D01*
X218807Y315138D01*
X218810Y315039D01*
X218827Y314980D01*
X218835Y314920D01*
X218871Y314828D01*
X218899Y314733D01*
X218929Y314681D01*
X218952Y314625D01*
X219010Y314545D01*
X219060Y314459D01*
X219126Y314384D01*
X219138Y314367D01*
X219148Y314360D01*
X219166Y314338D01*
X220499Y313006D01*
X221307Y311056D01*
X221307Y308944D01*
X221143Y308548D01*
X221124Y308481D01*
X221096Y308417D01*
X221082Y308328D01*
X221059Y308242D01*
X221058Y308172D01*
X221047Y308103D01*
X221055Y308013D01*
X221054Y307924D01*
X221070Y307856D01*
X221076Y307786D01*
X221107Y307702D01*
X221128Y307614D01*
X221160Y307553D01*
X221184Y307487D01*
X221234Y307413D01*
X221276Y307333D01*
X221323Y307282D01*
X221363Y307224D01*
X221430Y307164D01*
X221490Y307098D01*
X221549Y307060D01*
X221601Y307013D01*
X221681Y306973D01*
X221756Y306923D01*
X221822Y306900D01*
X221884Y306869D01*
X221972Y306849D01*
X222057Y306820D01*
X222127Y306814D01*
X222195Y306799D01*
X222284Y306802D01*
X222374Y306795D01*
X222443Y306807D01*
G37*
G36*
X97054Y193426D02*
X97054Y193426D01*
X97193Y193430D01*
X97213Y193436D01*
X97233Y193437D01*
X97365Y193480D01*
X97499Y193519D01*
X97516Y193529D01*
X97535Y193535D01*
X97653Y193610D01*
X97773Y193680D01*
X97794Y193699D01*
X97804Y193705D01*
X97818Y193720D01*
X97893Y193786D01*
X107703Y203596D01*
X109712Y205605D01*
X140738Y205605D01*
X140837Y205617D01*
X140936Y205620D01*
X140994Y205637D01*
X141054Y205645D01*
X141146Y205681D01*
X141241Y205709D01*
X141293Y205739D01*
X141350Y205762D01*
X141430Y205820D01*
X141515Y205870D01*
X141591Y205936D01*
X141607Y205948D01*
X141615Y205958D01*
X141624Y205966D01*
X141626Y205967D01*
X141627Y205968D01*
X141636Y205976D01*
X159454Y223795D01*
X173189Y223795D01*
X173326Y223812D01*
X173465Y223825D01*
X173484Y223832D01*
X173504Y223835D01*
X173633Y223886D01*
X173764Y223933D01*
X173781Y223944D01*
X173800Y223952D01*
X173912Y224033D01*
X174027Y224111D01*
X174041Y224127D01*
X174057Y224138D01*
X174146Y224246D01*
X174238Y224350D01*
X174247Y224368D01*
X174260Y224383D01*
X174319Y224509D01*
X174383Y224633D01*
X174387Y224653D01*
X174396Y224671D01*
X174422Y224807D01*
X174452Y224943D01*
X174452Y224964D01*
X174455Y224983D01*
X174447Y225122D01*
X174443Y225261D01*
X174437Y225281D01*
X174436Y225301D01*
X174393Y225433D01*
X174354Y225567D01*
X174344Y225584D01*
X174338Y225603D01*
X174263Y225721D01*
X174193Y225841D01*
X174174Y225862D01*
X174167Y225872D01*
X174152Y225886D01*
X174086Y225961D01*
X158580Y241468D01*
X156571Y243477D01*
X156571Y253130D01*
X156558Y253229D01*
X156555Y253328D01*
X156539Y253386D01*
X156531Y253446D01*
X156494Y253538D01*
X156467Y253633D01*
X156436Y253685D01*
X156414Y253742D01*
X156356Y253822D01*
X156305Y253907D01*
X156239Y253982D01*
X156227Y253999D01*
X156218Y254007D01*
X156199Y254028D01*
X154867Y255360D01*
X154059Y257311D01*
X154059Y259422D01*
X154867Y261372D01*
X156359Y262865D01*
X157275Y263245D01*
X157318Y263269D01*
X157365Y263286D01*
X157456Y263348D01*
X157552Y263402D01*
X157587Y263437D01*
X157628Y263465D01*
X157701Y263547D01*
X157780Y263623D01*
X157806Y263666D01*
X157839Y263703D01*
X157889Y263801D01*
X157946Y263894D01*
X157961Y263942D01*
X157983Y263986D01*
X158008Y264093D01*
X158040Y264198D01*
X158042Y264248D01*
X158053Y264296D01*
X158050Y264406D01*
X158055Y264516D01*
X158045Y264565D01*
X158043Y264614D01*
X158013Y264720D01*
X157991Y264827D01*
X157969Y264872D01*
X157955Y264920D01*
X157899Y265014D01*
X157851Y265113D01*
X157819Y265151D01*
X157793Y265194D01*
X157687Y265315D01*
X152907Y270094D01*
X152907Y270545D01*
X152895Y270643D01*
X152892Y270742D01*
X152875Y270800D01*
X152867Y270860D01*
X152831Y270952D01*
X152803Y271047D01*
X152773Y271100D01*
X152750Y271156D01*
X152692Y271236D01*
X152642Y271321D01*
X152576Y271397D01*
X152564Y271413D01*
X152554Y271421D01*
X152535Y271442D01*
X151711Y272266D01*
X150903Y274217D01*
X150903Y276328D01*
X151271Y277215D01*
X151289Y277282D01*
X151317Y277346D01*
X151331Y277435D01*
X151355Y277522D01*
X151356Y277591D01*
X151367Y277660D01*
X151358Y277750D01*
X151360Y277840D01*
X151343Y277908D01*
X151337Y277977D01*
X151306Y278062D01*
X151285Y278149D01*
X151253Y278211D01*
X151229Y278276D01*
X151179Y278351D01*
X151137Y278430D01*
X151090Y278482D01*
X151051Y278539D01*
X150983Y278599D01*
X150923Y278665D01*
X150865Y278704D01*
X150812Y278750D01*
X150732Y278791D01*
X150657Y278840D01*
X150591Y278863D01*
X150529Y278895D01*
X150441Y278914D01*
X150356Y278943D01*
X150287Y278949D01*
X150219Y278964D01*
X150129Y278961D01*
X150039Y278969D01*
X149971Y278957D01*
X149901Y278955D01*
X149814Y278930D01*
X149726Y278914D01*
X149662Y278886D01*
X149595Y278866D01*
X149518Y278821D01*
X149436Y278784D01*
X149382Y278740D01*
X149321Y278705D01*
X149201Y278598D01*
X147027Y276425D01*
X147009Y276402D01*
X146987Y276383D01*
X146912Y276277D01*
X146833Y276174D01*
X146821Y276147D01*
X146804Y276123D01*
X146758Y276001D01*
X146706Y275882D01*
X146702Y275853D01*
X146691Y275825D01*
X146677Y275696D01*
X146656Y275568D01*
X146659Y275538D01*
X146656Y275509D01*
X146674Y275381D01*
X146686Y275251D01*
X146696Y275223D01*
X146700Y275194D01*
X146747Y275058D01*
X146747Y272944D01*
X145939Y270994D01*
X144446Y269501D01*
X142496Y268693D01*
X140611Y268693D01*
X140513Y268681D01*
X140414Y268678D01*
X140356Y268661D01*
X140296Y268653D01*
X140204Y268617D01*
X140109Y268589D01*
X140056Y268559D01*
X140000Y268536D01*
X139920Y268478D01*
X139835Y268428D01*
X139759Y268362D01*
X139743Y268350D01*
X139735Y268340D01*
X139714Y268322D01*
X136022Y264629D01*
X114119Y264629D01*
X110362Y268386D01*
X110338Y268404D01*
X110319Y268427D01*
X110213Y268501D01*
X110110Y268581D01*
X110083Y268593D01*
X110059Y268610D01*
X109938Y268656D01*
X109818Y268707D01*
X109789Y268712D01*
X109762Y268723D01*
X109633Y268737D01*
X109504Y268757D01*
X109475Y268755D01*
X109446Y268758D01*
X109317Y268740D01*
X109188Y268727D01*
X109160Y268717D01*
X109131Y268713D01*
X109072Y268693D01*
X106944Y268693D01*
X104994Y269501D01*
X103501Y270994D01*
X102693Y272944D01*
X102693Y275056D01*
X103501Y277006D01*
X104994Y278499D01*
X106944Y279307D01*
X109056Y279307D01*
X110577Y278677D01*
X110692Y278645D01*
X110804Y278607D01*
X110844Y278603D01*
X110883Y278593D01*
X111003Y278591D01*
X111121Y278581D01*
X111161Y278588D01*
X111201Y278588D01*
X111317Y278615D01*
X111434Y278636D01*
X111471Y278652D01*
X111511Y278662D01*
X111616Y278718D01*
X111724Y278766D01*
X111756Y278792D01*
X111792Y278811D01*
X111880Y278891D01*
X111973Y278965D01*
X111997Y278997D01*
X112027Y279024D01*
X112093Y279124D01*
X112164Y279219D01*
X112191Y279273D01*
X112202Y279290D01*
X112209Y279309D01*
X112235Y279364D01*
X112501Y280006D01*
X113994Y281499D01*
X115944Y282307D01*
X118056Y282307D01*
X119275Y281802D01*
X119323Y281788D01*
X119368Y281767D01*
X119476Y281747D01*
X119582Y281718D01*
X119632Y281717D01*
X119681Y281707D01*
X119790Y281714D01*
X119900Y281713D01*
X119948Y281724D01*
X119998Y281727D01*
X120102Y281761D01*
X120209Y281787D01*
X120253Y281810D01*
X120300Y281825D01*
X120393Y281884D01*
X120490Y281935D01*
X120527Y281969D01*
X120569Y281995D01*
X120644Y282075D01*
X120726Y282149D01*
X120753Y282191D01*
X120787Y282227D01*
X120840Y282323D01*
X120900Y282415D01*
X120917Y282462D01*
X120941Y282506D01*
X120968Y282612D01*
X121004Y282716D01*
X121008Y282765D01*
X121020Y282813D01*
X121030Y282974D01*
X121030Y283098D01*
X128756Y290823D01*
X128817Y290902D01*
X128885Y290974D01*
X128914Y291027D01*
X128951Y291075D01*
X128990Y291166D01*
X129038Y291252D01*
X129053Y291311D01*
X129077Y291366D01*
X129093Y291464D01*
X129118Y291560D01*
X129124Y291660D01*
X129127Y291681D01*
X129126Y291693D01*
X129128Y291721D01*
X129128Y329092D01*
X129115Y329190D01*
X129112Y329289D01*
X129096Y329347D01*
X129088Y329407D01*
X129051Y329499D01*
X129024Y329594D01*
X128993Y329647D01*
X128971Y329703D01*
X128913Y329783D01*
X128862Y329868D01*
X128796Y329944D01*
X128784Y329960D01*
X128775Y329968D01*
X128756Y329989D01*
X127424Y331321D01*
X126616Y333272D01*
X126616Y335383D01*
X126719Y335632D01*
X126732Y335680D01*
X126753Y335725D01*
X126774Y335833D01*
X126803Y335939D01*
X126804Y335989D01*
X126813Y336038D01*
X126806Y336147D01*
X126808Y336257D01*
X126796Y336305D01*
X126793Y336355D01*
X126759Y336459D01*
X126734Y336566D01*
X126711Y336610D01*
X126695Y336657D01*
X126637Y336750D01*
X126585Y336847D01*
X126552Y336884D01*
X126525Y336926D01*
X126445Y337001D01*
X126371Y337083D01*
X126330Y337110D01*
X126294Y337144D01*
X126197Y337197D01*
X126106Y337257D01*
X126058Y337274D01*
X126015Y337298D01*
X125909Y337325D01*
X125805Y337361D01*
X125755Y337365D01*
X125707Y337377D01*
X125546Y337387D01*
X124944Y337387D01*
X122994Y338195D01*
X121501Y339688D01*
X120693Y341638D01*
X120693Y343750D01*
X121501Y345700D01*
X122994Y347193D01*
X124944Y348001D01*
X127056Y348001D01*
X129006Y347193D01*
X130338Y345860D01*
X130417Y345800D01*
X130489Y345732D01*
X130542Y345703D01*
X130590Y345666D01*
X130681Y345626D01*
X130767Y345578D01*
X130826Y345563D01*
X130882Y345539D01*
X130979Y345524D01*
X131075Y345499D01*
X131175Y345493D01*
X131196Y345489D01*
X131208Y345491D01*
X131236Y345489D01*
X132588Y345489D01*
X132706Y345504D01*
X132825Y345511D01*
X132863Y345524D01*
X132904Y345529D01*
X133014Y345572D01*
X133127Y345609D01*
X133162Y345631D01*
X133199Y345646D01*
X133295Y345715D01*
X133396Y345779D01*
X133424Y345809D01*
X133457Y345832D01*
X133533Y345924D01*
X133614Y346011D01*
X133634Y346046D01*
X133659Y346077D01*
X133710Y346185D01*
X133768Y346289D01*
X133778Y346329D01*
X133795Y346365D01*
X133817Y346482D01*
X133847Y346597D01*
X133851Y346657D01*
X133855Y346677D01*
X133853Y346698D01*
X133857Y346758D01*
X133857Y374344D01*
X133845Y374442D01*
X133842Y374541D01*
X133825Y374599D01*
X133817Y374659D01*
X133781Y374751D01*
X133753Y374846D01*
X133723Y374899D01*
X133700Y374955D01*
X133642Y375035D01*
X133592Y375120D01*
X133526Y375196D01*
X133514Y375212D01*
X133504Y375220D01*
X133486Y375241D01*
X97210Y411517D01*
X97132Y411577D01*
X97060Y411645D01*
X97007Y411674D01*
X96959Y411711D01*
X96868Y411751D01*
X96781Y411799D01*
X96723Y411814D01*
X96667Y411838D01*
X96569Y411853D01*
X96473Y411878D01*
X96373Y411884D01*
X96353Y411888D01*
X96341Y411886D01*
X96313Y411888D01*
X95147Y411888D01*
X93550Y412550D01*
X93502Y412563D01*
X93457Y412584D01*
X93349Y412605D01*
X93243Y412634D01*
X93193Y412635D01*
X93144Y412644D01*
X93035Y412637D01*
X92925Y412639D01*
X92877Y412627D01*
X92827Y412624D01*
X92723Y412590D01*
X92616Y412565D01*
X92572Y412541D01*
X92525Y412526D01*
X92432Y412467D01*
X92335Y412416D01*
X92298Y412383D01*
X92256Y412356D01*
X92181Y412276D01*
X92099Y412202D01*
X92072Y412160D01*
X92038Y412124D01*
X91985Y412028D01*
X91925Y411936D01*
X91908Y411889D01*
X91884Y411846D01*
X91857Y411740D01*
X91821Y411636D01*
X91817Y411586D01*
X91805Y411538D01*
X91795Y411377D01*
X91795Y396236D01*
X91807Y396138D01*
X91810Y396039D01*
X91827Y395980D01*
X91835Y395920D01*
X91871Y395828D01*
X91899Y395733D01*
X91929Y395681D01*
X91952Y395625D01*
X92010Y395545D01*
X92060Y395459D01*
X92126Y395384D01*
X92138Y395367D01*
X92148Y395360D01*
X92166Y395338D01*
X93499Y394006D01*
X94307Y392056D01*
X94307Y389944D01*
X93499Y387994D01*
X92006Y386501D01*
X90056Y385693D01*
X87944Y385693D01*
X85994Y386501D01*
X85962Y386534D01*
X85852Y386619D01*
X85745Y386708D01*
X85726Y386716D01*
X85710Y386729D01*
X85582Y386784D01*
X85457Y386843D01*
X85437Y386847D01*
X85418Y386855D01*
X85281Y386877D01*
X85144Y386903D01*
X85124Y386902D01*
X85104Y386905D01*
X84966Y386892D01*
X84827Y386883D01*
X84808Y386877D01*
X84788Y386875D01*
X84657Y386828D01*
X84525Y386785D01*
X84507Y386774D01*
X84488Y386767D01*
X84374Y386689D01*
X84256Y386615D01*
X84242Y386600D01*
X84225Y386589D01*
X84133Y386485D01*
X84038Y386383D01*
X84028Y386366D01*
X84015Y386350D01*
X83952Y386227D01*
X83884Y386105D01*
X83879Y386085D01*
X83870Y386067D01*
X83840Y385931D01*
X83805Y385797D01*
X83803Y385769D01*
X83800Y385757D01*
X83801Y385736D01*
X83795Y385636D01*
X83795Y371811D01*
X83812Y371673D01*
X83825Y371535D01*
X83832Y371516D01*
X83835Y371496D01*
X83886Y371367D01*
X83933Y371236D01*
X83944Y371219D01*
X83952Y371200D01*
X84033Y371088D01*
X84111Y370973D01*
X84127Y370959D01*
X84138Y370943D01*
X84246Y370854D01*
X84350Y370762D01*
X84368Y370753D01*
X84383Y370740D01*
X84509Y370681D01*
X84633Y370617D01*
X84653Y370613D01*
X84671Y370604D01*
X84808Y370578D01*
X84943Y370548D01*
X84964Y370548D01*
X84983Y370545D01*
X85122Y370553D01*
X85261Y370557D01*
X85281Y370563D01*
X85301Y370564D01*
X85433Y370607D01*
X85567Y370646D01*
X85584Y370656D01*
X85603Y370662D01*
X85721Y370737D01*
X85841Y370807D01*
X85862Y370826D01*
X85872Y370833D01*
X85886Y370848D01*
X85961Y370914D01*
X87214Y372166D01*
X89842Y374795D01*
X101158Y374795D01*
X109117Y366836D01*
X109117Y342715D01*
X109120Y342686D01*
X109118Y342656D01*
X109140Y342529D01*
X109157Y342400D01*
X109167Y342372D01*
X109173Y342343D01*
X109226Y342225D01*
X109274Y342104D01*
X109291Y342080D01*
X109303Y342053D01*
X109384Y341952D01*
X109460Y341847D01*
X109483Y341828D01*
X109502Y341805D01*
X109605Y341727D01*
X109705Y341644D01*
X109732Y341631D01*
X109756Y341614D01*
X109900Y341543D01*
X110006Y341499D01*
X111499Y340006D01*
X112307Y338056D01*
X112307Y335944D01*
X111499Y333994D01*
X111126Y333621D01*
X111053Y333527D01*
X110974Y333438D01*
X110956Y333402D01*
X110931Y333370D01*
X110884Y333261D01*
X110830Y333155D01*
X110821Y333115D01*
X110805Y333078D01*
X110786Y332960D01*
X110760Y332844D01*
X110761Y332804D01*
X110755Y332764D01*
X110766Y332645D01*
X110770Y332527D01*
X110781Y332488D01*
X110785Y332447D01*
X110825Y332335D01*
X110858Y332221D01*
X110879Y332186D01*
X110892Y332148D01*
X110959Y332050D01*
X111020Y331947D01*
X111059Y331902D01*
X111071Y331885D01*
X111086Y331871D01*
X111126Y331826D01*
X117274Y325678D01*
X117352Y325618D01*
X117424Y325550D01*
X117477Y325521D01*
X117525Y325484D01*
X117616Y325444D01*
X117703Y325396D01*
X117761Y325381D01*
X117817Y325357D01*
X117915Y325342D01*
X118011Y325317D01*
X118111Y325311D01*
X118131Y325307D01*
X118143Y325309D01*
X118171Y325307D01*
X120056Y325307D01*
X122006Y324499D01*
X123499Y323006D01*
X124307Y321056D01*
X124307Y318944D01*
X123499Y316994D01*
X122006Y315501D01*
X120056Y314693D01*
X117944Y314693D01*
X115994Y315501D01*
X114501Y316994D01*
X113693Y318944D01*
X113693Y320829D01*
X113681Y320927D01*
X113678Y321026D01*
X113661Y321084D01*
X113653Y321144D01*
X113617Y321236D01*
X113589Y321331D01*
X113559Y321384D01*
X113536Y321440D01*
X113478Y321520D01*
X113428Y321605D01*
X113362Y321681D01*
X113350Y321697D01*
X113340Y321705D01*
X113322Y321726D01*
X104205Y330842D01*
X104205Y331764D01*
X104193Y331862D01*
X104190Y331961D01*
X104173Y332020D01*
X104165Y332080D01*
X104129Y332172D01*
X104101Y332267D01*
X104071Y332319D01*
X104048Y332375D01*
X103990Y332455D01*
X103940Y332541D01*
X103874Y332616D01*
X103862Y332633D01*
X103852Y332640D01*
X103834Y332662D01*
X102501Y333994D01*
X101693Y335944D01*
X101693Y338056D01*
X102501Y340006D01*
X103156Y340660D01*
X103216Y340739D01*
X103284Y340811D01*
X103313Y340864D01*
X103350Y340912D01*
X103390Y341003D01*
X103438Y341089D01*
X103453Y341148D01*
X103477Y341204D01*
X103492Y341301D01*
X103517Y341397D01*
X103523Y341497D01*
X103527Y341518D01*
X103525Y341530D01*
X103527Y341558D01*
X103527Y360958D01*
X103510Y361096D01*
X103497Y361235D01*
X103490Y361254D01*
X103487Y361274D01*
X103436Y361403D01*
X103389Y361534D01*
X103378Y361551D01*
X103370Y361569D01*
X103289Y361682D01*
X103211Y361797D01*
X103195Y361810D01*
X103184Y361827D01*
X103076Y361916D01*
X102972Y362007D01*
X102954Y362017D01*
X102939Y362030D01*
X102813Y362089D01*
X102689Y362152D01*
X102669Y362156D01*
X102651Y362165D01*
X102514Y362191D01*
X102379Y362222D01*
X102358Y362221D01*
X102339Y362225D01*
X102200Y362216D01*
X102061Y362212D01*
X102041Y362206D01*
X102021Y362205D01*
X101889Y362162D01*
X101755Y362124D01*
X101738Y362113D01*
X101719Y362107D01*
X101601Y362033D01*
X101481Y361962D01*
X101460Y361944D01*
X101450Y361937D01*
X101436Y361922D01*
X101361Y361856D01*
X100006Y360501D01*
X98056Y359693D01*
X96996Y359693D01*
X96878Y359678D01*
X96759Y359671D01*
X96721Y359658D01*
X96680Y359653D01*
X96570Y359610D01*
X96457Y359573D01*
X96422Y359551D01*
X96385Y359536D01*
X96289Y359467D01*
X96188Y359403D01*
X96160Y359373D01*
X96127Y359350D01*
X96051Y359258D01*
X95970Y359171D01*
X95950Y359136D01*
X95925Y359105D01*
X95874Y358997D01*
X95816Y358893D01*
X95806Y358853D01*
X95789Y358817D01*
X95767Y358700D01*
X95737Y358585D01*
X95733Y358525D01*
X95729Y358505D01*
X95731Y358484D01*
X95727Y358424D01*
X95727Y194684D01*
X95744Y194546D01*
X95757Y194408D01*
X95764Y194389D01*
X95767Y194368D01*
X95818Y194239D01*
X95865Y194108D01*
X95876Y194092D01*
X95884Y194073D01*
X95965Y193961D01*
X96043Y193845D01*
X96059Y193832D01*
X96070Y193815D01*
X96178Y193727D01*
X96282Y193635D01*
X96300Y193626D01*
X96315Y193613D01*
X96441Y193553D01*
X96565Y193490D01*
X96585Y193486D01*
X96603Y193477D01*
X96739Y193451D01*
X96875Y193420D01*
X96896Y193421D01*
X96915Y193417D01*
X97054Y193426D01*
G37*
G36*
X141035Y86274D02*
X141035Y86274D01*
X141173Y86283D01*
X141192Y86289D01*
X141212Y86291D01*
X141344Y86338D01*
X141475Y86381D01*
X141493Y86392D01*
X141512Y86399D01*
X141627Y86477D01*
X141744Y86551D01*
X141758Y86566D01*
X141775Y86577D01*
X141867Y86681D01*
X141962Y86783D01*
X141972Y86800D01*
X141985Y86816D01*
X142049Y86940D01*
X142116Y87061D01*
X142121Y87081D01*
X142130Y87099D01*
X142160Y87235D01*
X142195Y87369D01*
X142197Y87397D01*
X142200Y87409D01*
X142199Y87430D01*
X142205Y87530D01*
X142205Y93818D01*
X142199Y93867D01*
X142201Y93916D01*
X142179Y94024D01*
X142165Y94133D01*
X142147Y94179D01*
X142137Y94228D01*
X142089Y94326D01*
X142048Y94429D01*
X142019Y94469D01*
X141997Y94514D01*
X141926Y94597D01*
X141862Y94686D01*
X141823Y94718D01*
X141791Y94756D01*
X141701Y94819D01*
X141617Y94889D01*
X141572Y94910D01*
X141531Y94939D01*
X141428Y94978D01*
X141329Y95024D01*
X141280Y95034D01*
X141234Y95051D01*
X141124Y95064D01*
X141017Y95084D01*
X140967Y95081D01*
X140918Y95087D01*
X140809Y95071D01*
X140699Y95064D01*
X140652Y95049D01*
X140603Y95042D01*
X140450Y94990D01*
X139734Y94693D01*
X137622Y94693D01*
X135672Y95501D01*
X134179Y96994D01*
X133371Y98944D01*
X133371Y101056D01*
X134179Y103006D01*
X135672Y104499D01*
X136104Y104678D01*
X136129Y104692D01*
X136157Y104701D01*
X136267Y104771D01*
X136380Y104835D01*
X136401Y104856D01*
X136426Y104872D01*
X136515Y104966D01*
X136608Y105056D01*
X136624Y105082D01*
X136644Y105103D01*
X136707Y105217D01*
X136775Y105328D01*
X136783Y105356D01*
X136798Y105382D01*
X136830Y105507D01*
X136868Y105632D01*
X136870Y105661D01*
X136877Y105690D01*
X136887Y105850D01*
X136887Y134946D01*
X140326Y138384D01*
X140386Y138463D01*
X140454Y138535D01*
X140483Y138588D01*
X140520Y138636D01*
X140560Y138727D01*
X140608Y138813D01*
X140623Y138872D01*
X140647Y138928D01*
X140662Y139026D01*
X140687Y139121D01*
X140693Y139221D01*
X140697Y139242D01*
X140695Y139254D01*
X140697Y139282D01*
X140697Y144272D01*
X140685Y144370D01*
X140682Y144469D01*
X140665Y144528D01*
X140657Y144588D01*
X140621Y144680D01*
X140593Y144775D01*
X140563Y144827D01*
X140540Y144883D01*
X140482Y144963D01*
X140432Y145049D01*
X140366Y145124D01*
X140354Y145141D01*
X140344Y145148D01*
X140326Y145170D01*
X139501Y145994D01*
X138693Y147944D01*
X138693Y150056D01*
X139501Y152006D01*
X140994Y153499D01*
X142944Y154307D01*
X145056Y154307D01*
X147006Y153499D01*
X148499Y152006D01*
X149307Y150056D01*
X149307Y147944D01*
X148499Y145994D01*
X147674Y145170D01*
X147614Y145091D01*
X147546Y145019D01*
X147517Y144966D01*
X147480Y144918D01*
X147440Y144827D01*
X147392Y144741D01*
X147377Y144682D01*
X147353Y144626D01*
X147338Y144529D01*
X147313Y144433D01*
X147307Y144333D01*
X147303Y144312D01*
X147305Y144300D01*
X147303Y144272D01*
X147303Y141319D01*
X147320Y141182D01*
X147333Y141043D01*
X147340Y141024D01*
X147343Y141004D01*
X147394Y140875D01*
X147441Y140744D01*
X147452Y140727D01*
X147460Y140708D01*
X147541Y140596D01*
X147619Y140481D01*
X147635Y140467D01*
X147646Y140451D01*
X147754Y140362D01*
X147858Y140270D01*
X147876Y140261D01*
X147891Y140248D01*
X148017Y140189D01*
X148141Y140125D01*
X148161Y140121D01*
X148179Y140112D01*
X148315Y140086D01*
X148451Y140056D01*
X148472Y140056D01*
X148491Y140053D01*
X148630Y140061D01*
X148769Y140065D01*
X148789Y140071D01*
X148809Y140072D01*
X148941Y140115D01*
X149075Y140154D01*
X149092Y140164D01*
X149111Y140170D01*
X149229Y140245D01*
X149349Y140315D01*
X149370Y140334D01*
X149380Y140341D01*
X149394Y140355D01*
X149469Y140422D01*
X161579Y152531D01*
X161609Y152570D01*
X161646Y152604D01*
X161706Y152695D01*
X161774Y152782D01*
X161793Y152828D01*
X161821Y152869D01*
X161856Y152973D01*
X161900Y153074D01*
X161908Y153123D01*
X161924Y153170D01*
X161933Y153280D01*
X161950Y153388D01*
X161945Y153438D01*
X161949Y153487D01*
X161930Y153595D01*
X161920Y153705D01*
X161903Y153752D01*
X161895Y153801D01*
X161850Y153901D01*
X161812Y154004D01*
X161784Y154045D01*
X161764Y154091D01*
X161696Y154176D01*
X161634Y154267D01*
X161597Y154300D01*
X161566Y154339D01*
X161478Y154405D01*
X161395Y154478D01*
X161351Y154500D01*
X161311Y154530D01*
X161167Y154601D01*
X158994Y155501D01*
X157501Y156994D01*
X156693Y158944D01*
X156693Y161056D01*
X157501Y163006D01*
X158580Y164084D01*
X158640Y164163D01*
X158708Y164235D01*
X158737Y164288D01*
X158774Y164336D01*
X158814Y164427D01*
X158862Y164513D01*
X158877Y164572D01*
X158901Y164628D01*
X158916Y164725D01*
X158941Y164821D01*
X158947Y164920D01*
X158949Y164927D01*
X158949Y164929D01*
X158951Y164942D01*
X158949Y164954D01*
X158951Y164982D01*
X158951Y189263D01*
X159322Y189633D01*
X159382Y189711D01*
X159450Y189783D01*
X159479Y189836D01*
X159516Y189884D01*
X159556Y189975D01*
X159604Y190062D01*
X159619Y190121D01*
X159643Y190176D01*
X159658Y190274D01*
X159683Y190370D01*
X159689Y190470D01*
X159693Y190490D01*
X159691Y190503D01*
X159693Y190531D01*
X159693Y192056D01*
X160501Y194006D01*
X161994Y195499D01*
X162799Y195832D01*
X162842Y195857D01*
X162889Y195874D01*
X162980Y195935D01*
X163075Y195990D01*
X163111Y196024D01*
X163152Y196052D01*
X163224Y196135D01*
X163303Y196211D01*
X163329Y196253D01*
X163362Y196291D01*
X163412Y196388D01*
X163470Y196482D01*
X163484Y196530D01*
X163507Y196574D01*
X163531Y196681D01*
X163563Y196786D01*
X163566Y196836D01*
X163576Y196884D01*
X163573Y196994D01*
X163578Y197104D01*
X163568Y197152D01*
X163567Y197202D01*
X163536Y197307D01*
X163514Y197415D01*
X163492Y197460D01*
X163478Y197508D01*
X163423Y197602D01*
X163374Y197701D01*
X163342Y197739D01*
X163317Y197781D01*
X163210Y197902D01*
X162189Y198924D01*
X161381Y200874D01*
X161381Y202986D01*
X162189Y204936D01*
X163291Y206039D01*
X163376Y206148D01*
X163465Y206255D01*
X163474Y206274D01*
X163486Y206290D01*
X163541Y206417D01*
X163601Y206543D01*
X163604Y206563D01*
X163612Y206582D01*
X163634Y206720D01*
X163660Y206856D01*
X163659Y206876D01*
X163662Y206896D01*
X163649Y207035D01*
X163641Y207173D01*
X163634Y207192D01*
X163632Y207212D01*
X163585Y207344D01*
X163543Y207475D01*
X163532Y207493D01*
X163525Y207512D01*
X163447Y207627D01*
X163372Y207744D01*
X163358Y207758D01*
X163346Y207775D01*
X163242Y207867D01*
X163141Y207962D01*
X163123Y207972D01*
X163108Y207985D01*
X162984Y208049D01*
X162862Y208116D01*
X162843Y208121D01*
X162825Y208130D01*
X162689Y208160D01*
X162554Y208195D01*
X162526Y208197D01*
X162514Y208200D01*
X162494Y208199D01*
X162394Y208205D01*
X157683Y208205D01*
X157585Y208193D01*
X157486Y208190D01*
X157428Y208173D01*
X157368Y208165D01*
X157276Y208129D01*
X157181Y208101D01*
X157128Y208071D01*
X157072Y208048D01*
X156992Y207990D01*
X156907Y207940D01*
X156831Y207874D01*
X156815Y207862D01*
X156807Y207852D01*
X156786Y207834D01*
X145158Y196205D01*
X117683Y196205D01*
X117585Y196193D01*
X117486Y196190D01*
X117428Y196173D01*
X117368Y196165D01*
X117276Y196129D01*
X117181Y196101D01*
X117128Y196071D01*
X117072Y196048D01*
X116992Y195990D01*
X116907Y195940D01*
X116831Y195874D01*
X116815Y195862D01*
X116807Y195852D01*
X116786Y195834D01*
X111678Y190726D01*
X111618Y190648D01*
X111550Y190576D01*
X111521Y190523D01*
X111484Y190475D01*
X111444Y190384D01*
X111396Y190297D01*
X111381Y190239D01*
X111357Y190183D01*
X111342Y190085D01*
X111317Y189989D01*
X111311Y189889D01*
X111307Y189869D01*
X111309Y189857D01*
X111307Y189829D01*
X111307Y187944D01*
X110499Y185994D01*
X109006Y184501D01*
X107056Y183693D01*
X104944Y183693D01*
X104550Y183857D01*
X104502Y183870D01*
X104457Y183891D01*
X104349Y183912D01*
X104243Y183941D01*
X104193Y183941D01*
X104144Y183951D01*
X104035Y183944D01*
X103925Y183946D01*
X103877Y183934D01*
X103827Y183931D01*
X103723Y183897D01*
X103616Y183872D01*
X103572Y183848D01*
X103525Y183833D01*
X103432Y183774D01*
X103335Y183723D01*
X103298Y183689D01*
X103256Y183663D01*
X103181Y183583D01*
X103099Y183509D01*
X103072Y183467D01*
X103038Y183431D01*
X102985Y183335D01*
X102925Y183243D01*
X102908Y183196D01*
X102884Y183153D01*
X102857Y183047D01*
X102821Y182942D01*
X102817Y182893D01*
X102805Y182845D01*
X102795Y182684D01*
X102795Y181064D01*
X102810Y180946D01*
X102817Y180827D01*
X102830Y180789D01*
X102835Y180748D01*
X102878Y180638D01*
X102915Y180525D01*
X102937Y180490D01*
X102952Y180453D01*
X103021Y180357D01*
X103085Y180256D01*
X103115Y180228D01*
X103138Y180195D01*
X103230Y180119D01*
X103317Y180038D01*
X103352Y180018D01*
X103383Y179993D01*
X103491Y179942D01*
X103595Y179884D01*
X103635Y179874D01*
X103671Y179857D01*
X103788Y179835D01*
X103903Y179805D01*
X103963Y179801D01*
X103983Y179797D01*
X104004Y179799D01*
X104064Y179795D01*
X115511Y179795D01*
X115609Y179807D01*
X115708Y179810D01*
X115766Y179827D01*
X115826Y179835D01*
X115918Y179871D01*
X116013Y179899D01*
X116066Y179929D01*
X116122Y179952D01*
X116202Y180010D01*
X116287Y180060D01*
X116363Y180126D01*
X116379Y180138D01*
X116387Y180148D01*
X116408Y180166D01*
X119322Y183080D01*
X119382Y183158D01*
X119450Y183230D01*
X119479Y183283D01*
X119516Y183331D01*
X119556Y183422D01*
X119604Y183509D01*
X119619Y183567D01*
X119643Y183623D01*
X119658Y183721D01*
X119683Y183817D01*
X119689Y183917D01*
X119693Y183937D01*
X119691Y183949D01*
X119693Y183977D01*
X119693Y185862D01*
X120501Y187812D01*
X121994Y189305D01*
X123944Y190113D01*
X126056Y190113D01*
X128006Y189305D01*
X129499Y187812D01*
X130307Y185862D01*
X130307Y183750D01*
X129499Y181800D01*
X128006Y180307D01*
X126056Y179499D01*
X124171Y179499D01*
X124073Y179487D01*
X123974Y179484D01*
X123916Y179467D01*
X123856Y179459D01*
X123764Y179423D01*
X123669Y179395D01*
X123616Y179365D01*
X123560Y179342D01*
X123480Y179284D01*
X123395Y179234D01*
X123319Y179168D01*
X123303Y179156D01*
X123295Y179146D01*
X123274Y179128D01*
X118352Y174205D01*
X98842Y174205D01*
X97893Y175154D01*
X97784Y175239D01*
X97677Y175328D01*
X97658Y175337D01*
X97642Y175349D01*
X97515Y175404D01*
X97389Y175464D01*
X97369Y175467D01*
X97350Y175475D01*
X97212Y175497D01*
X97076Y175523D01*
X97056Y175522D01*
X97036Y175525D01*
X96897Y175512D01*
X96759Y175504D01*
X96740Y175497D01*
X96720Y175496D01*
X96588Y175448D01*
X96457Y175406D01*
X96439Y175395D01*
X96420Y175388D01*
X96305Y175310D01*
X96188Y175235D01*
X96174Y175221D01*
X96157Y175209D01*
X96065Y175105D01*
X95970Y175004D01*
X95960Y174986D01*
X95947Y174971D01*
X95883Y174847D01*
X95816Y174725D01*
X95811Y174706D01*
X95802Y174688D01*
X95772Y174552D01*
X95737Y174417D01*
X95735Y174389D01*
X95732Y174377D01*
X95733Y174357D01*
X95727Y174257D01*
X95727Y169161D01*
X95744Y169023D01*
X95757Y168884D01*
X95764Y168865D01*
X95767Y168845D01*
X95818Y168716D01*
X95865Y168585D01*
X95876Y168568D01*
X95884Y168550D01*
X95965Y168437D01*
X96043Y168322D01*
X96059Y168309D01*
X96070Y168292D01*
X96178Y168203D01*
X96282Y168112D01*
X96300Y168102D01*
X96315Y168089D01*
X96441Y168030D01*
X96565Y167967D01*
X96585Y167963D01*
X96603Y167954D01*
X96740Y167928D01*
X96875Y167897D01*
X96896Y167898D01*
X96915Y167894D01*
X97054Y167903D01*
X97193Y167907D01*
X97213Y167913D01*
X97233Y167914D01*
X97365Y167957D01*
X97499Y167995D01*
X97516Y168006D01*
X97535Y168012D01*
X97653Y168086D01*
X97773Y168157D01*
X97794Y168176D01*
X97804Y168182D01*
X97818Y168197D01*
X97894Y168263D01*
X97959Y168329D01*
X99909Y169137D01*
X102021Y169137D01*
X103971Y168329D01*
X105464Y166836D01*
X106272Y164886D01*
X106272Y162774D01*
X105464Y160824D01*
X104639Y160000D01*
X104579Y159921D01*
X104511Y159849D01*
X104482Y159796D01*
X104445Y159748D01*
X104405Y159657D01*
X104357Y159571D01*
X104342Y159512D01*
X104318Y159456D01*
X104303Y159359D01*
X104278Y159263D01*
X104272Y159163D01*
X104268Y159142D01*
X104270Y159130D01*
X104268Y159102D01*
X104268Y155794D01*
X102347Y153874D01*
X102329Y153851D01*
X102307Y153832D01*
X102232Y153726D01*
X102152Y153623D01*
X102141Y153596D01*
X102124Y153572D01*
X102078Y153450D01*
X102026Y153331D01*
X102021Y153302D01*
X102011Y153274D01*
X101997Y153145D01*
X101976Y153017D01*
X101979Y152987D01*
X101976Y152958D01*
X101994Y152830D01*
X102006Y152700D01*
X102016Y152672D01*
X102020Y152643D01*
X102072Y152491D01*
X102462Y151551D01*
X102462Y149439D01*
X101654Y147489D01*
X100161Y145996D01*
X98211Y145188D01*
X96099Y145188D01*
X94149Y145996D01*
X92656Y147489D01*
X91848Y149439D01*
X91848Y151551D01*
X91971Y151847D01*
X91983Y151890D01*
X91998Y151922D01*
X92002Y151944D01*
X92017Y151978D01*
X92031Y152067D01*
X92055Y152154D01*
X92056Y152223D01*
X92058Y152234D01*
X92058Y152235D01*
X92067Y152292D01*
X92059Y152382D01*
X92060Y152472D01*
X92044Y152539D01*
X92037Y152609D01*
X92007Y152694D01*
X91986Y152781D01*
X91953Y152843D01*
X91930Y152908D01*
X91879Y152983D01*
X91837Y153062D01*
X91790Y153114D01*
X91751Y153171D01*
X91684Y153231D01*
X91623Y153297D01*
X91565Y153336D01*
X91513Y153382D01*
X91433Y153423D01*
X91358Y153472D01*
X91291Y153495D01*
X91229Y153526D01*
X91142Y153546D01*
X91057Y153575D01*
X90987Y153581D01*
X90919Y153596D01*
X90829Y153593D01*
X90740Y153601D01*
X90671Y153589D01*
X90601Y153586D01*
X90515Y153562D01*
X90426Y153546D01*
X90363Y153517D01*
X90296Y153498D01*
X90218Y153453D01*
X90136Y153416D01*
X90082Y153372D01*
X90022Y153337D01*
X89915Y153243D01*
X89912Y153241D01*
X89911Y153239D01*
X89901Y153230D01*
X84485Y147815D01*
X84412Y147720D01*
X84333Y147631D01*
X84315Y147595D01*
X84290Y147563D01*
X84243Y147454D01*
X84189Y147348D01*
X84180Y147309D01*
X84164Y147271D01*
X84145Y147154D01*
X84119Y147038D01*
X84121Y146997D01*
X84114Y146957D01*
X84125Y146838D01*
X84129Y146720D01*
X84140Y146681D01*
X84144Y146641D01*
X84184Y146529D01*
X84217Y146414D01*
X84238Y146379D01*
X84252Y146341D01*
X84318Y146243D01*
X84379Y146140D01*
X84419Y146095D01*
X84430Y146078D01*
X84445Y146065D01*
X84485Y146019D01*
X84499Y146006D01*
X85307Y144056D01*
X85307Y141944D01*
X84499Y139994D01*
X83674Y139170D01*
X83614Y139091D01*
X83546Y139019D01*
X83517Y138966D01*
X83480Y138918D01*
X83440Y138827D01*
X83392Y138741D01*
X83377Y138682D01*
X83353Y138626D01*
X83338Y138529D01*
X83313Y138433D01*
X83307Y138333D01*
X83303Y138312D01*
X83305Y138300D01*
X83303Y138272D01*
X83303Y112894D01*
X83315Y112796D01*
X83318Y112697D01*
X83335Y112638D01*
X83343Y112578D01*
X83379Y112486D01*
X83407Y112391D01*
X83437Y112339D01*
X83460Y112283D01*
X83518Y112203D01*
X83568Y112117D01*
X83634Y112042D01*
X83646Y112025D01*
X83656Y112017D01*
X83674Y111996D01*
X85992Y109678D01*
X86071Y109618D01*
X86143Y109550D01*
X86196Y109521D01*
X86244Y109484D01*
X86335Y109444D01*
X86421Y109396D01*
X86480Y109381D01*
X86535Y109357D01*
X86633Y109342D01*
X86729Y109317D01*
X86829Y109311D01*
X86850Y109307D01*
X86862Y109309D01*
X86890Y109307D01*
X88056Y109307D01*
X90006Y108499D01*
X91499Y107006D01*
X92307Y105056D01*
X92307Y102944D01*
X91583Y101196D01*
X91575Y101168D01*
X91561Y101141D01*
X91533Y101015D01*
X91499Y100889D01*
X91498Y100860D01*
X91492Y100831D01*
X91496Y100701D01*
X91494Y100572D01*
X91500Y100543D01*
X91501Y100513D01*
X91537Y100389D01*
X91568Y100262D01*
X91582Y100236D01*
X91590Y100208D01*
X91656Y100096D01*
X91716Y99981D01*
X91736Y99959D01*
X91751Y99934D01*
X91858Y99813D01*
X95996Y95674D01*
X96075Y95614D01*
X96147Y95546D01*
X96200Y95517D01*
X96248Y95480D01*
X96339Y95440D01*
X96425Y95392D01*
X96484Y95377D01*
X96539Y95353D01*
X96637Y95338D01*
X96733Y95313D01*
X96833Y95307D01*
X96854Y95303D01*
X96866Y95305D01*
X96894Y95303D01*
X131368Y95303D01*
X140039Y86632D01*
X140148Y86547D01*
X140255Y86458D01*
X140274Y86450D01*
X140290Y86437D01*
X140418Y86382D01*
X140543Y86323D01*
X140563Y86319D01*
X140582Y86311D01*
X140720Y86289D01*
X140856Y86263D01*
X140876Y86264D01*
X140896Y86261D01*
X141035Y86274D01*
G37*
G36*
X34465Y239214D02*
X34465Y239214D01*
X34555Y239219D01*
X34621Y239241D01*
X34690Y239253D01*
X34772Y239290D01*
X34857Y239317D01*
X34916Y239355D01*
X34980Y239383D01*
X35050Y239440D01*
X35126Y239488D01*
X35174Y239538D01*
X35229Y239582D01*
X35283Y239654D01*
X35344Y239719D01*
X35378Y239780D01*
X35420Y239836D01*
X35491Y239981D01*
X35501Y240006D01*
X36994Y241499D01*
X38944Y242307D01*
X40469Y242307D01*
X40568Y242319D01*
X40667Y242322D01*
X40725Y242339D01*
X40785Y242347D01*
X40877Y242383D01*
X40972Y242411D01*
X41024Y242441D01*
X41081Y242464D01*
X41161Y242522D01*
X41246Y242572D01*
X41321Y242638D01*
X41338Y242650D01*
X41346Y242660D01*
X41367Y242678D01*
X54737Y256049D01*
X76018Y256049D01*
X76116Y256061D01*
X76215Y256064D01*
X76274Y256081D01*
X76334Y256089D01*
X76426Y256125D01*
X76521Y256153D01*
X76573Y256183D01*
X76629Y256206D01*
X76709Y256264D01*
X76795Y256314D01*
X76870Y256380D01*
X76887Y256392D01*
X76894Y256402D01*
X76916Y256420D01*
X77994Y257499D01*
X79944Y258307D01*
X82056Y258307D01*
X83450Y257729D01*
X83498Y257716D01*
X83543Y257695D01*
X83651Y257674D01*
X83757Y257645D01*
X83807Y257644D01*
X83856Y257635D01*
X83965Y257642D01*
X84075Y257640D01*
X84123Y257652D01*
X84173Y257655D01*
X84277Y257689D01*
X84384Y257714D01*
X84428Y257737D01*
X84475Y257753D01*
X84568Y257812D01*
X84665Y257863D01*
X84702Y257896D01*
X84744Y257923D01*
X84819Y258003D01*
X84901Y258077D01*
X84928Y258118D01*
X84962Y258155D01*
X85015Y258251D01*
X85075Y258343D01*
X85092Y258390D01*
X85116Y258433D01*
X85143Y258539D01*
X85179Y258643D01*
X85183Y258693D01*
X85195Y258741D01*
X85202Y258847D01*
X85203Y258852D01*
X85202Y258857D01*
X85205Y258902D01*
X85205Y356828D01*
X85199Y356877D01*
X85201Y356927D01*
X85179Y357034D01*
X85165Y357143D01*
X85147Y357190D01*
X85137Y357238D01*
X85089Y357337D01*
X85048Y357439D01*
X85019Y357479D01*
X84997Y357524D01*
X84926Y357607D01*
X84862Y357696D01*
X84823Y357728D01*
X84791Y357766D01*
X84701Y357829D01*
X84617Y357899D01*
X84572Y357920D01*
X84531Y357949D01*
X84428Y357988D01*
X84329Y358035D01*
X84280Y358044D01*
X84234Y358062D01*
X84124Y358074D01*
X84017Y358094D01*
X83967Y358091D01*
X83918Y358097D01*
X83809Y358082D01*
X83699Y358075D01*
X83652Y358059D01*
X83603Y358052D01*
X83450Y358000D01*
X82105Y357443D01*
X79895Y357443D01*
X77852Y358289D01*
X76289Y359852D01*
X76221Y360018D01*
X76186Y360079D01*
X76160Y360144D01*
X76108Y360216D01*
X76063Y360294D01*
X76015Y360344D01*
X75974Y360401D01*
X75904Y360458D01*
X75842Y360523D01*
X75782Y360559D01*
X75729Y360604D01*
X75647Y360642D01*
X75571Y360689D01*
X75504Y360710D01*
X75441Y360739D01*
X75353Y360756D01*
X75267Y360783D01*
X75197Y360786D01*
X75128Y360799D01*
X75039Y360793D01*
X74949Y360798D01*
X74881Y360784D01*
X74811Y360779D01*
X74726Y360752D01*
X74638Y360733D01*
X74575Y360703D01*
X74509Y360681D01*
X74433Y360633D01*
X74352Y360594D01*
X74299Y360548D01*
X74240Y360511D01*
X74178Y360446D01*
X74110Y360387D01*
X74070Y360330D01*
X74022Y360279D01*
X73979Y360201D01*
X73927Y360127D01*
X73902Y360062D01*
X73868Y360001D01*
X73846Y359914D01*
X73814Y359830D01*
X73806Y359761D01*
X73789Y359693D01*
X73779Y359532D01*
X73779Y292435D01*
X62678Y281335D01*
X62618Y281256D01*
X62550Y281184D01*
X62521Y281131D01*
X62484Y281083D01*
X62444Y280992D01*
X62396Y280906D01*
X62381Y280847D01*
X62357Y280791D01*
X62342Y280693D01*
X62317Y280598D01*
X62311Y280498D01*
X62307Y280477D01*
X62309Y280465D01*
X62307Y280437D01*
X62307Y279944D01*
X61499Y277994D01*
X60006Y276501D01*
X58056Y275693D01*
X56531Y275693D01*
X56432Y275681D01*
X56333Y275678D01*
X56275Y275661D01*
X56215Y275653D01*
X56123Y275617D01*
X56028Y275589D01*
X55976Y275559D01*
X55919Y275536D01*
X55839Y275478D01*
X55754Y275428D01*
X55679Y275362D01*
X55662Y275350D01*
X55654Y275340D01*
X55633Y275322D01*
X33420Y253109D01*
X33360Y253031D01*
X33292Y252959D01*
X33263Y252906D01*
X33226Y252858D01*
X33186Y252767D01*
X33138Y252680D01*
X33123Y252621D01*
X33099Y252566D01*
X33084Y252468D01*
X33059Y252372D01*
X33053Y252272D01*
X33049Y252252D01*
X33051Y252239D01*
X33049Y252211D01*
X33049Y240466D01*
X33057Y240397D01*
X33056Y240327D01*
X33077Y240240D01*
X33089Y240151D01*
X33114Y240086D01*
X33131Y240018D01*
X33173Y239938D01*
X33206Y239855D01*
X33247Y239799D01*
X33279Y239737D01*
X33340Y239670D01*
X33392Y239598D01*
X33446Y239553D01*
X33493Y239501D01*
X33568Y239452D01*
X33637Y239395D01*
X33701Y239365D01*
X33759Y239327D01*
X33844Y239298D01*
X33925Y239259D01*
X33994Y239246D01*
X34060Y239224D01*
X34149Y239216D01*
X34237Y239200D01*
X34307Y239204D01*
X34377Y239198D01*
X34465Y239214D01*
G37*
%LPC*%
G36*
X323944Y221693D02*
X323944Y221693D01*
X321994Y222501D01*
X320501Y223994D01*
X319693Y225944D01*
X319693Y227829D01*
X319681Y227927D01*
X319678Y228026D01*
X319661Y228084D01*
X319653Y228144D01*
X319617Y228236D01*
X319589Y228331D01*
X319559Y228384D01*
X319536Y228440D01*
X319478Y228520D01*
X319428Y228605D01*
X319362Y228681D01*
X319350Y228697D01*
X319340Y228705D01*
X319322Y228726D01*
X312214Y235834D01*
X310205Y237842D01*
X310205Y257764D01*
X310193Y257862D01*
X310190Y257961D01*
X310173Y258019D01*
X310165Y258080D01*
X310129Y258172D01*
X310102Y258267D01*
X310071Y258319D01*
X310048Y258375D01*
X309990Y258455D01*
X309940Y258541D01*
X309874Y258616D01*
X309862Y258633D01*
X309852Y258641D01*
X309834Y258662D01*
X309662Y258833D01*
X309584Y258894D01*
X309511Y258962D01*
X309458Y258991D01*
X309410Y259028D01*
X309319Y259068D01*
X309233Y259116D01*
X309174Y259131D01*
X309119Y259155D01*
X309021Y259170D01*
X308925Y259195D01*
X308825Y259201D01*
X308805Y259205D01*
X308792Y259203D01*
X308764Y259205D01*
X254236Y259205D01*
X254138Y259193D01*
X254039Y259190D01*
X253980Y259173D01*
X253920Y259165D01*
X253828Y259129D01*
X253733Y259101D01*
X253681Y259071D01*
X253625Y259048D01*
X253545Y258990D01*
X253459Y258940D01*
X253384Y258874D01*
X253367Y258862D01*
X253360Y258852D01*
X253338Y258834D01*
X252006Y257501D01*
X250056Y256693D01*
X247944Y256693D01*
X245994Y257501D01*
X244501Y258994D01*
X243693Y260944D01*
X243693Y263056D01*
X244501Y265006D01*
X245994Y266499D01*
X247944Y267307D01*
X250056Y267307D01*
X252006Y266499D01*
X253338Y265166D01*
X253417Y265106D01*
X253489Y265038D01*
X253542Y265009D01*
X253590Y264972D01*
X253681Y264932D01*
X253767Y264884D01*
X253826Y264869D01*
X253882Y264845D01*
X253979Y264830D01*
X254075Y264805D01*
X254175Y264799D01*
X254196Y264795D01*
X254208Y264797D01*
X254236Y264795D01*
X307151Y264795D01*
X307181Y264798D01*
X307210Y264796D01*
X307338Y264818D01*
X307467Y264835D01*
X307494Y264845D01*
X307523Y264851D01*
X307642Y264904D01*
X307763Y264952D01*
X307786Y264969D01*
X307813Y264981D01*
X307915Y265062D01*
X308020Y265138D01*
X308039Y265161D01*
X308062Y265180D01*
X308140Y265283D01*
X308223Y265383D01*
X308235Y265410D01*
X308253Y265434D01*
X308324Y265578D01*
X308501Y266006D01*
X309994Y267499D01*
X311944Y268307D01*
X314056Y268307D01*
X316006Y267499D01*
X317499Y266006D01*
X318307Y264056D01*
X318307Y261944D01*
X317499Y259994D01*
X316166Y258662D01*
X316106Y258583D01*
X316038Y258511D01*
X316009Y258458D01*
X315972Y258410D01*
X315932Y258319D01*
X315884Y258233D01*
X315869Y258174D01*
X315845Y258118D01*
X315830Y258021D01*
X315805Y257925D01*
X315799Y257825D01*
X315795Y257804D01*
X315797Y257792D01*
X315795Y257764D01*
X315795Y240683D01*
X315807Y240585D01*
X315810Y240486D01*
X315827Y240428D01*
X315835Y240368D01*
X315871Y240276D01*
X315899Y240181D01*
X315929Y240128D01*
X315952Y240072D01*
X316010Y239992D01*
X316060Y239907D01*
X316126Y239831D01*
X316138Y239815D01*
X316148Y239807D01*
X316166Y239786D01*
X323274Y232678D01*
X323352Y232618D01*
X323424Y232550D01*
X323477Y232521D01*
X323525Y232484D01*
X323616Y232444D01*
X323703Y232396D01*
X323761Y232381D01*
X323817Y232357D01*
X323915Y232342D01*
X324011Y232317D01*
X324111Y232311D01*
X324131Y232307D01*
X324143Y232309D01*
X324171Y232307D01*
X326056Y232307D01*
X328006Y231499D01*
X329499Y230006D01*
X330307Y228056D01*
X330307Y225944D01*
X329499Y223994D01*
X328006Y222501D01*
X326056Y221693D01*
X323944Y221693D01*
G37*
%LPD*%
%LPC*%
G36*
X147944Y360693D02*
X147944Y360693D01*
X145994Y361501D01*
X144501Y362994D01*
X143693Y364944D01*
X143693Y367056D01*
X144501Y369006D01*
X145834Y370338D01*
X145894Y370417D01*
X145962Y370489D01*
X145991Y370542D01*
X146028Y370590D01*
X146068Y370681D01*
X146116Y370767D01*
X146131Y370826D01*
X146155Y370882D01*
X146170Y370979D01*
X146195Y371075D01*
X146201Y371175D01*
X146205Y371196D01*
X146203Y371208D01*
X146205Y371236D01*
X146205Y407764D01*
X146193Y407862D01*
X146190Y407961D01*
X146173Y408020D01*
X146165Y408080D01*
X146129Y408172D01*
X146101Y408267D01*
X146071Y408319D01*
X146048Y408375D01*
X145990Y408455D01*
X145940Y408541D01*
X145874Y408616D01*
X145862Y408633D01*
X145852Y408640D01*
X145834Y408662D01*
X144501Y409994D01*
X143693Y411944D01*
X143693Y414056D01*
X144501Y416006D01*
X145598Y417103D01*
X145671Y417197D01*
X145749Y417286D01*
X145768Y417322D01*
X145793Y417354D01*
X145840Y417463D01*
X145894Y417569D01*
X145903Y417608D01*
X145919Y417646D01*
X145938Y417763D01*
X145964Y417879D01*
X145962Y417920D01*
X145969Y417960D01*
X145958Y418078D01*
X145954Y418197D01*
X145943Y418236D01*
X145939Y418276D01*
X145899Y418388D01*
X145866Y418503D01*
X145845Y418538D01*
X145831Y418576D01*
X145765Y418674D01*
X145704Y418777D01*
X145664Y418822D01*
X145653Y418839D01*
X145637Y418852D01*
X145598Y418898D01*
X144662Y419834D01*
X144583Y419894D01*
X144511Y419962D01*
X144458Y419991D01*
X144410Y420028D01*
X144319Y420068D01*
X144233Y420116D01*
X144174Y420131D01*
X144118Y420155D01*
X144021Y420170D01*
X143925Y420195D01*
X143825Y420201D01*
X143804Y420205D01*
X143792Y420203D01*
X143764Y420205D01*
X130236Y420205D01*
X130138Y420193D01*
X130039Y420190D01*
X129980Y420173D01*
X129920Y420165D01*
X129828Y420129D01*
X129733Y420101D01*
X129681Y420071D01*
X129625Y420048D01*
X129545Y419990D01*
X129459Y419940D01*
X129384Y419874D01*
X129367Y419862D01*
X129360Y419852D01*
X129338Y419834D01*
X128006Y418501D01*
X126056Y417693D01*
X123944Y417693D01*
X121994Y418501D01*
X120501Y419994D01*
X119693Y421944D01*
X119693Y424056D01*
X120501Y426006D01*
X121994Y427499D01*
X123944Y428307D01*
X126056Y428307D01*
X128006Y427499D01*
X129338Y426166D01*
X129417Y426106D01*
X129489Y426038D01*
X129542Y426009D01*
X129590Y425972D01*
X129681Y425932D01*
X129767Y425884D01*
X129826Y425869D01*
X129882Y425845D01*
X129979Y425830D01*
X130075Y425805D01*
X130175Y425799D01*
X130196Y425795D01*
X130208Y425797D01*
X130236Y425795D01*
X143764Y425795D01*
X143862Y425807D01*
X143961Y425810D01*
X144020Y425827D01*
X144080Y425835D01*
X144172Y425871D01*
X144267Y425899D01*
X144319Y425929D01*
X144375Y425952D01*
X144455Y426010D01*
X144541Y426060D01*
X144616Y426126D01*
X144633Y426138D01*
X144640Y426148D01*
X144662Y426166D01*
X145994Y427499D01*
X147944Y428307D01*
X150056Y428307D01*
X152006Y427499D01*
X153499Y426006D01*
X154307Y424056D01*
X154307Y421944D01*
X153499Y419994D01*
X152402Y418898D01*
X152330Y418804D01*
X152251Y418714D01*
X152232Y418678D01*
X152207Y418646D01*
X152160Y418537D01*
X152106Y418431D01*
X152097Y418392D01*
X152081Y418354D01*
X152062Y418237D01*
X152036Y418121D01*
X152038Y418080D01*
X152031Y418040D01*
X152042Y417922D01*
X152046Y417803D01*
X152057Y417764D01*
X152061Y417724D01*
X152101Y417611D01*
X152134Y417497D01*
X152155Y417463D01*
X152169Y417424D01*
X152235Y417326D01*
X152296Y417223D01*
X152336Y417178D01*
X152347Y417161D01*
X152362Y417148D01*
X152402Y417103D01*
X153499Y416006D01*
X154307Y414056D01*
X154307Y411944D01*
X153499Y409994D01*
X152166Y408662D01*
X152106Y408583D01*
X152038Y408511D01*
X152009Y408458D01*
X151972Y408410D01*
X151932Y408319D01*
X151884Y408233D01*
X151869Y408174D01*
X151845Y408118D01*
X151830Y408021D01*
X151805Y407925D01*
X151799Y407825D01*
X151795Y407804D01*
X151797Y407792D01*
X151795Y407764D01*
X151795Y371236D01*
X151807Y371138D01*
X151810Y371039D01*
X151827Y370980D01*
X151835Y370920D01*
X151871Y370828D01*
X151899Y370733D01*
X151929Y370681D01*
X151952Y370625D01*
X152010Y370545D01*
X152060Y370459D01*
X152126Y370384D01*
X152138Y370367D01*
X152148Y370360D01*
X152166Y370338D01*
X153499Y369006D01*
X154307Y367056D01*
X154307Y364944D01*
X153499Y362994D01*
X152006Y361501D01*
X150056Y360693D01*
X147944Y360693D01*
G37*
%LPD*%
%LPC*%
G36*
X340944Y275693D02*
X340944Y275693D01*
X338994Y276501D01*
X337501Y277994D01*
X336693Y279944D01*
X336693Y282056D01*
X337501Y284006D01*
X338580Y285084D01*
X338640Y285163D01*
X338708Y285235D01*
X338737Y285288D01*
X338774Y285336D01*
X338814Y285427D01*
X338862Y285513D01*
X338877Y285572D01*
X338901Y285628D01*
X338916Y285725D01*
X338941Y285821D01*
X338947Y285921D01*
X338951Y285942D01*
X338949Y285954D01*
X338951Y285982D01*
X338951Y332263D01*
X341322Y334633D01*
X341382Y334711D01*
X341450Y334783D01*
X341479Y334836D01*
X341516Y334884D01*
X341556Y334975D01*
X341604Y335062D01*
X341619Y335121D01*
X341643Y335176D01*
X341658Y335274D01*
X341683Y335370D01*
X341689Y335470D01*
X341693Y335490D01*
X341691Y335503D01*
X341693Y335531D01*
X341693Y337056D01*
X342501Y339006D01*
X343994Y340499D01*
X345944Y341307D01*
X348056Y341307D01*
X350006Y340499D01*
X351499Y339006D01*
X352307Y337056D01*
X352307Y334944D01*
X351499Y332994D01*
X350006Y331501D01*
X348056Y330693D01*
X346531Y330693D01*
X346432Y330681D01*
X346333Y330678D01*
X346275Y330661D01*
X346215Y330653D01*
X346123Y330617D01*
X346028Y330589D01*
X345976Y330559D01*
X345919Y330536D01*
X345839Y330478D01*
X345754Y330428D01*
X345679Y330362D01*
X345662Y330350D01*
X345654Y330340D01*
X345633Y330322D01*
X345420Y330109D01*
X345360Y330031D01*
X345292Y329959D01*
X345263Y329906D01*
X345226Y329858D01*
X345186Y329767D01*
X345138Y329680D01*
X345123Y329621D01*
X345099Y329566D01*
X345084Y329468D01*
X345059Y329372D01*
X345053Y329272D01*
X345049Y329252D01*
X345051Y329239D01*
X345049Y329211D01*
X345049Y285982D01*
X345061Y285884D01*
X345064Y285785D01*
X345081Y285726D01*
X345089Y285666D01*
X345125Y285574D01*
X345153Y285479D01*
X345183Y285427D01*
X345206Y285371D01*
X345264Y285291D01*
X345314Y285205D01*
X345380Y285130D01*
X345392Y285113D01*
X345402Y285106D01*
X345420Y285084D01*
X346499Y284006D01*
X347307Y282056D01*
X347307Y279944D01*
X346499Y277994D01*
X345006Y276501D01*
X343056Y275693D01*
X340944Y275693D01*
G37*
%LPD*%
%LPC*%
G36*
X86177Y13801D02*
X86177Y13801D01*
X81885Y15579D01*
X78599Y18865D01*
X76821Y23157D01*
X76821Y27803D01*
X78599Y32095D01*
X81885Y35381D01*
X86177Y37159D01*
X90823Y37159D01*
X95115Y35381D01*
X98401Y32095D01*
X100179Y27803D01*
X100179Y23157D01*
X98401Y18865D01*
X95115Y15579D01*
X90823Y13801D01*
X86177Y13801D01*
G37*
%LPD*%
%LPC*%
G36*
X225944Y143693D02*
X225944Y143693D01*
X223994Y144501D01*
X222501Y145994D01*
X221693Y147944D01*
X221693Y150056D01*
X222501Y152006D01*
X223994Y153499D01*
X225944Y154307D01*
X227829Y154307D01*
X227927Y154319D01*
X228026Y154322D01*
X228084Y154339D01*
X228144Y154347D01*
X228236Y154383D01*
X228331Y154411D01*
X228384Y154441D01*
X228440Y154464D01*
X228520Y154522D01*
X228605Y154572D01*
X228681Y154638D01*
X228697Y154650D01*
X228705Y154660D01*
X228726Y154678D01*
X231834Y157786D01*
X231894Y157864D01*
X231962Y157936D01*
X231991Y157989D01*
X232028Y158037D01*
X232068Y158128D01*
X232116Y158215D01*
X232131Y158273D01*
X232155Y158329D01*
X232170Y158427D01*
X232195Y158523D01*
X232201Y158623D01*
X232205Y158643D01*
X232203Y158655D01*
X232205Y158683D01*
X232205Y175424D01*
X232190Y175542D01*
X232183Y175661D01*
X232170Y175699D01*
X232165Y175740D01*
X232122Y175850D01*
X232085Y175963D01*
X232063Y175998D01*
X232048Y176035D01*
X231979Y176131D01*
X231915Y176232D01*
X231885Y176260D01*
X231862Y176293D01*
X231770Y176369D01*
X231683Y176450D01*
X231648Y176470D01*
X231617Y176495D01*
X231509Y176546D01*
X231405Y176604D01*
X231365Y176614D01*
X231329Y176631D01*
X231212Y176653D01*
X231097Y176683D01*
X231037Y176687D01*
X231017Y176691D01*
X230996Y176689D01*
X230946Y176693D01*
X228994Y177501D01*
X227501Y178994D01*
X226693Y180944D01*
X226693Y183056D01*
X227501Y185006D01*
X228994Y186499D01*
X230944Y187307D01*
X233056Y187307D01*
X235006Y186499D01*
X236499Y185006D01*
X237307Y183056D01*
X237307Y181171D01*
X237319Y181073D01*
X237322Y180974D01*
X237339Y180916D01*
X237347Y180856D01*
X237383Y180764D01*
X237411Y180669D01*
X237441Y180616D01*
X237464Y180560D01*
X237522Y180480D01*
X237572Y180395D01*
X237639Y180319D01*
X237650Y180303D01*
X237660Y180295D01*
X237678Y180274D01*
X237795Y180158D01*
X237795Y155842D01*
X232678Y150726D01*
X232618Y150648D01*
X232550Y150576D01*
X232521Y150523D01*
X232484Y150475D01*
X232444Y150384D01*
X232396Y150297D01*
X232381Y150239D01*
X232357Y150183D01*
X232342Y150085D01*
X232317Y149989D01*
X232311Y149889D01*
X232307Y149869D01*
X232309Y149857D01*
X232307Y149829D01*
X232307Y147944D01*
X231499Y145994D01*
X230006Y144501D01*
X228056Y143693D01*
X225944Y143693D01*
G37*
%LPD*%
%LPC*%
G36*
X76573Y42790D02*
X76573Y42790D01*
X73011Y44265D01*
X70285Y46991D01*
X68810Y50553D01*
X68810Y54407D01*
X70285Y57969D01*
X73011Y60695D01*
X76573Y62170D01*
X80427Y62170D01*
X83989Y60695D01*
X86715Y57969D01*
X88190Y54407D01*
X88190Y50553D01*
X86715Y46991D01*
X83989Y44265D01*
X80427Y42790D01*
X76573Y42790D01*
G37*
%LPD*%
%LPC*%
G36*
X26573Y42790D02*
X26573Y42790D01*
X23011Y44265D01*
X20285Y46991D01*
X18810Y50553D01*
X18810Y54407D01*
X20285Y57969D01*
X23011Y60695D01*
X26573Y62170D01*
X30427Y62170D01*
X33989Y60695D01*
X36715Y57969D01*
X38190Y54407D01*
X38190Y50553D01*
X36715Y46991D01*
X33989Y44265D01*
X30427Y42790D01*
X26573Y42790D01*
G37*
%LPD*%
%LPC*%
G36*
X34944Y77693D02*
X34944Y77693D01*
X32994Y78501D01*
X31501Y79994D01*
X30693Y81944D01*
X30693Y82437D01*
X30681Y82535D01*
X30678Y82634D01*
X30661Y82692D01*
X30653Y82753D01*
X30617Y82845D01*
X30589Y82940D01*
X30559Y82992D01*
X30536Y83048D01*
X30478Y83128D01*
X30428Y83214D01*
X30362Y83289D01*
X30350Y83306D01*
X30340Y83313D01*
X30322Y83335D01*
X25221Y88435D01*
X25221Y100748D01*
X25209Y100846D01*
X25206Y100945D01*
X25189Y101004D01*
X25181Y101064D01*
X25145Y101156D01*
X25117Y101251D01*
X25087Y101303D01*
X25064Y101359D01*
X25006Y101439D01*
X24956Y101525D01*
X24890Y101600D01*
X24878Y101617D01*
X24868Y101624D01*
X24850Y101646D01*
X24501Y101994D01*
X23693Y103944D01*
X23693Y106056D01*
X24501Y108006D01*
X25994Y109499D01*
X27944Y110307D01*
X30056Y110307D01*
X32006Y109499D01*
X33499Y108006D01*
X34307Y106056D01*
X34307Y103944D01*
X33499Y101994D01*
X33150Y101646D01*
X33090Y101567D01*
X33022Y101495D01*
X32993Y101442D01*
X32956Y101394D01*
X32916Y101303D01*
X32868Y101217D01*
X32853Y101158D01*
X32829Y101102D01*
X32814Y101005D01*
X32789Y100909D01*
X32783Y100809D01*
X32779Y100788D01*
X32781Y100776D01*
X32779Y100748D01*
X32779Y92091D01*
X32791Y91993D01*
X32794Y91894D01*
X32811Y91836D01*
X32819Y91775D01*
X32855Y91683D01*
X32883Y91588D01*
X32913Y91536D01*
X32936Y91480D01*
X32994Y91400D01*
X33044Y91314D01*
X33110Y91239D01*
X33122Y91222D01*
X33132Y91215D01*
X33150Y91193D01*
X35665Y88678D01*
X35744Y88618D01*
X35816Y88550D01*
X35869Y88521D01*
X35917Y88484D01*
X36008Y88444D01*
X36094Y88396D01*
X36153Y88381D01*
X36209Y88357D01*
X36307Y88342D01*
X36402Y88317D01*
X36502Y88311D01*
X36523Y88307D01*
X36535Y88309D01*
X36563Y88307D01*
X37056Y88307D01*
X39006Y87499D01*
X40499Y86006D01*
X41307Y84056D01*
X41307Y81944D01*
X40499Y79994D01*
X39006Y78501D01*
X37056Y77693D01*
X34944Y77693D01*
G37*
%LPD*%
%LPC*%
G36*
X283539Y577539D02*
X283539Y577539D01*
X283539Y586685D01*
X283796Y586645D01*
X285583Y586064D01*
X287257Y585211D01*
X288778Y584106D01*
X290106Y582778D01*
X291211Y581257D01*
X292064Y579583D01*
X292645Y577796D01*
X292685Y577539D01*
X283539Y577539D01*
G37*
%LPD*%
%LPC*%
G36*
X269315Y577539D02*
X269315Y577539D01*
X269355Y577796D01*
X269936Y579583D01*
X270789Y581257D01*
X271894Y582778D01*
X273222Y584106D01*
X274743Y585211D01*
X276417Y586064D01*
X278204Y586645D01*
X278461Y586685D01*
X278461Y577539D01*
X269315Y577539D01*
G37*
%LPD*%
%LPC*%
G36*
X283539Y572461D02*
X283539Y572461D01*
X292685Y572461D01*
X292645Y572204D01*
X292064Y570417D01*
X291211Y568743D01*
X290106Y567222D01*
X288778Y565894D01*
X287257Y564789D01*
X285583Y563936D01*
X283796Y563355D01*
X283539Y563315D01*
X283539Y572461D01*
G37*
%LPD*%
%LPC*%
G36*
X105415Y27339D02*
X105415Y27339D01*
X105455Y27596D01*
X106036Y29383D01*
X106889Y31057D01*
X107994Y32578D01*
X109322Y33906D01*
X110843Y35011D01*
X112517Y35864D01*
X114304Y36445D01*
X114561Y36485D01*
X114561Y27339D01*
X105415Y27339D01*
G37*
%LPD*%
%LPC*%
G36*
X278204Y563355D02*
X278204Y563355D01*
X276417Y563936D01*
X274743Y564789D01*
X273222Y565894D01*
X271894Y567222D01*
X270789Y568743D01*
X269936Y570417D01*
X269355Y572204D01*
X269315Y572461D01*
X278461Y572461D01*
X278461Y563315D01*
X278204Y563355D01*
G37*
%LPD*%
%LPC*%
G36*
X114304Y13155D02*
X114304Y13155D01*
X112517Y13736D01*
X110843Y14589D01*
X109322Y15694D01*
X107994Y17022D01*
X106889Y18543D01*
X106036Y20217D01*
X105455Y22004D01*
X105415Y22261D01*
X114561Y22261D01*
X114561Y13115D01*
X114304Y13155D01*
G37*
%LPD*%
%LPC*%
G36*
X280999Y574999D02*
X280999Y574999D01*
X280999Y575001D01*
X281001Y575001D01*
X281001Y574999D01*
X280999Y574999D01*
G37*
%LPD*%
D10*
X142500Y24800D03*
X117100Y24800D03*
D11*
X197000Y430500D03*
X197000Y418500D03*
X197000Y406500D03*
X197000Y394500D03*
X209000Y430500D03*
X209000Y418500D03*
X209000Y406500D03*
X209000Y394500D03*
X221000Y430500D03*
X221000Y418500D03*
X221000Y406500D03*
X221000Y394500D03*
X233000Y430500D03*
X233000Y418500D03*
X233000Y406500D03*
X233000Y394500D03*
D10*
X51000Y367000D03*
X52000Y403000D03*
X281000Y575000D03*
X20000Y402500D03*
X20000Y367500D03*
X306500Y340000D03*
X325000Y575000D03*
X274000Y353500D03*
D12*
X28500Y52480D03*
X78500Y52480D03*
D13*
X18500Y25480D03*
X88500Y25480D03*
D14*
X101000Y117000D03*
X102000Y125000D03*
X102000Y109000D03*
X213440Y159750D03*
X222000Y160000D03*
X205000Y160000D03*
X209000Y14000D03*
X15000Y112000D03*
X66000Y67000D03*
X177000Y160000D03*
X227000Y520000D03*
X298000Y513000D03*
X258000Y279000D03*
X283000Y317000D03*
X43000Y280000D03*
X276000Y215000D03*
X249000Y171000D03*
X175000Y104000D03*
X63000Y230330D03*
X80000Y176000D03*
X23000Y269000D03*
X349000Y221000D03*
X274000Y232000D03*
X205000Y203000D03*
D15*
X154000Y463000D03*
X80000Y343000D03*
D14*
X116000Y343000D03*
X120000Y363000D03*
X115178Y380000D03*
D16*
X60000Y297000D02*
X43000Y280000D01*
X60000Y297000D02*
X60000Y338000D01*
D14*
X60000Y338000D03*
X209322Y483000D03*
D16*
X235000Y483000D01*
X237000Y481000D01*
D14*
X237000Y481000D03*
X61000Y87000D03*
D17*
X125000Y232500D03*
D14*
X41000Y291000D03*
X342000Y281000D03*
D18*
X342000Y331000D01*
X347000Y336000D01*
D14*
X347000Y336000D03*
D19*
X41000Y357000D02*
X41000Y291000D01*
X41000Y357000D02*
X51000Y367000D01*
D14*
X279000Y520000D03*
D19*
X236000Y563000D01*
X236000Y570000D01*
D14*
X236000Y570000D03*
D15*
X183000Y470000D03*
D20*
X210000Y495000D02*
X254000Y495000D01*
X185000Y470000D02*
X183000Y470000D01*
X185000Y470000D02*
X210000Y495000D01*
X254000Y495000D02*
X279000Y520000D01*
X58103Y433388D02*
X35858Y411143D01*
X144638Y439913D02*
X167863Y463138D01*
D16*
X260985Y239078D02*
X260985Y235078D01*
X191595Y165688D01*
D14*
X191595Y165688D03*
X260985Y239078D03*
X189000Y318000D03*
X183487Y365940D03*
D16*
X183487Y362714D01*
X189000Y320059D02*
X189000Y318000D01*
X189000Y320059D02*
X195322Y326381D01*
X195322Y350879D01*
X183487Y362714D01*
D20*
X102405Y433388D02*
X58103Y433388D01*
X102405Y433388D02*
X108930Y439913D01*
X144638Y439913D01*
X51000Y367000D02*
X35858Y382143D01*
X35858Y411143D01*
X176138Y463138D02*
X183000Y470000D01*
X176138Y463138D02*
X167863Y463138D01*
D14*
X36000Y83000D03*
D19*
X29000Y90000D01*
X29000Y105000D01*
D14*
X29000Y105000D03*
X87000Y104000D03*
D20*
X80000Y111000D02*
X80000Y143000D01*
X80000Y111000D02*
X87000Y104000D01*
D14*
X80000Y143000D03*
D20*
X142500Y79500D02*
X142500Y24800D01*
X142500Y79500D02*
X130000Y92000D01*
X95000Y92000D01*
X87000Y100000D01*
D19*
X87000Y104000D01*
D16*
X80000Y143000D02*
X80000Y148000D01*
D20*
X92424Y160424D02*
X92424Y364424D01*
D16*
X93000Y365000D01*
X97000Y365000D01*
D14*
X97000Y365000D03*
D20*
X92424Y160424D02*
X80000Y148000D01*
D14*
X227000Y149000D03*
X232000Y182000D03*
D16*
X235000Y179000D01*
X235000Y157000D01*
X227000Y149000D01*
D14*
X36000Y160000D03*
D18*
X73342Y160000D01*
X80000Y166658D01*
D14*
X80000Y166658D03*
D20*
X97155Y153353D02*
X97155Y150495D01*
X97155Y153353D02*
X100965Y157163D01*
X100965Y163830D01*
D14*
X97155Y150495D03*
X100965Y163830D03*
X144000Y149000D03*
X138678Y100000D03*
D20*
X144000Y137388D02*
X144000Y149000D01*
X144000Y137388D02*
X140190Y133578D01*
D16*
X140190Y101512D02*
X138678Y100000D01*
D20*
X140190Y101512D02*
X140190Y133578D01*
D14*
X49000Y108000D03*
D19*
X49000Y126000D01*
D14*
X49000Y126000D03*
D18*
X49000Y152000D01*
D14*
X49000Y152000D03*
D18*
X28000Y152000D01*
X21000Y159000D02*
X21000Y185000D01*
D14*
X21000Y185000D03*
D18*
X21000Y159000D02*
X28000Y152000D01*
D14*
X162000Y160000D03*
D18*
X162000Y188000D01*
X165000Y191000D01*
D14*
X165000Y191000D03*
D19*
X63000Y403000D02*
X52000Y403000D01*
X63000Y403000D02*
X70000Y396000D01*
X70000Y294000D01*
X57000Y281000D01*
D14*
X57000Y281000D03*
X67000Y201000D03*
D18*
X47000Y221000D01*
X33000Y221000D01*
X30000Y224000D01*
X30000Y254000D01*
X57000Y281000D01*
D14*
X183000Y221000D03*
D16*
X100000Y186059D02*
X100000Y177000D01*
X117194Y177000D01*
X125000Y184806D01*
D14*
X125000Y184806D03*
D16*
X183000Y221000D02*
X159366Y244635D01*
X159366Y258366D01*
D14*
X159366Y258366D03*
D16*
X99678Y186381D02*
X100000Y186059D01*
X99678Y186381D02*
X99678Y191619D01*
X110869Y202810D01*
X142422Y202810D02*
X160612Y221000D01*
X142422Y202810D02*
X110869Y202810D01*
X160612Y221000D02*
X183000Y221000D01*
D14*
X182000Y342617D03*
X193000Y248000D03*
D16*
X193000Y301000D01*
D14*
X203000Y222000D03*
D16*
X203000Y209941D01*
X170678Y177619D01*
X170678Y157678D01*
D14*
X155000Y43000D03*
D16*
X147294Y81486D02*
X145000Y83780D01*
X147294Y50706D02*
X155000Y43000D01*
X147294Y50706D02*
X147294Y81486D01*
X145000Y132000D02*
X170678Y157678D01*
X145000Y132000D02*
X145000Y83780D01*
X193000Y301000D02*
X182000Y312000D01*
X182000Y342617D01*
D14*
X97000Y78000D03*
D18*
X59000Y104000D02*
X59000Y116000D01*
D14*
X59000Y116000D03*
D18*
X85000Y78000D02*
X97000Y78000D01*
X85000Y78000D02*
X59000Y104000D01*
D16*
X59000Y116000D02*
X59000Y145000D01*
X67000Y153000D02*
X77000Y153000D01*
X88000Y369000D02*
X91000Y372000D01*
X106322Y337678D02*
X107000Y337000D01*
D14*
X107000Y337000D03*
D16*
X67000Y153000D02*
X59000Y145000D01*
X77000Y153000D02*
X88000Y164000D01*
X88000Y369000D01*
X91000Y372000D02*
X100000Y372000D01*
X106322Y365678D01*
X106322Y337678D01*
D14*
X119000Y320000D03*
D16*
X107000Y332000D01*
X107000Y337000D01*
D14*
X189000Y329000D03*
D16*
X189000Y348261D01*
X182000Y355261D01*
D14*
X182000Y355261D03*
X131576Y274000D03*
D16*
X121920Y274000D01*
X120000Y274000D01*
X117000Y277000D01*
D14*
X117000Y277000D03*
D16*
X131923Y290038D02*
X131923Y334328D01*
X131923Y290038D02*
X123825Y281940D01*
X123825Y276225D01*
X121920Y274320D01*
X121920Y274000D01*
D14*
X131923Y334328D03*
X141440Y274000D03*
X108000Y274000D03*
D16*
X110000Y272000D02*
X110700Y272000D01*
X110000Y272000D02*
X108000Y274000D01*
X134864Y267424D02*
X141440Y274000D01*
X134864Y267424D02*
X115276Y267424D01*
X110700Y272000D01*
X164783Y298133D02*
X164783Y364808D01*
X164783Y298133D02*
X140970Y274320D01*
X141440Y274000D01*
D14*
X164783Y364808D03*
X148000Y292000D03*
X126000Y342694D03*
D16*
X132497Y342694D02*
X148000Y327191D01*
X132497Y342694D02*
X126000Y342694D01*
X148000Y327191D02*
X148000Y292000D01*
D14*
X166731Y276269D03*
D16*
X169105Y278642D01*
X169105Y342000D01*
X171105Y344000D01*
D14*
X171105Y344000D03*
D20*
X137160Y376238D02*
X96203Y417195D01*
X137160Y376238D02*
X137160Y348615D01*
X156210Y329565D01*
X156210Y275273D02*
X156210Y271463D01*
X194310Y233363D01*
X194310Y215265D01*
D16*
X180975Y201930D01*
X166688Y201930D01*
D20*
X285750Y220980D02*
X285750Y231553D01*
X269558Y247745D01*
X217265Y247745D01*
X202883Y233363D01*
X194310Y233363D01*
D14*
X96203Y417195D03*
X156210Y275273D03*
X166688Y201930D03*
X285750Y220980D03*
D20*
X156210Y299000D02*
X156210Y329565D01*
D14*
X156210Y299000D03*
X106000Y189000D03*
D16*
X169000Y211000D02*
X171000Y213000D01*
X169000Y211000D02*
X156000Y211000D01*
D14*
X171000Y213000D03*
D16*
X116000Y199000D02*
X106000Y189000D01*
X144000Y199000D02*
X156000Y211000D01*
X144000Y199000D02*
X116000Y199000D01*
D14*
X81000Y253000D03*
D18*
X56000Y253000D01*
X40000Y237000D01*
D14*
X40000Y237000D03*
X75000Y235000D03*
D18*
X75000Y195000D01*
X63000Y183000D01*
D14*
X63000Y183000D03*
D16*
X289000Y539000D02*
X325000Y575000D01*
X289000Y496000D02*
X298000Y487000D01*
X298000Y380000D01*
X293000Y375000D01*
X289000Y496000D02*
X289000Y539000D01*
D15*
X293000Y375000D03*
D14*
X149000Y413000D03*
D16*
X149000Y366000D01*
D14*
X149000Y366000D03*
X325000Y227000D03*
D16*
X313000Y239000D01*
X313000Y263000D01*
D14*
X313000Y263000D03*
D16*
X312000Y262000D01*
X249000Y262000D01*
D14*
X249000Y262000D03*
X216000Y310000D03*
D16*
X216000Y337754D01*
X232500Y354254D01*
D14*
X232500Y354254D03*
D15*
X177000Y456000D03*
D16*
X155000Y434000D01*
X112000Y434000D01*
X107000Y429000D01*
X107000Y426000D01*
D15*
X107000Y426000D03*
D14*
X89000Y425000D03*
D16*
X89000Y391000D01*
D14*
X89000Y391000D03*
X149000Y423000D03*
D16*
X125000Y423000D01*
D14*
X125000Y423000D03*
D15*
X81000Y363000D03*
X80000Y411000D03*
D16*
X81000Y384312D02*
X81000Y363000D01*
X81000Y384312D02*
X78614Y386698D01*
X78614Y409614D02*
X80000Y411000D01*
X78614Y409614D02*
X78614Y386698D01*
D15*
X263000Y481000D03*
D16*
X281000Y481000D01*
X288000Y474000D01*
D15*
X288000Y474000D03*
D14*
X251000Y337000D03*
X275331Y440000D03*
D16*
X275331Y377331D01*
X251000Y353000D02*
X251000Y337000D01*
X251000Y353000D02*
X275331Y377331D01*
D15*
X185000Y531000D03*
D16*
X185000Y484000D01*
X184000Y483000D01*
D15*
X184000Y483000D03*
D14*
X213164Y348836D03*
D16*
X210000Y345671D01*
X210000Y319000D01*
X201623Y310623D01*
X195623Y310623D01*
D14*
X195623Y310623D03*
D16*
X288703Y405860D02*
X288703Y456000D01*
X288703Y405860D02*
X286703Y403860D01*
D14*
X286703Y403860D03*
X258175Y467580D03*
D16*
X277123Y467580D02*
X288703Y456000D01*
X277123Y467580D02*
X258175Y467580D01*
D14*
X298000Y318000D03*
D16*
X294308Y345050D02*
X296000Y346742D01*
X296000Y363000D01*
X294308Y321692D02*
X298000Y318000D01*
X294308Y321692D02*
X294308Y345050D01*
X290278Y368428D02*
X286428Y372278D01*
X286428Y377722D01*
X290572Y368428D02*
X296000Y363000D01*
X290572Y368428D02*
X290278Y368428D01*
X286428Y377722D02*
X290000Y381294D01*
D14*
X248000Y475000D03*
D16*
X293025Y401241D02*
X290000Y398217D01*
X249098Y473902D02*
X248000Y475000D01*
X249098Y473902D02*
X276944Y473902D01*
X293025Y457821D02*
X293025Y401241D01*
X293025Y457821D02*
X276944Y473902D01*
X290000Y398217D02*
X290000Y381294D01*
D21*
X284000Y83000D03*
X84000Y516000D03*
D14*
X236000Y316000D03*
D16*
X202000Y282000D01*
X202000Y273000D01*
D14*
X202000Y273000D03*
D16*
X291465Y360045D02*
X281653Y369858D01*
X291465Y360045D02*
X291465Y347663D01*
X289560Y345758D01*
X289560Y344805D01*
X267653Y322898D01*
X244793Y322898D01*
X238125Y316230D01*
X236220Y316230D01*
X236000Y316000D01*
D14*
X280653Y453578D03*
D16*
X280381Y401241D02*
X281653Y399969D01*
X280381Y401241D02*
X280381Y406479D01*
X280653Y406751D01*
X281653Y399969D02*
X281653Y369858D01*
X280653Y436381D02*
X281653Y437381D01*
X281653Y442619D01*
X280653Y443619D01*
X280653Y436381D02*
X280653Y406751D01*
X280653Y443619D02*
X280653Y453578D01*
M02*
