G04 EAGLE Gerber RS-274X export*
G75*
%MOMM*%
%FSLAX34Y34*%
%LPD*%
%INSoldermask Top*%
%IPPOS*%
%AMOC8*
5,1,8,0,0,1.08239X$1,22.5*%
G01*
%ADD10R,1.103200X1.253200*%
%ADD11R,1.603200X1.603200*%
%ADD12R,1.403200X0.753200*%
%ADD13C,2.082800*%
%ADD14R,0.838200X1.219200*%
%ADD15R,1.253200X1.103200*%
%ADD16R,0.853200X1.453200*%
%ADD17R,1.403200X2.003200*%
%ADD18R,1.303200X0.853200*%
%ADD19R,0.473200X1.353200*%
%ADD20R,1.353200X0.473200*%
%ADD21R,3.353200X3.353200*%
%ADD22R,2.203200X0.403200*%
%ADD23R,0.403200X2.203200*%
%ADD24R,4.903200X4.903200*%
%ADD25C,1.111200*%
%ADD26R,0.953200X0.553200*%
%ADD27R,1.803200X2.603200*%
%ADD28R,1.853200X0.853200*%
%ADD29R,1.303200X0.953200*%
%ADD30R,0.453200X1.057200*%
%ADD31R,1.057200X0.453200*%
%ADD32C,0.247978*%
%ADD33R,1.303200X2.103200*%
%ADD34R,1.603200X1.403200*%
%ADD35R,0.853200X1.253200*%
%ADD36R,0.603200X1.553200*%
%ADD37C,1.785400*%
%ADD38C,2.183200*%
%ADD39R,1.703200X1.753200*%
%ADD40C,0.908800*%
%ADD41C,0.958800*%
%ADD42C,1.403200*%
%ADD43C,15.203200*%


D10*
X168400Y30500D03*
X168400Y14500D03*
X15000Y82000D03*
X15000Y98000D03*
X213360Y132570D03*
X213360Y148570D03*
D11*
X20600Y162100D03*
X20600Y199100D03*
D12*
X74700Y78500D03*
X74700Y88000D03*
X74700Y97500D03*
X48700Y97500D03*
X48700Y78500D03*
D13*
X142500Y24800D03*
X117100Y24800D03*
D14*
X69800Y147200D03*
X79300Y127200D03*
X60300Y127200D03*
D15*
X108000Y96380D03*
X124000Y96380D03*
X18400Y217400D03*
X34400Y217400D03*
D10*
X219600Y182600D03*
X219600Y198600D03*
D15*
X128000Y117000D03*
X112000Y117000D03*
D16*
X70500Y167000D03*
X89500Y167000D03*
X80000Y188000D03*
D15*
X49000Y267000D03*
X65000Y267000D03*
D17*
X183420Y87500D03*
X166420Y87500D03*
D10*
X190500Y14000D03*
X190500Y30000D03*
D15*
X110000Y50000D03*
X126000Y50000D03*
D18*
X35500Y125400D03*
X35500Y144600D03*
X14500Y135000D03*
D15*
X110000Y75000D03*
X126000Y75000D03*
D19*
X110000Y208500D03*
X115000Y208500D03*
X120000Y208500D03*
X125000Y208500D03*
X130000Y208500D03*
X135000Y208500D03*
X140000Y208500D03*
D20*
X149000Y217500D03*
X149000Y222500D03*
X149000Y227500D03*
X149000Y232500D03*
X149000Y237500D03*
X149000Y242500D03*
X149000Y247500D03*
D19*
X140000Y256500D03*
X135000Y256500D03*
X130000Y256500D03*
X125000Y256500D03*
X120000Y256500D03*
X115000Y256500D03*
X110000Y256500D03*
D20*
X101000Y247500D03*
X101000Y242500D03*
X101000Y237500D03*
X101000Y232500D03*
X101000Y227500D03*
X101000Y222500D03*
X101000Y217500D03*
D21*
X125000Y232500D03*
D10*
X23000Y255000D03*
X23000Y239000D03*
D15*
X22000Y427500D03*
X38000Y427500D03*
D10*
X327500Y184500D03*
X327500Y200500D03*
X302500Y184500D03*
X302500Y200500D03*
X275000Y184500D03*
X275000Y200500D03*
D15*
X134000Y173000D03*
X118000Y173000D03*
X49500Y247500D03*
X65500Y247500D03*
X233500Y232500D03*
X249500Y232500D03*
X177500Y202000D03*
X193500Y202000D03*
D10*
X182000Y255500D03*
X182000Y239500D03*
X246500Y199000D03*
X246500Y183000D03*
D15*
X128000Y145000D03*
X112000Y145000D03*
D10*
X50000Y183000D03*
X50000Y167000D03*
X53000Y223000D03*
X53000Y207000D03*
D22*
X178000Y434500D03*
X178000Y430500D03*
X178000Y426500D03*
X178000Y422500D03*
X178000Y418500D03*
X178000Y414500D03*
X178000Y410500D03*
X178000Y406500D03*
X178000Y402500D03*
X178000Y398500D03*
X178000Y394500D03*
X178000Y390500D03*
D23*
X193000Y375500D03*
X197000Y375500D03*
X201000Y375500D03*
X205000Y375500D03*
X209000Y375500D03*
X213000Y375500D03*
X217000Y375500D03*
X221000Y375500D03*
X225000Y375500D03*
X229000Y375500D03*
X233000Y375500D03*
X237000Y375500D03*
D22*
X252000Y390500D03*
X252000Y394500D03*
X252000Y398500D03*
X252000Y402500D03*
X252000Y406500D03*
X252000Y410500D03*
X252000Y414500D03*
X252000Y418500D03*
X252000Y422500D03*
X252000Y426500D03*
X252000Y430500D03*
X252000Y434500D03*
D23*
X237000Y449500D03*
X233000Y449500D03*
X229000Y449500D03*
X225000Y449500D03*
X221000Y449500D03*
X217000Y449500D03*
X213000Y449500D03*
X209000Y449500D03*
X205000Y449500D03*
X201000Y449500D03*
X197000Y449500D03*
X193000Y449500D03*
D24*
X215000Y412500D03*
D25*
X197000Y430500D03*
X197000Y418500D03*
X197000Y406500D03*
X197000Y394500D03*
X209000Y430500D03*
X209000Y418500D03*
X209000Y406500D03*
X209000Y394500D03*
X221000Y430500D03*
X221000Y418500D03*
X221000Y406500D03*
X221000Y394500D03*
X233000Y430500D03*
X233000Y418500D03*
X233000Y406500D03*
X233000Y394500D03*
D15*
X87500Y378500D03*
X103500Y378500D03*
X140000Y448000D03*
X156000Y448000D03*
X105500Y352500D03*
X89500Y352500D03*
D10*
X205000Y334500D03*
X205000Y318500D03*
X299500Y423000D03*
X299500Y407000D03*
D15*
X240500Y329000D03*
X224500Y329000D03*
X261000Y329000D03*
X277000Y329000D03*
D10*
X299500Y444500D03*
X299500Y460500D03*
X297500Y483000D03*
X297500Y499000D03*
D15*
X262500Y494500D03*
X246500Y494500D03*
X255500Y524000D03*
X239500Y524000D03*
X184500Y514000D03*
X200500Y514000D03*
X213000Y495000D03*
X197000Y495000D03*
D10*
X338000Y243000D03*
X338000Y227000D03*
X169000Y493500D03*
X169000Y477500D03*
D26*
X325000Y317250D03*
X325000Y310750D03*
X325000Y304250D03*
X325000Y297750D03*
X355000Y297750D03*
X355000Y304250D03*
X355000Y310750D03*
X355000Y317250D03*
D27*
X340000Y307500D03*
D15*
X249500Y249000D03*
X233500Y249000D03*
X331500Y268500D03*
X347500Y268500D03*
D28*
X91000Y295950D03*
X91000Y308650D03*
X91000Y321350D03*
X91000Y334050D03*
X19000Y334050D03*
X19000Y321350D03*
X19000Y308650D03*
X19000Y295950D03*
D15*
X130500Y355500D03*
X146500Y355500D03*
X131500Y376500D03*
X147500Y376500D03*
X312500Y227500D03*
X296500Y227500D03*
D29*
X212500Y546000D03*
X195500Y546000D03*
D13*
X51000Y367000D03*
X52000Y403000D03*
X281000Y575000D03*
X20000Y402500D03*
X20000Y367500D03*
X306500Y340000D03*
X325000Y575000D03*
X274000Y353500D03*
D30*
X170000Y116230D03*
X175000Y116230D03*
X180000Y116230D03*
D31*
X190270Y126500D03*
X190270Y131500D03*
X190270Y136500D03*
D30*
X180000Y146770D03*
X175000Y146770D03*
X170000Y146770D03*
D31*
X159730Y136500D03*
X159730Y131500D03*
X159730Y126500D03*
D32*
X182026Y124474D02*
X182026Y138526D01*
X182026Y124474D02*
X167974Y124474D01*
X167974Y138526D01*
X182026Y138526D01*
X182026Y126830D02*
X167974Y126830D01*
X167974Y129186D02*
X182026Y129186D01*
X182026Y131542D02*
X167974Y131542D01*
X167974Y133898D02*
X182026Y133898D01*
X182026Y136254D02*
X167974Y136254D01*
D33*
X110000Y407500D03*
X135000Y407500D03*
D34*
X241000Y293500D03*
X219000Y293500D03*
X219000Y276500D03*
X241000Y276500D03*
D35*
X274250Y261750D03*
X274250Y303250D03*
X295750Y261750D03*
X295750Y303250D03*
D36*
X40500Y52480D03*
X47000Y52480D03*
X53500Y52480D03*
X60000Y52480D03*
X66500Y52480D03*
D37*
X28500Y52480D03*
X78500Y52480D03*
D38*
X18500Y25480D03*
X88500Y25480D03*
D39*
X43500Y25480D03*
X63500Y25480D03*
D15*
X196000Y570000D03*
X212000Y570000D03*
D10*
X183000Y276000D03*
X183000Y292000D03*
D40*
X101000Y117000D03*
X102000Y125000D03*
X102000Y109000D03*
X213440Y159750D03*
X222000Y160000D03*
X205000Y160000D03*
X209000Y14000D03*
X15000Y112000D03*
X66000Y67000D03*
X177000Y160000D03*
X227000Y520000D03*
X298000Y513000D03*
X258000Y279000D03*
X283000Y317000D03*
X43000Y280000D03*
X276000Y215000D03*
X249000Y171000D03*
X175000Y104000D03*
X63000Y230330D03*
X80000Y176000D03*
X23000Y269000D03*
X349000Y221000D03*
X274000Y232000D03*
X205000Y203000D03*
D41*
X154000Y463000D03*
X80000Y343000D03*
D40*
X116000Y343000D03*
X120000Y363000D03*
X115178Y380000D03*
X60000Y338000D03*
X209322Y483000D03*
X237000Y481000D03*
X61000Y87000D03*
D42*
X125000Y232500D03*
D40*
X41000Y291000D03*
X342000Y281000D03*
X347000Y336000D03*
X279000Y520000D03*
X236000Y570000D03*
D41*
X183000Y470000D03*
D40*
X191595Y165688D03*
X260985Y239078D03*
X189000Y318000D03*
X183487Y365940D03*
X36000Y83000D03*
X29000Y105000D03*
X87000Y104000D03*
X80000Y143000D03*
X97000Y365000D03*
X227000Y149000D03*
X232000Y182000D03*
X36000Y160000D03*
X80000Y166658D03*
X97155Y150495D03*
X100965Y163830D03*
X144000Y149000D03*
X138678Y100000D03*
X49000Y108000D03*
X49000Y126000D03*
X49000Y152000D03*
X21000Y185000D03*
X162000Y160000D03*
X165000Y191000D03*
X57000Y281000D03*
X67000Y201000D03*
X183000Y221000D03*
X125000Y184806D03*
X159366Y258366D03*
X182000Y342617D03*
X193000Y248000D03*
X203000Y222000D03*
X155000Y43000D03*
X97000Y78000D03*
X59000Y116000D03*
X107000Y337000D03*
X119000Y320000D03*
X189000Y329000D03*
X182000Y355261D03*
X131576Y274000D03*
X117000Y277000D03*
X131923Y334328D03*
X141440Y274000D03*
X108000Y274000D03*
X164783Y364808D03*
X148000Y292000D03*
X126000Y342694D03*
X166731Y276269D03*
X171105Y344000D03*
X96203Y417195D03*
X156210Y275273D03*
X166688Y201930D03*
X285750Y220980D03*
X156210Y299000D03*
X106000Y189000D03*
X171000Y213000D03*
X81000Y253000D03*
X40000Y237000D03*
X75000Y235000D03*
X63000Y183000D03*
D41*
X293000Y375000D03*
D40*
X149000Y413000D03*
X149000Y366000D03*
X325000Y227000D03*
X313000Y263000D03*
X249000Y262000D03*
X216000Y310000D03*
X232500Y354254D03*
D41*
X177000Y456000D03*
X107000Y426000D03*
D40*
X89000Y425000D03*
X89000Y391000D03*
X149000Y423000D03*
X125000Y423000D03*
D41*
X81000Y363000D03*
X80000Y411000D03*
X263000Y481000D03*
X288000Y474000D03*
D40*
X251000Y337000D03*
X275331Y440000D03*
D41*
X185000Y531000D03*
X184000Y483000D03*
D40*
X213164Y348836D03*
X195623Y310623D03*
X286703Y403860D03*
X258175Y467580D03*
X298000Y318000D03*
X248000Y475000D03*
D43*
X284000Y83000D03*
X84000Y516000D03*
D40*
X236000Y316000D03*
X202000Y273000D03*
X280653Y453578D03*
M02*
