G04 EAGLE Gerber RS-274X export*
G75*
%MOMM*%
%FSLAX34Y34*%
%LPD*%
%INSilkscreen Bottom*%
%IPPOS*%
%AMOC8*
5,1,8,0,0,1.08239X$1,22.5*%
G01*
%ADD10C,0.076200*%


D10*
X164381Y547861D02*
X164381Y557259D01*
X166992Y557259D01*
X167092Y557257D01*
X167192Y557251D01*
X167291Y557242D01*
X167391Y557228D01*
X167489Y557211D01*
X167587Y557190D01*
X167684Y557166D01*
X167780Y557137D01*
X167875Y557105D01*
X167968Y557070D01*
X168060Y557031D01*
X168151Y556988D01*
X168239Y556942D01*
X168326Y556892D01*
X168411Y556840D01*
X168494Y556784D01*
X168575Y556725D01*
X168653Y556662D01*
X168729Y556597D01*
X168803Y556529D01*
X168873Y556459D01*
X168941Y556385D01*
X169006Y556309D01*
X169069Y556231D01*
X169128Y556150D01*
X169184Y556067D01*
X169236Y555982D01*
X169286Y555895D01*
X169332Y555807D01*
X169375Y555716D01*
X169414Y555624D01*
X169449Y555531D01*
X169481Y555436D01*
X169510Y555340D01*
X169534Y555243D01*
X169555Y555145D01*
X169572Y555047D01*
X169586Y554947D01*
X169595Y554848D01*
X169601Y554748D01*
X169603Y554648D01*
X169602Y554648D02*
X169602Y550472D01*
X169603Y550472D02*
X169601Y550372D01*
X169595Y550272D01*
X169586Y550173D01*
X169572Y550073D01*
X169555Y549975D01*
X169534Y549877D01*
X169510Y549780D01*
X169481Y549684D01*
X169449Y549589D01*
X169414Y549496D01*
X169375Y549404D01*
X169332Y549313D01*
X169286Y549225D01*
X169236Y549138D01*
X169184Y549053D01*
X169128Y548970D01*
X169069Y548889D01*
X169006Y548811D01*
X168941Y548735D01*
X168873Y548661D01*
X168803Y548591D01*
X168729Y548523D01*
X168653Y548458D01*
X168575Y548395D01*
X168494Y548336D01*
X168411Y548280D01*
X168326Y548228D01*
X168239Y548178D01*
X168151Y548132D01*
X168060Y548089D01*
X167968Y548050D01*
X167875Y548015D01*
X167780Y547983D01*
X167684Y547954D01*
X167587Y547930D01*
X167489Y547909D01*
X167391Y547892D01*
X167291Y547878D01*
X167192Y547869D01*
X167092Y547863D01*
X166992Y547861D01*
X164381Y547861D01*
X175309Y547861D02*
X177919Y547861D01*
X175309Y547861D02*
X175232Y547863D01*
X175156Y547869D01*
X175079Y547878D01*
X175003Y547891D01*
X174928Y547908D01*
X174854Y547928D01*
X174781Y547953D01*
X174710Y547980D01*
X174639Y548011D01*
X174571Y548046D01*
X174504Y548084D01*
X174439Y548125D01*
X174376Y548169D01*
X174316Y548216D01*
X174257Y548267D01*
X174202Y548320D01*
X174149Y548375D01*
X174098Y548434D01*
X174051Y548494D01*
X174007Y548557D01*
X173966Y548622D01*
X173928Y548689D01*
X173893Y548757D01*
X173862Y548828D01*
X173835Y548899D01*
X173810Y548972D01*
X173790Y549046D01*
X173773Y549121D01*
X173760Y549197D01*
X173751Y549274D01*
X173745Y549350D01*
X173743Y549427D01*
X173742Y549427D02*
X173742Y552038D01*
X173743Y552038D02*
X173745Y552128D01*
X173751Y552217D01*
X173760Y552307D01*
X173774Y552396D01*
X173791Y552484D01*
X173812Y552571D01*
X173837Y552658D01*
X173866Y552743D01*
X173898Y552827D01*
X173933Y552909D01*
X173973Y552990D01*
X174015Y553069D01*
X174061Y553146D01*
X174111Y553221D01*
X174163Y553294D01*
X174219Y553365D01*
X174277Y553433D01*
X174339Y553498D01*
X174403Y553561D01*
X174470Y553621D01*
X174539Y553678D01*
X174611Y553732D01*
X174685Y553783D01*
X174761Y553831D01*
X174839Y553875D01*
X174919Y553916D01*
X175001Y553954D01*
X175084Y553988D01*
X175169Y554018D01*
X175255Y554045D01*
X175341Y554068D01*
X175429Y554087D01*
X175518Y554102D01*
X175607Y554114D01*
X175696Y554122D01*
X175786Y554126D01*
X175876Y554126D01*
X175966Y554122D01*
X176055Y554114D01*
X176144Y554102D01*
X176233Y554087D01*
X176321Y554068D01*
X176407Y554045D01*
X176493Y554018D01*
X176578Y553988D01*
X176661Y553954D01*
X176743Y553916D01*
X176823Y553875D01*
X176901Y553831D01*
X176977Y553783D01*
X177051Y553732D01*
X177123Y553678D01*
X177192Y553621D01*
X177259Y553561D01*
X177323Y553498D01*
X177385Y553433D01*
X177443Y553365D01*
X177499Y553294D01*
X177551Y553221D01*
X177601Y553146D01*
X177647Y553069D01*
X177689Y552990D01*
X177729Y552909D01*
X177764Y552827D01*
X177796Y552743D01*
X177825Y552658D01*
X177850Y552571D01*
X177871Y552484D01*
X177888Y552396D01*
X177902Y552307D01*
X177911Y552217D01*
X177917Y552128D01*
X177919Y552038D01*
X177919Y550994D01*
X173742Y550994D01*
X182450Y551516D02*
X185061Y550472D01*
X182450Y551516D02*
X182384Y551544D01*
X182319Y551577D01*
X182256Y551612D01*
X182195Y551651D01*
X182136Y551693D01*
X182080Y551738D01*
X182026Y551786D01*
X181975Y551837D01*
X181926Y551890D01*
X181881Y551947D01*
X181838Y552005D01*
X181799Y552065D01*
X181762Y552128D01*
X181730Y552193D01*
X181701Y552259D01*
X181675Y552326D01*
X181653Y552395D01*
X181635Y552465D01*
X181620Y552536D01*
X181609Y552607D01*
X181602Y552679D01*
X181599Y552751D01*
X181600Y552823D01*
X181605Y552896D01*
X181613Y552967D01*
X181625Y553039D01*
X181641Y553109D01*
X181661Y553178D01*
X181685Y553247D01*
X181712Y553314D01*
X181742Y553379D01*
X181776Y553443D01*
X181814Y553505D01*
X181854Y553565D01*
X181898Y553622D01*
X181945Y553677D01*
X181995Y553730D01*
X182047Y553779D01*
X182102Y553826D01*
X182159Y553870D01*
X182219Y553911D01*
X182281Y553948D01*
X182345Y553983D01*
X182410Y554013D01*
X182477Y554041D01*
X182545Y554064D01*
X182615Y554084D01*
X182685Y554100D01*
X182756Y554113D01*
X182828Y554121D01*
X182900Y554126D01*
X182972Y554127D01*
X182973Y554126D02*
X183124Y554122D01*
X183275Y554114D01*
X183426Y554103D01*
X183577Y554087D01*
X183727Y554067D01*
X183877Y554044D01*
X184026Y554017D01*
X184174Y553986D01*
X184322Y553951D01*
X184468Y553913D01*
X184614Y553870D01*
X184758Y553824D01*
X184901Y553775D01*
X185043Y553722D01*
X185183Y553665D01*
X185322Y553604D01*
X185061Y550472D02*
X185127Y550444D01*
X185192Y550411D01*
X185255Y550376D01*
X185316Y550337D01*
X185375Y550295D01*
X185431Y550250D01*
X185485Y550202D01*
X185536Y550151D01*
X185585Y550098D01*
X185630Y550041D01*
X185673Y549983D01*
X185712Y549923D01*
X185749Y549860D01*
X185781Y549795D01*
X185810Y549729D01*
X185836Y549662D01*
X185858Y549593D01*
X185876Y549523D01*
X185891Y549452D01*
X185902Y549381D01*
X185909Y549309D01*
X185912Y549237D01*
X185911Y549165D01*
X185906Y549092D01*
X185898Y549021D01*
X185886Y548949D01*
X185870Y548879D01*
X185850Y548810D01*
X185826Y548741D01*
X185799Y548674D01*
X185769Y548609D01*
X185735Y548545D01*
X185697Y548483D01*
X185657Y548423D01*
X185613Y548366D01*
X185566Y548311D01*
X185516Y548258D01*
X185464Y548209D01*
X185409Y548162D01*
X185352Y548118D01*
X185292Y548077D01*
X185230Y548040D01*
X185166Y548005D01*
X185101Y547975D01*
X185034Y547947D01*
X184966Y547924D01*
X184896Y547904D01*
X184826Y547888D01*
X184755Y547875D01*
X184683Y547867D01*
X184611Y547862D01*
X184539Y547861D01*
X184329Y547866D01*
X184120Y547877D01*
X183911Y547892D01*
X183703Y547912D01*
X183495Y547938D01*
X183288Y547968D01*
X183081Y548003D01*
X182876Y548043D01*
X182671Y548087D01*
X182468Y548137D01*
X182265Y548191D01*
X182064Y548251D01*
X181865Y548314D01*
X181667Y548383D01*
X189547Y547861D02*
X189547Y554126D01*
X189286Y556737D02*
X189286Y557259D01*
X189808Y557259D01*
X189808Y556737D01*
X189286Y556737D01*
X194770Y547861D02*
X197381Y547861D01*
X194770Y547861D02*
X194693Y547863D01*
X194617Y547869D01*
X194540Y547878D01*
X194464Y547891D01*
X194389Y547908D01*
X194315Y547928D01*
X194242Y547953D01*
X194171Y547980D01*
X194100Y548011D01*
X194032Y548046D01*
X193965Y548084D01*
X193900Y548125D01*
X193837Y548169D01*
X193777Y548216D01*
X193718Y548267D01*
X193663Y548320D01*
X193610Y548375D01*
X193559Y548434D01*
X193512Y548494D01*
X193468Y548557D01*
X193427Y548622D01*
X193389Y548689D01*
X193354Y548757D01*
X193323Y548828D01*
X193296Y548899D01*
X193271Y548972D01*
X193251Y549046D01*
X193234Y549121D01*
X193221Y549197D01*
X193212Y549274D01*
X193206Y549350D01*
X193204Y549427D01*
X193204Y552560D01*
X193206Y552637D01*
X193212Y552713D01*
X193221Y552790D01*
X193234Y552866D01*
X193251Y552941D01*
X193271Y553015D01*
X193296Y553088D01*
X193323Y553159D01*
X193354Y553230D01*
X193389Y553298D01*
X193427Y553365D01*
X193468Y553430D01*
X193512Y553493D01*
X193559Y553553D01*
X193610Y553612D01*
X193663Y553667D01*
X193718Y553720D01*
X193777Y553771D01*
X193837Y553818D01*
X193900Y553862D01*
X193965Y553903D01*
X194032Y553941D01*
X194100Y553976D01*
X194171Y554007D01*
X194242Y554034D01*
X194315Y554059D01*
X194389Y554079D01*
X194464Y554096D01*
X194540Y554109D01*
X194617Y554118D01*
X194693Y554124D01*
X194770Y554126D01*
X197381Y554126D01*
X197381Y546295D01*
X197380Y546295D02*
X197378Y546218D01*
X197372Y546142D01*
X197363Y546065D01*
X197350Y545989D01*
X197333Y545914D01*
X197313Y545840D01*
X197288Y545767D01*
X197261Y545696D01*
X197230Y545625D01*
X197195Y545557D01*
X197157Y545490D01*
X197116Y545425D01*
X197072Y545362D01*
X197025Y545302D01*
X196974Y545243D01*
X196921Y545188D01*
X196866Y545135D01*
X196807Y545084D01*
X196747Y545037D01*
X196684Y544993D01*
X196619Y544952D01*
X196552Y544914D01*
X196484Y544879D01*
X196413Y544848D01*
X196342Y544821D01*
X196269Y544796D01*
X196195Y544776D01*
X196120Y544759D01*
X196044Y544746D01*
X195968Y544737D01*
X195891Y544731D01*
X195814Y544729D01*
X195814Y544728D02*
X193726Y544728D01*
X201784Y547861D02*
X201784Y554126D01*
X204394Y554126D01*
X204471Y554124D01*
X204547Y554118D01*
X204624Y554109D01*
X204700Y554096D01*
X204775Y554079D01*
X204849Y554059D01*
X204922Y554034D01*
X204993Y554007D01*
X205064Y553976D01*
X205132Y553941D01*
X205199Y553903D01*
X205264Y553862D01*
X205327Y553818D01*
X205387Y553771D01*
X205446Y553720D01*
X205501Y553667D01*
X205554Y553612D01*
X205605Y553553D01*
X205652Y553493D01*
X205696Y553430D01*
X205737Y553365D01*
X205775Y553298D01*
X205810Y553230D01*
X205841Y553159D01*
X205868Y553088D01*
X205893Y553015D01*
X205913Y552941D01*
X205930Y552866D01*
X205943Y552790D01*
X205952Y552714D01*
X205958Y552637D01*
X205960Y552560D01*
X205961Y552560D02*
X205961Y547861D01*
X211580Y547861D02*
X214190Y547861D01*
X211580Y547861D02*
X211503Y547863D01*
X211427Y547869D01*
X211350Y547878D01*
X211274Y547891D01*
X211199Y547908D01*
X211125Y547928D01*
X211052Y547953D01*
X210981Y547980D01*
X210910Y548011D01*
X210842Y548046D01*
X210775Y548084D01*
X210710Y548125D01*
X210647Y548169D01*
X210587Y548216D01*
X210528Y548267D01*
X210473Y548320D01*
X210420Y548375D01*
X210369Y548434D01*
X210322Y548494D01*
X210278Y548557D01*
X210237Y548622D01*
X210199Y548689D01*
X210164Y548757D01*
X210133Y548828D01*
X210106Y548899D01*
X210081Y548972D01*
X210061Y549046D01*
X210044Y549121D01*
X210031Y549197D01*
X210022Y549274D01*
X210016Y549350D01*
X210014Y549427D01*
X210013Y549427D02*
X210013Y552038D01*
X210014Y552038D02*
X210016Y552128D01*
X210022Y552217D01*
X210031Y552307D01*
X210045Y552396D01*
X210062Y552484D01*
X210083Y552571D01*
X210108Y552658D01*
X210137Y552743D01*
X210169Y552827D01*
X210204Y552909D01*
X210244Y552990D01*
X210286Y553069D01*
X210332Y553146D01*
X210382Y553221D01*
X210434Y553294D01*
X210490Y553365D01*
X210548Y553433D01*
X210610Y553498D01*
X210674Y553561D01*
X210741Y553621D01*
X210810Y553678D01*
X210882Y553732D01*
X210956Y553783D01*
X211032Y553831D01*
X211110Y553875D01*
X211190Y553916D01*
X211272Y553954D01*
X211355Y553988D01*
X211440Y554018D01*
X211526Y554045D01*
X211612Y554068D01*
X211700Y554087D01*
X211789Y554102D01*
X211878Y554114D01*
X211967Y554122D01*
X212057Y554126D01*
X212147Y554126D01*
X212237Y554122D01*
X212326Y554114D01*
X212415Y554102D01*
X212504Y554087D01*
X212592Y554068D01*
X212678Y554045D01*
X212764Y554018D01*
X212849Y553988D01*
X212932Y553954D01*
X213014Y553916D01*
X213094Y553875D01*
X213172Y553831D01*
X213248Y553783D01*
X213322Y553732D01*
X213394Y553678D01*
X213463Y553621D01*
X213530Y553561D01*
X213594Y553498D01*
X213656Y553433D01*
X213714Y553365D01*
X213770Y553294D01*
X213822Y553221D01*
X213872Y553146D01*
X213918Y553069D01*
X213960Y552990D01*
X214000Y552909D01*
X214035Y552827D01*
X214067Y552743D01*
X214096Y552658D01*
X214121Y552571D01*
X214142Y552484D01*
X214159Y552396D01*
X214173Y552307D01*
X214182Y552217D01*
X214188Y552128D01*
X214190Y552038D01*
X214190Y550994D01*
X210013Y550994D01*
X222069Y547861D02*
X222069Y557259D01*
X222069Y547861D02*
X219459Y547861D01*
X219382Y547863D01*
X219306Y547869D01*
X219229Y547878D01*
X219153Y547891D01*
X219078Y547908D01*
X219004Y547928D01*
X218931Y547953D01*
X218860Y547980D01*
X218789Y548011D01*
X218721Y548046D01*
X218654Y548084D01*
X218589Y548125D01*
X218526Y548169D01*
X218466Y548216D01*
X218407Y548267D01*
X218352Y548320D01*
X218299Y548375D01*
X218248Y548434D01*
X218201Y548494D01*
X218157Y548557D01*
X218116Y548622D01*
X218078Y548689D01*
X218043Y548757D01*
X218012Y548828D01*
X217985Y548899D01*
X217960Y548972D01*
X217940Y549046D01*
X217923Y549121D01*
X217910Y549197D01*
X217901Y549274D01*
X217895Y549350D01*
X217893Y549427D01*
X217892Y549427D02*
X217892Y552560D01*
X217893Y552560D02*
X217895Y552637D01*
X217901Y552713D01*
X217910Y552790D01*
X217923Y552866D01*
X217940Y552941D01*
X217960Y553015D01*
X217985Y553088D01*
X218012Y553159D01*
X218043Y553230D01*
X218078Y553298D01*
X218116Y553365D01*
X218157Y553430D01*
X218201Y553493D01*
X218248Y553553D01*
X218299Y553612D01*
X218352Y553667D01*
X218407Y553720D01*
X218466Y553771D01*
X218526Y553818D01*
X218589Y553862D01*
X218654Y553903D01*
X218721Y553941D01*
X218789Y553976D01*
X218860Y554007D01*
X218931Y554034D01*
X219004Y554059D01*
X219078Y554079D01*
X219153Y554096D01*
X219229Y554109D01*
X219306Y554118D01*
X219382Y554124D01*
X219459Y554126D01*
X222069Y554126D01*
X231568Y553082D02*
X234178Y553082D01*
X234178Y553083D02*
X234279Y553081D01*
X234380Y553075D01*
X234481Y553065D01*
X234581Y553052D01*
X234681Y553034D01*
X234780Y553013D01*
X234878Y552987D01*
X234975Y552958D01*
X235071Y552926D01*
X235165Y552889D01*
X235258Y552849D01*
X235350Y552805D01*
X235439Y552758D01*
X235527Y552707D01*
X235613Y552653D01*
X235696Y552596D01*
X235778Y552536D01*
X235856Y552472D01*
X235933Y552406D01*
X236006Y552336D01*
X236077Y552264D01*
X236145Y552189D01*
X236210Y552111D01*
X236272Y552031D01*
X236331Y551949D01*
X236387Y551864D01*
X236439Y551778D01*
X236488Y551689D01*
X236534Y551598D01*
X236575Y551506D01*
X236614Y551412D01*
X236648Y551317D01*
X236679Y551221D01*
X236706Y551123D01*
X236730Y551025D01*
X236749Y550925D01*
X236765Y550825D01*
X236777Y550725D01*
X236785Y550624D01*
X236789Y550523D01*
X236789Y550421D01*
X236785Y550320D01*
X236777Y550219D01*
X236765Y550119D01*
X236749Y550019D01*
X236730Y549919D01*
X236706Y549821D01*
X236679Y549723D01*
X236648Y549627D01*
X236614Y549532D01*
X236575Y549438D01*
X236534Y549346D01*
X236488Y549255D01*
X236439Y549167D01*
X236387Y549080D01*
X236331Y548995D01*
X236272Y548913D01*
X236210Y548833D01*
X236145Y548755D01*
X236077Y548680D01*
X236006Y548608D01*
X235933Y548538D01*
X235856Y548472D01*
X235778Y548408D01*
X235696Y548348D01*
X235613Y548291D01*
X235527Y548237D01*
X235439Y548186D01*
X235350Y548139D01*
X235258Y548095D01*
X235165Y548055D01*
X235071Y548018D01*
X234975Y547986D01*
X234878Y547957D01*
X234780Y547931D01*
X234681Y547910D01*
X234581Y547892D01*
X234481Y547879D01*
X234380Y547869D01*
X234279Y547863D01*
X234178Y547861D01*
X231568Y547861D01*
X231568Y557259D01*
X234178Y557259D01*
X234268Y557257D01*
X234357Y557251D01*
X234447Y557242D01*
X234536Y557228D01*
X234624Y557211D01*
X234711Y557190D01*
X234798Y557165D01*
X234883Y557136D01*
X234967Y557104D01*
X235049Y557069D01*
X235130Y557029D01*
X235209Y556987D01*
X235286Y556941D01*
X235361Y556891D01*
X235434Y556839D01*
X235505Y556783D01*
X235573Y556725D01*
X235638Y556663D01*
X235701Y556599D01*
X235761Y556532D01*
X235818Y556463D01*
X235872Y556391D01*
X235923Y556317D01*
X235971Y556241D01*
X236015Y556163D01*
X236056Y556083D01*
X236094Y556001D01*
X236128Y555918D01*
X236158Y555833D01*
X236185Y555747D01*
X236208Y555661D01*
X236227Y555573D01*
X236242Y555484D01*
X236254Y555395D01*
X236262Y555306D01*
X236266Y555216D01*
X236266Y555126D01*
X236262Y555036D01*
X236254Y554947D01*
X236242Y554858D01*
X236227Y554769D01*
X236208Y554681D01*
X236185Y554595D01*
X236158Y554509D01*
X236128Y554424D01*
X236094Y554341D01*
X236056Y554259D01*
X236015Y554179D01*
X235971Y554101D01*
X235923Y554025D01*
X235872Y553951D01*
X235818Y553879D01*
X235761Y553810D01*
X235701Y553743D01*
X235638Y553679D01*
X235573Y553617D01*
X235505Y553559D01*
X235434Y553503D01*
X235361Y553451D01*
X235286Y553401D01*
X235209Y553355D01*
X235130Y553313D01*
X235049Y553273D01*
X234967Y553238D01*
X234883Y553206D01*
X234798Y553177D01*
X234711Y553152D01*
X234624Y553131D01*
X234536Y553114D01*
X234447Y553100D01*
X234357Y553091D01*
X234268Y553085D01*
X234178Y553083D01*
X239883Y544728D02*
X240928Y544728D01*
X244060Y554126D01*
X239883Y554126D02*
X241972Y547861D01*
X252860Y547861D02*
X252860Y557259D01*
X255993Y552038D01*
X259125Y557259D01*
X259125Y547861D01*
X267795Y547861D02*
X270928Y557259D01*
X274060Y547861D01*
X273277Y550211D02*
X268578Y550211D01*
X277678Y547861D02*
X277678Y557259D01*
X277678Y554126D02*
X280289Y554126D01*
X280366Y554124D01*
X280442Y554118D01*
X280519Y554109D01*
X280595Y554096D01*
X280670Y554079D01*
X280744Y554059D01*
X280817Y554034D01*
X280888Y554007D01*
X280959Y553976D01*
X281027Y553941D01*
X281094Y553903D01*
X281159Y553862D01*
X281222Y553818D01*
X281282Y553771D01*
X281341Y553720D01*
X281396Y553667D01*
X281449Y553612D01*
X281500Y553553D01*
X281547Y553493D01*
X281591Y553430D01*
X281632Y553365D01*
X281670Y553298D01*
X281705Y553230D01*
X281736Y553159D01*
X281763Y553088D01*
X281788Y553015D01*
X281808Y552941D01*
X281825Y552866D01*
X281838Y552790D01*
X281847Y552714D01*
X281853Y552637D01*
X281855Y552560D01*
X281855Y547861D01*
X286388Y547861D02*
X286388Y554126D01*
X291087Y554126D01*
X291164Y554124D01*
X291240Y554118D01*
X291317Y554109D01*
X291393Y554096D01*
X291468Y554079D01*
X291542Y554059D01*
X291615Y554034D01*
X291686Y554007D01*
X291757Y553976D01*
X291825Y553941D01*
X291892Y553903D01*
X291957Y553862D01*
X292020Y553818D01*
X292080Y553771D01*
X292139Y553720D01*
X292194Y553667D01*
X292247Y553612D01*
X292298Y553553D01*
X292345Y553493D01*
X292389Y553430D01*
X292430Y553365D01*
X292468Y553298D01*
X292503Y553230D01*
X292534Y553159D01*
X292561Y553088D01*
X292586Y553015D01*
X292606Y552941D01*
X292623Y552866D01*
X292636Y552790D01*
X292645Y552713D01*
X292651Y552637D01*
X292653Y552560D01*
X292653Y547861D01*
X289520Y547861D02*
X289520Y554126D01*
X298447Y547861D02*
X301058Y547861D01*
X298447Y547861D02*
X298370Y547863D01*
X298294Y547869D01*
X298217Y547878D01*
X298141Y547891D01*
X298066Y547908D01*
X297992Y547928D01*
X297919Y547953D01*
X297848Y547980D01*
X297777Y548011D01*
X297709Y548046D01*
X297642Y548084D01*
X297577Y548125D01*
X297514Y548169D01*
X297454Y548216D01*
X297395Y548267D01*
X297340Y548320D01*
X297287Y548375D01*
X297236Y548434D01*
X297189Y548494D01*
X297145Y548557D01*
X297104Y548622D01*
X297066Y548689D01*
X297031Y548757D01*
X297000Y548828D01*
X296973Y548899D01*
X296948Y548972D01*
X296928Y549046D01*
X296911Y549121D01*
X296898Y549197D01*
X296889Y549274D01*
X296883Y549350D01*
X296881Y549427D01*
X296881Y552038D01*
X296883Y552128D01*
X296889Y552217D01*
X296898Y552307D01*
X296912Y552396D01*
X296929Y552484D01*
X296950Y552571D01*
X296975Y552658D01*
X297004Y552743D01*
X297036Y552827D01*
X297071Y552909D01*
X297111Y552990D01*
X297153Y553069D01*
X297199Y553146D01*
X297249Y553221D01*
X297301Y553294D01*
X297357Y553365D01*
X297415Y553433D01*
X297477Y553498D01*
X297541Y553561D01*
X297608Y553621D01*
X297677Y553678D01*
X297749Y553732D01*
X297823Y553783D01*
X297899Y553831D01*
X297977Y553875D01*
X298057Y553916D01*
X298139Y553954D01*
X298222Y553988D01*
X298307Y554018D01*
X298393Y554045D01*
X298479Y554068D01*
X298567Y554087D01*
X298656Y554102D01*
X298745Y554114D01*
X298834Y554122D01*
X298924Y554126D01*
X299014Y554126D01*
X299104Y554122D01*
X299193Y554114D01*
X299282Y554102D01*
X299371Y554087D01*
X299459Y554068D01*
X299545Y554045D01*
X299631Y554018D01*
X299716Y553988D01*
X299799Y553954D01*
X299881Y553916D01*
X299961Y553875D01*
X300039Y553831D01*
X300115Y553783D01*
X300189Y553732D01*
X300261Y553678D01*
X300330Y553621D01*
X300397Y553561D01*
X300461Y553498D01*
X300523Y553433D01*
X300581Y553365D01*
X300637Y553294D01*
X300689Y553221D01*
X300739Y553146D01*
X300785Y553069D01*
X300827Y552990D01*
X300867Y552909D01*
X300902Y552827D01*
X300934Y552743D01*
X300963Y552658D01*
X300988Y552571D01*
X301009Y552484D01*
X301026Y552396D01*
X301040Y552307D01*
X301049Y552217D01*
X301055Y552128D01*
X301057Y552038D01*
X301058Y552038D02*
X301058Y550994D01*
X296881Y550994D01*
X308937Y547861D02*
X308937Y557259D01*
X308937Y547861D02*
X306326Y547861D01*
X306249Y547863D01*
X306173Y547869D01*
X306096Y547878D01*
X306020Y547891D01*
X305945Y547908D01*
X305871Y547928D01*
X305798Y547953D01*
X305727Y547980D01*
X305656Y548011D01*
X305588Y548046D01*
X305521Y548084D01*
X305456Y548125D01*
X305393Y548169D01*
X305333Y548216D01*
X305274Y548267D01*
X305219Y548320D01*
X305166Y548375D01*
X305115Y548434D01*
X305068Y548494D01*
X305024Y548557D01*
X304983Y548622D01*
X304945Y548689D01*
X304910Y548757D01*
X304879Y548828D01*
X304852Y548899D01*
X304827Y548972D01*
X304807Y549046D01*
X304790Y549121D01*
X304777Y549197D01*
X304768Y549274D01*
X304762Y549350D01*
X304760Y549427D01*
X304760Y552560D01*
X304762Y552637D01*
X304768Y552713D01*
X304777Y552790D01*
X304790Y552866D01*
X304807Y552941D01*
X304827Y553015D01*
X304852Y553088D01*
X304879Y553159D01*
X304910Y553230D01*
X304945Y553298D01*
X304983Y553365D01*
X305024Y553430D01*
X305068Y553493D01*
X305115Y553553D01*
X305166Y553612D01*
X305219Y553667D01*
X305274Y553720D01*
X305333Y553771D01*
X305393Y553818D01*
X305456Y553862D01*
X305521Y553903D01*
X305588Y553941D01*
X305656Y553976D01*
X305727Y554007D01*
X305798Y554034D01*
X305871Y554059D01*
X305945Y554079D01*
X306020Y554096D01*
X306096Y554109D01*
X306173Y554118D01*
X306249Y554124D01*
X306326Y554126D01*
X308937Y554126D01*
X166469Y532621D02*
X164381Y542019D01*
X168558Y538886D02*
X166469Y532621D01*
X170646Y532621D02*
X168558Y538886D01*
X172735Y542019D02*
X170646Y532621D01*
X177789Y532621D02*
X180400Y532621D01*
X177789Y532621D02*
X177712Y532623D01*
X177636Y532629D01*
X177559Y532638D01*
X177483Y532651D01*
X177408Y532668D01*
X177334Y532688D01*
X177261Y532713D01*
X177190Y532740D01*
X177119Y532771D01*
X177051Y532806D01*
X176984Y532844D01*
X176919Y532885D01*
X176856Y532929D01*
X176796Y532976D01*
X176737Y533027D01*
X176682Y533080D01*
X176629Y533135D01*
X176578Y533194D01*
X176531Y533254D01*
X176487Y533317D01*
X176446Y533382D01*
X176408Y533449D01*
X176373Y533517D01*
X176342Y533588D01*
X176315Y533659D01*
X176290Y533732D01*
X176270Y533806D01*
X176253Y533881D01*
X176240Y533957D01*
X176231Y534034D01*
X176225Y534110D01*
X176223Y534187D01*
X176223Y536798D01*
X176225Y536888D01*
X176231Y536977D01*
X176240Y537067D01*
X176254Y537156D01*
X176271Y537244D01*
X176292Y537331D01*
X176317Y537418D01*
X176346Y537503D01*
X176378Y537587D01*
X176413Y537669D01*
X176453Y537750D01*
X176495Y537829D01*
X176541Y537906D01*
X176591Y537981D01*
X176643Y538054D01*
X176699Y538125D01*
X176757Y538193D01*
X176819Y538258D01*
X176883Y538321D01*
X176950Y538381D01*
X177019Y538438D01*
X177091Y538492D01*
X177165Y538543D01*
X177241Y538591D01*
X177319Y538635D01*
X177399Y538676D01*
X177481Y538714D01*
X177564Y538748D01*
X177649Y538778D01*
X177735Y538805D01*
X177821Y538828D01*
X177909Y538847D01*
X177998Y538862D01*
X178087Y538874D01*
X178176Y538882D01*
X178266Y538886D01*
X178356Y538886D01*
X178446Y538882D01*
X178535Y538874D01*
X178624Y538862D01*
X178713Y538847D01*
X178801Y538828D01*
X178887Y538805D01*
X178973Y538778D01*
X179058Y538748D01*
X179141Y538714D01*
X179223Y538676D01*
X179303Y538635D01*
X179381Y538591D01*
X179457Y538543D01*
X179531Y538492D01*
X179603Y538438D01*
X179672Y538381D01*
X179739Y538321D01*
X179803Y538258D01*
X179865Y538193D01*
X179923Y538125D01*
X179979Y538054D01*
X180031Y537981D01*
X180081Y537906D01*
X180127Y537829D01*
X180169Y537750D01*
X180209Y537669D01*
X180244Y537587D01*
X180276Y537503D01*
X180305Y537418D01*
X180330Y537331D01*
X180351Y537244D01*
X180368Y537156D01*
X180382Y537067D01*
X180391Y536977D01*
X180397Y536888D01*
X180399Y536798D01*
X180400Y536798D02*
X180400Y535754D01*
X176223Y535754D01*
X185929Y536276D02*
X188279Y536276D01*
X185929Y536275D02*
X185845Y536273D01*
X185760Y536267D01*
X185677Y536257D01*
X185593Y536244D01*
X185511Y536226D01*
X185429Y536205D01*
X185348Y536180D01*
X185269Y536152D01*
X185191Y536119D01*
X185115Y536083D01*
X185040Y536044D01*
X184967Y536001D01*
X184896Y535955D01*
X184828Y535906D01*
X184762Y535854D01*
X184698Y535798D01*
X184637Y535740D01*
X184579Y535679D01*
X184523Y535615D01*
X184471Y535549D01*
X184422Y535481D01*
X184376Y535410D01*
X184333Y535337D01*
X184294Y535262D01*
X184258Y535186D01*
X184225Y535108D01*
X184197Y535029D01*
X184172Y534948D01*
X184151Y534866D01*
X184133Y534784D01*
X184120Y534700D01*
X184110Y534617D01*
X184104Y534532D01*
X184102Y534448D01*
X184104Y534364D01*
X184110Y534279D01*
X184120Y534196D01*
X184133Y534112D01*
X184151Y534030D01*
X184172Y533948D01*
X184197Y533867D01*
X184225Y533788D01*
X184258Y533710D01*
X184294Y533634D01*
X184333Y533559D01*
X184376Y533486D01*
X184422Y533415D01*
X184471Y533347D01*
X184523Y533281D01*
X184579Y533217D01*
X184637Y533156D01*
X184698Y533098D01*
X184762Y533042D01*
X184828Y532990D01*
X184896Y532941D01*
X184967Y532895D01*
X185040Y532852D01*
X185115Y532813D01*
X185191Y532777D01*
X185269Y532744D01*
X185348Y532716D01*
X185429Y532691D01*
X185511Y532670D01*
X185593Y532652D01*
X185677Y532639D01*
X185760Y532629D01*
X185845Y532623D01*
X185929Y532621D01*
X188279Y532621D01*
X188279Y537320D01*
X188277Y537397D01*
X188271Y537473D01*
X188262Y537550D01*
X188249Y537626D01*
X188232Y537701D01*
X188212Y537775D01*
X188187Y537848D01*
X188160Y537919D01*
X188129Y537990D01*
X188094Y538058D01*
X188056Y538125D01*
X188015Y538190D01*
X187971Y538253D01*
X187924Y538313D01*
X187873Y538372D01*
X187820Y538427D01*
X187765Y538480D01*
X187706Y538531D01*
X187646Y538578D01*
X187583Y538622D01*
X187518Y538663D01*
X187451Y538701D01*
X187383Y538736D01*
X187312Y538767D01*
X187241Y538794D01*
X187168Y538819D01*
X187094Y538839D01*
X187019Y538856D01*
X186943Y538869D01*
X186866Y538878D01*
X186790Y538884D01*
X186713Y538886D01*
X184624Y538886D01*
X192734Y538886D02*
X192734Y532621D01*
X192734Y538886D02*
X195866Y538886D01*
X195866Y537842D01*
X200560Y536276D02*
X202909Y536276D01*
X200560Y536275D02*
X200476Y536273D01*
X200391Y536267D01*
X200308Y536257D01*
X200224Y536244D01*
X200142Y536226D01*
X200060Y536205D01*
X199979Y536180D01*
X199900Y536152D01*
X199822Y536119D01*
X199746Y536083D01*
X199671Y536044D01*
X199598Y536001D01*
X199527Y535955D01*
X199459Y535906D01*
X199393Y535854D01*
X199329Y535798D01*
X199268Y535740D01*
X199210Y535679D01*
X199154Y535615D01*
X199102Y535549D01*
X199053Y535481D01*
X199007Y535410D01*
X198964Y535337D01*
X198925Y535262D01*
X198889Y535186D01*
X198856Y535108D01*
X198828Y535029D01*
X198803Y534948D01*
X198782Y534866D01*
X198764Y534784D01*
X198751Y534700D01*
X198741Y534617D01*
X198735Y534532D01*
X198733Y534448D01*
X198735Y534364D01*
X198741Y534279D01*
X198751Y534196D01*
X198764Y534112D01*
X198782Y534030D01*
X198803Y533948D01*
X198828Y533867D01*
X198856Y533788D01*
X198889Y533710D01*
X198925Y533634D01*
X198964Y533559D01*
X199007Y533486D01*
X199053Y533415D01*
X199102Y533347D01*
X199154Y533281D01*
X199210Y533217D01*
X199268Y533156D01*
X199329Y533098D01*
X199393Y533042D01*
X199459Y532990D01*
X199527Y532941D01*
X199598Y532895D01*
X199671Y532852D01*
X199746Y532813D01*
X199822Y532777D01*
X199900Y532744D01*
X199979Y532716D01*
X200060Y532691D01*
X200142Y532670D01*
X200224Y532652D01*
X200308Y532639D01*
X200391Y532629D01*
X200476Y532623D01*
X200560Y532621D01*
X202909Y532621D01*
X202909Y537320D01*
X202907Y537397D01*
X202901Y537473D01*
X202892Y537550D01*
X202879Y537626D01*
X202862Y537701D01*
X202842Y537775D01*
X202817Y537848D01*
X202790Y537919D01*
X202759Y537990D01*
X202724Y538058D01*
X202686Y538125D01*
X202645Y538190D01*
X202601Y538253D01*
X202554Y538313D01*
X202503Y538372D01*
X202450Y538427D01*
X202395Y538480D01*
X202336Y538531D01*
X202276Y538578D01*
X202213Y538622D01*
X202148Y538663D01*
X202081Y538701D01*
X202013Y538736D01*
X201942Y538767D01*
X201871Y538794D01*
X201798Y538819D01*
X201724Y538839D01*
X201649Y538856D01*
X201573Y538869D01*
X201496Y538878D01*
X201420Y538884D01*
X201343Y538886D01*
X199255Y538886D01*
X207358Y542019D02*
X207358Y532621D01*
X209969Y532621D01*
X210046Y532623D01*
X210122Y532629D01*
X210199Y532638D01*
X210275Y532651D01*
X210350Y532668D01*
X210424Y532688D01*
X210497Y532713D01*
X210568Y532740D01*
X210639Y532771D01*
X210707Y532806D01*
X210774Y532844D01*
X210839Y532885D01*
X210902Y532929D01*
X210962Y532976D01*
X211021Y533027D01*
X211076Y533080D01*
X211129Y533135D01*
X211180Y533194D01*
X211227Y533254D01*
X211271Y533317D01*
X211312Y533382D01*
X211350Y533449D01*
X211385Y533517D01*
X211416Y533588D01*
X211443Y533659D01*
X211468Y533732D01*
X211488Y533806D01*
X211505Y533881D01*
X211518Y533957D01*
X211527Y534033D01*
X211533Y534110D01*
X211535Y534187D01*
X211535Y537320D01*
X211533Y537397D01*
X211527Y537473D01*
X211518Y537550D01*
X211505Y537626D01*
X211488Y537701D01*
X211468Y537775D01*
X211443Y537848D01*
X211416Y537919D01*
X211385Y537990D01*
X211350Y538058D01*
X211312Y538125D01*
X211271Y538190D01*
X211227Y538253D01*
X211180Y538313D01*
X211129Y538372D01*
X211076Y538427D01*
X211021Y538480D01*
X210962Y538531D01*
X210902Y538578D01*
X210839Y538622D01*
X210774Y538663D01*
X210707Y538701D01*
X210639Y538736D01*
X210568Y538767D01*
X210497Y538794D01*
X210424Y538819D01*
X210350Y538839D01*
X210275Y538856D01*
X210199Y538869D01*
X210122Y538878D01*
X210046Y538884D01*
X209969Y538886D01*
X207358Y538886D01*
X215363Y542019D02*
X215363Y534187D01*
X215365Y534110D01*
X215371Y534034D01*
X215380Y533957D01*
X215393Y533881D01*
X215410Y533806D01*
X215430Y533732D01*
X215455Y533659D01*
X215482Y533588D01*
X215513Y533517D01*
X215548Y533449D01*
X215586Y533382D01*
X215627Y533317D01*
X215671Y533254D01*
X215718Y533194D01*
X215769Y533135D01*
X215822Y533080D01*
X215877Y533027D01*
X215936Y532976D01*
X215996Y532929D01*
X216059Y532885D01*
X216124Y532844D01*
X216191Y532806D01*
X216259Y532771D01*
X216330Y532740D01*
X216401Y532713D01*
X216474Y532688D01*
X216548Y532668D01*
X216623Y532651D01*
X216699Y532638D01*
X216776Y532629D01*
X216852Y532623D01*
X216929Y532621D01*
X221680Y532621D02*
X224291Y532621D01*
X221680Y532621D02*
X221603Y532623D01*
X221527Y532629D01*
X221450Y532638D01*
X221374Y532651D01*
X221299Y532668D01*
X221225Y532688D01*
X221152Y532713D01*
X221081Y532740D01*
X221010Y532771D01*
X220942Y532806D01*
X220875Y532844D01*
X220810Y532885D01*
X220747Y532929D01*
X220687Y532976D01*
X220628Y533027D01*
X220573Y533080D01*
X220520Y533135D01*
X220469Y533194D01*
X220422Y533254D01*
X220378Y533317D01*
X220337Y533382D01*
X220299Y533449D01*
X220264Y533517D01*
X220233Y533588D01*
X220206Y533659D01*
X220181Y533732D01*
X220161Y533806D01*
X220144Y533881D01*
X220131Y533957D01*
X220122Y534034D01*
X220116Y534110D01*
X220114Y534187D01*
X220114Y536798D01*
X220116Y536888D01*
X220122Y536977D01*
X220131Y537067D01*
X220145Y537156D01*
X220162Y537244D01*
X220183Y537331D01*
X220208Y537418D01*
X220237Y537503D01*
X220269Y537587D01*
X220304Y537669D01*
X220344Y537750D01*
X220386Y537829D01*
X220432Y537906D01*
X220482Y537981D01*
X220534Y538054D01*
X220590Y538125D01*
X220648Y538193D01*
X220710Y538258D01*
X220774Y538321D01*
X220841Y538381D01*
X220910Y538438D01*
X220982Y538492D01*
X221056Y538543D01*
X221132Y538591D01*
X221210Y538635D01*
X221290Y538676D01*
X221372Y538714D01*
X221455Y538748D01*
X221540Y538778D01*
X221626Y538805D01*
X221712Y538828D01*
X221800Y538847D01*
X221889Y538862D01*
X221978Y538874D01*
X222067Y538882D01*
X222157Y538886D01*
X222247Y538886D01*
X222337Y538882D01*
X222426Y538874D01*
X222515Y538862D01*
X222604Y538847D01*
X222692Y538828D01*
X222778Y538805D01*
X222864Y538778D01*
X222949Y538748D01*
X223032Y538714D01*
X223114Y538676D01*
X223194Y538635D01*
X223272Y538591D01*
X223348Y538543D01*
X223422Y538492D01*
X223494Y538438D01*
X223563Y538381D01*
X223630Y538321D01*
X223694Y538258D01*
X223756Y538193D01*
X223814Y538125D01*
X223870Y538054D01*
X223922Y537981D01*
X223972Y537906D01*
X224018Y537829D01*
X224060Y537750D01*
X224100Y537669D01*
X224135Y537587D01*
X224167Y537503D01*
X224196Y537418D01*
X224221Y537331D01*
X224242Y537244D01*
X224259Y537156D01*
X224273Y537067D01*
X224282Y536977D01*
X224288Y536888D01*
X224290Y536798D01*
X224291Y536798D02*
X224291Y535754D01*
X220114Y535754D01*
X233325Y532621D02*
X237502Y532621D01*
X233325Y532621D02*
X233325Y542019D01*
X237502Y542019D01*
X236458Y537842D02*
X233325Y537842D01*
X242990Y532621D02*
X245079Y532621D01*
X242990Y532621D02*
X242901Y532623D01*
X242813Y532629D01*
X242725Y532638D01*
X242637Y532651D01*
X242550Y532668D01*
X242464Y532688D01*
X242379Y532713D01*
X242294Y532740D01*
X242211Y532772D01*
X242130Y532806D01*
X242050Y532845D01*
X241972Y532886D01*
X241895Y532931D01*
X241821Y532979D01*
X241748Y533030D01*
X241678Y533084D01*
X241611Y533142D01*
X241545Y533202D01*
X241483Y533264D01*
X241423Y533330D01*
X241365Y533397D01*
X241311Y533467D01*
X241260Y533540D01*
X241212Y533614D01*
X241167Y533691D01*
X241126Y533769D01*
X241087Y533849D01*
X241053Y533930D01*
X241021Y534013D01*
X240994Y534098D01*
X240969Y534183D01*
X240949Y534269D01*
X240932Y534356D01*
X240919Y534444D01*
X240910Y534532D01*
X240904Y534620D01*
X240902Y534709D01*
X240902Y539931D01*
X240904Y540022D01*
X240910Y540113D01*
X240920Y540204D01*
X240934Y540294D01*
X240951Y540383D01*
X240973Y540471D01*
X240999Y540559D01*
X241028Y540645D01*
X241061Y540730D01*
X241098Y540813D01*
X241138Y540895D01*
X241182Y540975D01*
X241229Y541053D01*
X241280Y541129D01*
X241333Y541202D01*
X241390Y541273D01*
X241451Y541342D01*
X241514Y541407D01*
X241579Y541470D01*
X241648Y541530D01*
X241719Y541588D01*
X241792Y541641D01*
X241868Y541692D01*
X241946Y541739D01*
X242026Y541783D01*
X242108Y541823D01*
X242191Y541860D01*
X242276Y541893D01*
X242362Y541922D01*
X242450Y541948D01*
X242538Y541970D01*
X242627Y541987D01*
X242717Y542001D01*
X242808Y542011D01*
X242899Y542017D01*
X242990Y542019D01*
X245079Y542019D01*
X252507Y537842D02*
X254073Y537842D01*
X254073Y532621D01*
X250941Y532621D01*
X250852Y532623D01*
X250764Y532629D01*
X250676Y532638D01*
X250588Y532651D01*
X250501Y532668D01*
X250415Y532688D01*
X250330Y532713D01*
X250245Y532740D01*
X250162Y532772D01*
X250081Y532806D01*
X250001Y532845D01*
X249923Y532886D01*
X249846Y532931D01*
X249772Y532979D01*
X249699Y533030D01*
X249629Y533084D01*
X249562Y533142D01*
X249496Y533202D01*
X249434Y533264D01*
X249374Y533330D01*
X249316Y533397D01*
X249262Y533467D01*
X249211Y533540D01*
X249163Y533614D01*
X249118Y533691D01*
X249077Y533769D01*
X249038Y533849D01*
X249004Y533930D01*
X248972Y534013D01*
X248945Y534098D01*
X248920Y534183D01*
X248900Y534269D01*
X248883Y534356D01*
X248870Y534444D01*
X248861Y534532D01*
X248855Y534620D01*
X248853Y534709D01*
X248852Y534709D02*
X248852Y539931D01*
X248853Y539931D02*
X248855Y540022D01*
X248861Y540113D01*
X248871Y540204D01*
X248885Y540294D01*
X248902Y540383D01*
X248924Y540471D01*
X248950Y540559D01*
X248979Y540645D01*
X249012Y540730D01*
X249049Y540813D01*
X249089Y540895D01*
X249133Y540975D01*
X249180Y541053D01*
X249231Y541129D01*
X249284Y541202D01*
X249341Y541273D01*
X249402Y541342D01*
X249465Y541407D01*
X249530Y541470D01*
X249599Y541530D01*
X249670Y541588D01*
X249743Y541641D01*
X249819Y541692D01*
X249897Y541739D01*
X249977Y541783D01*
X250059Y541823D01*
X250142Y541860D01*
X250227Y541893D01*
X250313Y541922D01*
X250401Y541948D01*
X250489Y541970D01*
X250578Y541987D01*
X250668Y542001D01*
X250759Y542011D01*
X250850Y542017D01*
X250941Y542019D01*
X254073Y542019D01*
X263570Y542019D02*
X263570Y532621D01*
X266703Y536798D02*
X263570Y542019D01*
X266703Y536798D02*
X269836Y542019D01*
X269836Y532621D01*
X274063Y534709D02*
X274063Y536798D01*
X274064Y536798D02*
X274066Y536888D01*
X274072Y536977D01*
X274081Y537067D01*
X274095Y537156D01*
X274112Y537244D01*
X274133Y537331D01*
X274158Y537418D01*
X274187Y537503D01*
X274219Y537587D01*
X274254Y537669D01*
X274294Y537750D01*
X274336Y537829D01*
X274382Y537906D01*
X274432Y537981D01*
X274484Y538054D01*
X274540Y538125D01*
X274598Y538193D01*
X274660Y538258D01*
X274724Y538321D01*
X274791Y538381D01*
X274860Y538438D01*
X274932Y538492D01*
X275006Y538543D01*
X275082Y538591D01*
X275160Y538635D01*
X275240Y538676D01*
X275322Y538714D01*
X275405Y538748D01*
X275490Y538778D01*
X275576Y538805D01*
X275662Y538828D01*
X275750Y538847D01*
X275839Y538862D01*
X275928Y538874D01*
X276017Y538882D01*
X276107Y538886D01*
X276197Y538886D01*
X276287Y538882D01*
X276376Y538874D01*
X276465Y538862D01*
X276554Y538847D01*
X276642Y538828D01*
X276728Y538805D01*
X276814Y538778D01*
X276899Y538748D01*
X276982Y538714D01*
X277064Y538676D01*
X277144Y538635D01*
X277222Y538591D01*
X277298Y538543D01*
X277372Y538492D01*
X277444Y538438D01*
X277513Y538381D01*
X277580Y538321D01*
X277644Y538258D01*
X277706Y538193D01*
X277764Y538125D01*
X277820Y538054D01*
X277872Y537981D01*
X277922Y537906D01*
X277968Y537829D01*
X278010Y537750D01*
X278050Y537669D01*
X278085Y537587D01*
X278117Y537503D01*
X278146Y537418D01*
X278171Y537331D01*
X278192Y537244D01*
X278209Y537156D01*
X278223Y537067D01*
X278232Y536977D01*
X278238Y536888D01*
X278240Y536798D01*
X278240Y534709D01*
X278238Y534619D01*
X278232Y534530D01*
X278223Y534440D01*
X278209Y534351D01*
X278192Y534263D01*
X278171Y534176D01*
X278146Y534089D01*
X278117Y534004D01*
X278085Y533920D01*
X278050Y533838D01*
X278010Y533757D01*
X277968Y533678D01*
X277922Y533601D01*
X277872Y533526D01*
X277820Y533453D01*
X277764Y533382D01*
X277706Y533314D01*
X277644Y533249D01*
X277580Y533186D01*
X277513Y533126D01*
X277444Y533069D01*
X277372Y533015D01*
X277298Y532964D01*
X277222Y532916D01*
X277144Y532872D01*
X277064Y532831D01*
X276982Y532793D01*
X276899Y532759D01*
X276814Y532729D01*
X276728Y532702D01*
X276642Y532679D01*
X276554Y532660D01*
X276465Y532645D01*
X276376Y532633D01*
X276287Y532625D01*
X276197Y532621D01*
X276107Y532621D01*
X276017Y532625D01*
X275928Y532633D01*
X275839Y532645D01*
X275750Y532660D01*
X275662Y532679D01*
X275576Y532702D01*
X275490Y532729D01*
X275405Y532759D01*
X275322Y532793D01*
X275240Y532831D01*
X275160Y532872D01*
X275082Y532916D01*
X275006Y532964D01*
X274932Y533015D01*
X274860Y533069D01*
X274791Y533126D01*
X274724Y533186D01*
X274660Y533249D01*
X274598Y533314D01*
X274540Y533382D01*
X274484Y533453D01*
X274432Y533526D01*
X274382Y533601D01*
X274336Y533678D01*
X274294Y533757D01*
X274254Y533838D01*
X274219Y533920D01*
X274187Y534004D01*
X274158Y534089D01*
X274133Y534176D01*
X274112Y534263D01*
X274095Y534351D01*
X274081Y534440D01*
X274072Y534530D01*
X274066Y534619D01*
X274064Y534709D01*
X282293Y532621D02*
X282293Y538886D01*
X284903Y538886D01*
X284980Y538884D01*
X285056Y538878D01*
X285133Y538869D01*
X285209Y538856D01*
X285284Y538839D01*
X285358Y538819D01*
X285431Y538794D01*
X285502Y538767D01*
X285573Y538736D01*
X285641Y538701D01*
X285708Y538663D01*
X285773Y538622D01*
X285836Y538578D01*
X285896Y538531D01*
X285955Y538480D01*
X286010Y538427D01*
X286063Y538372D01*
X286114Y538313D01*
X286161Y538253D01*
X286205Y538190D01*
X286246Y538125D01*
X286284Y538058D01*
X286319Y537990D01*
X286350Y537919D01*
X286377Y537848D01*
X286402Y537775D01*
X286422Y537701D01*
X286439Y537626D01*
X286452Y537550D01*
X286461Y537474D01*
X286467Y537397D01*
X286469Y537320D01*
X286470Y537320D02*
X286470Y532621D01*
X290477Y532621D02*
X290477Y538886D01*
X290216Y541497D02*
X290216Y542019D01*
X290738Y542019D01*
X290738Y541497D01*
X290216Y541497D01*
X293411Y538886D02*
X296544Y538886D01*
X294455Y542019D02*
X294455Y534187D01*
X294456Y534187D02*
X294458Y534110D01*
X294464Y534034D01*
X294473Y533957D01*
X294486Y533881D01*
X294503Y533806D01*
X294523Y533732D01*
X294548Y533659D01*
X294575Y533588D01*
X294606Y533517D01*
X294641Y533449D01*
X294679Y533382D01*
X294720Y533317D01*
X294764Y533254D01*
X294811Y533194D01*
X294862Y533135D01*
X294915Y533080D01*
X294970Y533027D01*
X295029Y532976D01*
X295089Y532929D01*
X295152Y532885D01*
X295217Y532844D01*
X295284Y532806D01*
X295352Y532771D01*
X295423Y532740D01*
X295494Y532713D01*
X295567Y532688D01*
X295641Y532668D01*
X295716Y532651D01*
X295792Y532638D01*
X295869Y532629D01*
X295945Y532623D01*
X296022Y532621D01*
X296544Y532621D01*
X299971Y534709D02*
X299971Y536798D01*
X299973Y536888D01*
X299979Y536977D01*
X299988Y537067D01*
X300002Y537156D01*
X300019Y537244D01*
X300040Y537331D01*
X300065Y537418D01*
X300094Y537503D01*
X300126Y537587D01*
X300161Y537669D01*
X300201Y537750D01*
X300243Y537829D01*
X300289Y537906D01*
X300339Y537981D01*
X300391Y538054D01*
X300447Y538125D01*
X300505Y538193D01*
X300567Y538258D01*
X300631Y538321D01*
X300698Y538381D01*
X300767Y538438D01*
X300839Y538492D01*
X300913Y538543D01*
X300989Y538591D01*
X301067Y538635D01*
X301147Y538676D01*
X301229Y538714D01*
X301312Y538748D01*
X301397Y538778D01*
X301483Y538805D01*
X301569Y538828D01*
X301657Y538847D01*
X301746Y538862D01*
X301835Y538874D01*
X301924Y538882D01*
X302014Y538886D01*
X302104Y538886D01*
X302194Y538882D01*
X302283Y538874D01*
X302372Y538862D01*
X302461Y538847D01*
X302549Y538828D01*
X302635Y538805D01*
X302721Y538778D01*
X302806Y538748D01*
X302889Y538714D01*
X302971Y538676D01*
X303051Y538635D01*
X303129Y538591D01*
X303205Y538543D01*
X303279Y538492D01*
X303351Y538438D01*
X303420Y538381D01*
X303487Y538321D01*
X303551Y538258D01*
X303613Y538193D01*
X303671Y538125D01*
X303727Y538054D01*
X303779Y537981D01*
X303829Y537906D01*
X303875Y537829D01*
X303917Y537750D01*
X303957Y537669D01*
X303992Y537587D01*
X304024Y537503D01*
X304053Y537418D01*
X304078Y537331D01*
X304099Y537244D01*
X304116Y537156D01*
X304130Y537067D01*
X304139Y536977D01*
X304145Y536888D01*
X304147Y536798D01*
X304148Y536798D02*
X304148Y534709D01*
X304147Y534709D02*
X304145Y534619D01*
X304139Y534530D01*
X304130Y534440D01*
X304116Y534351D01*
X304099Y534263D01*
X304078Y534176D01*
X304053Y534089D01*
X304024Y534004D01*
X303992Y533920D01*
X303957Y533838D01*
X303917Y533757D01*
X303875Y533678D01*
X303829Y533601D01*
X303779Y533526D01*
X303727Y533453D01*
X303671Y533382D01*
X303613Y533314D01*
X303551Y533249D01*
X303487Y533186D01*
X303420Y533126D01*
X303351Y533069D01*
X303279Y533015D01*
X303205Y532964D01*
X303129Y532916D01*
X303051Y532872D01*
X302971Y532831D01*
X302889Y532793D01*
X302806Y532759D01*
X302721Y532729D01*
X302635Y532702D01*
X302549Y532679D01*
X302461Y532660D01*
X302372Y532645D01*
X302283Y532633D01*
X302194Y532625D01*
X302104Y532621D01*
X302014Y532621D01*
X301924Y532625D01*
X301835Y532633D01*
X301746Y532645D01*
X301657Y532660D01*
X301569Y532679D01*
X301483Y532702D01*
X301397Y532729D01*
X301312Y532759D01*
X301229Y532793D01*
X301147Y532831D01*
X301067Y532872D01*
X300989Y532916D01*
X300913Y532964D01*
X300839Y533015D01*
X300767Y533069D01*
X300698Y533126D01*
X300631Y533186D01*
X300567Y533249D01*
X300505Y533314D01*
X300447Y533382D01*
X300391Y533453D01*
X300339Y533526D01*
X300289Y533601D01*
X300243Y533678D01*
X300201Y533757D01*
X300161Y533838D01*
X300126Y533920D01*
X300094Y534004D01*
X300065Y534089D01*
X300040Y534176D01*
X300019Y534263D01*
X300002Y534351D01*
X299988Y534440D01*
X299979Y534530D01*
X299973Y534619D01*
X299971Y534709D01*
X308252Y532621D02*
X308252Y538886D01*
X311385Y538886D01*
X311385Y537842D01*
X167514Y517381D02*
X164381Y526779D01*
X170646Y526779D02*
X167514Y517381D01*
X175526Y517381D02*
X178136Y517381D01*
X175526Y517381D02*
X175449Y517383D01*
X175373Y517389D01*
X175296Y517398D01*
X175220Y517411D01*
X175145Y517428D01*
X175071Y517448D01*
X174998Y517473D01*
X174927Y517500D01*
X174856Y517531D01*
X174788Y517566D01*
X174721Y517604D01*
X174656Y517645D01*
X174593Y517689D01*
X174533Y517736D01*
X174474Y517787D01*
X174419Y517840D01*
X174366Y517895D01*
X174315Y517954D01*
X174268Y518014D01*
X174224Y518077D01*
X174183Y518142D01*
X174145Y518209D01*
X174110Y518277D01*
X174079Y518348D01*
X174052Y518419D01*
X174027Y518492D01*
X174007Y518566D01*
X173990Y518641D01*
X173977Y518717D01*
X173968Y518794D01*
X173962Y518870D01*
X173960Y518947D01*
X173960Y521558D01*
X173962Y521648D01*
X173968Y521737D01*
X173977Y521827D01*
X173991Y521916D01*
X174008Y522004D01*
X174029Y522091D01*
X174054Y522178D01*
X174083Y522263D01*
X174115Y522347D01*
X174150Y522429D01*
X174190Y522510D01*
X174232Y522589D01*
X174278Y522666D01*
X174328Y522741D01*
X174380Y522814D01*
X174436Y522885D01*
X174494Y522953D01*
X174556Y523018D01*
X174620Y523081D01*
X174687Y523141D01*
X174756Y523198D01*
X174828Y523252D01*
X174902Y523303D01*
X174978Y523351D01*
X175056Y523395D01*
X175136Y523436D01*
X175218Y523474D01*
X175301Y523508D01*
X175386Y523538D01*
X175472Y523565D01*
X175558Y523588D01*
X175646Y523607D01*
X175735Y523622D01*
X175824Y523634D01*
X175913Y523642D01*
X176003Y523646D01*
X176093Y523646D01*
X176183Y523642D01*
X176272Y523634D01*
X176361Y523622D01*
X176450Y523607D01*
X176538Y523588D01*
X176624Y523565D01*
X176710Y523538D01*
X176795Y523508D01*
X176878Y523474D01*
X176960Y523436D01*
X177040Y523395D01*
X177118Y523351D01*
X177194Y523303D01*
X177268Y523252D01*
X177340Y523198D01*
X177409Y523141D01*
X177476Y523081D01*
X177540Y523018D01*
X177602Y522953D01*
X177660Y522885D01*
X177716Y522814D01*
X177768Y522741D01*
X177818Y522666D01*
X177864Y522589D01*
X177906Y522510D01*
X177946Y522429D01*
X177981Y522347D01*
X178013Y522263D01*
X178042Y522178D01*
X178067Y522091D01*
X178088Y522004D01*
X178105Y521916D01*
X178119Y521827D01*
X178128Y521737D01*
X178134Y521648D01*
X178136Y521558D01*
X178136Y520514D01*
X173960Y520514D01*
X182241Y517381D02*
X182241Y523646D01*
X185373Y523646D01*
X185373Y522602D01*
X189068Y521036D02*
X191679Y519992D01*
X189068Y521036D02*
X189002Y521064D01*
X188937Y521097D01*
X188874Y521132D01*
X188813Y521171D01*
X188754Y521213D01*
X188698Y521258D01*
X188644Y521306D01*
X188593Y521357D01*
X188544Y521410D01*
X188499Y521467D01*
X188456Y521525D01*
X188417Y521585D01*
X188380Y521648D01*
X188348Y521713D01*
X188319Y521779D01*
X188293Y521846D01*
X188271Y521915D01*
X188253Y521985D01*
X188238Y522056D01*
X188227Y522127D01*
X188220Y522199D01*
X188217Y522271D01*
X188218Y522343D01*
X188223Y522416D01*
X188231Y522487D01*
X188243Y522559D01*
X188259Y522629D01*
X188279Y522698D01*
X188303Y522767D01*
X188330Y522834D01*
X188360Y522899D01*
X188394Y522963D01*
X188432Y523025D01*
X188472Y523085D01*
X188516Y523142D01*
X188563Y523197D01*
X188613Y523250D01*
X188665Y523299D01*
X188720Y523346D01*
X188777Y523390D01*
X188837Y523431D01*
X188899Y523468D01*
X188963Y523503D01*
X189028Y523533D01*
X189095Y523561D01*
X189163Y523584D01*
X189233Y523604D01*
X189303Y523620D01*
X189374Y523633D01*
X189446Y523641D01*
X189518Y523646D01*
X189590Y523647D01*
X189591Y523646D02*
X189742Y523642D01*
X189893Y523634D01*
X190044Y523623D01*
X190195Y523607D01*
X190345Y523587D01*
X190495Y523564D01*
X190644Y523537D01*
X190792Y523506D01*
X190940Y523471D01*
X191086Y523433D01*
X191232Y523390D01*
X191376Y523344D01*
X191519Y523295D01*
X191661Y523242D01*
X191801Y523185D01*
X191940Y523124D01*
X191679Y519992D02*
X191745Y519964D01*
X191810Y519931D01*
X191873Y519896D01*
X191934Y519857D01*
X191993Y519815D01*
X192049Y519770D01*
X192103Y519722D01*
X192154Y519671D01*
X192203Y519618D01*
X192248Y519561D01*
X192291Y519503D01*
X192330Y519443D01*
X192367Y519380D01*
X192399Y519315D01*
X192428Y519249D01*
X192454Y519182D01*
X192476Y519113D01*
X192494Y519043D01*
X192509Y518972D01*
X192520Y518901D01*
X192527Y518829D01*
X192530Y518757D01*
X192529Y518685D01*
X192524Y518612D01*
X192516Y518541D01*
X192504Y518469D01*
X192488Y518399D01*
X192468Y518330D01*
X192444Y518261D01*
X192417Y518194D01*
X192387Y518129D01*
X192353Y518065D01*
X192315Y518003D01*
X192275Y517943D01*
X192231Y517886D01*
X192184Y517831D01*
X192134Y517778D01*
X192082Y517729D01*
X192027Y517682D01*
X191970Y517638D01*
X191910Y517597D01*
X191848Y517560D01*
X191784Y517525D01*
X191719Y517495D01*
X191652Y517467D01*
X191584Y517444D01*
X191514Y517424D01*
X191444Y517408D01*
X191373Y517395D01*
X191301Y517387D01*
X191229Y517382D01*
X191157Y517381D01*
X190947Y517386D01*
X190738Y517397D01*
X190529Y517412D01*
X190321Y517432D01*
X190113Y517458D01*
X189906Y517488D01*
X189699Y517523D01*
X189494Y517563D01*
X189289Y517607D01*
X189086Y517657D01*
X188883Y517711D01*
X188682Y517771D01*
X188483Y517834D01*
X188285Y517903D01*
X196165Y517381D02*
X196165Y523646D01*
X195904Y526257D02*
X195904Y526779D01*
X196426Y526779D01*
X196426Y526257D01*
X195904Y526257D01*
X199867Y521558D02*
X199867Y519469D01*
X199868Y521558D02*
X199870Y521648D01*
X199876Y521737D01*
X199885Y521827D01*
X199899Y521916D01*
X199916Y522004D01*
X199937Y522091D01*
X199962Y522178D01*
X199991Y522263D01*
X200023Y522347D01*
X200058Y522429D01*
X200098Y522510D01*
X200140Y522589D01*
X200186Y522666D01*
X200236Y522741D01*
X200288Y522814D01*
X200344Y522885D01*
X200402Y522953D01*
X200464Y523018D01*
X200528Y523081D01*
X200595Y523141D01*
X200664Y523198D01*
X200736Y523252D01*
X200810Y523303D01*
X200886Y523351D01*
X200964Y523395D01*
X201044Y523436D01*
X201126Y523474D01*
X201209Y523508D01*
X201294Y523538D01*
X201380Y523565D01*
X201466Y523588D01*
X201554Y523607D01*
X201643Y523622D01*
X201732Y523634D01*
X201821Y523642D01*
X201911Y523646D01*
X202001Y523646D01*
X202091Y523642D01*
X202180Y523634D01*
X202269Y523622D01*
X202358Y523607D01*
X202446Y523588D01*
X202532Y523565D01*
X202618Y523538D01*
X202703Y523508D01*
X202786Y523474D01*
X202868Y523436D01*
X202948Y523395D01*
X203026Y523351D01*
X203102Y523303D01*
X203176Y523252D01*
X203248Y523198D01*
X203317Y523141D01*
X203384Y523081D01*
X203448Y523018D01*
X203510Y522953D01*
X203568Y522885D01*
X203624Y522814D01*
X203676Y522741D01*
X203726Y522666D01*
X203772Y522589D01*
X203814Y522510D01*
X203854Y522429D01*
X203889Y522347D01*
X203921Y522263D01*
X203950Y522178D01*
X203975Y522091D01*
X203996Y522004D01*
X204013Y521916D01*
X204027Y521827D01*
X204036Y521737D01*
X204042Y521648D01*
X204044Y521558D01*
X204044Y519469D01*
X204042Y519379D01*
X204036Y519290D01*
X204027Y519200D01*
X204013Y519111D01*
X203996Y519023D01*
X203975Y518936D01*
X203950Y518849D01*
X203921Y518764D01*
X203889Y518680D01*
X203854Y518598D01*
X203814Y518517D01*
X203772Y518438D01*
X203726Y518361D01*
X203676Y518286D01*
X203624Y518213D01*
X203568Y518142D01*
X203510Y518074D01*
X203448Y518009D01*
X203384Y517946D01*
X203317Y517886D01*
X203248Y517829D01*
X203176Y517775D01*
X203102Y517724D01*
X203026Y517676D01*
X202948Y517632D01*
X202868Y517591D01*
X202786Y517553D01*
X202703Y517519D01*
X202618Y517489D01*
X202532Y517462D01*
X202446Y517439D01*
X202358Y517420D01*
X202269Y517405D01*
X202180Y517393D01*
X202091Y517385D01*
X202001Y517381D01*
X201911Y517381D01*
X201821Y517385D01*
X201732Y517393D01*
X201643Y517405D01*
X201554Y517420D01*
X201466Y517439D01*
X201380Y517462D01*
X201294Y517489D01*
X201209Y517519D01*
X201126Y517553D01*
X201044Y517591D01*
X200964Y517632D01*
X200886Y517676D01*
X200810Y517724D01*
X200736Y517775D01*
X200664Y517829D01*
X200595Y517886D01*
X200528Y517946D01*
X200464Y518009D01*
X200402Y518074D01*
X200344Y518142D01*
X200288Y518213D01*
X200236Y518286D01*
X200186Y518361D01*
X200140Y518438D01*
X200098Y518517D01*
X200058Y518598D01*
X200023Y518680D01*
X199991Y518764D01*
X199962Y518849D01*
X199937Y518936D01*
X199916Y519023D01*
X199899Y519111D01*
X199885Y519200D01*
X199876Y519290D01*
X199870Y519379D01*
X199868Y519469D01*
X208097Y517381D02*
X208097Y523646D01*
X210708Y523646D01*
X210785Y523644D01*
X210861Y523638D01*
X210938Y523629D01*
X211014Y523616D01*
X211089Y523599D01*
X211163Y523579D01*
X211236Y523554D01*
X211307Y523527D01*
X211378Y523496D01*
X211446Y523461D01*
X211513Y523423D01*
X211578Y523382D01*
X211641Y523338D01*
X211701Y523291D01*
X211760Y523240D01*
X211815Y523187D01*
X211868Y523132D01*
X211919Y523073D01*
X211966Y523013D01*
X212010Y522950D01*
X212051Y522885D01*
X212089Y522818D01*
X212124Y522750D01*
X212155Y522679D01*
X212182Y522608D01*
X212207Y522535D01*
X212227Y522461D01*
X212244Y522386D01*
X212257Y522310D01*
X212266Y522234D01*
X212272Y522157D01*
X212274Y522080D01*
X212274Y517381D01*
X221291Y524691D02*
X223901Y526779D01*
X223901Y517381D01*
X221291Y517381D02*
X226512Y517381D01*
X230041Y517381D02*
X230041Y517903D01*
X230563Y517903D01*
X230563Y517381D01*
X230041Y517381D01*
X234092Y522080D02*
X234094Y522265D01*
X234101Y522450D01*
X234112Y522634D01*
X234127Y522818D01*
X234147Y523002D01*
X234171Y523186D01*
X234200Y523368D01*
X234233Y523550D01*
X234270Y523731D01*
X234312Y523911D01*
X234358Y524091D01*
X234408Y524269D01*
X234462Y524445D01*
X234521Y524621D01*
X234583Y524795D01*
X234650Y524967D01*
X234721Y525138D01*
X234796Y525307D01*
X234875Y525474D01*
X234905Y525554D01*
X234938Y525633D01*
X234975Y525710D01*
X235015Y525786D01*
X235058Y525860D01*
X235104Y525932D01*
X235154Y526001D01*
X235206Y526069D01*
X235262Y526134D01*
X235320Y526197D01*
X235382Y526256D01*
X235445Y526314D01*
X235512Y526368D01*
X235580Y526419D01*
X235651Y526467D01*
X235724Y526512D01*
X235798Y526554D01*
X235875Y526592D01*
X235953Y526627D01*
X236032Y526659D01*
X236113Y526687D01*
X236195Y526711D01*
X236279Y526732D01*
X236362Y526749D01*
X236447Y526762D01*
X236532Y526771D01*
X236617Y526777D01*
X236703Y526779D01*
X236789Y526777D01*
X236874Y526771D01*
X236959Y526762D01*
X237044Y526749D01*
X237127Y526732D01*
X237211Y526711D01*
X237293Y526687D01*
X237374Y526659D01*
X237453Y526627D01*
X237531Y526592D01*
X237608Y526554D01*
X237682Y526512D01*
X237755Y526467D01*
X237826Y526419D01*
X237894Y526368D01*
X237961Y526314D01*
X238024Y526256D01*
X238086Y526197D01*
X238144Y526134D01*
X238200Y526069D01*
X238252Y526001D01*
X238302Y525932D01*
X238348Y525860D01*
X238391Y525786D01*
X238431Y525710D01*
X238468Y525633D01*
X238501Y525554D01*
X238531Y525474D01*
X238610Y525307D01*
X238685Y525138D01*
X238756Y524967D01*
X238823Y524795D01*
X238885Y524621D01*
X238944Y524445D01*
X238998Y524269D01*
X239048Y524091D01*
X239094Y523911D01*
X239136Y523731D01*
X239173Y523550D01*
X239206Y523368D01*
X239235Y523186D01*
X239259Y523002D01*
X239279Y522818D01*
X239294Y522634D01*
X239305Y522450D01*
X239312Y522265D01*
X239314Y522080D01*
X234092Y522080D02*
X234094Y521895D01*
X234101Y521710D01*
X234112Y521526D01*
X234127Y521342D01*
X234147Y521158D01*
X234171Y520974D01*
X234200Y520792D01*
X234233Y520610D01*
X234270Y520429D01*
X234312Y520249D01*
X234358Y520069D01*
X234408Y519891D01*
X234462Y519715D01*
X234521Y519539D01*
X234583Y519365D01*
X234650Y519193D01*
X234721Y519022D01*
X234796Y518853D01*
X234875Y518686D01*
X234905Y518606D01*
X234938Y518527D01*
X234975Y518450D01*
X235015Y518374D01*
X235058Y518300D01*
X235104Y518228D01*
X235154Y518159D01*
X235207Y518091D01*
X235262Y518026D01*
X235321Y517963D01*
X235382Y517904D01*
X235445Y517846D01*
X235512Y517792D01*
X235580Y517741D01*
X235651Y517693D01*
X235724Y517648D01*
X235798Y517606D01*
X235875Y517568D01*
X235953Y517533D01*
X236032Y517501D01*
X236113Y517473D01*
X236195Y517449D01*
X236279Y517428D01*
X236362Y517411D01*
X236447Y517398D01*
X236532Y517389D01*
X236617Y517383D01*
X236703Y517381D01*
X238531Y518686D02*
X238610Y518853D01*
X238685Y519022D01*
X238756Y519193D01*
X238823Y519365D01*
X238885Y519539D01*
X238944Y519715D01*
X238998Y519891D01*
X239048Y520069D01*
X239094Y520249D01*
X239136Y520429D01*
X239173Y520610D01*
X239206Y520792D01*
X239235Y520974D01*
X239259Y521158D01*
X239279Y521342D01*
X239294Y521526D01*
X239305Y521710D01*
X239312Y521895D01*
X239314Y522080D01*
X238531Y518686D02*
X238501Y518606D01*
X238468Y518527D01*
X238431Y518450D01*
X238391Y518374D01*
X238348Y518300D01*
X238302Y518228D01*
X238252Y518159D01*
X238200Y518091D01*
X238144Y518026D01*
X238086Y517963D01*
X238024Y517904D01*
X237961Y517846D01*
X237894Y517792D01*
X237826Y517741D01*
X237755Y517693D01*
X237682Y517648D01*
X237608Y517606D01*
X237531Y517568D01*
X237453Y517533D01*
X237374Y517501D01*
X237293Y517473D01*
X237211Y517449D01*
X237127Y517428D01*
X237044Y517411D01*
X236959Y517398D01*
X236874Y517389D01*
X236789Y517383D01*
X236703Y517381D01*
X234614Y519469D02*
X238791Y524691D01*
X243236Y522080D02*
X243238Y522265D01*
X243245Y522450D01*
X243256Y522634D01*
X243271Y522818D01*
X243291Y523002D01*
X243315Y523186D01*
X243344Y523368D01*
X243377Y523550D01*
X243414Y523731D01*
X243456Y523911D01*
X243502Y524091D01*
X243552Y524269D01*
X243606Y524445D01*
X243665Y524621D01*
X243727Y524795D01*
X243794Y524967D01*
X243865Y525138D01*
X243940Y525307D01*
X244019Y525474D01*
X244049Y525554D01*
X244082Y525633D01*
X244119Y525710D01*
X244159Y525786D01*
X244202Y525860D01*
X244248Y525932D01*
X244298Y526001D01*
X244350Y526069D01*
X244406Y526134D01*
X244464Y526197D01*
X244526Y526256D01*
X244589Y526314D01*
X244656Y526368D01*
X244724Y526419D01*
X244795Y526467D01*
X244868Y526512D01*
X244942Y526554D01*
X245019Y526592D01*
X245097Y526627D01*
X245176Y526659D01*
X245257Y526687D01*
X245339Y526711D01*
X245423Y526732D01*
X245506Y526749D01*
X245591Y526762D01*
X245676Y526771D01*
X245761Y526777D01*
X245847Y526779D01*
X245933Y526777D01*
X246018Y526771D01*
X246103Y526762D01*
X246188Y526749D01*
X246271Y526732D01*
X246355Y526711D01*
X246437Y526687D01*
X246518Y526659D01*
X246597Y526627D01*
X246675Y526592D01*
X246752Y526554D01*
X246826Y526512D01*
X246899Y526467D01*
X246970Y526419D01*
X247038Y526368D01*
X247105Y526314D01*
X247168Y526256D01*
X247230Y526197D01*
X247288Y526134D01*
X247344Y526069D01*
X247396Y526001D01*
X247446Y525932D01*
X247492Y525860D01*
X247535Y525786D01*
X247575Y525710D01*
X247612Y525633D01*
X247645Y525554D01*
X247675Y525474D01*
X247754Y525307D01*
X247829Y525138D01*
X247900Y524967D01*
X247967Y524795D01*
X248029Y524621D01*
X248088Y524445D01*
X248142Y524269D01*
X248192Y524091D01*
X248238Y523911D01*
X248280Y523731D01*
X248317Y523550D01*
X248350Y523368D01*
X248379Y523186D01*
X248403Y523002D01*
X248423Y522818D01*
X248438Y522634D01*
X248449Y522450D01*
X248456Y522265D01*
X248458Y522080D01*
X243236Y522080D02*
X243238Y521895D01*
X243245Y521710D01*
X243256Y521526D01*
X243271Y521342D01*
X243291Y521158D01*
X243315Y520974D01*
X243344Y520792D01*
X243377Y520610D01*
X243414Y520429D01*
X243456Y520249D01*
X243502Y520069D01*
X243552Y519891D01*
X243606Y519715D01*
X243665Y519539D01*
X243727Y519365D01*
X243794Y519193D01*
X243865Y519022D01*
X243940Y518853D01*
X244019Y518686D01*
X244049Y518606D01*
X244082Y518527D01*
X244119Y518450D01*
X244159Y518374D01*
X244202Y518300D01*
X244248Y518228D01*
X244298Y518159D01*
X244351Y518091D01*
X244406Y518026D01*
X244465Y517963D01*
X244526Y517904D01*
X244589Y517846D01*
X244656Y517792D01*
X244724Y517741D01*
X244795Y517693D01*
X244868Y517648D01*
X244942Y517606D01*
X245019Y517568D01*
X245097Y517533D01*
X245176Y517501D01*
X245257Y517473D01*
X245339Y517449D01*
X245423Y517428D01*
X245506Y517411D01*
X245591Y517398D01*
X245676Y517389D01*
X245761Y517383D01*
X245847Y517381D01*
X247675Y518686D02*
X247754Y518853D01*
X247829Y519022D01*
X247900Y519193D01*
X247967Y519365D01*
X248029Y519539D01*
X248088Y519715D01*
X248142Y519891D01*
X248192Y520069D01*
X248238Y520249D01*
X248280Y520429D01*
X248317Y520610D01*
X248350Y520792D01*
X248379Y520974D01*
X248403Y521158D01*
X248423Y521342D01*
X248438Y521526D01*
X248449Y521710D01*
X248456Y521895D01*
X248458Y522080D01*
X247675Y518686D02*
X247645Y518606D01*
X247612Y518527D01*
X247575Y518450D01*
X247535Y518374D01*
X247492Y518300D01*
X247446Y518228D01*
X247396Y518159D01*
X247344Y518091D01*
X247288Y518026D01*
X247230Y517963D01*
X247168Y517904D01*
X247105Y517846D01*
X247038Y517792D01*
X246970Y517741D01*
X246899Y517693D01*
X246826Y517648D01*
X246752Y517606D01*
X246675Y517568D01*
X246597Y517533D01*
X246518Y517501D01*
X246437Y517473D01*
X246355Y517449D01*
X246271Y517428D01*
X246188Y517411D01*
X246103Y517398D01*
X246018Y517389D01*
X245933Y517383D01*
X245847Y517381D01*
X243758Y519469D02*
X247935Y524691D01*
M02*
