M48
;GenerationSoftware,Autodesk,EAGLE,9.5.0*%
;CreationDate,2020-02-11T20:50:19Z*%
FMAT,2
ICI,OFF
METRIC,TZ,000.000
T8C0.350
T7C0.400
T6C0.500
T5C0.762
T4C1.016
T3C1.055
T2C1.320
T1C6.300
%
G90
M71
T1
X12500Y4100
X12100Y56500
T2
X1848Y18050
X1848Y11050
T3
X4548Y17050
X4548Y12050
T4
X19100Y31300
X2120Y4750
X2120Y2210
X4900Y49900
X19000Y21700
X3500Y60000
X3500Y33200
X6800Y43200
X19100Y33800
X19100Y28800
T5
X12300Y27750
T6
X16800Y46100
T7
X13600Y36950
X14800Y40550
X14800Y39350
X14800Y38150
X11200Y36950
X11200Y40550
X11200Y39350
X11200Y38150
X12400Y40550
X12400Y39350
X12400Y38150
X12400Y36950
X13600Y40550
X13600Y39350
X13600Y38150
X14800Y36950
T8
X12300Y21700
X2400Y23700
X15900Y33100
X12620Y32620
X8500Y33300
X13394Y32100
X7800Y32800
X14800Y31700
X6933Y32600
X13100Y17500
X16600Y19000
X2400Y48273
X5400Y36800
X5600Y34400
X3100Y27900
X4300Y23600
X12300Y45300
X16500Y25300
X12500Y23200
X7500Y30100
X7500Y28500
X6100Y32300
X5800Y37700
X6600Y39300
X1943Y27801
X18650Y38154
X15100Y45300
X1078Y6901
X17400Y17600
X17600Y15500
X23300Y37200
X19300Y41900
X12300Y14700
X20200Y16600
X11600Y45800
X5500Y46100
X6316Y13216
X21400Y9300
X10000Y15400
X8320Y27080
X6694Y30800
X1035Y32700
X22900Y12700
X7200Y19100
X1500Y23700
X5700Y27800
X23911Y42100
X14800Y46300
X20700Y20400
X23100Y17100
X5200Y44800
X22700Y28600
X21000Y33300
X13400Y19000
X20600Y8200
X23911Y32800
X18056Y42500
X9100Y44300
X6223Y21336
X9200Y34494
X6900Y16700
X3400Y23700
X19000Y25600
X17300Y28700
X8506Y22700
X12800Y15800
M30