M48
;GenerationSoftware,Autodesk,EAGLE,9.5.0*%
;CreationDate,2020-01-30T14:58:06Z*%
FMAT,2
ICI,OFF
METRIC,TZ,000.000
T7C0.350
T6C0.400
T5C0.800
T4C1.016
T3C1.055
T2C1.320
T1C6.300
%
G90
M71
T1
X28400Y8300
X8400Y51600
T2
X8850Y2548
X1850Y2548
T3
X2850Y5248
X7850Y5248
T4
X14250Y2480
X11710Y2480
X5100Y36700
X5200Y40300
X28100Y57500
X2000Y40250
X2000Y36750
X32500Y57500
X27400Y35350
X30650Y34000
T5
X12500Y23250
T6
X18500Y53100
X18400Y48300
X19700Y43050
X19700Y41850
X19700Y40650
X29300Y37500
X20900Y43050
X20900Y41850
X20900Y40650
X22100Y43050
X22100Y41850
X22100Y40650
X22100Y39450
X23300Y43050
X23300Y41850
X23300Y40650
X23300Y39450
X20900Y39450
X8000Y34300
X18300Y47000
X15400Y46300
X17700Y45600
X19700Y39450
X10700Y42600
X8100Y36300
X8000Y41100
X26300Y48100
X28800Y47400
T7
X2900Y10500
X8700Y10400
X8000Y14300
X9700Y36500
X22700Y14900
X23200Y18200
X3600Y16000
X8000Y16666
X9716Y15049
X10097Y16383
X14400Y14900
X13868Y10000
X4900Y10800
X4900Y12600
X4900Y15200
X2100Y18500
X16200Y16000
X16500Y19100
X5700Y28100
X6700Y20100
X18300Y22100
X12500Y18481
X15937Y25837
X18200Y34262
X19300Y24800
X20300Y22200
X15500Y4300
X9700Y7800
X5900Y11600
X10700Y33700
X11900Y32000
X18900Y32900
X18200Y35526
X13158Y27400
X11700Y27700
X13192Y33433
X2300Y26900
X10800Y27400
X16478Y36481
X14800Y29200
X12600Y34269
X16673Y27627
X17110Y34400
X9620Y41720
X15621Y27527
X16669Y20193
X28575Y22098
X15621Y29900
X10600Y18900
X17100Y21300
X8100Y25300
X4000Y23700
X7500Y23500
X6300Y18300
X10100Y11700
X14900Y41300
X14900Y36600
X32500Y22700
X31300Y26300
X24900Y26200
X21600Y31000
X23250Y35425
X10200Y12500
X10200Y10900
X8900Y42500
X8900Y39100
X14900Y42300
X12500Y42300
X21344Y15975
X22200Y16000
X20500Y16000
X20900Y1400
X25100Y33700
X27533Y44000
X1500Y11200
X6600Y6700
X17700Y16000
X19562Y31062
X28670Y40386
X25817Y46758
X29800Y31800
X24800Y47500
X22700Y52000
X29800Y51300
X23600Y31600
X20200Y27300
X28065Y45358
X25800Y27900
X28300Y31700
X4300Y28000
X27600Y21500
X24900Y17100
X17500Y10400
X6300Y23033
X8000Y17600
X34900Y22100
X14144Y27400
X27400Y23200
X20500Y20300
X11600Y34300
X12000Y36300
X11518Y38000
X6000Y33800
X20932Y48300
X23700Y48100
X6100Y8700
X4100Y29100
X34200Y28100
X34700Y33600
X27900Y52000
X23600Y57000
X19160Y16569
X26098Y23908
X18900Y31800
X18349Y36594
X3600Y8300
X21316Y34884
M30