G04 EAGLE Gerber RS-274X export*
G75*
%MOMM*%
%FSLAX34Y34*%
%LPD*%
%INBottom Copper*%
%IPPOS*%
%AMOC8*
5,1,8,0,0,1.08239X$1,22.5*%
G01*
%ADD10C,1.879600*%
%ADD11C,0.908000*%
%ADD12C,1.582200*%
%ADD13C,1.980000*%
%ADD14C,0.654800*%
%ADD15C,1.050000*%
%ADD16C,0.177800*%
%ADD17C,1.143000*%
%ADD18C,0.304800*%
%ADD19C,15.000000*%

G36*
X8955Y48850D02*
X8955Y48850D01*
X9045Y48856D01*
X9111Y48877D01*
X9179Y48889D01*
X9261Y48926D01*
X9348Y48954D01*
X9406Y48991D01*
X9469Y49019D01*
X9539Y49076D01*
X9616Y49125D01*
X9663Y49175D01*
X9717Y49218D01*
X9772Y49291D01*
X9834Y49357D01*
X9867Y49417D01*
X9908Y49472D01*
X9979Y49617D01*
X11725Y53831D01*
X14869Y56975D01*
X17114Y57905D01*
X17139Y57920D01*
X17167Y57929D01*
X17277Y57998D01*
X17390Y58063D01*
X17411Y58083D01*
X17436Y58099D01*
X17525Y58194D01*
X17618Y58284D01*
X17634Y58309D01*
X17654Y58331D01*
X17717Y58444D01*
X17785Y58555D01*
X17793Y58583D01*
X17808Y58609D01*
X17840Y58735D01*
X17878Y58859D01*
X17880Y58888D01*
X17887Y58917D01*
X17897Y59078D01*
X17897Y66568D01*
X74326Y122996D01*
X74386Y123075D01*
X74454Y123147D01*
X74483Y123200D01*
X74520Y123248D01*
X74560Y123339D01*
X74608Y123425D01*
X74623Y123484D01*
X74647Y123539D01*
X74662Y123637D01*
X74687Y123733D01*
X74693Y123833D01*
X74697Y123854D01*
X74695Y123866D01*
X74697Y123894D01*
X74697Y156106D01*
X74685Y156204D01*
X74682Y156303D01*
X74665Y156362D01*
X74657Y156422D01*
X74621Y156514D01*
X74593Y156609D01*
X74563Y156661D01*
X74540Y156717D01*
X74482Y156797D01*
X74432Y156883D01*
X74366Y156958D01*
X74354Y156975D01*
X74344Y156983D01*
X74326Y157004D01*
X69754Y161576D01*
X69675Y161636D01*
X69603Y161704D01*
X69550Y161733D01*
X69502Y161770D01*
X69411Y161810D01*
X69325Y161858D01*
X69266Y161873D01*
X69211Y161897D01*
X69113Y161912D01*
X69017Y161937D01*
X68917Y161943D01*
X68896Y161947D01*
X68884Y161945D01*
X68856Y161947D01*
X67995Y161947D01*
X66138Y162716D01*
X64716Y164138D01*
X63947Y165995D01*
X63947Y167754D01*
X63935Y167852D01*
X63932Y167951D01*
X63915Y168010D01*
X63907Y168070D01*
X63871Y168162D01*
X63843Y168257D01*
X63813Y168309D01*
X63790Y168365D01*
X63732Y168445D01*
X63682Y168531D01*
X63616Y168606D01*
X63604Y168623D01*
X63594Y168631D01*
X63576Y168652D01*
X56408Y175820D01*
X56353Y175862D01*
X56304Y175912D01*
X56228Y175959D01*
X56156Y176014D01*
X56092Y176042D01*
X56033Y176079D01*
X55947Y176105D01*
X55865Y176141D01*
X55796Y176152D01*
X55729Y176172D01*
X55639Y176177D01*
X55551Y176191D01*
X55481Y176184D01*
X55411Y176187D01*
X55324Y176169D01*
X55234Y176161D01*
X55168Y176137D01*
X55100Y176123D01*
X55019Y176084D01*
X54935Y176053D01*
X54877Y176014D01*
X54814Y175983D01*
X54746Y175925D01*
X54671Y175875D01*
X54625Y175822D01*
X54572Y175777D01*
X54521Y175704D01*
X54461Y175636D01*
X54429Y175574D01*
X54389Y175517D01*
X54357Y175433D01*
X54316Y175353D01*
X54301Y175285D01*
X54276Y175220D01*
X54266Y175130D01*
X54247Y175043D01*
X54249Y174973D01*
X54241Y174904D01*
X54254Y174815D01*
X54256Y174725D01*
X54276Y174658D01*
X54286Y174589D01*
X54338Y174436D01*
X55170Y172427D01*
X55170Y168573D01*
X53695Y165011D01*
X50969Y162285D01*
X47407Y160810D01*
X43553Y160810D01*
X39991Y162285D01*
X37265Y165011D01*
X35790Y168573D01*
X35790Y172427D01*
X37265Y175989D01*
X39991Y178715D01*
X43553Y180190D01*
X47407Y180190D01*
X49416Y179358D01*
X49484Y179339D01*
X49548Y179311D01*
X49637Y179297D01*
X49723Y179274D01*
X49793Y179273D01*
X49862Y179262D01*
X49951Y179270D01*
X50041Y179269D01*
X50109Y179285D01*
X50178Y179291D01*
X50263Y179322D01*
X50350Y179343D01*
X50412Y179375D01*
X50478Y179399D01*
X50552Y179450D01*
X50631Y179491D01*
X50683Y179538D01*
X50741Y179578D01*
X50800Y179645D01*
X50867Y179705D01*
X50905Y179764D01*
X50951Y179816D01*
X50992Y179896D01*
X51042Y179971D01*
X51064Y180037D01*
X51096Y180099D01*
X51116Y180187D01*
X51145Y180272D01*
X51150Y180342D01*
X51166Y180410D01*
X51163Y180499D01*
X51170Y180589D01*
X51158Y180658D01*
X51156Y180727D01*
X51131Y180814D01*
X51116Y180902D01*
X51087Y180966D01*
X51067Y181033D01*
X51022Y181110D01*
X50985Y181192D01*
X50941Y181247D01*
X50906Y181307D01*
X50800Y181428D01*
X31332Y200895D01*
X31332Y231996D01*
X31320Y232095D01*
X31317Y232194D01*
X31300Y232252D01*
X31292Y232312D01*
X31256Y232404D01*
X31228Y232499D01*
X31198Y232551D01*
X31175Y232608D01*
X31117Y232688D01*
X31067Y232773D01*
X31001Y232848D01*
X30989Y232865D01*
X30979Y232873D01*
X30961Y232894D01*
X29898Y233957D01*
X29804Y234030D01*
X29714Y234109D01*
X29678Y234127D01*
X29646Y234152D01*
X29537Y234199D01*
X29431Y234253D01*
X29392Y234262D01*
X29354Y234278D01*
X29237Y234297D01*
X29121Y234323D01*
X29080Y234322D01*
X29040Y234328D01*
X28922Y234317D01*
X28803Y234313D01*
X28764Y234302D01*
X28724Y234298D01*
X28611Y234258D01*
X28497Y234225D01*
X28463Y234204D01*
X28424Y234191D01*
X28326Y234124D01*
X28223Y234063D01*
X28178Y234023D01*
X28161Y234012D01*
X28148Y233997D01*
X28103Y233957D01*
X26862Y232716D01*
X25005Y231947D01*
X22995Y231947D01*
X21138Y232716D01*
X19716Y234138D01*
X18947Y235995D01*
X18947Y238005D01*
X19716Y239862D01*
X20961Y241106D01*
X21021Y241184D01*
X21089Y241257D01*
X21118Y241310D01*
X21155Y241357D01*
X21195Y241448D01*
X21243Y241535D01*
X21258Y241594D01*
X21282Y241649D01*
X21297Y241747D01*
X21322Y241843D01*
X21328Y241943D01*
X21332Y241963D01*
X21330Y241976D01*
X21332Y242004D01*
X21332Y252105D01*
X44020Y274792D01*
X44080Y274871D01*
X44148Y274943D01*
X44176Y274994D01*
X44193Y275015D01*
X44196Y275019D01*
X44214Y275044D01*
X44254Y275135D01*
X44302Y275221D01*
X44315Y275272D01*
X44329Y275302D01*
X44331Y275312D01*
X44341Y275335D01*
X44356Y275433D01*
X44381Y275529D01*
X44385Y275597D01*
X44389Y275615D01*
X44388Y275631D01*
X44391Y275649D01*
X44389Y275662D01*
X44391Y275690D01*
X44391Y314594D01*
X44374Y314731D01*
X44361Y314870D01*
X44354Y314889D01*
X44351Y314909D01*
X44300Y315038D01*
X44253Y315169D01*
X44242Y315186D01*
X44234Y315205D01*
X44153Y315317D01*
X44075Y315433D01*
X44059Y315446D01*
X44048Y315462D01*
X43940Y315551D01*
X43836Y315643D01*
X43818Y315652D01*
X43803Y315665D01*
X43677Y315724D01*
X43553Y315788D01*
X43533Y315792D01*
X43515Y315801D01*
X43379Y315827D01*
X43243Y315857D01*
X43222Y315857D01*
X43203Y315860D01*
X43064Y315852D01*
X42925Y315848D01*
X42905Y315842D01*
X42885Y315841D01*
X42753Y315798D01*
X42619Y315759D01*
X42602Y315749D01*
X42583Y315743D01*
X42465Y315668D01*
X42345Y315598D01*
X42324Y315579D01*
X42314Y315573D01*
X42300Y315558D01*
X42225Y315491D01*
X34674Y307941D01*
X34614Y307863D01*
X34546Y307791D01*
X34517Y307738D01*
X34480Y307690D01*
X34440Y307599D01*
X34392Y307512D01*
X34377Y307454D01*
X34353Y307398D01*
X34338Y307300D01*
X34313Y307204D01*
X34307Y307104D01*
X34303Y307084D01*
X34305Y307072D01*
X34303Y307044D01*
X34303Y283369D01*
X34315Y283270D01*
X34318Y283171D01*
X34335Y283113D01*
X34343Y283053D01*
X34379Y282961D01*
X34407Y282866D01*
X34437Y282814D01*
X34460Y282757D01*
X34518Y282677D01*
X34568Y282592D01*
X34634Y282517D01*
X34646Y282500D01*
X34656Y282492D01*
X34675Y282471D01*
X35284Y281862D01*
X36053Y280005D01*
X36053Y277995D01*
X35284Y276138D01*
X33862Y274716D01*
X32005Y273947D01*
X29995Y273947D01*
X28138Y274716D01*
X26717Y276138D01*
X26595Y276432D01*
X26526Y276553D01*
X26461Y276676D01*
X26447Y276691D01*
X26437Y276708D01*
X26341Y276807D01*
X26247Y276911D01*
X26230Y276922D01*
X26216Y276937D01*
X26097Y277009D01*
X25981Y277086D01*
X25962Y277092D01*
X25945Y277103D01*
X25812Y277144D01*
X25680Y277189D01*
X25660Y277190D01*
X25641Y277196D01*
X25502Y277203D01*
X25363Y277214D01*
X25343Y277211D01*
X25323Y277212D01*
X25187Y277183D01*
X25050Y277160D01*
X25032Y277151D01*
X25012Y277147D01*
X24887Y277086D01*
X24760Y277029D01*
X24744Y277016D01*
X24726Y277008D01*
X24620Y276917D01*
X24512Y276830D01*
X24500Y276814D01*
X24484Y276801D01*
X24404Y276688D01*
X24320Y276576D01*
X24308Y276551D01*
X24301Y276541D01*
X24294Y276522D01*
X24249Y276432D01*
X23716Y275144D01*
X22294Y273722D01*
X20437Y272953D01*
X18427Y272953D01*
X16570Y273722D01*
X15149Y275144D01*
X14380Y277001D01*
X14380Y279011D01*
X15149Y280868D01*
X15961Y281680D01*
X16021Y281758D01*
X16089Y281830D01*
X16118Y281883D01*
X16155Y281931D01*
X16195Y282022D01*
X16243Y282108D01*
X16258Y282167D01*
X16282Y282223D01*
X16297Y282321D01*
X16322Y282416D01*
X16328Y282516D01*
X16332Y282537D01*
X16330Y282549D01*
X16332Y282577D01*
X16332Y343105D01*
X18267Y345039D01*
X25961Y352733D01*
X27895Y354668D01*
X46369Y354668D01*
X46467Y354680D01*
X46566Y354683D01*
X46625Y354700D01*
X46685Y354708D01*
X46777Y354744D01*
X46872Y354772D01*
X46924Y354802D01*
X46980Y354825D01*
X47061Y354883D01*
X47146Y354933D01*
X47221Y354999D01*
X47238Y355011D01*
X47246Y355021D01*
X47267Y355039D01*
X47758Y355531D01*
X47843Y355640D01*
X47932Y355747D01*
X47940Y355766D01*
X47953Y355782D01*
X48008Y355910D01*
X48067Y356035D01*
X48071Y356055D01*
X48079Y356074D01*
X48101Y356212D01*
X48127Y356348D01*
X48126Y356368D01*
X48129Y356388D01*
X48116Y356527D01*
X48107Y356665D01*
X48101Y356684D01*
X48099Y356704D01*
X48052Y356836D01*
X48009Y356967D01*
X47998Y356985D01*
X47992Y357004D01*
X47913Y357119D01*
X47839Y357236D01*
X47824Y357250D01*
X47813Y357267D01*
X47709Y357359D01*
X47607Y357454D01*
X47590Y357464D01*
X47574Y357477D01*
X47451Y357540D01*
X47329Y357608D01*
X47309Y357613D01*
X47291Y357622D01*
X47155Y357652D01*
X47021Y357687D01*
X46993Y357689D01*
X46981Y357692D01*
X46960Y357691D01*
X46860Y357697D01*
X27632Y357697D01*
X20700Y364629D01*
X20700Y478358D01*
X20688Y478457D01*
X20685Y478556D01*
X20668Y478614D01*
X20660Y478674D01*
X20624Y478766D01*
X20596Y478861D01*
X20566Y478913D01*
X20543Y478970D01*
X20485Y479050D01*
X20435Y479135D01*
X20369Y479210D01*
X20357Y479227D01*
X20347Y479235D01*
X20329Y479256D01*
X19719Y479865D01*
X18950Y481722D01*
X18950Y483732D01*
X19719Y485589D01*
X21141Y487011D01*
X22998Y487780D01*
X25008Y487780D01*
X26865Y487011D01*
X28287Y485589D01*
X29056Y483732D01*
X29056Y481722D01*
X28287Y479865D01*
X27677Y479256D01*
X27617Y479178D01*
X27549Y479105D01*
X27520Y479052D01*
X27483Y479005D01*
X27443Y478914D01*
X27395Y478827D01*
X27380Y478768D01*
X27356Y478713D01*
X27341Y478615D01*
X27316Y478519D01*
X27310Y478419D01*
X27306Y478399D01*
X27308Y478386D01*
X27306Y478358D01*
X27306Y367891D01*
X27318Y367793D01*
X27321Y367694D01*
X27338Y367635D01*
X27346Y367575D01*
X27382Y367483D01*
X27410Y367388D01*
X27440Y367336D01*
X27463Y367280D01*
X27521Y367200D01*
X27571Y367114D01*
X27637Y367039D01*
X27649Y367022D01*
X27659Y367014D01*
X27677Y366993D01*
X29996Y364674D01*
X30075Y364614D01*
X30147Y364546D01*
X30200Y364517D01*
X30248Y364480D01*
X30339Y364440D01*
X30425Y364392D01*
X30484Y364377D01*
X30539Y364353D01*
X30637Y364338D01*
X30733Y364313D01*
X30833Y364307D01*
X30854Y364303D01*
X30866Y364305D01*
X30894Y364303D01*
X45106Y364303D01*
X45204Y364315D01*
X45303Y364318D01*
X45362Y364335D01*
X45422Y364343D01*
X45514Y364379D01*
X45609Y364407D01*
X45661Y364437D01*
X45717Y364460D01*
X45797Y364518D01*
X45883Y364568D01*
X45958Y364634D01*
X45975Y364646D01*
X45983Y364656D01*
X46004Y364674D01*
X48576Y367246D01*
X48636Y367325D01*
X48704Y367397D01*
X48733Y367450D01*
X48770Y367498D01*
X48810Y367589D01*
X48858Y367675D01*
X48873Y367734D01*
X48897Y367789D01*
X48912Y367887D01*
X48937Y367983D01*
X48943Y368083D01*
X48947Y368104D01*
X48945Y368116D01*
X48947Y368144D01*
X48947Y369005D01*
X49716Y370862D01*
X51138Y372284D01*
X52822Y372981D01*
X52925Y373040D01*
X53032Y373092D01*
X53063Y373119D01*
X53098Y373139D01*
X53184Y373221D01*
X53274Y373299D01*
X53297Y373332D01*
X53327Y373360D01*
X53389Y373461D01*
X53457Y373559D01*
X53472Y373597D01*
X53493Y373631D01*
X53528Y373745D01*
X53570Y373856D01*
X53575Y373896D01*
X53586Y373935D01*
X53592Y374054D01*
X53605Y374172D01*
X53600Y374212D01*
X53602Y374253D01*
X53577Y374369D01*
X53561Y374487D01*
X53541Y374544D01*
X53537Y374564D01*
X53528Y374582D01*
X53509Y374639D01*
X52947Y375995D01*
X52947Y377754D01*
X52935Y377852D01*
X52932Y377951D01*
X52915Y378010D01*
X52907Y378070D01*
X52871Y378162D01*
X52843Y378257D01*
X52813Y378309D01*
X52790Y378365D01*
X52732Y378445D01*
X52682Y378531D01*
X52616Y378606D01*
X52604Y378623D01*
X52594Y378631D01*
X52576Y378652D01*
X51332Y379895D01*
X51332Y419105D01*
X53267Y421039D01*
X57741Y425514D01*
X57759Y425537D01*
X57782Y425556D01*
X57856Y425662D01*
X57936Y425765D01*
X57948Y425792D01*
X57965Y425816D01*
X58011Y425938D01*
X58062Y426057D01*
X58067Y426086D01*
X58077Y426114D01*
X58092Y426243D01*
X58112Y426371D01*
X58109Y426400D01*
X58113Y426430D01*
X58095Y426558D01*
X58082Y426688D01*
X58072Y426715D01*
X58068Y426745D01*
X58016Y426897D01*
X56823Y429777D01*
X56823Y434223D01*
X58525Y438331D01*
X61669Y441475D01*
X65777Y443177D01*
X70223Y443177D01*
X74331Y441475D01*
X77475Y438331D01*
X79177Y434223D01*
X79177Y429777D01*
X77475Y425669D01*
X74331Y422525D01*
X70223Y420823D01*
X65777Y420823D01*
X62897Y422016D01*
X62868Y422024D01*
X62842Y422037D01*
X62715Y422066D01*
X62590Y422100D01*
X62561Y422101D01*
X62532Y422107D01*
X62402Y422103D01*
X62272Y422105D01*
X62244Y422098D01*
X62214Y422097D01*
X62089Y422061D01*
X61963Y422031D01*
X61937Y422017D01*
X61909Y422009D01*
X61797Y421943D01*
X61682Y421882D01*
X61660Y421862D01*
X61635Y421847D01*
X61514Y421741D01*
X57039Y417267D01*
X56979Y417188D01*
X56911Y417116D01*
X56882Y417063D01*
X56845Y417015D01*
X56805Y416924D01*
X56757Y416838D01*
X56742Y416779D01*
X56718Y416724D01*
X56703Y416626D01*
X56678Y416530D01*
X56672Y416430D01*
X56668Y416410D01*
X56670Y416397D01*
X56668Y416369D01*
X56668Y383322D01*
X56683Y383204D01*
X56690Y383085D01*
X56703Y383047D01*
X56708Y383006D01*
X56751Y382896D01*
X56788Y382783D01*
X56810Y382748D01*
X56825Y382711D01*
X56894Y382615D01*
X56958Y382514D01*
X56988Y382486D01*
X57011Y382453D01*
X57103Y382377D01*
X57190Y382296D01*
X57225Y382276D01*
X57256Y382251D01*
X57364Y382200D01*
X57468Y382142D01*
X57508Y382132D01*
X57544Y382115D01*
X57661Y382093D01*
X57776Y382063D01*
X57836Y382059D01*
X57856Y382055D01*
X57877Y382057D01*
X57937Y382053D01*
X59005Y382053D01*
X60862Y381284D01*
X61165Y380980D01*
X61275Y380895D01*
X61382Y380806D01*
X61401Y380798D01*
X61417Y380785D01*
X61545Y380730D01*
X61670Y380671D01*
X61690Y380667D01*
X61709Y380659D01*
X61847Y380637D01*
X61983Y380611D01*
X62003Y380612D01*
X62023Y380609D01*
X62162Y380622D01*
X62300Y380631D01*
X62319Y380637D01*
X62339Y380639D01*
X62470Y380686D01*
X62602Y380729D01*
X62620Y380740D01*
X62639Y380746D01*
X62753Y380824D01*
X62871Y380899D01*
X62885Y380914D01*
X62902Y380925D01*
X62994Y381029D01*
X63089Y381130D01*
X63099Y381148D01*
X63112Y381163D01*
X63176Y381287D01*
X63243Y381409D01*
X63248Y381428D01*
X63257Y381447D01*
X63287Y381583D01*
X63322Y381717D01*
X63324Y381745D01*
X63327Y381757D01*
X63326Y381777D01*
X63332Y381878D01*
X63332Y387996D01*
X63320Y388095D01*
X63317Y388194D01*
X63300Y388252D01*
X63292Y388312D01*
X63256Y388404D01*
X63228Y388499D01*
X63198Y388551D01*
X63175Y388608D01*
X63117Y388688D01*
X63067Y388773D01*
X63001Y388848D01*
X62989Y388865D01*
X62979Y388873D01*
X62961Y388894D01*
X61716Y390138D01*
X60947Y391995D01*
X60947Y394005D01*
X61716Y395862D01*
X63138Y397284D01*
X64995Y398053D01*
X67005Y398053D01*
X68862Y397284D01*
X70284Y395862D01*
X71053Y394005D01*
X71053Y391995D01*
X70284Y390138D01*
X69039Y388894D01*
X68979Y388816D01*
X68911Y388743D01*
X68882Y388690D01*
X68845Y388643D01*
X68805Y388552D01*
X68757Y388465D01*
X68742Y388406D01*
X68718Y388351D01*
X68703Y388253D01*
X68678Y388157D01*
X68672Y388057D01*
X68668Y388037D01*
X68670Y388024D01*
X68668Y387996D01*
X68668Y368895D01*
X66733Y366961D01*
X51039Y351267D01*
X49105Y349332D01*
X30631Y349332D01*
X30533Y349320D01*
X30434Y349317D01*
X30375Y349300D01*
X30315Y349292D01*
X30223Y349256D01*
X30128Y349228D01*
X30076Y349198D01*
X30020Y349175D01*
X29939Y349117D01*
X29854Y349067D01*
X29779Y349001D01*
X29762Y348989D01*
X29754Y348979D01*
X29742Y348968D01*
X29741Y348968D01*
X29733Y348961D01*
X22039Y341267D01*
X21979Y341188D01*
X21911Y341116D01*
X21882Y341063D01*
X21845Y341015D01*
X21805Y340925D01*
X21757Y340838D01*
X21742Y340779D01*
X21718Y340724D01*
X21703Y340626D01*
X21678Y340530D01*
X21672Y340430D01*
X21668Y340410D01*
X21670Y340397D01*
X21668Y340369D01*
X21668Y335400D01*
X21676Y335331D01*
X21675Y335261D01*
X21696Y335174D01*
X21708Y335085D01*
X21733Y335020D01*
X21750Y334952D01*
X21792Y334872D01*
X21825Y334789D01*
X21866Y334733D01*
X21898Y334671D01*
X21959Y334604D01*
X22011Y334532D01*
X22065Y334487D01*
X22112Y334435D01*
X22187Y334386D01*
X22256Y334329D01*
X22320Y334299D01*
X22378Y334261D01*
X22463Y334232D01*
X22544Y334193D01*
X22613Y334180D01*
X22679Y334157D01*
X22768Y334150D01*
X22856Y334133D01*
X22926Y334138D01*
X22996Y334132D01*
X23084Y334148D01*
X23174Y334153D01*
X23240Y334175D01*
X23309Y334187D01*
X23391Y334224D01*
X23476Y334251D01*
X23535Y334289D01*
X23599Y334317D01*
X23669Y334373D01*
X23745Y334421D01*
X23793Y334472D01*
X23847Y334516D01*
X23902Y334588D01*
X23963Y334653D01*
X23997Y334714D01*
X24039Y334770D01*
X24110Y334914D01*
X25525Y338331D01*
X28669Y341475D01*
X32777Y343177D01*
X37223Y343177D01*
X41331Y341475D01*
X44475Y338331D01*
X45320Y336291D01*
X45355Y336230D01*
X45381Y336165D01*
X45433Y336092D01*
X45478Y336014D01*
X45526Y335964D01*
X45567Y335908D01*
X45637Y335850D01*
X45699Y335786D01*
X45759Y335749D01*
X45812Y335705D01*
X45894Y335667D01*
X45970Y335620D01*
X46037Y335599D01*
X46100Y335569D01*
X46188Y335552D01*
X46274Y335526D01*
X46344Y335523D01*
X46413Y335510D01*
X46502Y335515D01*
X46592Y335511D01*
X46660Y335525D01*
X46730Y335529D01*
X46815Y335557D01*
X46903Y335575D01*
X46966Y335606D01*
X47032Y335627D01*
X47108Y335675D01*
X47189Y335715D01*
X47242Y335760D01*
X47301Y335798D01*
X47363Y335863D01*
X47431Y335921D01*
X47471Y335978D01*
X47519Y336029D01*
X47562Y336108D01*
X47614Y336181D01*
X47639Y336247D01*
X47673Y336308D01*
X47695Y336394D01*
X47727Y336479D01*
X47735Y336548D01*
X47752Y336616D01*
X47762Y336776D01*
X47762Y340433D01*
X50068Y342739D01*
X50069Y342739D01*
X50576Y343246D01*
X50636Y343325D01*
X50704Y343397D01*
X50733Y343450D01*
X50770Y343498D01*
X50810Y343589D01*
X50858Y343675D01*
X50873Y343734D01*
X50897Y343789D01*
X50912Y343887D01*
X50937Y343983D01*
X50943Y344083D01*
X50947Y344103D01*
X50945Y344116D01*
X50947Y344144D01*
X50947Y345005D01*
X51716Y346862D01*
X53138Y348284D01*
X54995Y349053D01*
X57005Y349053D01*
X58862Y348284D01*
X60284Y346862D01*
X61053Y345005D01*
X61053Y342995D01*
X60284Y341138D01*
X58862Y339716D01*
X57005Y338947D01*
X56144Y338947D01*
X56046Y338935D01*
X55947Y338932D01*
X55888Y338915D01*
X55828Y338907D01*
X55736Y338871D01*
X55641Y338843D01*
X55589Y338813D01*
X55533Y338790D01*
X55453Y338732D01*
X55367Y338682D01*
X55292Y338616D01*
X55275Y338604D01*
X55267Y338594D01*
X55246Y338576D01*
X54739Y338069D01*
X54679Y337990D01*
X54611Y337918D01*
X54582Y337865D01*
X54545Y337817D01*
X54505Y337726D01*
X54457Y337640D01*
X54442Y337581D01*
X54418Y337526D01*
X54403Y337428D01*
X54378Y337332D01*
X54372Y337232D01*
X54368Y337212D01*
X54370Y337199D01*
X54368Y337171D01*
X54368Y333205D01*
X54385Y333067D01*
X54398Y332928D01*
X54405Y332909D01*
X54408Y332889D01*
X54459Y332760D01*
X54506Y332629D01*
X54517Y332612D01*
X54525Y332593D01*
X54606Y332481D01*
X54684Y332366D01*
X54700Y332352D01*
X54711Y332336D01*
X54819Y332248D01*
X54923Y332155D01*
X54941Y332146D01*
X54956Y332133D01*
X55082Y332074D01*
X55206Y332011D01*
X55226Y332006D01*
X55244Y331998D01*
X55380Y331972D01*
X55516Y331941D01*
X55537Y331942D01*
X55556Y331938D01*
X55695Y331947D01*
X55834Y331951D01*
X55854Y331957D01*
X55874Y331958D01*
X56006Y332001D01*
X56140Y332039D01*
X56157Y332050D01*
X56176Y332056D01*
X56294Y332130D01*
X56414Y332201D01*
X56435Y332219D01*
X56445Y332226D01*
X56459Y332241D01*
X56534Y332307D01*
X65895Y341668D01*
X85987Y341668D01*
X86037Y341674D01*
X86086Y341672D01*
X86194Y341694D01*
X86303Y341708D01*
X86349Y341726D01*
X86398Y341736D01*
X86496Y341784D01*
X86598Y341825D01*
X86639Y341854D01*
X86683Y341876D01*
X86767Y341947D01*
X86856Y342011D01*
X86888Y342050D01*
X86925Y342082D01*
X86988Y342172D01*
X87059Y342256D01*
X87080Y342301D01*
X87108Y342342D01*
X87147Y342445D01*
X87194Y342544D01*
X87203Y342593D01*
X87221Y342639D01*
X87233Y342749D01*
X87254Y342856D01*
X87251Y342906D01*
X87256Y342955D01*
X87241Y343064D01*
X87234Y343174D01*
X87219Y343221D01*
X87212Y343270D01*
X87160Y343423D01*
X86947Y343936D01*
X86947Y345946D01*
X87716Y347803D01*
X89138Y349225D01*
X90995Y349994D01*
X91856Y349994D01*
X91954Y350006D01*
X92053Y350009D01*
X92112Y350026D01*
X92172Y350034D01*
X92264Y350070D01*
X92359Y350098D01*
X92411Y350128D01*
X92467Y350151D01*
X92547Y350209D01*
X92633Y350259D01*
X92708Y350325D01*
X92725Y350337D01*
X92733Y350347D01*
X92754Y350365D01*
X93691Y351303D01*
X175106Y351303D01*
X175204Y351315D01*
X175303Y351318D01*
X175362Y351335D01*
X175422Y351343D01*
X175514Y351379D01*
X175609Y351407D01*
X175661Y351437D01*
X175717Y351460D01*
X175797Y351518D01*
X175883Y351568D01*
X175958Y351634D01*
X175975Y351646D01*
X175983Y351656D01*
X176004Y351674D01*
X188522Y364193D01*
X188595Y364287D01*
X188674Y364376D01*
X188692Y364412D01*
X188717Y364444D01*
X188765Y364554D01*
X188819Y364660D01*
X188827Y364699D01*
X188844Y364736D01*
X188862Y364854D01*
X188888Y364970D01*
X188887Y365010D01*
X188893Y365050D01*
X188882Y365169D01*
X188879Y365288D01*
X188867Y365327D01*
X188864Y365367D01*
X188823Y365479D01*
X188790Y365593D01*
X188770Y365628D01*
X188756Y365666D01*
X188689Y365765D01*
X188629Y365867D01*
X188589Y365912D01*
X188577Y365929D01*
X188562Y365943D01*
X188522Y365988D01*
X185094Y369416D01*
X185016Y369477D01*
X184944Y369545D01*
X184891Y369574D01*
X184843Y369611D01*
X184752Y369650D01*
X184665Y369698D01*
X184607Y369713D01*
X184551Y369737D01*
X184453Y369753D01*
X184357Y369778D01*
X184257Y369784D01*
X184237Y369787D01*
X184225Y369786D01*
X184197Y369788D01*
X176541Y369788D01*
X173697Y372632D01*
X173697Y386901D01*
X176793Y389996D01*
X176853Y390075D01*
X176921Y390147D01*
X176950Y390200D01*
X176987Y390248D01*
X177027Y390339D01*
X177075Y390425D01*
X177090Y390484D01*
X177114Y390539D01*
X177129Y390637D01*
X177154Y390733D01*
X177160Y390833D01*
X177164Y390853D01*
X177162Y390866D01*
X177164Y390894D01*
X177164Y420726D01*
X177152Y420825D01*
X177149Y420924D01*
X177132Y420982D01*
X177124Y421042D01*
X177088Y421134D01*
X177060Y421229D01*
X177030Y421281D01*
X177007Y421338D01*
X176949Y421418D01*
X176899Y421503D01*
X176833Y421578D01*
X176821Y421595D01*
X176811Y421603D01*
X176793Y421624D01*
X176278Y422138D01*
X175509Y423995D01*
X175509Y424856D01*
X175497Y424954D01*
X175494Y425053D01*
X175477Y425112D01*
X175469Y425172D01*
X175433Y425264D01*
X175405Y425359D01*
X175375Y425411D01*
X175352Y425467D01*
X175294Y425547D01*
X175244Y425633D01*
X175178Y425708D01*
X175166Y425725D01*
X175156Y425733D01*
X175138Y425754D01*
X161566Y439326D01*
X161487Y439386D01*
X161415Y439454D01*
X161362Y439483D01*
X161314Y439520D01*
X161223Y439560D01*
X161137Y439608D01*
X161078Y439623D01*
X161023Y439647D01*
X160925Y439662D01*
X160829Y439687D01*
X160729Y439693D01*
X160708Y439697D01*
X160696Y439695D01*
X160668Y439697D01*
X95369Y439697D01*
X95270Y439685D01*
X95171Y439682D01*
X95113Y439665D01*
X95053Y439657D01*
X94961Y439621D01*
X94866Y439593D01*
X94814Y439563D01*
X94757Y439540D01*
X94677Y439482D01*
X94592Y439432D01*
X94517Y439366D01*
X94500Y439354D01*
X94492Y439344D01*
X94471Y439326D01*
X93862Y438716D01*
X92005Y437947D01*
X89995Y437947D01*
X88138Y438716D01*
X86716Y440138D01*
X85947Y441995D01*
X85947Y444005D01*
X86716Y445862D01*
X88138Y447284D01*
X89995Y448053D01*
X92005Y448053D01*
X93862Y447284D01*
X94471Y446674D01*
X94549Y446614D01*
X94622Y446546D01*
X94675Y446517D01*
X94722Y446480D01*
X94813Y446440D01*
X94900Y446392D01*
X94959Y446377D01*
X95014Y446353D01*
X95112Y446338D01*
X95208Y446313D01*
X95308Y446307D01*
X95328Y446303D01*
X95341Y446305D01*
X95369Y446303D01*
X147584Y446303D01*
X147654Y446311D01*
X147724Y446310D01*
X147811Y446331D01*
X147900Y446343D01*
X147965Y446368D01*
X148033Y446385D01*
X148112Y446427D01*
X148196Y446460D01*
X148252Y446501D01*
X148314Y446533D01*
X148380Y446594D01*
X148453Y446646D01*
X148497Y446700D01*
X148549Y446747D01*
X148598Y446822D01*
X148656Y446891D01*
X148685Y446955D01*
X148724Y447013D01*
X148753Y447098D01*
X148791Y447179D01*
X148804Y447248D01*
X148827Y447314D01*
X148834Y447403D01*
X148851Y447491D01*
X148847Y447561D01*
X148852Y447631D01*
X148837Y447719D01*
X148831Y447809D01*
X148810Y447875D01*
X148798Y447944D01*
X148761Y448026D01*
X148733Y448111D01*
X148696Y448170D01*
X148667Y448234D01*
X148611Y448304D01*
X148563Y448380D01*
X148512Y448428D01*
X148469Y448483D01*
X148397Y448536D01*
X148331Y448598D01*
X148270Y448632D01*
X148214Y448674D01*
X148148Y448706D01*
X146716Y450138D01*
X145947Y451995D01*
X145947Y454005D01*
X146716Y455862D01*
X148138Y457284D01*
X149995Y458053D01*
X152005Y458053D01*
X153862Y457284D01*
X155284Y455862D01*
X156053Y454005D01*
X156053Y452937D01*
X156068Y452819D01*
X156075Y452700D01*
X156088Y452662D01*
X156093Y452621D01*
X156136Y452511D01*
X156173Y452398D01*
X156195Y452363D01*
X156210Y452326D01*
X156279Y452230D01*
X156343Y452129D01*
X156373Y452101D01*
X156396Y452068D01*
X156488Y451992D01*
X156575Y451911D01*
X156610Y451891D01*
X156641Y451866D01*
X156749Y451815D01*
X156853Y451757D01*
X156893Y451747D01*
X156929Y451730D01*
X157046Y451708D01*
X157161Y451678D01*
X157221Y451674D01*
X157241Y451670D01*
X157262Y451672D01*
X157322Y451668D01*
X166105Y451668D01*
X189171Y428602D01*
X189171Y424782D01*
X189177Y424733D01*
X189175Y424684D01*
X189197Y424576D01*
X189211Y424467D01*
X189229Y424421D01*
X189239Y424372D01*
X189287Y424273D01*
X189328Y424171D01*
X189357Y424131D01*
X189379Y424086D01*
X189450Y424003D01*
X189514Y423914D01*
X189553Y423882D01*
X189585Y423844D01*
X189675Y423781D01*
X189759Y423711D01*
X189804Y423690D01*
X189845Y423661D01*
X189948Y423622D01*
X190047Y423576D01*
X190096Y423566D01*
X190142Y423549D01*
X190252Y423536D01*
X190359Y423516D01*
X190409Y423519D01*
X190458Y423513D01*
X190567Y423529D01*
X190677Y423536D01*
X190724Y423551D01*
X190773Y423558D01*
X190926Y423610D01*
X191995Y424053D01*
X194005Y424053D01*
X195862Y423284D01*
X197284Y421862D01*
X198053Y420005D01*
X198053Y417995D01*
X197284Y416138D01*
X196039Y414894D01*
X195979Y414816D01*
X195911Y414743D01*
X195882Y414690D01*
X195845Y414643D01*
X195805Y414552D01*
X195757Y414465D01*
X195742Y414406D01*
X195718Y414351D01*
X195703Y414253D01*
X195678Y414157D01*
X195672Y414057D01*
X195668Y414037D01*
X195670Y414024D01*
X195668Y413996D01*
X195668Y413631D01*
X195680Y413533D01*
X195683Y413434D01*
X195700Y413375D01*
X195708Y413315D01*
X195744Y413223D01*
X195772Y413128D01*
X195802Y413076D01*
X195825Y413020D01*
X195883Y412940D01*
X195933Y412854D01*
X195999Y412779D01*
X196011Y412762D01*
X196021Y412754D01*
X196039Y412733D01*
X231348Y377424D01*
X231427Y377364D01*
X231499Y377296D01*
X231552Y377267D01*
X231600Y377230D01*
X231691Y377190D01*
X231777Y377142D01*
X231836Y377127D01*
X231891Y377103D01*
X231989Y377088D01*
X232085Y377063D01*
X232185Y377057D01*
X232205Y377053D01*
X232218Y377055D01*
X232246Y377053D01*
X234005Y377053D01*
X235862Y376284D01*
X237284Y374862D01*
X238053Y373005D01*
X238053Y370995D01*
X237284Y369138D01*
X235862Y367716D01*
X234005Y366947D01*
X231995Y366947D01*
X230138Y367716D01*
X228716Y369138D01*
X227947Y370995D01*
X227947Y372754D01*
X227935Y372852D01*
X227932Y372951D01*
X227915Y373010D01*
X227907Y373070D01*
X227871Y373162D01*
X227843Y373257D01*
X227813Y373309D01*
X227790Y373365D01*
X227732Y373445D01*
X227682Y373531D01*
X227616Y373606D01*
X227604Y373623D01*
X227594Y373631D01*
X227576Y373652D01*
X192267Y408961D01*
X191337Y409890D01*
X191250Y409958D01*
X191213Y409992D01*
X191194Y410003D01*
X191121Y410064D01*
X191102Y410072D01*
X191086Y410085D01*
X190958Y410140D01*
X190833Y410199D01*
X190813Y410203D01*
X190794Y410211D01*
X190656Y410233D01*
X190520Y410259D01*
X190500Y410258D01*
X190480Y410261D01*
X190341Y410248D01*
X190203Y410239D01*
X190184Y410233D01*
X190164Y410231D01*
X190032Y410184D01*
X189901Y410141D01*
X189883Y410130D01*
X189864Y410124D01*
X189749Y410045D01*
X189632Y409971D01*
X189618Y409956D01*
X189601Y409945D01*
X189509Y409841D01*
X189414Y409739D01*
X189404Y409722D01*
X189391Y409707D01*
X189328Y409583D01*
X189260Y409461D01*
X189255Y409441D01*
X189246Y409423D01*
X189216Y409287D01*
X189181Y409153D01*
X189179Y409125D01*
X189176Y409113D01*
X189177Y409092D01*
X189175Y409054D01*
X189173Y409047D01*
X189174Y409040D01*
X189171Y408992D01*
X189171Y386543D01*
X189183Y386445D01*
X189186Y386346D01*
X189203Y386287D01*
X189211Y386227D01*
X189247Y386135D01*
X189275Y386040D01*
X189305Y385988D01*
X189328Y385932D01*
X189386Y385852D01*
X189436Y385766D01*
X189502Y385691D01*
X189514Y385674D01*
X189524Y385666D01*
X189542Y385645D01*
X190787Y384401D01*
X191556Y382544D01*
X191556Y380534D01*
X190787Y378677D01*
X189365Y377256D01*
X189162Y377172D01*
X189119Y377147D01*
X189072Y377130D01*
X188981Y377068D01*
X188886Y377014D01*
X188850Y376979D01*
X188809Y376952D01*
X188736Y376869D01*
X188657Y376793D01*
X188632Y376750D01*
X188599Y376713D01*
X188549Y376615D01*
X188491Y376522D01*
X188477Y376474D01*
X188454Y376430D01*
X188430Y376323D01*
X188398Y376218D01*
X188395Y376168D01*
X188384Y376120D01*
X188388Y376010D01*
X188382Y375900D01*
X188393Y375851D01*
X188394Y375802D01*
X188425Y375696D01*
X188447Y375589D01*
X188469Y375544D01*
X188482Y375496D01*
X188538Y375402D01*
X188586Y375303D01*
X188619Y375265D01*
X188644Y375222D01*
X188750Y375101D01*
X232136Y331715D01*
X232215Y331655D01*
X232287Y331587D01*
X232340Y331558D01*
X232388Y331521D01*
X232479Y331481D01*
X232565Y331433D01*
X232624Y331418D01*
X232679Y331394D01*
X232777Y331379D01*
X232873Y331354D01*
X232973Y331348D01*
X232994Y331344D01*
X233006Y331346D01*
X233034Y331344D01*
X234778Y331344D01*
X234877Y331356D01*
X234976Y331359D01*
X235034Y331376D01*
X235094Y331384D01*
X235186Y331420D01*
X235281Y331448D01*
X235333Y331478D01*
X235390Y331501D01*
X235470Y331559D01*
X235555Y331609D01*
X235630Y331675D01*
X235647Y331687D01*
X235655Y331697D01*
X235676Y331715D01*
X236244Y332284D01*
X238101Y333053D01*
X240111Y333053D01*
X240624Y332840D01*
X240672Y332827D01*
X240717Y332806D01*
X240825Y332785D01*
X240931Y332756D01*
X240981Y332755D01*
X241030Y332746D01*
X241139Y332753D01*
X241249Y332751D01*
X241297Y332763D01*
X241347Y332766D01*
X241451Y332800D01*
X241558Y332825D01*
X241602Y332849D01*
X241649Y332864D01*
X241742Y332923D01*
X241839Y332974D01*
X241876Y333007D01*
X241918Y333034D01*
X241993Y333114D01*
X242075Y333188D01*
X242102Y333229D01*
X242136Y333266D01*
X242189Y333362D01*
X242249Y333454D01*
X242266Y333501D01*
X242290Y333544D01*
X242317Y333650D01*
X242353Y333754D01*
X242357Y333804D01*
X242369Y333852D01*
X242379Y334013D01*
X242379Y425730D01*
X242364Y425848D01*
X242357Y425967D01*
X242345Y426005D01*
X242339Y426046D01*
X242296Y426156D01*
X242259Y426269D01*
X242237Y426304D01*
X242222Y426341D01*
X242153Y426437D01*
X242089Y426538D01*
X242059Y426566D01*
X242036Y426599D01*
X241944Y426675D01*
X241857Y426756D01*
X241822Y426776D01*
X241791Y426801D01*
X241683Y426852D01*
X241579Y426910D01*
X241539Y426920D01*
X241503Y426937D01*
X241386Y426959D01*
X241271Y426989D01*
X241211Y426993D01*
X241191Y426997D01*
X241170Y426995D01*
X241110Y426999D01*
X192000Y426999D01*
X191999Y427000D01*
X191999Y529394D01*
X191991Y529463D01*
X191992Y529533D01*
X191971Y529620D01*
X191959Y529710D01*
X191934Y529774D01*
X191917Y529842D01*
X191875Y529922D01*
X191842Y530005D01*
X191801Y530062D01*
X191769Y530123D01*
X191708Y530190D01*
X191656Y530263D01*
X191602Y530307D01*
X191555Y530359D01*
X191480Y530408D01*
X191411Y530465D01*
X191347Y530495D01*
X191289Y530533D01*
X191204Y530563D01*
X191123Y530601D01*
X191054Y530614D01*
X190988Y530637D01*
X190899Y530644D01*
X190811Y530661D01*
X190741Y530656D01*
X190671Y530662D01*
X190583Y530647D01*
X190493Y530641D01*
X190427Y530619D01*
X190358Y530607D01*
X190276Y530571D01*
X190191Y530543D01*
X190132Y530506D01*
X190068Y530477D01*
X189998Y530421D01*
X189922Y530373D01*
X189874Y530322D01*
X189820Y530278D01*
X189765Y530207D01*
X189704Y530141D01*
X189670Y530080D01*
X189628Y530024D01*
X189557Y529880D01*
X189040Y528632D01*
X180638Y516056D01*
X169944Y505362D01*
X157368Y496960D01*
X143396Y491172D01*
X128562Y488221D01*
X113438Y488221D01*
X98604Y491172D01*
X84632Y496960D01*
X72056Y505362D01*
X61362Y516056D01*
X52960Y528632D01*
X47172Y542604D01*
X44221Y557438D01*
X44221Y572562D01*
X47172Y587396D01*
X52960Y601368D01*
X61362Y613944D01*
X72056Y624638D01*
X84632Y633040D01*
X98604Y638828D01*
X107640Y640625D01*
X107716Y640651D01*
X107795Y640666D01*
X107866Y640701D01*
X107941Y640726D01*
X108009Y640769D01*
X108081Y640804D01*
X108142Y640855D01*
X108209Y640898D01*
X108263Y640957D01*
X108324Y641009D01*
X108371Y641074D01*
X108425Y641132D01*
X108463Y641203D01*
X108509Y641268D01*
X108538Y641342D01*
X108576Y641412D01*
X108595Y641490D01*
X108624Y641564D01*
X108633Y641643D01*
X108652Y641720D01*
X108652Y641801D01*
X108661Y641880D01*
X108651Y641959D01*
X108650Y642038D01*
X108630Y642116D01*
X108619Y642195D01*
X108589Y642269D01*
X108569Y642346D01*
X108530Y642416D01*
X108500Y642490D01*
X108452Y642554D01*
X108414Y642623D01*
X108358Y642682D01*
X108311Y642746D01*
X108249Y642796D01*
X108194Y642854D01*
X108126Y642896D01*
X108064Y642947D01*
X107992Y642980D01*
X107925Y643022D01*
X107848Y643047D01*
X107775Y643080D01*
X107697Y643095D01*
X107622Y643119D01*
X107541Y643123D01*
X107463Y643138D01*
X107306Y643136D01*
X107304Y643136D01*
X107303Y643136D01*
X107302Y643136D01*
X100416Y642644D01*
X100406Y642642D01*
X100396Y642642D01*
X100237Y642618D01*
X76732Y637505D01*
X76722Y637501D01*
X76712Y637500D01*
X76558Y637454D01*
X54020Y629048D01*
X54011Y629043D01*
X54001Y629040D01*
X53855Y628972D01*
X32743Y617444D01*
X32735Y617438D01*
X32725Y617434D01*
X32591Y617346D01*
X13334Y602931D01*
X13322Y602919D01*
X13230Y602844D01*
X13202Y602818D01*
X7032Y597073D01*
X6953Y596979D01*
X6869Y596889D01*
X6851Y596857D01*
X6828Y596829D01*
X6775Y596718D01*
X6716Y596611D01*
X6707Y596575D01*
X6691Y596542D01*
X6668Y596421D01*
X6637Y596303D01*
X6634Y596249D01*
X6630Y596230D01*
X6631Y596208D01*
X6627Y596142D01*
X7306Y188904D01*
X7323Y188768D01*
X7336Y188630D01*
X7344Y188610D01*
X7346Y188589D01*
X7397Y188461D01*
X7444Y188331D01*
X7456Y188313D01*
X7464Y188293D01*
X7545Y188182D01*
X7623Y188068D01*
X7639Y188053D01*
X7651Y188036D01*
X7757Y187949D01*
X7861Y187857D01*
X7880Y187847D01*
X7896Y187834D01*
X8021Y187775D01*
X8144Y187712D01*
X8165Y187708D01*
X8184Y187699D01*
X8320Y187673D01*
X8454Y187643D01*
X8476Y187643D01*
X8497Y187640D01*
X8634Y187648D01*
X8772Y187652D01*
X8793Y187658D01*
X8814Y187660D01*
X8946Y187703D01*
X9078Y187741D01*
X9096Y187752D01*
X9117Y187758D01*
X9233Y187833D01*
X9352Y187902D01*
X9374Y187922D01*
X9385Y187929D01*
X9399Y187944D01*
X9473Y188009D01*
X11865Y190401D01*
X16157Y192179D01*
X20803Y192179D01*
X25095Y190401D01*
X28381Y187115D01*
X30159Y182823D01*
X30159Y178177D01*
X28381Y173885D01*
X25095Y170599D01*
X20803Y168821D01*
X16157Y168821D01*
X11865Y170599D01*
X9501Y172963D01*
X9389Y173049D01*
X9282Y173138D01*
X9265Y173146D01*
X9249Y173158D01*
X9120Y173214D01*
X8994Y173273D01*
X8975Y173277D01*
X8958Y173284D01*
X8818Y173306D01*
X8682Y173332D01*
X8663Y173331D01*
X8643Y173334D01*
X8504Y173321D01*
X8364Y173312D01*
X8346Y173306D01*
X8327Y173304D01*
X8195Y173257D01*
X8062Y173214D01*
X8046Y173203D01*
X8028Y173197D01*
X7912Y173118D01*
X7793Y173043D01*
X7780Y173029D01*
X7764Y173018D01*
X7672Y172913D01*
X7576Y172811D01*
X7567Y172794D01*
X7554Y172780D01*
X7490Y172655D01*
X7423Y172532D01*
X7418Y172514D01*
X7409Y172497D01*
X7379Y172360D01*
X7344Y172224D01*
X7342Y172198D01*
X7340Y172186D01*
X7340Y172166D01*
X7334Y172063D01*
X7422Y119021D01*
X7440Y118884D01*
X7453Y118746D01*
X7460Y118726D01*
X7463Y118705D01*
X7514Y118577D01*
X7560Y118447D01*
X7572Y118430D01*
X7580Y118410D01*
X7662Y118298D01*
X7739Y118184D01*
X7755Y118170D01*
X7768Y118153D01*
X7874Y118065D01*
X7977Y117974D01*
X7996Y117964D01*
X8013Y117950D01*
X8138Y117892D01*
X8261Y117829D01*
X8281Y117824D01*
X8301Y117815D01*
X8436Y117790D01*
X8571Y117759D01*
X8592Y117760D01*
X8613Y117756D01*
X8751Y117765D01*
X8889Y117769D01*
X8909Y117775D01*
X8931Y117776D01*
X9062Y117819D01*
X9194Y117857D01*
X9213Y117868D01*
X9233Y117875D01*
X9350Y117949D01*
X9468Y118019D01*
X9490Y118038D01*
X9501Y118045D01*
X9516Y118061D01*
X9589Y118125D01*
X11865Y120401D01*
X16157Y122179D01*
X20803Y122179D01*
X25095Y120401D01*
X28381Y117115D01*
X30159Y112823D01*
X30159Y108177D01*
X28381Y103885D01*
X25095Y100599D01*
X20803Y98821D01*
X16157Y98821D01*
X11865Y100599D01*
X9618Y102846D01*
X9506Y102933D01*
X9399Y103021D01*
X9382Y103029D01*
X9366Y103041D01*
X9237Y103097D01*
X9111Y103156D01*
X9092Y103160D01*
X9074Y103168D01*
X8935Y103190D01*
X8798Y103216D01*
X8779Y103214D01*
X8760Y103217D01*
X8621Y103204D01*
X8481Y103195D01*
X8463Y103189D01*
X8444Y103188D01*
X8312Y103140D01*
X8179Y103097D01*
X8163Y103086D01*
X8144Y103080D01*
X8029Y103001D01*
X7910Y102926D01*
X7897Y102912D01*
X7881Y102901D01*
X7789Y102796D01*
X7693Y102694D01*
X7684Y102677D01*
X7671Y102663D01*
X7607Y102538D01*
X7540Y102415D01*
X7535Y102397D01*
X7526Y102380D01*
X7496Y102243D01*
X7461Y102107D01*
X7459Y102081D01*
X7457Y102069D01*
X7457Y102049D01*
X7451Y101947D01*
X7537Y50100D01*
X7546Y50032D01*
X7545Y49963D01*
X7566Y49875D01*
X7578Y49785D01*
X7603Y49721D01*
X7619Y49654D01*
X7661Y49574D01*
X7695Y49489D01*
X7736Y49434D01*
X7768Y49373D01*
X7829Y49306D01*
X7882Y49232D01*
X7935Y49189D01*
X7982Y49138D01*
X8058Y49088D01*
X8128Y49030D01*
X8190Y49001D01*
X8247Y48963D01*
X8333Y48933D01*
X8416Y48895D01*
X8483Y48882D01*
X8548Y48860D01*
X8639Y48852D01*
X8728Y48835D01*
X8797Y48840D01*
X8865Y48834D01*
X8955Y48850D01*
G37*
G36*
X125091Y-44153D02*
X125091Y-44153D01*
X148983Y-42444D01*
X148993Y-42442D01*
X149003Y-42442D01*
X149163Y-42418D01*
X172569Y-37326D01*
X172579Y-37323D01*
X172589Y-37322D01*
X172743Y-37275D01*
X195186Y-28904D01*
X195195Y-28900D01*
X195205Y-28897D01*
X195351Y-28829D01*
X216375Y-17349D01*
X216380Y-17345D01*
X216381Y-17345D01*
X216384Y-17343D01*
X216392Y-17339D01*
X216527Y-17251D01*
X235703Y-2896D01*
X235715Y-2885D01*
X235807Y-2809D01*
X241975Y2933D01*
X242053Y3026D01*
X242136Y3115D01*
X242154Y3148D01*
X242179Y3177D01*
X242231Y3287D01*
X242290Y3393D01*
X242299Y3430D01*
X242315Y3464D01*
X242339Y3584D01*
X242369Y3701D01*
X242373Y3757D01*
X242376Y3776D01*
X242375Y3797D01*
X242379Y3862D01*
X242379Y80153D01*
X242362Y80291D01*
X242349Y80430D01*
X242342Y80449D01*
X242339Y80469D01*
X242288Y80598D01*
X242241Y80729D01*
X242230Y80746D01*
X242222Y80764D01*
X242141Y80877D01*
X242063Y80992D01*
X242047Y81006D01*
X242036Y81022D01*
X241928Y81111D01*
X241824Y81203D01*
X241806Y81212D01*
X241791Y81225D01*
X241665Y81284D01*
X241541Y81347D01*
X241521Y81352D01*
X241503Y81360D01*
X241367Y81386D01*
X241230Y81417D01*
X241210Y81416D01*
X241191Y81420D01*
X241052Y81411D01*
X240913Y81407D01*
X240893Y81401D01*
X240873Y81400D01*
X240741Y81357D01*
X240607Y81319D01*
X240590Y81308D01*
X240571Y81302D01*
X240453Y81228D01*
X240333Y81157D01*
X240312Y81139D01*
X240302Y81132D01*
X240288Y81117D01*
X240212Y81051D01*
X240102Y80940D01*
X237859Y78697D01*
X210369Y78697D01*
X210270Y78685D01*
X210171Y78682D01*
X210113Y78665D01*
X210053Y78657D01*
X209961Y78621D01*
X209866Y78593D01*
X209814Y78563D01*
X209757Y78540D01*
X209677Y78482D01*
X209592Y78432D01*
X209517Y78366D01*
X209500Y78354D01*
X209492Y78344D01*
X209471Y78326D01*
X208862Y77716D01*
X207005Y76947D01*
X204995Y76947D01*
X203138Y77716D01*
X201716Y79138D01*
X200947Y80995D01*
X200947Y83005D01*
X201716Y84862D01*
X203138Y86284D01*
X204995Y87053D01*
X207005Y87053D01*
X208862Y86284D01*
X209471Y85674D01*
X209549Y85614D01*
X209622Y85546D01*
X209675Y85517D01*
X209722Y85480D01*
X209813Y85440D01*
X209900Y85392D01*
X209959Y85377D01*
X210014Y85353D01*
X210112Y85338D01*
X210208Y85313D01*
X210308Y85307D01*
X210328Y85303D01*
X210341Y85305D01*
X210369Y85303D01*
X234534Y85303D01*
X234652Y85318D01*
X234771Y85325D01*
X234809Y85338D01*
X234850Y85343D01*
X234960Y85386D01*
X235073Y85423D01*
X235108Y85445D01*
X235145Y85460D01*
X235241Y85529D01*
X235342Y85593D01*
X235370Y85623D01*
X235403Y85646D01*
X235479Y85738D01*
X235560Y85825D01*
X235580Y85860D01*
X235605Y85891D01*
X235656Y85999D01*
X235714Y86103D01*
X235724Y86143D01*
X235741Y86179D01*
X235763Y86296D01*
X235793Y86411D01*
X235797Y86471D01*
X235801Y86491D01*
X235800Y86495D01*
X235801Y86496D01*
X235800Y86514D01*
X235803Y86572D01*
X235803Y208063D01*
X235788Y208181D01*
X235781Y208300D01*
X235768Y208338D01*
X235763Y208379D01*
X235720Y208489D01*
X235683Y208602D01*
X235661Y208637D01*
X235646Y208674D01*
X235577Y208770D01*
X235513Y208871D01*
X235483Y208899D01*
X235460Y208932D01*
X235368Y209008D01*
X235281Y209089D01*
X235246Y209109D01*
X235215Y209134D01*
X235107Y209185D01*
X235003Y209243D01*
X234963Y209253D01*
X234927Y209270D01*
X234810Y209292D01*
X234695Y209322D01*
X234635Y209326D01*
X234615Y209330D01*
X234594Y209328D01*
X234534Y209332D01*
X207229Y209332D01*
X207131Y209320D01*
X207032Y209317D01*
X206973Y209300D01*
X206913Y209292D01*
X206821Y209256D01*
X206726Y209228D01*
X206674Y209198D01*
X206618Y209175D01*
X206538Y209117D01*
X206452Y209067D01*
X206377Y209001D01*
X206360Y208989D01*
X206353Y208979D01*
X206331Y208961D01*
X197703Y200332D01*
X190384Y200332D01*
X190286Y200320D01*
X190187Y200317D01*
X190128Y200300D01*
X190068Y200292D01*
X189976Y200256D01*
X189881Y200228D01*
X189829Y200198D01*
X189773Y200175D01*
X189692Y200117D01*
X189607Y200067D01*
X189532Y200001D01*
X189515Y199989D01*
X189507Y199979D01*
X189486Y199961D01*
X185105Y195579D01*
X170631Y195579D01*
X170493Y195562D01*
X170354Y195549D01*
X170335Y195542D01*
X170315Y195539D01*
X170185Y195488D01*
X170055Y195441D01*
X170038Y195430D01*
X170019Y195422D01*
X169907Y195341D01*
X169792Y195263D01*
X169778Y195247D01*
X169762Y195236D01*
X169673Y195128D01*
X169581Y195024D01*
X169572Y195006D01*
X169559Y194991D01*
X169500Y194865D01*
X169437Y194741D01*
X169432Y194721D01*
X169424Y194703D01*
X169398Y194566D01*
X169367Y194431D01*
X169368Y194410D01*
X169364Y194391D01*
X169373Y194252D01*
X169377Y194113D01*
X169382Y194093D01*
X169384Y194073D01*
X169426Y193941D01*
X169465Y193807D01*
X169475Y193790D01*
X169482Y193771D01*
X169556Y193653D01*
X169627Y193533D01*
X169645Y193512D01*
X169652Y193502D01*
X169667Y193488D01*
X169733Y193413D01*
X170284Y192862D01*
X171053Y191005D01*
X171053Y188995D01*
X170284Y187138D01*
X168862Y185716D01*
X167005Y184947D01*
X164995Y184947D01*
X163138Y185716D01*
X162529Y186326D01*
X162451Y186386D01*
X162378Y186454D01*
X162325Y186483D01*
X162278Y186520D01*
X162187Y186560D01*
X162100Y186608D01*
X162041Y186623D01*
X161986Y186647D01*
X161888Y186662D01*
X161792Y186687D01*
X161692Y186693D01*
X161672Y186697D01*
X161659Y186695D01*
X161631Y186697D01*
X147894Y186697D01*
X147796Y186685D01*
X147697Y186682D01*
X147638Y186665D01*
X147578Y186657D01*
X147486Y186621D01*
X147391Y186593D01*
X147339Y186563D01*
X147283Y186540D01*
X147203Y186482D01*
X147117Y186432D01*
X147042Y186366D01*
X147025Y186354D01*
X147017Y186344D01*
X146996Y186326D01*
X136424Y175754D01*
X136364Y175675D01*
X136296Y175603D01*
X136267Y175550D01*
X136230Y175502D01*
X136190Y175411D01*
X136142Y175325D01*
X136127Y175266D01*
X136103Y175211D01*
X136088Y175113D01*
X136063Y175017D01*
X136057Y174917D01*
X136053Y174896D01*
X136055Y174884D01*
X136053Y174856D01*
X136053Y173995D01*
X135689Y173117D01*
X135676Y173069D01*
X135655Y173024D01*
X135634Y172916D01*
X135605Y172810D01*
X135604Y172760D01*
X135595Y172711D01*
X135602Y172602D01*
X135600Y172492D01*
X135612Y172444D01*
X135615Y172394D01*
X135648Y172290D01*
X135674Y172183D01*
X135697Y172139D01*
X135713Y172092D01*
X135771Y171999D01*
X135823Y171902D01*
X135856Y171865D01*
X135883Y171823D01*
X135963Y171748D01*
X136037Y171666D01*
X136078Y171639D01*
X136114Y171605D01*
X136211Y171552D01*
X136302Y171492D01*
X136350Y171475D01*
X136393Y171451D01*
X136499Y171424D01*
X136603Y171388D01*
X136653Y171384D01*
X136701Y171372D01*
X136862Y171362D01*
X142567Y171362D01*
X142665Y171374D01*
X142764Y171377D01*
X142823Y171394D01*
X142883Y171402D01*
X142975Y171438D01*
X143070Y171466D01*
X143122Y171496D01*
X143178Y171519D01*
X143258Y171577D01*
X143344Y171627D01*
X143419Y171693D01*
X143436Y171705D01*
X143443Y171715D01*
X143465Y171733D01*
X151034Y179303D01*
X169631Y179303D01*
X169730Y179315D01*
X169829Y179318D01*
X169887Y179335D01*
X169947Y179343D01*
X170039Y179379D01*
X170134Y179407D01*
X170186Y179437D01*
X170243Y179460D01*
X170323Y179518D01*
X170408Y179568D01*
X170483Y179634D01*
X170500Y179646D01*
X170508Y179656D01*
X170529Y179674D01*
X171138Y180284D01*
X172995Y181053D01*
X175005Y181053D01*
X176862Y180284D01*
X178284Y178862D01*
X179053Y177005D01*
X179053Y174995D01*
X178284Y173138D01*
X176862Y171716D01*
X175005Y170947D01*
X172995Y170947D01*
X171138Y171716D01*
X170529Y172326D01*
X170451Y172386D01*
X170378Y172454D01*
X170325Y172483D01*
X170278Y172520D01*
X170187Y172560D01*
X170100Y172608D01*
X170041Y172623D01*
X169986Y172647D01*
X169888Y172662D01*
X169792Y172687D01*
X169692Y172693D01*
X169672Y172697D01*
X169659Y172695D01*
X169631Y172697D01*
X154296Y172697D01*
X154197Y172685D01*
X154098Y172682D01*
X154040Y172665D01*
X153980Y172657D01*
X153888Y172621D01*
X153793Y172593D01*
X153741Y172563D01*
X153684Y172540D01*
X153604Y172482D01*
X153519Y172432D01*
X153444Y172366D01*
X153427Y172354D01*
X153419Y172344D01*
X153398Y172326D01*
X145829Y164756D01*
X131273Y164756D01*
X131204Y164748D01*
X131134Y164749D01*
X131047Y164728D01*
X130958Y164716D01*
X130893Y164691D01*
X130825Y164674D01*
X130745Y164632D01*
X130662Y164599D01*
X130606Y164558D01*
X130544Y164526D01*
X130477Y164465D01*
X130405Y164413D01*
X130360Y164359D01*
X130309Y164312D01*
X130259Y164237D01*
X130202Y164168D01*
X130172Y164104D01*
X130134Y164046D01*
X130105Y163961D01*
X130066Y163880D01*
X130053Y163811D01*
X130031Y163745D01*
X130023Y163656D01*
X130007Y163568D01*
X130011Y163498D01*
X130005Y163428D01*
X130021Y163340D01*
X130026Y163250D01*
X130048Y163184D01*
X130060Y163115D01*
X130097Y163033D01*
X130124Y162948D01*
X130162Y162889D01*
X130190Y162825D01*
X130246Y162755D01*
X130295Y162679D01*
X130345Y162631D01*
X130389Y162577D01*
X130461Y162523D01*
X130526Y162461D01*
X130587Y162427D01*
X130643Y162385D01*
X130788Y162314D01*
X130862Y162283D01*
X132284Y160862D01*
X133053Y159005D01*
X133053Y156995D01*
X132284Y155138D01*
X130862Y153716D01*
X129005Y152947D01*
X127263Y152947D01*
X127125Y152930D01*
X126986Y152917D01*
X126967Y152910D01*
X126947Y152907D01*
X126817Y152856D01*
X126687Y152809D01*
X126670Y152798D01*
X126651Y152790D01*
X126539Y152709D01*
X126424Y152631D01*
X126410Y152615D01*
X126394Y152604D01*
X126305Y152496D01*
X126213Y152392D01*
X126204Y152374D01*
X126191Y152359D01*
X126132Y152233D01*
X126069Y152109D01*
X126064Y152089D01*
X126056Y152071D01*
X126030Y151934D01*
X125999Y151799D01*
X126000Y151778D01*
X125996Y151759D01*
X126005Y151620D01*
X126009Y151481D01*
X126014Y151461D01*
X126016Y151441D01*
X126058Y151309D01*
X126097Y151175D01*
X126107Y151158D01*
X126114Y151139D01*
X126188Y151021D01*
X126259Y150901D01*
X126277Y150880D01*
X126284Y150870D01*
X126299Y150856D01*
X126365Y150781D01*
X127106Y150039D01*
X127184Y149979D01*
X127257Y149911D01*
X127310Y149882D01*
X127357Y149845D01*
X127448Y149805D01*
X127535Y149757D01*
X127594Y149742D01*
X127649Y149718D01*
X127747Y149703D01*
X127843Y149678D01*
X127943Y149672D01*
X127963Y149668D01*
X127976Y149670D01*
X128004Y149668D01*
X181369Y149668D01*
X181467Y149680D01*
X181566Y149683D01*
X181625Y149700D01*
X181685Y149708D01*
X181777Y149744D01*
X181872Y149772D01*
X181924Y149802D01*
X181980Y149825D01*
X182060Y149883D01*
X182146Y149933D01*
X182221Y149999D01*
X182238Y150011D01*
X182246Y150021D01*
X182267Y150039D01*
X196576Y164348D01*
X196636Y164427D01*
X196704Y164499D01*
X196733Y164552D01*
X196770Y164600D01*
X196810Y164691D01*
X196858Y164777D01*
X196873Y164836D01*
X196897Y164891D01*
X196912Y164989D01*
X196937Y165085D01*
X196943Y165182D01*
X196945Y165190D01*
X196945Y165192D01*
X196947Y165205D01*
X196945Y165218D01*
X196947Y165246D01*
X196947Y167005D01*
X197716Y168862D01*
X199138Y170284D01*
X200995Y171053D01*
X203005Y171053D01*
X204862Y170284D01*
X206284Y168862D01*
X207053Y167005D01*
X207053Y164995D01*
X206284Y163138D01*
X204862Y161716D01*
X203005Y160947D01*
X201246Y160947D01*
X201148Y160935D01*
X201049Y160932D01*
X200990Y160915D01*
X200930Y160907D01*
X200838Y160871D01*
X200743Y160843D01*
X200691Y160813D01*
X200635Y160790D01*
X200555Y160732D01*
X200469Y160682D01*
X200394Y160616D01*
X200377Y160604D01*
X200369Y160594D01*
X200348Y160576D01*
X184105Y144332D01*
X128004Y144332D01*
X127905Y144320D01*
X127806Y144317D01*
X127748Y144300D01*
X127688Y144292D01*
X127596Y144256D01*
X127501Y144228D01*
X127449Y144198D01*
X127392Y144175D01*
X127312Y144117D01*
X127227Y144067D01*
X127152Y144001D01*
X127135Y143989D01*
X127127Y143979D01*
X127106Y143961D01*
X125862Y142716D01*
X124005Y141947D01*
X121995Y141947D01*
X120138Y142716D01*
X118716Y144138D01*
X117947Y145995D01*
X117947Y148005D01*
X118716Y149862D01*
X120138Y151284D01*
X121995Y152053D01*
X123737Y152053D01*
X123875Y152070D01*
X124014Y152083D01*
X124033Y152090D01*
X124053Y152093D01*
X124182Y152144D01*
X124313Y152191D01*
X124330Y152202D01*
X124349Y152210D01*
X124461Y152291D01*
X124576Y152369D01*
X124590Y152385D01*
X124606Y152396D01*
X124695Y152504D01*
X124787Y152608D01*
X124796Y152626D01*
X124809Y152641D01*
X124868Y152767D01*
X124931Y152891D01*
X124936Y152911D01*
X124944Y152929D01*
X124970Y153066D01*
X125001Y153201D01*
X125000Y153222D01*
X125004Y153241D01*
X124995Y153380D01*
X124991Y153519D01*
X124986Y153539D01*
X124984Y153559D01*
X124942Y153690D01*
X124903Y153825D01*
X124893Y153842D01*
X124886Y153861D01*
X124812Y153979D01*
X124741Y154099D01*
X124723Y154120D01*
X124716Y154130D01*
X124701Y154144D01*
X124635Y154219D01*
X123716Y155138D01*
X122947Y156995D01*
X122947Y159005D01*
X123716Y160862D01*
X125138Y162283D01*
X125212Y162314D01*
X125273Y162349D01*
X125338Y162375D01*
X125411Y162427D01*
X125489Y162472D01*
X125539Y162520D01*
X125595Y162561D01*
X125653Y162631D01*
X125717Y162693D01*
X125754Y162753D01*
X125798Y162806D01*
X125836Y162888D01*
X125883Y162964D01*
X125904Y163031D01*
X125934Y163094D01*
X125950Y163182D01*
X125977Y163268D01*
X125980Y163338D01*
X125993Y163407D01*
X125988Y163496D01*
X125992Y163586D01*
X125978Y163654D01*
X125974Y163724D01*
X125946Y163809D01*
X125928Y163897D01*
X125897Y163960D01*
X125876Y164026D01*
X125828Y164102D01*
X125788Y164183D01*
X125743Y164236D01*
X125705Y164295D01*
X125640Y164357D01*
X125582Y164425D01*
X125525Y164465D01*
X125474Y164513D01*
X125395Y164556D01*
X125322Y164608D01*
X125257Y164633D01*
X125195Y164667D01*
X125108Y164689D01*
X125024Y164721D01*
X124955Y164729D01*
X124887Y164746D01*
X124727Y164756D01*
X115953Y164756D01*
X115855Y164744D01*
X115756Y164741D01*
X115697Y164724D01*
X115637Y164716D01*
X115545Y164680D01*
X115450Y164652D01*
X115398Y164622D01*
X115342Y164599D01*
X115262Y164541D01*
X115176Y164491D01*
X115101Y164425D01*
X115084Y164413D01*
X115076Y164403D01*
X115055Y164385D01*
X110674Y160004D01*
X110614Y159925D01*
X110546Y159853D01*
X110517Y159800D01*
X110480Y159752D01*
X110440Y159661D01*
X110392Y159575D01*
X110377Y159516D01*
X110353Y159461D01*
X110338Y159363D01*
X110313Y159267D01*
X110307Y159167D01*
X110303Y159146D01*
X110305Y159134D01*
X110303Y159106D01*
X110303Y117906D01*
X110313Y117822D01*
X110314Y117738D01*
X110333Y117665D01*
X110343Y117590D01*
X110374Y117512D01*
X110395Y117430D01*
X110432Y117365D01*
X110460Y117295D01*
X110509Y117227D01*
X110550Y117153D01*
X110602Y117098D01*
X110646Y117037D01*
X110712Y116984D01*
X110770Y116922D01*
X110833Y116883D01*
X110891Y116835D01*
X110968Y116799D01*
X111039Y116754D01*
X111111Y116731D01*
X111179Y116699D01*
X111262Y116683D01*
X111343Y116658D01*
X111418Y116653D01*
X111491Y116639D01*
X111576Y116645D01*
X111660Y116640D01*
X111800Y116659D01*
X111809Y116659D01*
X111812Y116660D01*
X111820Y116661D01*
X117438Y117779D01*
X132562Y117779D01*
X147396Y114828D01*
X161368Y109040D01*
X173944Y100638D01*
X184638Y89944D01*
X193040Y77368D01*
X198828Y63396D01*
X201779Y48562D01*
X201779Y33438D01*
X198828Y18604D01*
X193040Y4632D01*
X184638Y-7944D01*
X173944Y-18638D01*
X161368Y-27040D01*
X147396Y-32828D01*
X132562Y-35779D01*
X117438Y-35779D01*
X102604Y-32828D01*
X88632Y-27040D01*
X76056Y-18638D01*
X65362Y-7944D01*
X56960Y4632D01*
X51172Y18604D01*
X48221Y33438D01*
X48221Y48562D01*
X51172Y63396D01*
X56960Y77368D01*
X65362Y89944D01*
X76056Y100638D01*
X88632Y109040D01*
X102604Y114828D01*
X102676Y114842D01*
X102822Y114891D01*
X102967Y114938D01*
X102972Y114941D01*
X102977Y114943D01*
X103107Y115026D01*
X103236Y115108D01*
X103240Y115112D01*
X103244Y115115D01*
X103348Y115228D01*
X103454Y115340D01*
X103457Y115345D01*
X103460Y115349D01*
X103533Y115484D01*
X103608Y115619D01*
X103609Y115624D01*
X103612Y115629D01*
X103649Y115779D01*
X103687Y115926D01*
X103688Y115934D01*
X103688Y115937D01*
X103688Y115947D01*
X103697Y116087D01*
X103697Y162368D01*
X112691Y171362D01*
X125138Y171362D01*
X125188Y171368D01*
X125237Y171366D01*
X125345Y171388D01*
X125454Y171402D01*
X125500Y171420D01*
X125549Y171430D01*
X125647Y171478D01*
X125750Y171519D01*
X125790Y171548D01*
X125835Y171570D01*
X125918Y171641D01*
X126007Y171705D01*
X126039Y171744D01*
X126076Y171776D01*
X126140Y171866D01*
X126210Y171950D01*
X126231Y171995D01*
X126260Y172036D01*
X126299Y172139D01*
X126345Y172238D01*
X126355Y172287D01*
X126372Y172333D01*
X126384Y172443D01*
X126405Y172550D01*
X126402Y172600D01*
X126408Y172649D01*
X126392Y172758D01*
X126385Y172868D01*
X126370Y172915D01*
X126363Y172964D01*
X126311Y173117D01*
X125947Y173995D01*
X125947Y176005D01*
X126716Y177862D01*
X128138Y179284D01*
X129995Y180053D01*
X130856Y180053D01*
X130954Y180065D01*
X131053Y180068D01*
X131112Y180085D01*
X131172Y180093D01*
X131264Y180129D01*
X131359Y180157D01*
X131411Y180187D01*
X131467Y180210D01*
X131547Y180268D01*
X131633Y180318D01*
X131708Y180384D01*
X131725Y180396D01*
X131733Y180406D01*
X131754Y180424D01*
X134110Y182781D01*
X134195Y182890D01*
X134284Y182997D01*
X134292Y183016D01*
X134305Y183032D01*
X134360Y183160D01*
X134419Y183285D01*
X134423Y183305D01*
X134431Y183324D01*
X134453Y183462D01*
X134479Y183598D01*
X134478Y183618D01*
X134481Y183638D01*
X134468Y183777D01*
X134459Y183915D01*
X134453Y183934D01*
X134451Y183954D01*
X134404Y184086D01*
X134361Y184217D01*
X134350Y184235D01*
X134343Y184254D01*
X134265Y184369D01*
X134191Y184486D01*
X134176Y184500D01*
X134165Y184517D01*
X134061Y184609D01*
X133959Y184704D01*
X133942Y184714D01*
X133926Y184727D01*
X133802Y184791D01*
X133681Y184858D01*
X133661Y184863D01*
X133643Y184872D01*
X133507Y184902D01*
X133373Y184937D01*
X133345Y184939D01*
X133333Y184942D01*
X133312Y184941D01*
X133212Y184947D01*
X132995Y184947D01*
X131138Y185716D01*
X129716Y187138D01*
X128947Y188995D01*
X128947Y189856D01*
X128935Y189954D01*
X128932Y190053D01*
X128915Y190112D01*
X128907Y190172D01*
X128871Y190264D01*
X128843Y190359D01*
X128813Y190411D01*
X128790Y190467D01*
X128732Y190547D01*
X128682Y190633D01*
X128616Y190708D01*
X128604Y190725D01*
X128594Y190733D01*
X128576Y190754D01*
X123004Y196326D01*
X122925Y196386D01*
X122853Y196454D01*
X122800Y196483D01*
X122752Y196520D01*
X122661Y196560D01*
X122575Y196608D01*
X122516Y196623D01*
X122461Y196647D01*
X122363Y196662D01*
X122267Y196687D01*
X122167Y196693D01*
X122146Y196697D01*
X122134Y196695D01*
X122106Y196697D01*
X57632Y196697D01*
X50697Y203632D01*
X50697Y223106D01*
X50685Y223204D01*
X50682Y223303D01*
X50665Y223362D01*
X50657Y223422D01*
X50621Y223514D01*
X50593Y223609D01*
X50563Y223661D01*
X50540Y223717D01*
X50482Y223797D01*
X50432Y223883D01*
X50366Y223958D01*
X50354Y223975D01*
X50344Y223983D01*
X50326Y224004D01*
X43754Y230576D01*
X43675Y230636D01*
X43603Y230704D01*
X43550Y230733D01*
X43502Y230770D01*
X43411Y230810D01*
X43325Y230858D01*
X43266Y230873D01*
X43211Y230897D01*
X43113Y230912D01*
X43017Y230937D01*
X42917Y230943D01*
X42896Y230947D01*
X42884Y230945D01*
X42856Y230947D01*
X41995Y230947D01*
X40138Y231716D01*
X38898Y232957D01*
X38803Y233030D01*
X38714Y233109D01*
X38678Y233127D01*
X38646Y233152D01*
X38537Y233199D01*
X38431Y233253D01*
X38392Y233262D01*
X38354Y233278D01*
X38237Y233297D01*
X38121Y233323D01*
X38080Y233322D01*
X38040Y233328D01*
X37922Y233317D01*
X37803Y233313D01*
X37764Y233302D01*
X37724Y233298D01*
X37611Y233258D01*
X37497Y233225D01*
X37463Y233204D01*
X37424Y233191D01*
X37326Y233124D01*
X37223Y233063D01*
X37178Y233023D01*
X37161Y233012D01*
X37148Y232997D01*
X37103Y232957D01*
X37039Y232894D01*
X36979Y232816D01*
X36911Y232743D01*
X36882Y232690D01*
X36845Y232643D01*
X36805Y232552D01*
X36757Y232465D01*
X36742Y232406D01*
X36718Y232351D01*
X36703Y232253D01*
X36678Y232157D01*
X36672Y232057D01*
X36668Y232037D01*
X36670Y232024D01*
X36668Y231996D01*
X36668Y203631D01*
X36680Y203533D01*
X36683Y203434D01*
X36700Y203375D01*
X36708Y203315D01*
X36744Y203223D01*
X36772Y203128D01*
X36802Y203076D01*
X36825Y203020D01*
X36883Y202940D01*
X36933Y202854D01*
X36999Y202779D01*
X37011Y202762D01*
X37021Y202754D01*
X37039Y202733D01*
X67348Y172424D01*
X67427Y172364D01*
X67499Y172296D01*
X67552Y172267D01*
X67600Y172230D01*
X67691Y172190D01*
X67777Y172142D01*
X67836Y172127D01*
X67891Y172103D01*
X67989Y172088D01*
X68085Y172063D01*
X68185Y172057D01*
X68205Y172053D01*
X68218Y172055D01*
X68246Y172053D01*
X70005Y172053D01*
X71862Y171284D01*
X73284Y169862D01*
X74053Y168005D01*
X74053Y167144D01*
X74065Y167046D01*
X74068Y166947D01*
X74085Y166888D01*
X74093Y166828D01*
X74129Y166736D01*
X74157Y166641D01*
X74187Y166589D01*
X74210Y166533D01*
X74268Y166453D01*
X74318Y166367D01*
X74384Y166292D01*
X74396Y166275D01*
X74406Y166267D01*
X74424Y166246D01*
X81303Y159368D01*
X81303Y120632D01*
X24874Y64204D01*
X24814Y64125D01*
X24746Y64053D01*
X24717Y64000D01*
X24680Y63952D01*
X24640Y63861D01*
X24592Y63775D01*
X24577Y63716D01*
X24553Y63661D01*
X24538Y63563D01*
X24513Y63467D01*
X24507Y63367D01*
X24503Y63346D01*
X24505Y63334D01*
X24503Y63306D01*
X24503Y59078D01*
X24506Y59048D01*
X24504Y59019D01*
X24526Y58891D01*
X24543Y58762D01*
X24553Y58735D01*
X24558Y58706D01*
X24612Y58587D01*
X24660Y58466D01*
X24677Y58443D01*
X24689Y58416D01*
X24770Y58314D01*
X24846Y58209D01*
X24869Y58190D01*
X24888Y58167D01*
X24991Y58089D01*
X25091Y58006D01*
X25118Y57994D01*
X25142Y57976D01*
X25286Y57905D01*
X27531Y56975D01*
X30675Y53831D01*
X32377Y49723D01*
X32377Y45277D01*
X30675Y41169D01*
X27531Y38025D01*
X23236Y36246D01*
X23124Y36182D01*
X23009Y36123D01*
X22986Y36103D01*
X22960Y36088D01*
X22867Y35998D01*
X22770Y35913D01*
X22753Y35888D01*
X22732Y35867D01*
X22664Y35757D01*
X22591Y35650D01*
X22581Y35622D01*
X22565Y35596D01*
X22527Y35473D01*
X22483Y35351D01*
X22481Y35321D01*
X22472Y35292D01*
X22466Y35163D01*
X22453Y35034D01*
X22458Y35004D01*
X22457Y34974D01*
X22483Y34848D01*
X22503Y34720D01*
X22515Y34692D01*
X22521Y34663D01*
X22578Y34546D01*
X22629Y34428D01*
X22647Y34404D01*
X22661Y34377D01*
X22744Y34279D01*
X22824Y34177D01*
X22847Y34158D01*
X22867Y34135D01*
X22973Y34061D01*
X23075Y33981D01*
X23102Y33969D01*
X23127Y33952D01*
X23248Y33906D01*
X23366Y33855D01*
X23408Y33845D01*
X23424Y33839D01*
X23446Y33837D01*
X23523Y33820D01*
X23996Y33745D01*
X25783Y33164D01*
X27457Y32311D01*
X28978Y31206D01*
X30306Y29878D01*
X31411Y28357D01*
X32264Y26683D01*
X32845Y24896D01*
X32885Y24639D01*
X22470Y24639D01*
X22352Y24624D01*
X22233Y24617D01*
X22195Y24604D01*
X22155Y24599D01*
X22044Y24556D01*
X21931Y24519D01*
X21897Y24497D01*
X21859Y24482D01*
X21763Y24412D01*
X21662Y24349D01*
X21634Y24319D01*
X21602Y24295D01*
X21526Y24204D01*
X21444Y24117D01*
X21425Y24082D01*
X21399Y24051D01*
X21348Y23943D01*
X21291Y23839D01*
X21280Y23799D01*
X21263Y23763D01*
X21241Y23646D01*
X21211Y23531D01*
X21207Y23470D01*
X21203Y23450D01*
X21205Y23430D01*
X21201Y23370D01*
X21201Y22099D01*
X19930Y22099D01*
X19812Y22084D01*
X19693Y22077D01*
X19655Y22064D01*
X19614Y22059D01*
X19504Y22015D01*
X19391Y21979D01*
X19356Y21957D01*
X19319Y21942D01*
X19223Y21872D01*
X19122Y21809D01*
X19094Y21779D01*
X19061Y21755D01*
X18986Y21664D01*
X18904Y21577D01*
X18884Y21542D01*
X18859Y21510D01*
X18808Y21403D01*
X18750Y21298D01*
X18740Y21259D01*
X18723Y21223D01*
X18701Y21106D01*
X18671Y20991D01*
X18667Y20930D01*
X18663Y20910D01*
X18665Y20890D01*
X18661Y20830D01*
X18661Y10415D01*
X18404Y10455D01*
X16617Y11036D01*
X14943Y11889D01*
X13422Y12994D01*
X12094Y14322D01*
X10989Y15843D01*
X10136Y17517D01*
X10068Y17725D01*
X10017Y17834D01*
X9972Y17946D01*
X9949Y17978D01*
X9933Y18013D01*
X9856Y18106D01*
X9785Y18203D01*
X9755Y18228D01*
X9730Y18258D01*
X9633Y18329D01*
X9540Y18406D01*
X9505Y18422D01*
X9473Y18445D01*
X9361Y18490D01*
X9252Y18541D01*
X9214Y18548D01*
X9177Y18563D01*
X9058Y18578D01*
X8939Y18600D01*
X8901Y18598D01*
X8862Y18603D01*
X8742Y18588D01*
X8622Y18580D01*
X8585Y18568D01*
X8546Y18563D01*
X8434Y18519D01*
X8320Y18481D01*
X8287Y18460D01*
X8251Y18446D01*
X8153Y18375D01*
X8051Y18311D01*
X8025Y18282D01*
X7993Y18259D01*
X7916Y18167D01*
X7834Y18079D01*
X7815Y18044D01*
X7790Y18014D01*
X7739Y17906D01*
X7681Y17800D01*
X7671Y17762D01*
X7654Y17727D01*
X7632Y17609D01*
X7602Y17492D01*
X7598Y17434D01*
X7594Y17415D01*
X7596Y17394D01*
X7592Y17331D01*
X7614Y3866D01*
X7630Y3746D01*
X7638Y3626D01*
X7650Y3589D01*
X7655Y3550D01*
X7699Y3438D01*
X7737Y3324D01*
X7758Y3291D01*
X7772Y3255D01*
X7843Y3157D01*
X7908Y3056D01*
X7948Y3014D01*
X7959Y2998D01*
X7975Y2985D01*
X8019Y2939D01*
X14193Y-2809D01*
X14206Y-2819D01*
X14297Y-2896D01*
X33473Y-17251D01*
X33478Y-17254D01*
X33483Y-17259D01*
X33486Y-17260D01*
X33489Y-17263D01*
X33625Y-17349D01*
X54649Y-28829D01*
X54659Y-28833D01*
X54667Y-28839D01*
X54814Y-28904D01*
X77257Y-37275D01*
X77267Y-37278D01*
X77276Y-37282D01*
X77431Y-37326D01*
X100837Y-42418D01*
X100847Y-42419D01*
X100857Y-42422D01*
X101017Y-42444D01*
X124909Y-44153D01*
X124920Y-44152D01*
X124930Y-44154D01*
X125091Y-44153D01*
G37*
G36*
X182467Y200927D02*
X182467Y200927D01*
X182566Y200930D01*
X182625Y200947D01*
X182685Y200955D01*
X182777Y200991D01*
X182872Y201019D01*
X182924Y201049D01*
X182980Y201072D01*
X183060Y201130D01*
X183146Y201180D01*
X183221Y201246D01*
X183238Y201258D01*
X183246Y201268D01*
X183267Y201286D01*
X185714Y203733D01*
X185714Y203734D01*
X186452Y204472D01*
X186483Y204511D01*
X186520Y204545D01*
X186580Y204637D01*
X186647Y204723D01*
X186667Y204769D01*
X186694Y204811D01*
X186730Y204914D01*
X186774Y205015D01*
X186782Y205064D01*
X186798Y205111D01*
X186806Y205221D01*
X186824Y205329D01*
X186819Y205379D01*
X186823Y205428D01*
X186804Y205537D01*
X186794Y205646D01*
X186777Y205693D01*
X186769Y205742D01*
X186723Y205842D01*
X186686Y205945D01*
X186658Y205986D01*
X186638Y206032D01*
X186569Y206118D01*
X186508Y206208D01*
X186470Y206241D01*
X186439Y206280D01*
X186351Y206346D01*
X186269Y206419D01*
X186225Y206442D01*
X186185Y206471D01*
X186041Y206542D01*
X183669Y207525D01*
X180525Y210669D01*
X179595Y212914D01*
X179580Y212939D01*
X179571Y212967D01*
X179502Y213077D01*
X179437Y213190D01*
X179417Y213211D01*
X179401Y213236D01*
X179306Y213325D01*
X179216Y213418D01*
X179191Y213434D01*
X179169Y213454D01*
X179056Y213517D01*
X178945Y213585D01*
X178917Y213593D01*
X178891Y213608D01*
X178765Y213640D01*
X178641Y213678D01*
X178612Y213680D01*
X178583Y213687D01*
X178422Y213697D01*
X127369Y213697D01*
X127270Y213685D01*
X127171Y213682D01*
X127113Y213665D01*
X127053Y213657D01*
X126961Y213621D01*
X126866Y213593D01*
X126814Y213563D01*
X126757Y213540D01*
X126677Y213482D01*
X126592Y213432D01*
X126517Y213366D01*
X126500Y213354D01*
X126492Y213344D01*
X126471Y213326D01*
X125862Y212716D01*
X124005Y211947D01*
X121995Y211947D01*
X120138Y212716D01*
X119529Y213326D01*
X119451Y213386D01*
X119378Y213454D01*
X119325Y213483D01*
X119278Y213520D01*
X119187Y213560D01*
X119100Y213608D01*
X119041Y213623D01*
X118986Y213647D01*
X118888Y213662D01*
X118792Y213687D01*
X118692Y213693D01*
X118672Y213697D01*
X118659Y213695D01*
X118631Y213697D01*
X93691Y213697D01*
X85813Y221576D01*
X85734Y221636D01*
X85662Y221704D01*
X85609Y221733D01*
X85561Y221770D01*
X85470Y221810D01*
X85384Y221858D01*
X85325Y221873D01*
X85270Y221897D01*
X85172Y221912D01*
X85076Y221937D01*
X84976Y221943D01*
X84955Y221947D01*
X84943Y221945D01*
X84915Y221947D01*
X84054Y221947D01*
X82197Y222716D01*
X80775Y224138D01*
X80006Y225995D01*
X80006Y228005D01*
X80775Y229862D01*
X82197Y231284D01*
X84054Y232053D01*
X86064Y232053D01*
X87921Y231284D01*
X89343Y229862D01*
X90112Y228005D01*
X90112Y227144D01*
X90124Y227046D01*
X90127Y226947D01*
X90144Y226888D01*
X90152Y226828D01*
X90188Y226736D01*
X90216Y226641D01*
X90246Y226589D01*
X90269Y226533D01*
X90327Y226453D01*
X90377Y226367D01*
X90443Y226292D01*
X90455Y226275D01*
X90465Y226267D01*
X90483Y226246D01*
X96055Y220674D01*
X96134Y220614D01*
X96206Y220546D01*
X96259Y220517D01*
X96307Y220480D01*
X96398Y220440D01*
X96484Y220392D01*
X96543Y220377D01*
X96598Y220353D01*
X96696Y220338D01*
X96792Y220313D01*
X96892Y220307D01*
X96913Y220303D01*
X96925Y220305D01*
X96953Y220303D01*
X118631Y220303D01*
X118730Y220315D01*
X118829Y220318D01*
X118887Y220335D01*
X118947Y220343D01*
X119039Y220379D01*
X119134Y220407D01*
X119186Y220437D01*
X119243Y220460D01*
X119323Y220518D01*
X119408Y220568D01*
X119483Y220634D01*
X119500Y220646D01*
X119508Y220656D01*
X119529Y220674D01*
X120138Y221284D01*
X121995Y222053D01*
X124005Y222053D01*
X125862Y221284D01*
X126471Y220674D01*
X126549Y220614D01*
X126622Y220546D01*
X126675Y220517D01*
X126722Y220480D01*
X126813Y220440D01*
X126900Y220392D01*
X126959Y220377D01*
X127014Y220353D01*
X127112Y220338D01*
X127208Y220313D01*
X127308Y220307D01*
X127328Y220303D01*
X127341Y220305D01*
X127369Y220303D01*
X178422Y220303D01*
X178452Y220306D01*
X178481Y220304D01*
X178609Y220326D01*
X178738Y220343D01*
X178765Y220353D01*
X178794Y220358D01*
X178913Y220412D01*
X179034Y220460D01*
X179057Y220477D01*
X179084Y220489D01*
X179186Y220570D01*
X179291Y220646D01*
X179310Y220669D01*
X179333Y220688D01*
X179411Y220791D01*
X179494Y220891D01*
X179506Y220918D01*
X179524Y220942D01*
X179595Y221086D01*
X180525Y223331D01*
X183669Y226475D01*
X185914Y227405D01*
X185939Y227420D01*
X185967Y227429D01*
X186077Y227498D01*
X186190Y227563D01*
X186211Y227583D01*
X186236Y227599D01*
X186325Y227694D01*
X186418Y227784D01*
X186434Y227809D01*
X186454Y227831D01*
X186517Y227944D01*
X186585Y228055D01*
X186593Y228083D01*
X186608Y228109D01*
X186640Y228235D01*
X186678Y228359D01*
X186680Y228388D01*
X186687Y228417D01*
X186697Y228578D01*
X186697Y251631D01*
X186685Y251730D01*
X186682Y251829D01*
X186665Y251887D01*
X186657Y251947D01*
X186621Y252039D01*
X186593Y252134D01*
X186563Y252186D01*
X186540Y252243D01*
X186482Y252323D01*
X186432Y252408D01*
X186366Y252483D01*
X186354Y252500D01*
X186344Y252508D01*
X186326Y252529D01*
X185716Y253138D01*
X184947Y254995D01*
X184947Y255856D01*
X184935Y255954D01*
X184932Y256053D01*
X184915Y256112D01*
X184907Y256172D01*
X184871Y256264D01*
X184843Y256359D01*
X184813Y256411D01*
X184790Y256467D01*
X184732Y256547D01*
X184682Y256633D01*
X184616Y256708D01*
X184604Y256725D01*
X184594Y256733D01*
X184576Y256754D01*
X169697Y271632D01*
X169697Y282631D01*
X169685Y282730D01*
X169682Y282829D01*
X169665Y282887D01*
X169657Y282947D01*
X169621Y283039D01*
X169593Y283134D01*
X169563Y283186D01*
X169540Y283243D01*
X169482Y283323D01*
X169432Y283408D01*
X169366Y283483D01*
X169354Y283500D01*
X169344Y283508D01*
X169326Y283529D01*
X168716Y284138D01*
X167947Y285995D01*
X167947Y288005D01*
X168716Y289862D01*
X170138Y291284D01*
X171995Y292053D01*
X174005Y292053D01*
X175862Y291284D01*
X177283Y289862D01*
X177381Y289626D01*
X177416Y289565D01*
X177442Y289500D01*
X177494Y289428D01*
X177539Y289350D01*
X177587Y289299D01*
X177628Y289243D01*
X177698Y289186D01*
X177760Y289121D01*
X177820Y289085D01*
X177873Y289040D01*
X177955Y289002D01*
X178031Y288955D01*
X178098Y288934D01*
X178161Y288905D01*
X178249Y288888D01*
X178335Y288861D01*
X178405Y288858D01*
X178474Y288845D01*
X178563Y288850D01*
X178653Y288846D01*
X178721Y288860D01*
X178791Y288865D01*
X178876Y288892D01*
X178964Y288910D01*
X179027Y288941D01*
X179093Y288963D01*
X179169Y289011D01*
X179250Y289050D01*
X179303Y289095D01*
X179362Y289133D01*
X179424Y289198D01*
X179492Y289256D01*
X179532Y289313D01*
X179580Y289364D01*
X179623Y289443D01*
X179675Y289516D01*
X179700Y289582D01*
X179734Y289643D01*
X179756Y289730D01*
X179788Y289814D01*
X179796Y289883D01*
X179813Y289951D01*
X179823Y290111D01*
X179823Y290223D01*
X181525Y294331D01*
X184669Y297475D01*
X188777Y299177D01*
X193223Y299177D01*
X197331Y297475D01*
X200475Y294331D01*
X202177Y290223D01*
X202177Y285777D01*
X200475Y281669D01*
X197331Y278525D01*
X193223Y276823D01*
X188777Y276823D01*
X184669Y278525D01*
X181525Y281669D01*
X180065Y285192D01*
X179997Y285313D01*
X179932Y285436D01*
X179918Y285451D01*
X179908Y285468D01*
X179811Y285568D01*
X179718Y285671D01*
X179701Y285682D01*
X179687Y285697D01*
X179568Y285769D01*
X179452Y285846D01*
X179433Y285852D01*
X179416Y285863D01*
X179283Y285904D01*
X179151Y285949D01*
X179131Y285951D01*
X179112Y285957D01*
X178973Y285963D01*
X178834Y285974D01*
X178814Y285971D01*
X178794Y285972D01*
X178658Y285944D01*
X178521Y285920D01*
X178502Y285912D01*
X178482Y285908D01*
X178357Y285846D01*
X178231Y285789D01*
X178215Y285777D01*
X178197Y285768D01*
X178091Y285677D01*
X177982Y285591D01*
X177970Y285575D01*
X177955Y285561D01*
X177875Y285448D01*
X177791Y285337D01*
X177779Y285311D01*
X177772Y285301D01*
X177764Y285282D01*
X177720Y285192D01*
X177284Y284138D01*
X176674Y283529D01*
X176614Y283451D01*
X176546Y283378D01*
X176517Y283325D01*
X176480Y283278D01*
X176440Y283187D01*
X176392Y283100D01*
X176377Y283041D01*
X176353Y282986D01*
X176338Y282888D01*
X176313Y282792D01*
X176307Y282692D01*
X176303Y282672D01*
X176305Y282659D01*
X176303Y282631D01*
X176303Y274894D01*
X176315Y274796D01*
X176318Y274697D01*
X176335Y274638D01*
X176343Y274578D01*
X176379Y274486D01*
X176407Y274391D01*
X176437Y274339D01*
X176460Y274283D01*
X176518Y274203D01*
X176568Y274117D01*
X176634Y274042D01*
X176646Y274025D01*
X176656Y274017D01*
X176674Y273996D01*
X189246Y261424D01*
X189325Y261364D01*
X189397Y261296D01*
X189450Y261267D01*
X189498Y261230D01*
X189589Y261190D01*
X189675Y261142D01*
X189734Y261127D01*
X189789Y261103D01*
X189887Y261088D01*
X189983Y261063D01*
X190083Y261057D01*
X190104Y261053D01*
X190116Y261055D01*
X190144Y261053D01*
X191005Y261053D01*
X192862Y260284D01*
X194284Y258862D01*
X195053Y257005D01*
X195053Y254995D01*
X194284Y253138D01*
X193674Y252529D01*
X193614Y252451D01*
X193546Y252378D01*
X193517Y252325D01*
X193480Y252278D01*
X193440Y252187D01*
X193392Y252100D01*
X193377Y252041D01*
X193353Y251986D01*
X193338Y251888D01*
X193313Y251792D01*
X193307Y251692D01*
X193303Y251672D01*
X193305Y251659D01*
X193303Y251631D01*
X193303Y228578D01*
X193306Y228548D01*
X193304Y228519D01*
X193326Y228391D01*
X193343Y228262D01*
X193353Y228235D01*
X193358Y228206D01*
X193412Y228087D01*
X193460Y227966D01*
X193477Y227943D01*
X193489Y227916D01*
X193570Y227814D01*
X193646Y227709D01*
X193669Y227690D01*
X193688Y227667D01*
X193791Y227589D01*
X193891Y227506D01*
X193918Y227494D01*
X193942Y227476D01*
X194086Y227405D01*
X196331Y226475D01*
X199475Y223331D01*
X201177Y219223D01*
X201177Y214754D01*
X201150Y214693D01*
X201136Y214604D01*
X201112Y214518D01*
X201111Y214448D01*
X201100Y214379D01*
X201109Y214289D01*
X201107Y214200D01*
X201124Y214132D01*
X201130Y214062D01*
X201161Y213978D01*
X201182Y213890D01*
X201214Y213829D01*
X201238Y213763D01*
X201288Y213689D01*
X201330Y213609D01*
X201377Y213558D01*
X201416Y213500D01*
X201484Y213441D01*
X201544Y213374D01*
X201603Y213336D01*
X201655Y213289D01*
X201735Y213249D01*
X201810Y213199D01*
X201876Y213177D01*
X201938Y213145D01*
X202026Y213125D01*
X202111Y213096D01*
X202180Y213090D01*
X202248Y213075D01*
X202338Y213078D01*
X202428Y213071D01*
X202496Y213083D01*
X202566Y213085D01*
X202653Y213110D01*
X202741Y213125D01*
X202805Y213154D01*
X202872Y213173D01*
X202949Y213219D01*
X203031Y213256D01*
X203086Y213299D01*
X203146Y213335D01*
X203267Y213441D01*
X204493Y214668D01*
X234534Y214668D01*
X234652Y214683D01*
X234771Y214690D01*
X234809Y214703D01*
X234850Y214708D01*
X234960Y214751D01*
X235073Y214788D01*
X235108Y214810D01*
X235145Y214825D01*
X235241Y214894D01*
X235342Y214958D01*
X235370Y214988D01*
X235403Y215011D01*
X235479Y215103D01*
X235560Y215190D01*
X235580Y215225D01*
X235605Y215256D01*
X235656Y215364D01*
X235714Y215468D01*
X235724Y215508D01*
X235741Y215544D01*
X235763Y215661D01*
X235793Y215776D01*
X235797Y215836D01*
X235801Y215856D01*
X235799Y215877D01*
X235803Y215937D01*
X235803Y323469D01*
X235788Y323587D01*
X235781Y323706D01*
X235768Y323744D01*
X235763Y323785D01*
X235720Y323895D01*
X235683Y324008D01*
X235661Y324043D01*
X235646Y324080D01*
X235577Y324176D01*
X235513Y324277D01*
X235483Y324305D01*
X235460Y324338D01*
X235368Y324414D01*
X235281Y324495D01*
X235246Y324515D01*
X235215Y324540D01*
X235107Y324591D01*
X235003Y324649D01*
X234963Y324659D01*
X234927Y324676D01*
X234810Y324698D01*
X234695Y324728D01*
X234635Y324732D01*
X234615Y324736D01*
X234594Y324734D01*
X234534Y324738D01*
X229772Y324738D01*
X194988Y359522D01*
X194894Y359595D01*
X194805Y359674D01*
X194769Y359692D01*
X194737Y359717D01*
X194627Y359765D01*
X194521Y359819D01*
X194482Y359827D01*
X194445Y359844D01*
X194327Y359862D01*
X194211Y359888D01*
X194171Y359887D01*
X194131Y359893D01*
X194012Y359882D01*
X193893Y359879D01*
X193854Y359867D01*
X193814Y359864D01*
X193702Y359823D01*
X193588Y359790D01*
X193553Y359770D01*
X193515Y359756D01*
X193416Y359689D01*
X193314Y359629D01*
X193269Y359589D01*
X193252Y359577D01*
X193238Y359562D01*
X193193Y359522D01*
X183167Y349496D01*
X183124Y349441D01*
X183074Y349392D01*
X183027Y349316D01*
X182972Y349245D01*
X182944Y349181D01*
X182908Y349121D01*
X182881Y349036D01*
X182846Y348953D01*
X182835Y348884D01*
X182814Y348817D01*
X182810Y348728D01*
X182796Y348639D01*
X182802Y348569D01*
X182799Y348500D01*
X182817Y348412D01*
X182826Y348322D01*
X182849Y348257D01*
X182863Y348188D01*
X182903Y348107D01*
X182933Y348023D01*
X182972Y347965D01*
X183003Y347903D01*
X183061Y347834D01*
X183112Y347760D01*
X183164Y347714D01*
X183209Y347661D01*
X183283Y347609D01*
X183350Y347549D01*
X183412Y347518D01*
X183469Y347477D01*
X183553Y347446D01*
X183633Y347405D01*
X183701Y347389D01*
X183767Y347365D01*
X183856Y347355D01*
X183944Y347335D01*
X184013Y347337D01*
X184083Y347329D01*
X184172Y347342D01*
X184262Y347345D01*
X184329Y347364D01*
X184398Y347374D01*
X184550Y347426D01*
X188777Y349177D01*
X193223Y349177D01*
X197331Y347475D01*
X200475Y344331D01*
X202177Y340223D01*
X202177Y335777D01*
X200475Y331669D01*
X197331Y328525D01*
X193223Y326823D01*
X188777Y326823D01*
X184669Y328525D01*
X181525Y331669D01*
X179823Y335777D01*
X179823Y340223D01*
X181574Y344450D01*
X181592Y344517D01*
X181620Y344581D01*
X181634Y344670D01*
X181658Y344757D01*
X181659Y344826D01*
X181670Y344895D01*
X181662Y344985D01*
X181663Y345075D01*
X181647Y345143D01*
X181640Y345212D01*
X181610Y345296D01*
X181589Y345384D01*
X181556Y345446D01*
X181533Y345511D01*
X181482Y345586D01*
X181440Y345665D01*
X181393Y345717D01*
X181354Y345774D01*
X181287Y345834D01*
X181226Y345900D01*
X181168Y345939D01*
X181116Y345985D01*
X181036Y346026D01*
X180961Y346075D01*
X180894Y346098D01*
X180832Y346130D01*
X180745Y346149D01*
X180660Y346178D01*
X180590Y346184D01*
X180522Y346199D01*
X180432Y346196D01*
X180343Y346204D01*
X180274Y346192D01*
X180204Y346190D01*
X180118Y346165D01*
X180029Y346149D01*
X179966Y346121D01*
X179899Y346101D01*
X179821Y346055D01*
X179739Y346019D01*
X179685Y345975D01*
X179625Y345940D01*
X179504Y345833D01*
X178368Y344697D01*
X98216Y344697D01*
X98187Y344694D01*
X98157Y344696D01*
X98029Y344674D01*
X97901Y344657D01*
X97873Y344647D01*
X97844Y344642D01*
X97726Y344588D01*
X97605Y344540D01*
X97581Y344523D01*
X97554Y344511D01*
X97453Y344430D01*
X97348Y344354D01*
X97329Y344331D01*
X97306Y344312D01*
X97228Y344209D01*
X97145Y344109D01*
X97132Y344082D01*
X97114Y344058D01*
X97044Y343914D01*
X96284Y342079D01*
X95788Y341583D01*
X95715Y341489D01*
X95636Y341400D01*
X95618Y341364D01*
X95593Y341332D01*
X95546Y341223D01*
X95492Y341117D01*
X95483Y341077D01*
X95467Y341040D01*
X95448Y340922D01*
X95422Y340806D01*
X95423Y340766D01*
X95417Y340726D01*
X95428Y340607D01*
X95432Y340488D01*
X95443Y340450D01*
X95447Y340410D01*
X95487Y340297D01*
X95520Y340183D01*
X95541Y340148D01*
X95554Y340110D01*
X95621Y340012D01*
X95682Y339909D01*
X95721Y339864D01*
X95733Y339847D01*
X95748Y339834D01*
X95788Y339788D01*
X95843Y339733D01*
X99537Y336039D01*
X99615Y335979D01*
X99687Y335911D01*
X99740Y335882D01*
X99788Y335845D01*
X99879Y335805D01*
X99966Y335757D01*
X100024Y335742D01*
X100080Y335718D01*
X100178Y335703D01*
X100274Y335678D01*
X100374Y335672D01*
X100394Y335668D01*
X100407Y335670D01*
X100435Y335668D01*
X156813Y335668D01*
X156822Y335669D01*
X156831Y335668D01*
X156980Y335689D01*
X157129Y335708D01*
X157137Y335711D01*
X157146Y335712D01*
X157299Y335764D01*
X157995Y336053D01*
X160005Y336053D01*
X161862Y335284D01*
X163284Y333862D01*
X164053Y332005D01*
X164053Y329995D01*
X163284Y328138D01*
X161862Y326716D01*
X160005Y325947D01*
X157995Y325947D01*
X156138Y326716D01*
X154716Y328138D01*
X154132Y329549D01*
X154117Y329574D01*
X154108Y329602D01*
X154039Y329712D01*
X153975Y329825D01*
X153954Y329846D01*
X153938Y329871D01*
X153843Y329960D01*
X153753Y330053D01*
X153728Y330069D01*
X153707Y330089D01*
X153593Y330152D01*
X153482Y330220D01*
X153454Y330228D01*
X153428Y330243D01*
X153302Y330275D01*
X153178Y330313D01*
X153149Y330315D01*
X153120Y330322D01*
X152959Y330332D01*
X131858Y330332D01*
X131809Y330326D01*
X131759Y330328D01*
X131652Y330306D01*
X131543Y330292D01*
X131496Y330274D01*
X131448Y330264D01*
X131349Y330216D01*
X131247Y330175D01*
X131207Y330146D01*
X131162Y330124D01*
X131079Y330053D01*
X130990Y329989D01*
X130958Y329950D01*
X130920Y329918D01*
X130857Y329828D01*
X130787Y329744D01*
X130766Y329699D01*
X130737Y329658D01*
X130698Y329555D01*
X130651Y329456D01*
X130642Y329407D01*
X130624Y329361D01*
X130612Y329251D01*
X130592Y329144D01*
X130595Y329094D01*
X130589Y329045D01*
X130605Y328936D01*
X130611Y328826D01*
X130627Y328779D01*
X130634Y328730D01*
X130686Y328577D01*
X131259Y327192D01*
X131258Y327156D01*
X131280Y327049D01*
X131294Y326940D01*
X131312Y326894D01*
X131322Y326845D01*
X131370Y326746D01*
X131411Y326644D01*
X131440Y326604D01*
X131462Y326559D01*
X131533Y326476D01*
X131597Y326387D01*
X131636Y326355D01*
X131668Y326317D01*
X131758Y326254D01*
X131842Y326184D01*
X131887Y326163D01*
X131928Y326134D01*
X132031Y326095D01*
X132130Y326049D01*
X132179Y326039D01*
X132226Y326022D01*
X132335Y326009D01*
X132442Y325989D01*
X132492Y325992D01*
X132542Y325986D01*
X132651Y326002D01*
X132760Y326009D01*
X132807Y326024D01*
X132857Y326031D01*
X132921Y326053D01*
X134946Y326053D01*
X136803Y325284D01*
X138225Y323862D01*
X138994Y322005D01*
X138994Y320937D01*
X139009Y320819D01*
X139016Y320700D01*
X139029Y320662D01*
X139034Y320621D01*
X139077Y320511D01*
X139114Y320398D01*
X139136Y320363D01*
X139151Y320326D01*
X139220Y320230D01*
X139284Y320129D01*
X139314Y320101D01*
X139337Y320068D01*
X139429Y319992D01*
X139516Y319911D01*
X139551Y319891D01*
X139582Y319866D01*
X139690Y319815D01*
X139794Y319757D01*
X139834Y319747D01*
X139870Y319730D01*
X139987Y319708D01*
X140102Y319678D01*
X140162Y319674D01*
X140182Y319670D01*
X140203Y319672D01*
X140263Y319668D01*
X142996Y319668D01*
X143095Y319680D01*
X143194Y319683D01*
X143252Y319700D01*
X143312Y319708D01*
X143404Y319744D01*
X143499Y319772D01*
X143551Y319802D01*
X143608Y319825D01*
X143688Y319883D01*
X143773Y319933D01*
X143848Y319999D01*
X143865Y320011D01*
X143873Y320021D01*
X143894Y320039D01*
X145138Y321284D01*
X146995Y322053D01*
X149005Y322053D01*
X150862Y321284D01*
X152284Y319862D01*
X153053Y318005D01*
X153053Y315995D01*
X152284Y314138D01*
X150862Y312716D01*
X149005Y311947D01*
X146995Y311947D01*
X145138Y312716D01*
X143894Y313961D01*
X143816Y314021D01*
X143743Y314089D01*
X143690Y314118D01*
X143643Y314155D01*
X143552Y314195D01*
X143465Y314243D01*
X143406Y314258D01*
X143351Y314282D01*
X143253Y314297D01*
X143157Y314322D01*
X143057Y314328D01*
X143037Y314332D01*
X143024Y314330D01*
X142996Y314332D01*
X141631Y314332D01*
X141533Y314320D01*
X141434Y314317D01*
X141375Y314300D01*
X141315Y314292D01*
X141223Y314256D01*
X141128Y314228D01*
X141076Y314198D01*
X141020Y314175D01*
X140940Y314117D01*
X140854Y314067D01*
X140779Y314001D01*
X140762Y313989D01*
X140754Y313979D01*
X140733Y313961D01*
X139105Y312332D01*
X73895Y312332D01*
X68593Y317635D01*
X66584Y319643D01*
X66490Y319716D01*
X66401Y319795D01*
X66365Y319813D01*
X66333Y319838D01*
X66223Y319886D01*
X66117Y319940D01*
X66078Y319949D01*
X66041Y319965D01*
X65923Y319983D01*
X65807Y320009D01*
X65767Y320008D01*
X65727Y320014D01*
X65608Y320003D01*
X65489Y320000D01*
X65450Y319988D01*
X65410Y319985D01*
X65298Y319944D01*
X65184Y319911D01*
X65149Y319891D01*
X65111Y319877D01*
X65012Y319810D01*
X64910Y319750D01*
X64865Y319710D01*
X64848Y319698D01*
X64834Y319683D01*
X64789Y319643D01*
X64039Y318894D01*
X63979Y318816D01*
X63911Y318743D01*
X63882Y318690D01*
X63845Y318643D01*
X63805Y318552D01*
X63757Y318465D01*
X63742Y318406D01*
X63718Y318351D01*
X63703Y318253D01*
X63678Y318157D01*
X63672Y318057D01*
X63668Y318037D01*
X63670Y318024D01*
X63668Y317996D01*
X63668Y300631D01*
X63680Y300533D01*
X63683Y300434D01*
X63700Y300375D01*
X63708Y300315D01*
X63744Y300223D01*
X63772Y300128D01*
X63802Y300076D01*
X63825Y300020D01*
X63883Y299940D01*
X63933Y299854D01*
X63999Y299779D01*
X64011Y299762D01*
X64021Y299754D01*
X64039Y299733D01*
X73348Y290424D01*
X73427Y290364D01*
X73499Y290296D01*
X73552Y290267D01*
X73600Y290230D01*
X73691Y290190D01*
X73777Y290142D01*
X73836Y290127D01*
X73891Y290103D01*
X73989Y290088D01*
X74085Y290063D01*
X74185Y290057D01*
X74205Y290053D01*
X74218Y290055D01*
X74246Y290053D01*
X76005Y290053D01*
X77862Y289284D01*
X79284Y287862D01*
X80053Y286005D01*
X80053Y283995D01*
X79284Y282138D01*
X77862Y280716D01*
X76005Y279947D01*
X73995Y279947D01*
X72138Y280716D01*
X70716Y282138D01*
X69947Y283995D01*
X69947Y285754D01*
X69935Y285852D01*
X69932Y285951D01*
X69915Y286010D01*
X69907Y286070D01*
X69871Y286162D01*
X69843Y286257D01*
X69813Y286309D01*
X69790Y286365D01*
X69732Y286445D01*
X69682Y286531D01*
X69616Y286606D01*
X69604Y286623D01*
X69594Y286631D01*
X69576Y286652D01*
X58332Y297895D01*
X58332Y317996D01*
X58320Y318095D01*
X58317Y318194D01*
X58300Y318252D01*
X58292Y318312D01*
X58256Y318404D01*
X58228Y318499D01*
X58198Y318551D01*
X58175Y318608D01*
X58117Y318688D01*
X58067Y318773D01*
X58001Y318848D01*
X57989Y318865D01*
X57979Y318873D01*
X57961Y318894D01*
X56716Y320138D01*
X56504Y320651D01*
X56479Y320694D01*
X56462Y320741D01*
X56401Y320832D01*
X56346Y320927D01*
X56312Y320963D01*
X56284Y321004D01*
X56202Y321077D01*
X56125Y321156D01*
X56083Y321182D01*
X56045Y321215D01*
X55948Y321265D01*
X55854Y321322D01*
X55806Y321337D01*
X55762Y321359D01*
X55655Y321383D01*
X55550Y321416D01*
X55500Y321418D01*
X55452Y321429D01*
X55342Y321426D01*
X55232Y321431D01*
X55184Y321421D01*
X55134Y321419D01*
X55029Y321389D01*
X54921Y321367D01*
X54876Y321345D01*
X54829Y321331D01*
X54734Y321275D01*
X54635Y321227D01*
X54597Y321194D01*
X54555Y321169D01*
X54434Y321063D01*
X50098Y316728D01*
X50038Y316649D01*
X49970Y316577D01*
X49941Y316524D01*
X49904Y316476D01*
X49864Y316385D01*
X49816Y316299D01*
X49801Y316240D01*
X49777Y316184D01*
X49762Y316087D01*
X49737Y315991D01*
X49731Y315891D01*
X49727Y315870D01*
X49729Y315858D01*
X49727Y315830D01*
X49727Y272954D01*
X27039Y250267D01*
X26979Y250188D01*
X26911Y250116D01*
X26882Y250063D01*
X26845Y250015D01*
X26805Y249924D01*
X26757Y249838D01*
X26742Y249779D01*
X26718Y249724D01*
X26703Y249626D01*
X26678Y249530D01*
X26672Y249430D01*
X26668Y249410D01*
X26670Y249397D01*
X26668Y249369D01*
X26668Y242004D01*
X26680Y241905D01*
X26683Y241806D01*
X26700Y241748D01*
X26708Y241688D01*
X26744Y241596D01*
X26772Y241501D01*
X26802Y241449D01*
X26825Y241392D01*
X26883Y241312D01*
X26933Y241227D01*
X26999Y241152D01*
X27011Y241135D01*
X27021Y241127D01*
X27039Y241106D01*
X28103Y240043D01*
X28197Y239970D01*
X28286Y239891D01*
X28322Y239873D01*
X28354Y239848D01*
X28463Y239801D01*
X28569Y239747D01*
X28608Y239738D01*
X28646Y239722D01*
X28763Y239703D01*
X28879Y239677D01*
X28920Y239678D01*
X28960Y239672D01*
X29078Y239683D01*
X29197Y239687D01*
X29236Y239698D01*
X29276Y239702D01*
X29388Y239742D01*
X29503Y239775D01*
X29538Y239796D01*
X29576Y239809D01*
X29674Y239876D01*
X29777Y239937D01*
X29822Y239977D01*
X29839Y239988D01*
X29852Y240003D01*
X29898Y240043D01*
X31138Y241284D01*
X32995Y242053D01*
X35005Y242053D01*
X36862Y241284D01*
X38103Y240043D01*
X38197Y239970D01*
X38286Y239891D01*
X38322Y239873D01*
X38354Y239848D01*
X38463Y239801D01*
X38569Y239747D01*
X38609Y239738D01*
X38646Y239722D01*
X38763Y239703D01*
X38879Y239677D01*
X38920Y239678D01*
X38960Y239672D01*
X39079Y239683D01*
X39197Y239687D01*
X39236Y239698D01*
X39276Y239702D01*
X39388Y239742D01*
X39503Y239775D01*
X39538Y239796D01*
X39576Y239809D01*
X39674Y239876D01*
X39777Y239937D01*
X39822Y239977D01*
X39839Y239988D01*
X39852Y240003D01*
X39898Y240043D01*
X40138Y240284D01*
X41995Y241053D01*
X44005Y241053D01*
X45862Y240284D01*
X47284Y238862D01*
X48053Y237005D01*
X48053Y236144D01*
X48065Y236046D01*
X48068Y235947D01*
X48085Y235888D01*
X48093Y235828D01*
X48129Y235736D01*
X48157Y235641D01*
X48187Y235589D01*
X48210Y235533D01*
X48268Y235453D01*
X48318Y235367D01*
X48384Y235292D01*
X48396Y235275D01*
X48406Y235267D01*
X48424Y235246D01*
X57303Y226368D01*
X57303Y218643D01*
X57320Y218505D01*
X57333Y218366D01*
X57340Y218347D01*
X57343Y218327D01*
X57394Y218198D01*
X57441Y218067D01*
X57452Y218050D01*
X57460Y218031D01*
X57541Y217919D01*
X57620Y217804D01*
X57635Y217790D01*
X57646Y217774D01*
X57754Y217685D01*
X57858Y217593D01*
X57876Y217584D01*
X57891Y217571D01*
X58017Y217512D01*
X58141Y217449D01*
X58161Y217444D01*
X58179Y217436D01*
X58315Y217410D01*
X58452Y217379D01*
X58472Y217380D01*
X58491Y217376D01*
X58630Y217385D01*
X58769Y217389D01*
X58789Y217394D01*
X58809Y217396D01*
X58941Y217439D01*
X59075Y217477D01*
X59092Y217487D01*
X59111Y217494D01*
X59229Y217568D01*
X59331Y217628D01*
X61225Y218413D01*
X63235Y218413D01*
X65092Y217644D01*
X66514Y216222D01*
X67283Y214365D01*
X67283Y212606D01*
X67295Y212508D01*
X67298Y212409D01*
X67315Y212350D01*
X67323Y212290D01*
X67359Y212198D01*
X67387Y212103D01*
X67417Y212051D01*
X67440Y211995D01*
X67498Y211915D01*
X67548Y211829D01*
X67614Y211754D01*
X67626Y211737D01*
X67636Y211729D01*
X67654Y211708D01*
X71963Y207399D01*
X72042Y207339D01*
X72114Y207271D01*
X72167Y207242D01*
X72215Y207205D01*
X72306Y207165D01*
X72392Y207117D01*
X72451Y207102D01*
X72506Y207078D01*
X72604Y207063D01*
X72700Y207038D01*
X72800Y207032D01*
X72820Y207028D01*
X72833Y207030D01*
X72861Y207028D01*
X128342Y207028D01*
X134083Y201286D01*
X134162Y201226D01*
X134234Y201158D01*
X134287Y201129D01*
X134335Y201092D01*
X134426Y201052D01*
X134512Y201004D01*
X134571Y200989D01*
X134626Y200965D01*
X134724Y200950D01*
X134820Y200925D01*
X134920Y200919D01*
X134940Y200915D01*
X134953Y200917D01*
X134981Y200915D01*
X182369Y200915D01*
X182467Y200927D01*
G37*
%LPC*%
G36*
X123995Y226947D02*
X123995Y226947D01*
X122138Y227716D01*
X120894Y228961D01*
X120816Y229021D01*
X120743Y229089D01*
X120690Y229118D01*
X120643Y229155D01*
X120552Y229195D01*
X120465Y229243D01*
X120406Y229258D01*
X120351Y229282D01*
X120253Y229297D01*
X120157Y229322D01*
X120057Y229328D01*
X120037Y229332D01*
X120024Y229330D01*
X119996Y229332D01*
X107895Y229332D01*
X89332Y247895D01*
X89332Y282369D01*
X89320Y282467D01*
X89317Y282566D01*
X89300Y282625D01*
X89292Y282685D01*
X89256Y282777D01*
X89228Y282872D01*
X89198Y282924D01*
X89175Y282980D01*
X89117Y283060D01*
X89067Y283146D01*
X89001Y283221D01*
X88989Y283238D01*
X88979Y283246D01*
X88961Y283267D01*
X76652Y295576D01*
X76573Y295636D01*
X76501Y295704D01*
X76448Y295733D01*
X76400Y295770D01*
X76309Y295810D01*
X76223Y295858D01*
X76164Y295873D01*
X76109Y295897D01*
X76011Y295912D01*
X75915Y295937D01*
X75815Y295943D01*
X75795Y295947D01*
X75782Y295945D01*
X75754Y295947D01*
X73995Y295947D01*
X72138Y296716D01*
X70716Y298138D01*
X69947Y299995D01*
X69947Y302005D01*
X70716Y303862D01*
X72138Y305284D01*
X73995Y306053D01*
X76005Y306053D01*
X77862Y305284D01*
X79284Y303862D01*
X80053Y302005D01*
X80053Y300246D01*
X80065Y300148D01*
X80068Y300049D01*
X80085Y299990D01*
X80093Y299930D01*
X80129Y299838D01*
X80157Y299743D01*
X80187Y299691D01*
X80210Y299635D01*
X80268Y299555D01*
X80318Y299469D01*
X80384Y299394D01*
X80396Y299377D01*
X80406Y299369D01*
X80424Y299348D01*
X94668Y285105D01*
X94668Y250631D01*
X94680Y250533D01*
X94683Y250434D01*
X94700Y250375D01*
X94708Y250315D01*
X94744Y250223D01*
X94772Y250128D01*
X94802Y250076D01*
X94825Y250020D01*
X94883Y249940D01*
X94933Y249854D01*
X94999Y249779D01*
X95011Y249762D01*
X95021Y249754D01*
X95039Y249733D01*
X109733Y235039D01*
X109812Y234979D01*
X109884Y234911D01*
X109937Y234882D01*
X109985Y234845D01*
X110076Y234805D01*
X110162Y234757D01*
X110221Y234742D01*
X110276Y234718D01*
X110374Y234703D01*
X110470Y234678D01*
X110570Y234672D01*
X110590Y234668D01*
X110603Y234670D01*
X110631Y234668D01*
X119996Y234668D01*
X120095Y234680D01*
X120194Y234683D01*
X120252Y234700D01*
X120312Y234708D01*
X120404Y234744D01*
X120499Y234772D01*
X120551Y234802D01*
X120608Y234825D01*
X120688Y234883D01*
X120773Y234933D01*
X120848Y234999D01*
X120865Y235011D01*
X120873Y235021D01*
X120894Y235039D01*
X122138Y236284D01*
X123995Y237053D01*
X126005Y237053D01*
X127862Y236284D01*
X129106Y235039D01*
X129184Y234979D01*
X129257Y234911D01*
X129310Y234882D01*
X129357Y234845D01*
X129448Y234805D01*
X129535Y234757D01*
X129594Y234742D01*
X129649Y234718D01*
X129747Y234703D01*
X129843Y234678D01*
X129943Y234672D01*
X129963Y234668D01*
X129976Y234670D01*
X130004Y234668D01*
X150369Y234668D01*
X150467Y234680D01*
X150566Y234683D01*
X150625Y234700D01*
X150685Y234708D01*
X150777Y234744D01*
X150872Y234772D01*
X150924Y234802D01*
X150980Y234825D01*
X151060Y234883D01*
X151146Y234933D01*
X151221Y234999D01*
X151238Y235011D01*
X151246Y235021D01*
X151267Y235039D01*
X161961Y245733D01*
X162021Y245812D01*
X162089Y245884D01*
X162118Y245937D01*
X162155Y245985D01*
X162195Y246076D01*
X162243Y246162D01*
X162258Y246221D01*
X162282Y246276D01*
X162297Y246374D01*
X162322Y246470D01*
X162328Y246570D01*
X162332Y246590D01*
X162330Y246603D01*
X162332Y246631D01*
X162332Y247996D01*
X162320Y248095D01*
X162317Y248194D01*
X162300Y248252D01*
X162292Y248312D01*
X162256Y248404D01*
X162228Y248499D01*
X162198Y248551D01*
X162175Y248608D01*
X162117Y248688D01*
X162067Y248773D01*
X162001Y248848D01*
X161989Y248865D01*
X161979Y248873D01*
X161961Y248894D01*
X160716Y250138D01*
X159947Y251995D01*
X159947Y254005D01*
X160716Y255862D01*
X162138Y257284D01*
X163995Y258053D01*
X166005Y258053D01*
X167862Y257284D01*
X169284Y255862D01*
X170053Y254005D01*
X170053Y251995D01*
X169284Y250138D01*
X168039Y248894D01*
X167979Y248816D01*
X167911Y248743D01*
X167882Y248690D01*
X167845Y248643D01*
X167805Y248552D01*
X167757Y248465D01*
X167742Y248406D01*
X167718Y248351D01*
X167703Y248253D01*
X167678Y248157D01*
X167672Y248057D01*
X167668Y248037D01*
X167670Y248024D01*
X167668Y247996D01*
X167668Y243895D01*
X153105Y229332D01*
X130004Y229332D01*
X129905Y229320D01*
X129806Y229317D01*
X129748Y229300D01*
X129688Y229292D01*
X129596Y229256D01*
X129501Y229228D01*
X129449Y229198D01*
X129392Y229175D01*
X129312Y229117D01*
X129227Y229067D01*
X129152Y229001D01*
X129135Y228989D01*
X129127Y228979D01*
X129106Y228961D01*
X127862Y227716D01*
X126005Y226947D01*
X123995Y226947D01*
G37*
%LPD*%
%LPC*%
G36*
X114995Y452947D02*
X114995Y452947D01*
X113138Y453716D01*
X111894Y454961D01*
X111816Y455021D01*
X111743Y455089D01*
X111690Y455118D01*
X111643Y455155D01*
X111552Y455195D01*
X111465Y455243D01*
X111406Y455258D01*
X111351Y455282D01*
X111253Y455297D01*
X111157Y455322D01*
X111057Y455328D01*
X111037Y455332D01*
X111024Y455330D01*
X110996Y455332D01*
X56895Y455332D01*
X56652Y455576D01*
X56573Y455636D01*
X56501Y455704D01*
X56448Y455733D01*
X56400Y455770D01*
X56309Y455810D01*
X56223Y455858D01*
X56164Y455873D01*
X56109Y455897D01*
X56011Y455912D01*
X55915Y455937D01*
X55815Y455943D01*
X55795Y455947D01*
X55782Y455945D01*
X55754Y455947D01*
X53995Y455947D01*
X52138Y456716D01*
X50716Y458138D01*
X49947Y459995D01*
X49947Y462005D01*
X50716Y463862D01*
X52138Y465284D01*
X53995Y466053D01*
X56005Y466053D01*
X57862Y465284D01*
X59284Y463862D01*
X60053Y462005D01*
X60053Y461937D01*
X60068Y461819D01*
X60075Y461700D01*
X60088Y461662D01*
X60093Y461621D01*
X60136Y461511D01*
X60173Y461398D01*
X60195Y461363D01*
X60210Y461326D01*
X60279Y461230D01*
X60343Y461129D01*
X60373Y461101D01*
X60396Y461068D01*
X60488Y460992D01*
X60575Y460911D01*
X60610Y460891D01*
X60641Y460866D01*
X60749Y460815D01*
X60853Y460757D01*
X60893Y460747D01*
X60929Y460730D01*
X61046Y460708D01*
X61161Y460678D01*
X61221Y460674D01*
X61241Y460670D01*
X61262Y460672D01*
X61322Y460668D01*
X110996Y460668D01*
X111095Y460680D01*
X111194Y460683D01*
X111252Y460700D01*
X111312Y460708D01*
X111404Y460744D01*
X111499Y460772D01*
X111551Y460802D01*
X111608Y460825D01*
X111688Y460883D01*
X111773Y460933D01*
X111848Y460999D01*
X111865Y461011D01*
X111873Y461021D01*
X111894Y461039D01*
X113138Y462284D01*
X114995Y463053D01*
X117005Y463053D01*
X118862Y462284D01*
X120284Y460862D01*
X121053Y459005D01*
X121053Y456995D01*
X120284Y455138D01*
X118862Y453716D01*
X117005Y452947D01*
X114995Y452947D01*
G37*
%LPD*%
%LPC*%
G36*
X46777Y487823D02*
X46777Y487823D01*
X42669Y489525D01*
X39525Y492669D01*
X37823Y496777D01*
X37823Y501223D01*
X39525Y505331D01*
X42669Y508475D01*
X46777Y510177D01*
X51223Y510177D01*
X55331Y508475D01*
X58475Y505331D01*
X60177Y501223D01*
X60177Y496777D01*
X58475Y492669D01*
X55331Y489525D01*
X51223Y487823D01*
X46777Y487823D01*
G37*
%LPD*%
%LPC*%
G36*
X188777Y301823D02*
X188777Y301823D01*
X184669Y303525D01*
X181525Y306669D01*
X179823Y310777D01*
X179823Y315223D01*
X181525Y319331D01*
X184669Y322475D01*
X188777Y324177D01*
X193223Y324177D01*
X197331Y322475D01*
X200475Y319331D01*
X202177Y315223D01*
X202177Y310777D01*
X200475Y306669D01*
X197331Y303525D01*
X193223Y301823D01*
X188777Y301823D01*
G37*
%LPD*%
%LPC*%
G36*
X43553Y110810D02*
X43553Y110810D01*
X39991Y112285D01*
X37265Y115011D01*
X35790Y118573D01*
X35790Y122427D01*
X37265Y125989D01*
X39991Y128715D01*
X43553Y130190D01*
X47407Y130190D01*
X50969Y128715D01*
X53695Y125989D01*
X55170Y122427D01*
X55170Y118573D01*
X53695Y115011D01*
X50969Y112285D01*
X47407Y110810D01*
X43553Y110810D01*
G37*
%LPD*%
%LPC*%
G36*
X37539Y602539D02*
X37539Y602539D01*
X37539Y611685D01*
X37796Y611645D01*
X39583Y611064D01*
X41257Y610211D01*
X42778Y609106D01*
X44106Y607778D01*
X45211Y606257D01*
X46064Y604583D01*
X46645Y602796D01*
X46685Y602539D01*
X37539Y602539D01*
G37*
%LPD*%
%LPC*%
G36*
X23315Y602539D02*
X23315Y602539D01*
X23355Y602796D01*
X23936Y604583D01*
X24789Y606257D01*
X25894Y607778D01*
X27222Y609106D01*
X28743Y610211D01*
X30417Y611064D01*
X32204Y611645D01*
X32461Y611685D01*
X32461Y602539D01*
X23315Y602539D01*
G37*
%LPD*%
%LPC*%
G36*
X37539Y597461D02*
X37539Y597461D01*
X46685Y597461D01*
X46645Y597204D01*
X46064Y595417D01*
X45211Y593743D01*
X44106Y592222D01*
X42778Y590894D01*
X41257Y589789D01*
X39583Y588936D01*
X37796Y588355D01*
X37539Y588315D01*
X37539Y597461D01*
G37*
%LPD*%
%LPC*%
G36*
X23739Y19561D02*
X23739Y19561D01*
X32885Y19561D01*
X32845Y19304D01*
X32264Y17517D01*
X31411Y15843D01*
X30306Y14322D01*
X28978Y12994D01*
X27457Y11889D01*
X25783Y11036D01*
X23996Y10455D01*
X23739Y10415D01*
X23739Y19561D01*
G37*
%LPD*%
%LPC*%
G36*
X32204Y588355D02*
X32204Y588355D01*
X30417Y588936D01*
X28743Y589789D01*
X27222Y590894D01*
X25894Y592222D01*
X24789Y593743D01*
X23936Y595417D01*
X23355Y597204D01*
X23315Y597461D01*
X32461Y597461D01*
X32461Y588315D01*
X32204Y588355D01*
G37*
%LPD*%
%LPC*%
G36*
X34999Y599999D02*
X34999Y599999D01*
X34999Y600001D01*
X35001Y600001D01*
X35001Y599999D01*
X34999Y599999D01*
G37*
%LPD*%
D10*
X21200Y47500D03*
X21200Y22100D03*
D11*
X112000Y405500D03*
X112000Y393500D03*
X112000Y381500D03*
X112000Y369500D03*
X124000Y405500D03*
X124000Y393500D03*
X124000Y381500D03*
X124000Y369500D03*
X136000Y405500D03*
X136000Y393500D03*
X136000Y381500D03*
X136000Y369500D03*
X148000Y405500D03*
X148000Y393500D03*
X148000Y381500D03*
X148000Y369500D03*
D12*
X45480Y170500D03*
X45480Y120500D03*
D13*
X18480Y180500D03*
X18480Y110500D03*
D10*
X49000Y499000D03*
X190000Y217000D03*
X35000Y600000D03*
X35000Y332000D03*
X68000Y432000D03*
X191000Y338000D03*
X191000Y288000D03*
X191000Y313000D03*
D14*
X10779Y69006D03*
X176000Y155000D03*
X63157Y132157D03*
X214000Y93000D03*
X100000Y154000D03*
X83201Y270799D03*
X66941Y308000D03*
X10349Y327002D03*
X229000Y127000D03*
X72000Y191000D03*
X15000Y237000D03*
X57000Y278000D03*
X123000Y453000D03*
X239106Y421000D03*
X148000Y463000D03*
D15*
X168000Y461000D03*
D14*
X207000Y204000D03*
X231000Y171000D03*
D16*
X54771Y126708D02*
X54229Y127127D01*
D14*
X52000Y448000D03*
D17*
X123000Y277500D03*
D14*
X227000Y286000D03*
X210000Y333000D03*
X206000Y82000D03*
D18*
X236491Y82000D01*
X239106Y84615D01*
D14*
X239106Y328000D03*
D18*
X239106Y212000D01*
X239106Y84615D01*
D14*
X180562Y425000D03*
D18*
X162562Y443000D01*
X91000Y443000D01*
D14*
X91000Y443000D03*
D16*
X71230Y204360D02*
X127237Y204360D01*
X71230Y204360D02*
X62230Y213360D01*
X127237Y204360D02*
X133350Y198247D01*
D18*
X231140Y328041D02*
X238252Y328041D01*
X231140Y328041D02*
X194091Y365091D01*
X186091Y373091D01*
X180467Y389000D02*
X180467Y424942D01*
D16*
X238252Y328041D02*
X239106Y328000D01*
X180467Y424942D02*
X180562Y425000D01*
D14*
X62230Y213360D03*
D16*
X133350Y198247D02*
X184000Y198247D01*
X188753Y203000D01*
X205598Y212000D02*
X239106Y212000D01*
X205598Y212000D02*
X196598Y203000D01*
X188753Y203000D01*
D18*
X186091Y373091D02*
X177910Y373091D01*
X177000Y374000D01*
X177000Y385533D01*
X180467Y389000D01*
X194091Y365091D02*
X177000Y348000D01*
X95059Y348000D02*
X92000Y344941D01*
D14*
X92000Y344941D03*
D18*
X95059Y348000D02*
X177000Y348000D01*
D14*
X69000Y167000D03*
D18*
X78000Y158000D01*
X78000Y150000D01*
X78000Y122000D01*
X21200Y65200D02*
X21200Y47500D01*
X21200Y65200D02*
X78000Y122000D01*
D14*
X34000Y237000D03*
D16*
X34000Y202000D01*
X69000Y167000D01*
D18*
X190000Y217000D02*
X190000Y256000D01*
D14*
X190000Y256000D03*
D18*
X173000Y273000D01*
X173000Y287000D01*
D14*
X173000Y287000D03*
D18*
X190000Y217000D02*
X123000Y217000D01*
X95059Y217000D01*
X85059Y227000D01*
D14*
X85059Y227000D03*
X128000Y158000D03*
X123000Y217000D03*
X24000Y237000D03*
D16*
X58500Y330500D02*
X67000Y339000D01*
D14*
X159000Y331000D03*
D16*
X157000Y333000D01*
X98804Y333000D01*
X92804Y339000D01*
X67000Y339000D01*
X58500Y330500D02*
X58500Y328902D01*
X47059Y317461D01*
X47059Y274059D01*
X24000Y251000D02*
X24000Y237000D01*
X24000Y251000D02*
X47059Y274059D01*
D14*
X126201Y326201D03*
D16*
X91799Y326201D01*
X85000Y333000D01*
D14*
X85000Y333000D03*
X133941Y321000D03*
D16*
X132941Y320000D01*
X86000Y320000D01*
X78000Y328000D01*
D14*
X78000Y328000D03*
X148000Y317000D03*
D16*
X138000Y315000D02*
X75000Y315000D01*
X140000Y317000D02*
X148000Y317000D01*
X140000Y317000D02*
X138000Y315000D01*
X75000Y315000D02*
X69326Y320674D01*
X69326Y326000D01*
D14*
X69326Y326000D03*
X131000Y175000D03*
D18*
X146000Y190000D01*
X166000Y190000D01*
D14*
X166000Y190000D03*
X24003Y482727D03*
D18*
X24003Y365997D01*
X29000Y361000D01*
X47000Y361000D01*
X54000Y368000D01*
D14*
X54000Y368000D03*
X56000Y344000D03*
X31000Y279000D03*
D18*
X51065Y339065D02*
X56000Y344000D01*
X51065Y339065D02*
X51065Y329003D01*
X31000Y308938D02*
X31000Y279000D01*
X31000Y308938D02*
X51065Y329003D01*
D14*
X43000Y236000D03*
D18*
X54000Y225000D01*
X54000Y205000D01*
X59000Y200000D01*
X124000Y200000D02*
X134000Y190000D01*
D14*
X134000Y190000D03*
D18*
X124000Y200000D02*
X59000Y200000D01*
D14*
X165000Y253000D03*
D16*
X165000Y245000D01*
X152000Y232000D01*
X125000Y232000D01*
D14*
X125000Y232000D03*
X75000Y301000D03*
D16*
X92000Y284000D01*
X92000Y249000D02*
X109000Y232000D01*
X125000Y232000D01*
X92000Y249000D02*
X92000Y284000D01*
D14*
X75000Y285000D03*
D16*
X61000Y299000D01*
X61000Y323000D01*
D14*
X61000Y323000D03*
D16*
X54000Y418000D02*
X68000Y432000D01*
X54000Y418000D02*
X54000Y381000D01*
X58000Y377000D01*
D14*
X58000Y377000D03*
X66000Y393000D03*
D16*
X66000Y370000D01*
X48000Y352000D02*
X29000Y352000D01*
X19000Y342000D02*
X19000Y278438D01*
X19432Y278006D01*
D14*
X19432Y278006D03*
D16*
X48000Y352000D02*
X66000Y370000D01*
X29000Y352000D02*
X19000Y342000D01*
D14*
X186503Y381539D03*
D16*
X186503Y427497D01*
X165000Y449000D01*
X155000Y449000D01*
X151000Y453000D01*
D14*
X151000Y453000D03*
D19*
X125000Y41000D03*
D18*
X123000Y41000D01*
X107000Y57000D01*
X107000Y161000D01*
D14*
X174000Y176000D03*
D18*
X114059Y168059D02*
X107000Y161000D01*
X152402Y176000D02*
X174000Y176000D01*
X144461Y168059D02*
X114059Y168059D01*
X144461Y168059D02*
X152402Y176000D01*
D19*
X121000Y565000D03*
D14*
X233000Y372000D03*
D16*
X193000Y412000D01*
X193000Y419000D01*
D14*
X193000Y419000D03*
X123000Y147000D03*
D16*
X183000Y147000D01*
X202000Y166000D01*
D14*
X202000Y166000D03*
X116000Y458000D03*
D16*
X58000Y458000D01*
X55000Y461000D01*
D14*
X55000Y461000D03*
M02*
