G04 EAGLE Gerber RS-274X export*
G75*
%MOMM*%
%FSLAX34Y34*%
%LPD*%
%INSoldermask Top*%
%IPPOS*%
%AMOC8*
5,1,8,0,0,1.08239X$1,22.5*%
G01*
%ADD10R,1.253200X1.103200*%
%ADD11R,1.603200X1.603200*%
%ADD12R,0.753200X1.403200*%
%ADD13C,2.082800*%
%ADD14R,1.219200X0.838200*%
%ADD15R,0.853200X1.453200*%
%ADD16R,1.103200X1.253200*%
%ADD17R,0.473200X1.353200*%
%ADD18R,1.353200X0.473200*%
%ADD19R,3.353200X3.353200*%
%ADD20R,2.203200X0.403200*%
%ADD21R,0.403200X2.203200*%
%ADD22R,4.903200X4.903200*%
%ADD23C,1.111200*%
%ADD24R,2.103200X1.303200*%
%ADD25R,1.403200X1.603200*%
%ADD26R,1.553200X0.603200*%
%ADD27C,1.785400*%
%ADD28C,2.183200*%
%ADD29R,1.753200X1.703200*%
%ADD30R,1.303200X0.953200*%
%ADD31C,0.858000*%
%ADD32C,1.253200*%
%ADD33C,1.346200*%
%ADD34C,15.203200*%


D10*
G36*
X50860Y-11591D02*
X61712Y-17857D01*
X56196Y-27409D01*
X45344Y-21143D01*
X50860Y-11591D01*
G37*
G36*
X37004Y-3591D02*
X47856Y-9857D01*
X42340Y-19409D01*
X31488Y-13143D01*
X37004Y-3591D01*
G37*
G36*
X71674Y109873D02*
X62813Y101012D01*
X55012Y108813D01*
X63873Y117674D01*
X71674Y109873D01*
G37*
G36*
X82988Y121187D02*
X74127Y112326D01*
X66326Y120127D01*
X75187Y128988D01*
X82988Y121187D01*
G37*
X218570Y112640D03*
X234570Y112640D03*
D11*
X171900Y134600D03*
X134900Y134600D03*
D12*
X109500Y166700D03*
X100000Y166700D03*
X90500Y166700D03*
X90500Y140700D03*
X109500Y140700D03*
D13*
X21200Y47500D03*
X21200Y22100D03*
D14*
X206800Y6800D03*
X226800Y16300D03*
X226800Y-2700D03*
D10*
X234000Y201620D03*
X218000Y201620D03*
X20400Y82400D03*
X36400Y82400D03*
D15*
X211500Y142000D03*
X230500Y142000D03*
X221000Y163000D03*
D10*
X161000Y156000D03*
X145000Y156000D03*
D16*
X15500Y206000D03*
X15500Y222000D03*
X34000Y206000D03*
X34000Y222000D03*
D17*
X108000Y253500D03*
X113000Y253500D03*
X118000Y253500D03*
X123000Y253500D03*
X128000Y253500D03*
X133000Y253500D03*
X138000Y253500D03*
D18*
X147000Y262500D03*
X147000Y267500D03*
X147000Y272500D03*
X147000Y277500D03*
X147000Y282500D03*
X147000Y287500D03*
X147000Y292500D03*
D17*
X138000Y301500D03*
X133000Y301500D03*
X128000Y301500D03*
X123000Y301500D03*
X118000Y301500D03*
X113000Y301500D03*
X108000Y301500D03*
D18*
X99000Y292500D03*
X99000Y287500D03*
X99000Y282500D03*
X99000Y277500D03*
X99000Y272500D03*
X99000Y267500D03*
X99000Y262500D03*
D19*
X123000Y277500D03*
D16*
X53000Y306000D03*
X53000Y290000D03*
X23500Y530000D03*
X23500Y514000D03*
X188500Y176500D03*
X188500Y192500D03*
D10*
X145500Y175500D03*
X161500Y175500D03*
D16*
X24000Y558500D03*
X24000Y574500D03*
D10*
X218000Y185000D03*
X234000Y185000D03*
X32500Y306500D03*
X16500Y306500D03*
D16*
X71500Y221500D03*
X71500Y205500D03*
X57000Y249500D03*
X57000Y265500D03*
X235000Y234500D03*
X235000Y218500D03*
X215500Y259000D03*
X215500Y275000D03*
X217000Y235000D03*
X217000Y219000D03*
D10*
X91000Y211000D03*
X107000Y211000D03*
X91000Y190000D03*
X107000Y190000D03*
D20*
X93000Y409500D03*
X93000Y405500D03*
X93000Y401500D03*
X93000Y397500D03*
X93000Y393500D03*
X93000Y389500D03*
X93000Y385500D03*
X93000Y381500D03*
X93000Y377500D03*
X93000Y373500D03*
X93000Y369500D03*
X93000Y365500D03*
D21*
X108000Y350500D03*
X112000Y350500D03*
X116000Y350500D03*
X120000Y350500D03*
X124000Y350500D03*
X128000Y350500D03*
X132000Y350500D03*
X136000Y350500D03*
X140000Y350500D03*
X144000Y350500D03*
X148000Y350500D03*
X152000Y350500D03*
D20*
X167000Y365500D03*
X167000Y369500D03*
X167000Y373500D03*
X167000Y377500D03*
X167000Y381500D03*
X167000Y385500D03*
X167000Y389500D03*
X167000Y393500D03*
X167000Y397500D03*
X167000Y401500D03*
X167000Y405500D03*
X167000Y409500D03*
D21*
X152000Y424500D03*
X148000Y424500D03*
X144000Y424500D03*
X140000Y424500D03*
X136000Y424500D03*
X132000Y424500D03*
X128000Y424500D03*
X124000Y424500D03*
X120000Y424500D03*
X116000Y424500D03*
X112000Y424500D03*
X108000Y424500D03*
D22*
X130000Y387500D03*
D23*
X112000Y405500D03*
X112000Y393500D03*
X112000Y381500D03*
X112000Y369500D03*
X124000Y405500D03*
X124000Y393500D03*
X124000Y381500D03*
X124000Y369500D03*
X136000Y405500D03*
X136000Y393500D03*
X136000Y381500D03*
X136000Y369500D03*
X148000Y405500D03*
X148000Y393500D03*
X148000Y381500D03*
X148000Y369500D03*
D10*
X32500Y462500D03*
X16500Y462500D03*
X16000Y433000D03*
X32000Y433000D03*
X16500Y357500D03*
X32500Y357500D03*
D16*
X53000Y221500D03*
X53000Y205500D03*
X180500Y494000D03*
X180500Y478000D03*
X180000Y440500D03*
X180000Y456500D03*
X237000Y343000D03*
X237000Y359000D03*
D10*
X159500Y476500D03*
X143500Y476500D03*
D16*
X215500Y297000D03*
X215500Y313000D03*
X216500Y359500D03*
X216500Y343500D03*
X237000Y313500D03*
X237000Y297500D03*
D10*
X33000Y289000D03*
X17000Y289000D03*
X72500Y457000D03*
X88500Y457000D03*
D24*
X27500Y383000D03*
X27500Y408000D03*
D25*
X214500Y409000D03*
X214500Y387000D03*
X231500Y387000D03*
X231500Y409000D03*
D26*
X45480Y158500D03*
X45480Y152000D03*
X45480Y145500D03*
X45480Y139000D03*
X45480Y132500D03*
D27*
X45480Y170500D03*
X45480Y120500D03*
D28*
X18480Y180500D03*
X18480Y110500D03*
D29*
X18480Y155500D03*
X18480Y135500D03*
D16*
X237000Y258000D03*
X237000Y274000D03*
D10*
X231000Y40000D03*
X215000Y40000D03*
D15*
X216500Y64500D03*
X235500Y64500D03*
X226000Y85500D03*
D16*
X18000Y251000D03*
X18000Y267000D03*
X34000Y267000D03*
X34000Y251000D03*
D30*
X123500Y476000D03*
X106500Y476000D03*
D13*
X49000Y499000D03*
X190000Y217000D03*
X35000Y600000D03*
X35000Y332000D03*
X68000Y432000D03*
X191000Y338000D03*
X191000Y288000D03*
X191000Y313000D03*
D10*
X88000Y476000D03*
X72000Y476000D03*
D31*
X10779Y69006D03*
X176000Y155000D03*
X63157Y132157D03*
X214000Y93000D03*
X100000Y154000D03*
X83201Y270799D03*
X66941Y308000D03*
X10349Y327002D03*
X229000Y127000D03*
X72000Y191000D03*
X15000Y237000D03*
X57000Y278000D03*
X123000Y453000D03*
X239106Y421000D03*
X148000Y463000D03*
D32*
X168000Y461000D03*
D31*
X207000Y204000D03*
X231000Y171000D03*
X52000Y448000D03*
D33*
X123000Y277500D03*
D31*
X227000Y286000D03*
X210000Y333000D03*
X206000Y82000D03*
X239106Y328000D03*
X180562Y425000D03*
X91000Y443000D03*
X62230Y213360D03*
X92000Y344941D03*
X69000Y167000D03*
X34000Y237000D03*
X190000Y256000D03*
X173000Y287000D03*
X85059Y227000D03*
X128000Y158000D03*
X123000Y217000D03*
X24000Y237000D03*
X159000Y331000D03*
X126201Y326201D03*
X85000Y333000D03*
X133941Y321000D03*
X78000Y328000D03*
X148000Y317000D03*
X69326Y326000D03*
X131000Y175000D03*
X166000Y190000D03*
X24003Y482727D03*
X54000Y368000D03*
X56000Y344000D03*
X31000Y279000D03*
X43000Y236000D03*
X134000Y190000D03*
X165000Y253000D03*
X125000Y232000D03*
X75000Y301000D03*
X75000Y285000D03*
X61000Y323000D03*
X58000Y377000D03*
X66000Y393000D03*
X19432Y278006D03*
X186503Y381539D03*
X151000Y453000D03*
D34*
X125000Y41000D03*
D31*
X174000Y176000D03*
D34*
X121000Y565000D03*
D31*
X233000Y372000D03*
X193000Y419000D03*
X123000Y147000D03*
X202000Y166000D03*
X116000Y458000D03*
X55000Y461000D03*
M02*
