G04 EAGLE Gerber RS-274X export*
G75*
%MOMM*%
%FSLAX34Y34*%
%LPD*%
%INSolderpaste Top*%
%IPPOS*%
%AMOC8*
5,1,8,0,0,1.08239X$1,22.5*%
G01*
%ADD10R,1.050000X0.900000*%
%ADD11R,1.400000X1.400000*%
%ADD12R,0.550000X1.200000*%
%ADD13R,1.016000X0.635000*%
%ADD14R,0.650000X1.250000*%
%ADD15R,0.900000X1.050000*%
%ADD16R,0.270000X1.150000*%
%ADD17R,1.150000X0.270000*%
%ADD18R,1.016000X1.016000*%
%ADD19R,2.000000X0.200000*%
%ADD20R,0.200000X2.000000*%
%ADD21R,4.700000X4.700000*%
%ADD22R,1.900000X1.100000*%
%ADD23R,1.200000X1.400000*%
%ADD24R,1.350000X0.400000*%
%ADD25R,1.550000X1.500000*%
%ADD26R,1.100000X0.750000*%


D10*
G36*
X51232Y-12978D02*
X60324Y-18228D01*
X55824Y-26022D01*
X46732Y-20772D01*
X51232Y-12978D01*
G37*
G36*
X37376Y-4978D02*
X46468Y-10228D01*
X41968Y-18022D01*
X32876Y-12772D01*
X37376Y-4978D01*
G37*
G36*
X70237Y109873D02*
X62813Y102449D01*
X56449Y108813D01*
X63873Y116237D01*
X70237Y109873D01*
G37*
G36*
X81551Y121187D02*
X74127Y113763D01*
X67763Y120127D01*
X75187Y127551D01*
X81551Y121187D01*
G37*
X218570Y112640D03*
X234570Y112640D03*
D11*
X171900Y134600D03*
X134900Y134600D03*
D12*
X109500Y166700D03*
X100000Y166700D03*
X90500Y166700D03*
X90500Y140700D03*
X109500Y140700D03*
D13*
X206800Y6800D03*
X226800Y16300D03*
X226800Y-2700D03*
D10*
X234000Y201620D03*
X218000Y201620D03*
X20400Y82400D03*
X36400Y82400D03*
D14*
X211500Y142000D03*
X230500Y142000D03*
X221000Y163000D03*
D10*
X161000Y156000D03*
X145000Y156000D03*
D15*
X15500Y206000D03*
X15500Y222000D03*
X34000Y206000D03*
X34000Y222000D03*
D16*
X108000Y253500D03*
X113000Y253500D03*
X118000Y253500D03*
X123000Y253500D03*
X128000Y253500D03*
X133000Y253500D03*
X138000Y253500D03*
D17*
X147000Y262500D03*
X147000Y267500D03*
X147000Y272500D03*
X147000Y277500D03*
X147000Y282500D03*
X147000Y287500D03*
X147000Y292500D03*
D16*
X138000Y301500D03*
X133000Y301500D03*
X128000Y301500D03*
X123000Y301500D03*
X118000Y301500D03*
X113000Y301500D03*
X108000Y301500D03*
D17*
X99000Y292500D03*
X99000Y287500D03*
X99000Y282500D03*
X99000Y277500D03*
X99000Y272500D03*
X99000Y267500D03*
X99000Y262500D03*
D18*
X115380Y269880D03*
X130620Y269880D03*
X115380Y285120D03*
X130620Y285120D03*
D15*
X53000Y306000D03*
X53000Y290000D03*
X23500Y530000D03*
X23500Y514000D03*
X188500Y176500D03*
X188500Y192500D03*
D10*
X145500Y175500D03*
X161500Y175500D03*
D15*
X24000Y558500D03*
X24000Y574500D03*
D10*
X218000Y185000D03*
X234000Y185000D03*
X32500Y306500D03*
X16500Y306500D03*
D15*
X71500Y221500D03*
X71500Y205500D03*
X57000Y249500D03*
X57000Y265500D03*
X235000Y234500D03*
X235000Y218500D03*
X215500Y259000D03*
X215500Y275000D03*
X217000Y235000D03*
X217000Y219000D03*
D10*
X91000Y211000D03*
X107000Y211000D03*
X91000Y190000D03*
X107000Y190000D03*
D19*
X93000Y409500D03*
X93000Y405500D03*
X93000Y401500D03*
X93000Y397500D03*
X93000Y393500D03*
X93000Y389500D03*
X93000Y385500D03*
X93000Y381500D03*
X93000Y377500D03*
X93000Y373500D03*
X93000Y369500D03*
X93000Y365500D03*
D20*
X108000Y350500D03*
X112000Y350500D03*
X116000Y350500D03*
X120000Y350500D03*
X124000Y350500D03*
X128000Y350500D03*
X132000Y350500D03*
X136000Y350500D03*
X140000Y350500D03*
X144000Y350500D03*
X148000Y350500D03*
X152000Y350500D03*
D19*
X167000Y365500D03*
X167000Y369500D03*
X167000Y373500D03*
X167000Y377500D03*
X167000Y381500D03*
X167000Y385500D03*
X167000Y389500D03*
X167000Y393500D03*
X167000Y397500D03*
X167000Y401500D03*
X167000Y405500D03*
X167000Y409500D03*
D20*
X152000Y424500D03*
X148000Y424500D03*
X144000Y424500D03*
X140000Y424500D03*
X136000Y424500D03*
X132000Y424500D03*
X128000Y424500D03*
X124000Y424500D03*
X120000Y424500D03*
X116000Y424500D03*
X112000Y424500D03*
X108000Y424500D03*
D21*
X130000Y387500D03*
D10*
X32500Y462500D03*
X16500Y462500D03*
X16000Y433000D03*
X32000Y433000D03*
X16500Y357500D03*
X32500Y357500D03*
D15*
X53000Y221500D03*
X53000Y205500D03*
X180500Y494000D03*
X180500Y478000D03*
X180000Y440500D03*
X180000Y456500D03*
X237000Y343000D03*
X237000Y359000D03*
D10*
X159500Y476500D03*
X143500Y476500D03*
D15*
X215500Y297000D03*
X215500Y313000D03*
X216500Y359500D03*
X216500Y343500D03*
X237000Y313500D03*
X237000Y297500D03*
D10*
X33000Y289000D03*
X17000Y289000D03*
X72500Y457000D03*
X88500Y457000D03*
D22*
X27500Y383000D03*
X27500Y408000D03*
D23*
X214500Y409000D03*
X214500Y387000D03*
X231500Y387000D03*
X231500Y409000D03*
D24*
X45480Y158500D03*
X45480Y152000D03*
X45480Y145500D03*
X45480Y139000D03*
X45480Y132500D03*
D25*
X18480Y155500D03*
X18480Y135500D03*
D15*
X237000Y258000D03*
X237000Y274000D03*
D10*
X231000Y40000D03*
X215000Y40000D03*
D14*
X216500Y64500D03*
X235500Y64500D03*
X226000Y85500D03*
D15*
X18000Y251000D03*
X18000Y267000D03*
X34000Y267000D03*
X34000Y251000D03*
D26*
X123500Y476000D03*
X106500Y476000D03*
D10*
X88000Y476000D03*
X72000Y476000D03*
M02*
