G04 EAGLE Gerber RS-274X export*
G75*
%MOMM*%
%FSLAX34Y34*%
%LPD*%
%INSoldermask Bottom*%
%IPPOS*%
%AMOC8*
5,1,8,0,0,1.08239X$1,22.5*%
G01*
%ADD10C,2.082800*%
%ADD11C,1.111200*%
%ADD12C,1.785400*%
%ADD13C,2.183200*%
%ADD14C,0.858000*%
%ADD15C,1.253200*%
%ADD16C,1.346200*%
%ADD17C,15.203200*%


D10*
X21200Y47500D03*
X21200Y22100D03*
D11*
X112000Y405500D03*
X112000Y393500D03*
X112000Y381500D03*
X112000Y369500D03*
X124000Y405500D03*
X124000Y393500D03*
X124000Y381500D03*
X124000Y369500D03*
X136000Y405500D03*
X136000Y393500D03*
X136000Y381500D03*
X136000Y369500D03*
X148000Y405500D03*
X148000Y393500D03*
X148000Y381500D03*
X148000Y369500D03*
D12*
X45480Y170500D03*
X45480Y120500D03*
D13*
X18480Y180500D03*
X18480Y110500D03*
D10*
X49000Y499000D03*
X190000Y217000D03*
X35000Y600000D03*
X35000Y332000D03*
X68000Y432000D03*
X191000Y338000D03*
X191000Y288000D03*
X191000Y313000D03*
D14*
X10779Y69006D03*
X176000Y155000D03*
X63157Y132157D03*
X214000Y93000D03*
X100000Y154000D03*
X83201Y270799D03*
X66941Y308000D03*
X10349Y327002D03*
X229000Y127000D03*
X72000Y191000D03*
X15000Y237000D03*
X57000Y278000D03*
X123000Y453000D03*
X239106Y421000D03*
X148000Y463000D03*
D15*
X168000Y461000D03*
D14*
X207000Y204000D03*
X231000Y171000D03*
X52000Y448000D03*
D16*
X123000Y277500D03*
D14*
X227000Y286000D03*
X210000Y333000D03*
X206000Y82000D03*
X239106Y328000D03*
X180562Y425000D03*
X91000Y443000D03*
X62230Y213360D03*
X92000Y344941D03*
X69000Y167000D03*
X34000Y237000D03*
X190000Y256000D03*
X173000Y287000D03*
X85059Y227000D03*
X128000Y158000D03*
X123000Y217000D03*
X24000Y237000D03*
X159000Y331000D03*
X126201Y326201D03*
X85000Y333000D03*
X133941Y321000D03*
X78000Y328000D03*
X148000Y317000D03*
X69326Y326000D03*
X131000Y175000D03*
X166000Y190000D03*
X24003Y482727D03*
X54000Y368000D03*
X56000Y344000D03*
X31000Y279000D03*
X43000Y236000D03*
X134000Y190000D03*
X165000Y253000D03*
X125000Y232000D03*
X75000Y301000D03*
X75000Y285000D03*
X61000Y323000D03*
X58000Y377000D03*
X66000Y393000D03*
X19432Y278006D03*
X186503Y381539D03*
X151000Y453000D03*
D17*
X125000Y41000D03*
D14*
X174000Y176000D03*
D17*
X121000Y565000D03*
D14*
X233000Y372000D03*
X193000Y419000D03*
X123000Y147000D03*
X202000Y166000D03*
X116000Y458000D03*
X55000Y461000D03*
M02*
