G04 EAGLE Gerber RS-274X export*
G75*
%MOMM*%
%FSLAX34Y34*%
%LPD*%
%INTop Copper*%
%IPPOS*%
%AMOC8*
5,1,8,0,0,1.08239X$1,22.5*%
G01*
%ADD10R,0.900000X1.050000*%
%ADD11R,1.400000X1.400000*%
%ADD12R,1.200000X0.550000*%
%ADD13C,1.879600*%
%ADD14R,0.635000X1.016000*%
%ADD15R,1.050000X0.900000*%
%ADD16R,0.650000X1.250000*%
%ADD17R,1.200000X1.800000*%
%ADD18R,1.100000X0.650000*%
%ADD19R,0.270000X1.150000*%
%ADD20R,1.150000X0.270000*%
%ADD21R,3.150000X3.150000*%
%ADD22C,0.254000*%
%ADD23C,0.254000*%
%ADD24R,2.000000X0.200000*%
%ADD25R,0.200000X2.000000*%
%ADD26R,4.700000X4.700000*%
%ADD27C,0.908000*%
%ADD28R,0.750000X0.350000*%
%ADD29R,1.600000X2.400000*%
%ADD30R,1.650000X0.650000*%
%ADD31R,1.100000X0.750000*%
%ADD32R,0.250000X0.854000*%
%ADD33R,0.854000X0.250000*%
%ADD34C,0.043500*%
%ADD35R,1.100000X1.900000*%
%ADD36R,1.400000X1.200000*%
%ADD37R,0.650000X1.050000*%
%ADD38R,0.400000X1.350000*%
%ADD39C,1.582200*%
%ADD40C,1.980000*%
%ADD41R,1.500000X1.550000*%
%ADD42C,0.500000*%
%ADD43C,0.705600*%
%ADD44C,0.400000*%
%ADD45C,0.203200*%
%ADD46C,0.406400*%
%ADD47C,0.755600*%
%ADD48C,1.200000*%
%ADD49C,0.304800*%
%ADD50C,0.177800*%
%ADD51C,0.900000*%
%ADD52C,15.000000*%

G36*
X169054Y71657D02*
X169054Y71657D01*
X169108Y71655D01*
X169216Y71677D01*
X169326Y71691D01*
X169376Y71710D01*
X169430Y71721D01*
X169529Y71768D01*
X169632Y71808D01*
X169676Y71839D01*
X169725Y71862D01*
X169828Y71945D01*
X169901Y71995D01*
X169923Y72021D01*
X169954Y72046D01*
X170954Y73046D01*
X170988Y73089D01*
X171028Y73126D01*
X171088Y73217D01*
X171156Y73304D01*
X171178Y73354D01*
X171208Y73399D01*
X171245Y73503D01*
X171290Y73604D01*
X171299Y73657D01*
X171317Y73708D01*
X171332Y73839D01*
X171347Y73927D01*
X171345Y73961D01*
X171349Y74000D01*
X171349Y99587D01*
X171343Y99641D01*
X171345Y99695D01*
X171323Y99803D01*
X171309Y99913D01*
X171290Y99963D01*
X171279Y100017D01*
X171232Y100116D01*
X171192Y100219D01*
X171161Y100263D01*
X171138Y100312D01*
X171055Y100415D01*
X171005Y100488D01*
X170979Y100510D01*
X170954Y100541D01*
X170501Y100994D01*
X169693Y102944D01*
X169693Y105056D01*
X170501Y107006D01*
X170954Y107459D01*
X170988Y107502D01*
X171028Y107539D01*
X171088Y107630D01*
X171156Y107717D01*
X171178Y107767D01*
X171208Y107812D01*
X171245Y107916D01*
X171290Y108017D01*
X171299Y108070D01*
X171317Y108121D01*
X171332Y108252D01*
X171347Y108340D01*
X171345Y108374D01*
X171349Y108413D01*
X171349Y117000D01*
X171338Y117090D01*
X171337Y117181D01*
X171318Y117252D01*
X171309Y117326D01*
X171277Y117411D01*
X171254Y117498D01*
X171219Y117563D01*
X171192Y117632D01*
X171140Y117706D01*
X171097Y117786D01*
X171047Y117840D01*
X171005Y117901D01*
X170936Y117961D01*
X170874Y118028D01*
X170813Y118068D01*
X170758Y118116D01*
X170677Y118158D01*
X170601Y118208D01*
X170531Y118233D01*
X170466Y118266D01*
X170377Y118287D01*
X170292Y118317D01*
X170211Y118326D01*
X170147Y118341D01*
X170081Y118340D01*
X170000Y118349D01*
X167559Y118349D01*
X161349Y124559D01*
X161349Y126258D01*
X161343Y126312D01*
X161345Y126366D01*
X161323Y126474D01*
X161309Y126584D01*
X161290Y126634D01*
X161279Y126688D01*
X161232Y126787D01*
X161192Y126890D01*
X161161Y126934D01*
X161138Y126983D01*
X161055Y127086D01*
X161005Y127159D01*
X160979Y127181D01*
X160954Y127212D01*
X160720Y127446D01*
X160677Y127480D01*
X160640Y127520D01*
X160549Y127580D01*
X160462Y127648D01*
X160412Y127670D01*
X160367Y127700D01*
X160263Y127737D01*
X160162Y127782D01*
X160109Y127791D01*
X160058Y127809D01*
X159927Y127824D01*
X159839Y127839D01*
X159805Y127837D01*
X159766Y127841D01*
X153492Y127841D01*
X153438Y127835D01*
X153384Y127837D01*
X153276Y127815D01*
X153167Y127801D01*
X153116Y127782D01*
X153063Y127771D01*
X152963Y127724D01*
X152860Y127684D01*
X152816Y127653D01*
X152767Y127630D01*
X152664Y127547D01*
X152591Y127497D01*
X152569Y127471D01*
X152538Y127446D01*
X150046Y124954D01*
X150012Y124911D01*
X149972Y124874D01*
X149912Y124783D01*
X149844Y124696D01*
X149822Y124646D01*
X149792Y124601D01*
X149755Y124497D01*
X149710Y124396D01*
X149701Y124343D01*
X149683Y124292D01*
X149668Y124161D01*
X149653Y124073D01*
X149655Y124039D01*
X149651Y124000D01*
X149651Y77000D01*
X149657Y76946D01*
X149655Y76892D01*
X149677Y76784D01*
X149691Y76675D01*
X149710Y76624D01*
X149721Y76571D01*
X149768Y76471D01*
X149808Y76368D01*
X149839Y76324D01*
X149862Y76275D01*
X149945Y76172D01*
X149995Y76099D01*
X150021Y76077D01*
X150046Y76046D01*
X154046Y72046D01*
X154089Y72012D01*
X154126Y71972D01*
X154217Y71912D01*
X154304Y71844D01*
X154354Y71822D01*
X154399Y71792D01*
X154503Y71755D01*
X154604Y71710D01*
X154657Y71701D01*
X154708Y71683D01*
X154839Y71668D01*
X154927Y71653D01*
X154961Y71655D01*
X155000Y71651D01*
X169000Y71651D01*
X169054Y71657D01*
G37*
G36*
X194054Y71657D02*
X194054Y71657D01*
X194108Y71655D01*
X194216Y71677D01*
X194326Y71691D01*
X194376Y71710D01*
X194430Y71721D01*
X194529Y71768D01*
X194632Y71808D01*
X194676Y71839D01*
X194725Y71862D01*
X194828Y71945D01*
X194901Y71995D01*
X194923Y72021D01*
X194954Y72046D01*
X196954Y74046D01*
X196988Y74089D01*
X197028Y74126D01*
X197088Y74217D01*
X197156Y74304D01*
X197178Y74354D01*
X197208Y74399D01*
X197245Y74503D01*
X197290Y74604D01*
X197299Y74657D01*
X197317Y74708D01*
X197332Y74839D01*
X197347Y74927D01*
X197345Y74961D01*
X197349Y75000D01*
X197349Y125000D01*
X197343Y125054D01*
X197345Y125108D01*
X197323Y125216D01*
X197309Y125326D01*
X197290Y125376D01*
X197279Y125430D01*
X197232Y125529D01*
X197192Y125632D01*
X197161Y125676D01*
X197138Y125725D01*
X197055Y125828D01*
X197005Y125901D01*
X196979Y125923D01*
X196954Y125954D01*
X195462Y127446D01*
X195419Y127480D01*
X195382Y127520D01*
X195291Y127580D01*
X195204Y127648D01*
X195154Y127670D01*
X195109Y127700D01*
X195005Y127737D01*
X194904Y127782D01*
X194851Y127791D01*
X194800Y127809D01*
X194669Y127824D01*
X194581Y127839D01*
X194547Y127837D01*
X194508Y127841D01*
X189484Y127841D01*
X189394Y127830D01*
X189303Y127829D01*
X189232Y127810D01*
X189159Y127801D01*
X189073Y127769D01*
X188986Y127746D01*
X188921Y127711D01*
X188852Y127684D01*
X188778Y127632D01*
X188698Y127589D01*
X188644Y127539D01*
X188583Y127497D01*
X188537Y127444D01*
X188530Y127438D01*
X188480Y127388D01*
X188456Y127366D01*
X188453Y127361D01*
X188046Y126954D01*
X188012Y126911D01*
X187972Y126874D01*
X187912Y126783D01*
X187844Y126696D01*
X187822Y126646D01*
X187792Y126601D01*
X187755Y126497D01*
X187710Y126396D01*
X187701Y126343D01*
X187683Y126292D01*
X187668Y126161D01*
X187653Y126073D01*
X187655Y126039D01*
X187651Y126000D01*
X187651Y123559D01*
X182441Y118349D01*
X180000Y118349D01*
X179910Y118338D01*
X179819Y118337D01*
X179748Y118318D01*
X179675Y118309D01*
X179589Y118277D01*
X179502Y118254D01*
X179437Y118219D01*
X179368Y118192D01*
X179294Y118140D01*
X179214Y118097D01*
X179160Y118047D01*
X179099Y118005D01*
X179039Y117936D01*
X178972Y117874D01*
X178932Y117813D01*
X178884Y117758D01*
X178842Y117677D01*
X178792Y117601D01*
X178767Y117531D01*
X178734Y117466D01*
X178713Y117377D01*
X178683Y117292D01*
X178674Y117211D01*
X178659Y117147D01*
X178660Y117081D01*
X178651Y117000D01*
X178651Y108413D01*
X178657Y108359D01*
X178655Y108305D01*
X178677Y108197D01*
X178691Y108087D01*
X178710Y108037D01*
X178721Y107983D01*
X178768Y107884D01*
X178808Y107781D01*
X178839Y107737D01*
X178862Y107688D01*
X178945Y107585D01*
X178995Y107512D01*
X179021Y107490D01*
X179046Y107459D01*
X179499Y107006D01*
X180307Y105056D01*
X180307Y102944D01*
X179499Y100994D01*
X179046Y100541D01*
X179012Y100498D01*
X178972Y100461D01*
X178912Y100370D01*
X178844Y100283D01*
X178822Y100233D01*
X178792Y100188D01*
X178755Y100084D01*
X178710Y99983D01*
X178701Y99930D01*
X178683Y99879D01*
X178668Y99748D01*
X178653Y99660D01*
X178655Y99626D01*
X178651Y99587D01*
X178651Y74000D01*
X178657Y73946D01*
X178655Y73892D01*
X178677Y73784D01*
X178691Y73675D01*
X178710Y73624D01*
X178721Y73571D01*
X178768Y73471D01*
X178808Y73368D01*
X178839Y73324D01*
X178862Y73275D01*
X178945Y73172D01*
X178995Y73099D01*
X179021Y73077D01*
X179046Y73046D01*
X180046Y72046D01*
X180089Y72012D01*
X180126Y71972D01*
X180217Y71912D01*
X180304Y71844D01*
X180354Y71822D01*
X180399Y71792D01*
X180503Y71755D01*
X180604Y71710D01*
X180657Y71701D01*
X180708Y71683D01*
X180839Y71668D01*
X180927Y71653D01*
X180961Y71655D01*
X181000Y71651D01*
X194000Y71651D01*
X194054Y71657D01*
G37*
G36*
X134012Y112503D02*
X134012Y112503D01*
X134025Y112501D01*
X134109Y112523D01*
X134195Y112540D01*
X134205Y112548D01*
X134217Y112551D01*
X134353Y112647D01*
X152207Y130501D01*
X160000Y130501D01*
X160008Y130502D01*
X160017Y130501D01*
X160105Y130522D01*
X160195Y130540D01*
X160202Y130545D01*
X160210Y130547D01*
X160283Y130601D01*
X160359Y130653D01*
X160363Y130660D01*
X160370Y130665D01*
X160417Y130743D01*
X160466Y130820D01*
X160467Y130829D01*
X160472Y130836D01*
X160499Y131000D01*
X160499Y138000D01*
X160498Y138008D01*
X160499Y138017D01*
X160478Y138105D01*
X160460Y138195D01*
X160455Y138202D01*
X160453Y138210D01*
X160399Y138283D01*
X160347Y138359D01*
X160340Y138363D01*
X160335Y138370D01*
X160257Y138417D01*
X160180Y138466D01*
X160171Y138467D01*
X160164Y138472D01*
X160000Y138499D01*
X149000Y138499D01*
X148988Y138497D01*
X148975Y138499D01*
X148891Y138477D01*
X148805Y138460D01*
X148795Y138453D01*
X148783Y138449D01*
X148647Y138353D01*
X135793Y125499D01*
X130000Y125499D01*
X129988Y125497D01*
X129975Y125499D01*
X129891Y125477D01*
X129805Y125460D01*
X129795Y125453D01*
X129783Y125449D01*
X129647Y125353D01*
X127647Y123353D01*
X127640Y123342D01*
X127630Y123335D01*
X127586Y123260D01*
X127537Y123187D01*
X127535Y123175D01*
X127528Y123164D01*
X127501Y123000D01*
X127501Y113000D01*
X127502Y112992D01*
X127501Y112983D01*
X127522Y112895D01*
X127540Y112805D01*
X127545Y112798D01*
X127547Y112790D01*
X127601Y112717D01*
X127653Y112641D01*
X127660Y112637D01*
X127665Y112630D01*
X127743Y112583D01*
X127820Y112534D01*
X127829Y112533D01*
X127836Y112528D01*
X128000Y112501D01*
X134000Y112501D01*
X134012Y112503D01*
G37*
G36*
X216030Y126004D02*
X216030Y126004D01*
X216060Y126002D01*
X216229Y126024D01*
X216397Y126041D01*
X216426Y126050D01*
X216456Y126054D01*
X216617Y126109D01*
X216779Y126159D01*
X216806Y126173D01*
X216834Y126183D01*
X216980Y126269D01*
X217129Y126350D01*
X217153Y126370D01*
X217179Y126385D01*
X217305Y126498D01*
X217435Y126608D01*
X217454Y126632D01*
X217476Y126652D01*
X217577Y126788D01*
X217683Y126921D01*
X217697Y126948D01*
X217715Y126972D01*
X217787Y127125D01*
X217864Y127277D01*
X217872Y127306D01*
X217885Y127333D01*
X217925Y127499D01*
X217970Y127662D01*
X217973Y127692D01*
X217980Y127721D01*
X217999Y128000D01*
X217999Y137000D01*
X217996Y137030D01*
X217998Y137060D01*
X217976Y137229D01*
X217959Y137397D01*
X217950Y137426D01*
X217946Y137456D01*
X217891Y137617D01*
X217841Y137779D01*
X217827Y137806D01*
X217817Y137834D01*
X217731Y137980D01*
X217650Y138129D01*
X217630Y138153D01*
X217615Y138179D01*
X217502Y138305D01*
X217392Y138435D01*
X217369Y138454D01*
X217348Y138476D01*
X217212Y138577D01*
X217079Y138683D01*
X217052Y138697D01*
X217028Y138715D01*
X216875Y138787D01*
X216723Y138864D01*
X216694Y138872D01*
X216667Y138885D01*
X216501Y138925D01*
X216338Y138970D01*
X216308Y138973D01*
X216279Y138980D01*
X216000Y138999D01*
X190000Y138999D01*
X189970Y138996D01*
X189940Y138998D01*
X189771Y138976D01*
X189603Y138959D01*
X189574Y138950D01*
X189544Y138946D01*
X189383Y138891D01*
X189221Y138841D01*
X189194Y138827D01*
X189166Y138817D01*
X189020Y138731D01*
X188871Y138650D01*
X188847Y138630D01*
X188821Y138615D01*
X188695Y138502D01*
X188565Y138392D01*
X188546Y138369D01*
X188524Y138348D01*
X188423Y138212D01*
X188317Y138079D01*
X188303Y138052D01*
X188285Y138028D01*
X188213Y137875D01*
X188136Y137723D01*
X188128Y137694D01*
X188115Y137667D01*
X188075Y137501D01*
X188030Y137338D01*
X188027Y137308D01*
X188020Y137279D01*
X188001Y137000D01*
X188001Y132000D01*
X188004Y131970D01*
X188002Y131940D01*
X188024Y131771D01*
X188041Y131603D01*
X188050Y131574D01*
X188054Y131544D01*
X188109Y131383D01*
X188159Y131221D01*
X188173Y131194D01*
X188183Y131166D01*
X188269Y131020D01*
X188350Y130871D01*
X188370Y130847D01*
X188385Y130821D01*
X188498Y130695D01*
X188608Y130565D01*
X188632Y130546D01*
X188652Y130524D01*
X188788Y130423D01*
X188921Y130317D01*
X188948Y130303D01*
X188972Y130285D01*
X189125Y130213D01*
X189277Y130136D01*
X189306Y130128D01*
X189333Y130115D01*
X189499Y130075D01*
X189662Y130030D01*
X189692Y130027D01*
X189721Y130020D01*
X190000Y130001D01*
X201172Y130001D01*
X204586Y126586D01*
X204621Y126558D01*
X204652Y126524D01*
X204776Y126432D01*
X204896Y126334D01*
X204936Y126312D01*
X204972Y126285D01*
X205112Y126219D01*
X205249Y126147D01*
X205292Y126134D01*
X205333Y126115D01*
X205484Y126078D01*
X205632Y126035D01*
X205677Y126031D01*
X205721Y126020D01*
X206000Y126001D01*
X216000Y126001D01*
X216030Y126004D01*
G37*
G36*
X181008Y142502D02*
X181008Y142502D01*
X181017Y142501D01*
X181105Y142522D01*
X181195Y142540D01*
X181202Y142545D01*
X181210Y142547D01*
X181283Y142601D01*
X181359Y142653D01*
X181363Y142660D01*
X181370Y142665D01*
X181417Y142743D01*
X181466Y142820D01*
X181467Y142829D01*
X181472Y142836D01*
X181499Y143000D01*
X181499Y156000D01*
X181497Y156012D01*
X181499Y156025D01*
X181477Y156109D01*
X181460Y156195D01*
X181453Y156205D01*
X181449Y156217D01*
X181353Y156353D01*
X178853Y158853D01*
X178846Y158858D01*
X178841Y158865D01*
X178764Y158912D01*
X178687Y158963D01*
X178679Y158964D01*
X178672Y158969D01*
X178582Y158982D01*
X178492Y158999D01*
X178484Y158997D01*
X178475Y158999D01*
X178387Y158976D01*
X178298Y158956D01*
X178291Y158951D01*
X178283Y158949D01*
X178147Y158853D01*
X174647Y155353D01*
X174640Y155342D01*
X174630Y155335D01*
X174586Y155260D01*
X174537Y155187D01*
X174535Y155175D01*
X174528Y155164D01*
X174501Y155000D01*
X174501Y143000D01*
X174502Y142992D01*
X174501Y142983D01*
X174522Y142895D01*
X174540Y142805D01*
X174545Y142798D01*
X174547Y142790D01*
X174601Y142717D01*
X174653Y142641D01*
X174660Y142637D01*
X174665Y142630D01*
X174743Y142583D01*
X174820Y142534D01*
X174829Y142533D01*
X174836Y142528D01*
X175000Y142501D01*
X181000Y142501D01*
X181008Y142502D01*
G37*
D10*
X168400Y30500D03*
X168400Y14500D03*
X15000Y82000D03*
X15000Y98000D03*
X213360Y132570D03*
X213360Y148570D03*
D11*
X20600Y162100D03*
X20600Y199100D03*
D12*
X74700Y78500D03*
X74700Y88000D03*
X74700Y97500D03*
X48700Y97500D03*
X48700Y78500D03*
D13*
X142500Y24800D03*
X117100Y24800D03*
D14*
X69800Y147200D03*
X79300Y127200D03*
X60300Y127200D03*
D15*
X108000Y96380D03*
X124000Y96380D03*
X18400Y217400D03*
X34400Y217400D03*
D10*
X219600Y182600D03*
X219600Y198600D03*
D15*
X128000Y117000D03*
X112000Y117000D03*
D16*
X70500Y167000D03*
X89500Y167000D03*
X80000Y188000D03*
D15*
X49000Y267000D03*
X65000Y267000D03*
D17*
X183420Y87500D03*
X166420Y87500D03*
D10*
X190500Y14000D03*
X190500Y30000D03*
D15*
X110000Y50000D03*
X126000Y50000D03*
D18*
X35500Y125400D03*
X35500Y144600D03*
X14500Y135000D03*
D15*
X110000Y75000D03*
X126000Y75000D03*
D19*
X110000Y208500D03*
X115000Y208500D03*
X120000Y208500D03*
X125000Y208500D03*
X130000Y208500D03*
X135000Y208500D03*
X140000Y208500D03*
D20*
X149000Y217500D03*
X149000Y222500D03*
X149000Y227500D03*
X149000Y232500D03*
X149000Y237500D03*
X149000Y242500D03*
X149000Y247500D03*
D19*
X140000Y256500D03*
X135000Y256500D03*
X130000Y256500D03*
X125000Y256500D03*
X120000Y256500D03*
X115000Y256500D03*
X110000Y256500D03*
D20*
X101000Y247500D03*
X101000Y242500D03*
X101000Y237500D03*
X101000Y232500D03*
X101000Y227500D03*
X101000Y222500D03*
X101000Y217500D03*
D21*
X125000Y232500D03*
D10*
X23000Y255000D03*
X23000Y239000D03*
D15*
X22000Y427500D03*
X38000Y427500D03*
D10*
X327500Y184500D03*
X327500Y200500D03*
X302500Y184500D03*
X302500Y200500D03*
X275000Y184500D03*
X275000Y200500D03*
D15*
X134000Y173000D03*
X118000Y173000D03*
X49500Y247500D03*
X65500Y247500D03*
X233500Y232500D03*
X249500Y232500D03*
X177500Y202000D03*
X193500Y202000D03*
D10*
X182000Y255500D03*
X182000Y239500D03*
X246500Y199000D03*
X246500Y183000D03*
D15*
X128000Y145000D03*
X112000Y145000D03*
D10*
X50000Y183000D03*
X50000Y167000D03*
X53000Y223000D03*
X53000Y207000D03*
D22*
X312500Y407500D02*
X352500Y407500D01*
X352500Y427500D01*
X322500Y427500D01*
X322500Y447500D01*
X352500Y447500D01*
X352500Y467500D01*
X322500Y467500D01*
X322500Y487500D01*
X352500Y487500D01*
X352500Y507500D01*
X322500Y507500D01*
D23*
X312500Y407500D03*
D24*
X178000Y434500D03*
X178000Y430500D03*
X178000Y426500D03*
X178000Y422500D03*
X178000Y418500D03*
X178000Y414500D03*
X178000Y410500D03*
X178000Y406500D03*
X178000Y402500D03*
X178000Y398500D03*
X178000Y394500D03*
X178000Y390500D03*
D25*
X193000Y375500D03*
X197000Y375500D03*
X201000Y375500D03*
X205000Y375500D03*
X209000Y375500D03*
X213000Y375500D03*
X217000Y375500D03*
X221000Y375500D03*
X225000Y375500D03*
X229000Y375500D03*
X233000Y375500D03*
X237000Y375500D03*
D24*
X252000Y390500D03*
X252000Y394500D03*
X252000Y398500D03*
X252000Y402500D03*
X252000Y406500D03*
X252000Y410500D03*
X252000Y414500D03*
X252000Y418500D03*
X252000Y422500D03*
X252000Y426500D03*
X252000Y430500D03*
X252000Y434500D03*
D25*
X237000Y449500D03*
X233000Y449500D03*
X229000Y449500D03*
X225000Y449500D03*
X221000Y449500D03*
X217000Y449500D03*
X213000Y449500D03*
X209000Y449500D03*
X205000Y449500D03*
X201000Y449500D03*
X197000Y449500D03*
X193000Y449500D03*
D26*
X215000Y412500D03*
D27*
X197000Y430500D03*
X197000Y418500D03*
X197000Y406500D03*
X197000Y394500D03*
X209000Y430500D03*
X209000Y418500D03*
X209000Y406500D03*
X209000Y394500D03*
X221000Y430500D03*
X221000Y418500D03*
X221000Y406500D03*
X221000Y394500D03*
X233000Y430500D03*
X233000Y418500D03*
X233000Y406500D03*
X233000Y394500D03*
D15*
X87500Y378500D03*
X103500Y378500D03*
X140000Y448000D03*
X156000Y448000D03*
X105500Y352500D03*
X89500Y352500D03*
D10*
X205000Y334500D03*
X205000Y318500D03*
X299500Y423000D03*
X299500Y407000D03*
D15*
X240500Y329000D03*
X224500Y329000D03*
X261000Y329000D03*
X277000Y329000D03*
D10*
X299500Y444500D03*
X299500Y460500D03*
X297500Y483000D03*
X297500Y499000D03*
D15*
X262500Y494500D03*
X246500Y494500D03*
X255500Y524000D03*
X239500Y524000D03*
X184500Y514000D03*
X200500Y514000D03*
X213000Y495000D03*
X197000Y495000D03*
D10*
X338000Y243000D03*
X338000Y227000D03*
X169000Y493500D03*
X169000Y477500D03*
D28*
X325000Y317250D03*
X325000Y310750D03*
X325000Y304250D03*
X325000Y297750D03*
X355000Y297750D03*
X355000Y304250D03*
X355000Y310750D03*
X355000Y317250D03*
D29*
X340000Y307500D03*
D15*
X249500Y249000D03*
X233500Y249000D03*
X331500Y268500D03*
X347500Y268500D03*
D30*
X91000Y295950D03*
X91000Y308650D03*
X91000Y321350D03*
X91000Y334050D03*
X19000Y334050D03*
X19000Y321350D03*
X19000Y308650D03*
X19000Y295950D03*
D15*
X130500Y355500D03*
X146500Y355500D03*
X131500Y376500D03*
X147500Y376500D03*
X312500Y227500D03*
X296500Y227500D03*
D31*
X212500Y546000D03*
X195500Y546000D03*
D13*
X51000Y367000D03*
X52000Y403000D03*
X281000Y575000D03*
X20000Y402500D03*
X20000Y367500D03*
X306500Y340000D03*
X325000Y575000D03*
X274000Y353500D03*
D32*
X170000Y116230D03*
X175000Y116230D03*
X180000Y116230D03*
D33*
X190270Y126500D03*
X190270Y131500D03*
X190270Y136500D03*
D32*
X180000Y146770D03*
X175000Y146770D03*
X170000Y146770D03*
D33*
X159730Y136500D03*
X159730Y131500D03*
X159730Y126500D03*
D34*
X182033Y124467D02*
X182033Y138533D01*
X182033Y124467D02*
X167967Y124467D01*
X167967Y138533D01*
X182033Y138533D01*
X182033Y124880D02*
X167967Y124880D01*
X167967Y125293D02*
X182033Y125293D01*
X182033Y125706D02*
X167967Y125706D01*
X167967Y126119D02*
X182033Y126119D01*
X182033Y126532D02*
X167967Y126532D01*
X167967Y126945D02*
X182033Y126945D01*
X182033Y127358D02*
X167967Y127358D01*
X167967Y127771D02*
X182033Y127771D01*
X182033Y128184D02*
X167967Y128184D01*
X167967Y128597D02*
X182033Y128597D01*
X182033Y129010D02*
X167967Y129010D01*
X167967Y129423D02*
X182033Y129423D01*
X182033Y129836D02*
X167967Y129836D01*
X167967Y130249D02*
X182033Y130249D01*
X182033Y130662D02*
X167967Y130662D01*
X167967Y131075D02*
X182033Y131075D01*
X182033Y131488D02*
X167967Y131488D01*
X167967Y131901D02*
X182033Y131901D01*
X182033Y132314D02*
X167967Y132314D01*
X167967Y132727D02*
X182033Y132727D01*
X182033Y133140D02*
X167967Y133140D01*
X167967Y133553D02*
X182033Y133553D01*
X182033Y133966D02*
X167967Y133966D01*
X167967Y134379D02*
X182033Y134379D01*
X182033Y134792D02*
X167967Y134792D01*
X167967Y135205D02*
X182033Y135205D01*
X182033Y135618D02*
X167967Y135618D01*
X167967Y136031D02*
X182033Y136031D01*
X182033Y136444D02*
X167967Y136444D01*
X167967Y136857D02*
X182033Y136857D01*
X182033Y137270D02*
X167967Y137270D01*
X167967Y137683D02*
X182033Y137683D01*
X182033Y138096D02*
X167967Y138096D01*
X167967Y138509D02*
X182033Y138509D01*
D35*
X110000Y407500D03*
X135000Y407500D03*
D36*
X241000Y293500D03*
X219000Y293500D03*
X219000Y276500D03*
X241000Y276500D03*
D37*
X274250Y261750D03*
X274250Y303250D03*
X295750Y261750D03*
X295750Y303250D03*
D38*
X40500Y52480D03*
X47000Y52480D03*
X53500Y52480D03*
X60000Y52480D03*
X66500Y52480D03*
D39*
X28500Y52480D03*
X78500Y52480D03*
D40*
X18500Y25480D03*
X88500Y25480D03*
D41*
X43500Y25480D03*
X63500Y25480D03*
D15*
X196000Y570000D03*
X212000Y570000D03*
D10*
X183000Y276000D03*
X183000Y292000D03*
D42*
X112000Y117000D02*
X101000Y117000D01*
D43*
X101000Y117000D03*
X102000Y125000D03*
D42*
X101000Y117000D02*
X101000Y110000D01*
X102000Y109000D01*
D43*
X102000Y109000D03*
D42*
X213360Y148570D02*
X213360Y159670D01*
X213440Y159750D01*
D43*
X213440Y159750D03*
D42*
X213690Y160000D01*
X222000Y160000D01*
D43*
X222000Y160000D03*
D42*
X213440Y159750D02*
X205250Y159750D01*
X205000Y160000D01*
D43*
X205000Y160000D03*
D42*
X102000Y125000D02*
X101000Y124000D01*
X101000Y117000D01*
X168400Y14500D02*
X190000Y14500D01*
X190500Y14000D01*
X209000Y14000D01*
D43*
X209000Y14000D03*
D44*
X15000Y98000D02*
X15000Y112000D01*
D43*
X15000Y112000D03*
D44*
X66500Y66500D02*
X66500Y52480D01*
X66500Y66500D02*
X66000Y67000D01*
D43*
X66000Y67000D03*
D22*
X175000Y146770D02*
X177000Y148770D01*
X177000Y160000D01*
D43*
X177000Y160000D03*
D45*
X231000Y524000D02*
X239500Y524000D01*
X231000Y524000D02*
X227000Y520000D01*
D43*
X227000Y520000D03*
D45*
X297500Y499000D02*
X298000Y499500D01*
X298000Y513000D01*
D43*
X298000Y513000D03*
D45*
X258000Y279000D02*
X255500Y276500D01*
X241000Y276500D01*
D43*
X258000Y279000D03*
D45*
X283000Y317000D02*
X277000Y323000D01*
X277000Y329000D01*
D43*
X283000Y317000D03*
D44*
X43000Y280000D02*
X43000Y273000D01*
X49000Y267000D01*
D43*
X43000Y280000D03*
D44*
X49000Y267000D02*
X49000Y261000D01*
X52000Y258000D01*
X57000Y258000D01*
X65500Y249500D01*
X65500Y247500D01*
X275000Y200500D02*
X276000Y201500D01*
X276000Y215000D01*
D43*
X276000Y215000D03*
D44*
X246500Y183000D02*
X246500Y173500D01*
X249000Y171000D01*
D43*
X249000Y171000D03*
D45*
X175000Y116230D02*
X175000Y104000D01*
D43*
X175000Y104000D03*
D46*
X124000Y96380D02*
X124000Y77000D01*
X126000Y75000D01*
D22*
X112000Y135000D02*
X112000Y145000D01*
X112000Y135000D02*
X102000Y125000D01*
X101000Y227500D02*
X65830Y227500D01*
X63000Y230330D01*
D43*
X63000Y230330D03*
D22*
X65500Y242500D02*
X65500Y247500D01*
X65500Y242500D02*
X62000Y239000D01*
X62000Y231330D01*
X63000Y230330D01*
X84500Y237500D02*
X101000Y237500D01*
X84500Y237500D02*
X74000Y248000D01*
X66000Y248000D01*
X65500Y247500D01*
D45*
X80000Y188000D02*
X80000Y176000D01*
D43*
X80000Y176000D03*
D22*
X23000Y255000D02*
X23000Y269000D01*
D43*
X23000Y269000D03*
D22*
X11000Y224800D02*
X18400Y217400D01*
X11000Y247000D02*
X19000Y255000D01*
X23000Y255000D01*
X11000Y247000D02*
X11000Y224800D01*
X338000Y227000D02*
X344000Y221000D01*
X349000Y221000D01*
D43*
X349000Y221000D03*
D45*
X273500Y232500D02*
X249500Y232500D01*
X273500Y232500D02*
X274000Y232000D01*
D43*
X274000Y232000D03*
X205000Y203000D03*
D45*
X140000Y448000D02*
X154000Y462000D01*
X154000Y463000D01*
D47*
X154000Y463000D03*
D45*
X105500Y352500D02*
X105500Y348550D01*
X91000Y334050D01*
X154500Y463000D02*
X169000Y477500D01*
X154500Y463000D02*
X154000Y463000D01*
X239500Y501500D02*
X246500Y494500D01*
X239500Y501500D02*
X239500Y524000D01*
X91000Y334050D02*
X88950Y334050D01*
X80000Y343000D01*
D47*
X80000Y343000D03*
D45*
X233500Y248500D02*
X249500Y232500D01*
X233500Y248500D02*
X233500Y249000D01*
X355283Y304800D02*
X355283Y310515D01*
X355283Y304800D02*
X355000Y304250D01*
X355283Y310515D02*
X355000Y310750D01*
X330518Y292418D02*
X325755Y297180D01*
X330518Y292418D02*
X349568Y292418D01*
X354330Y297180D01*
X325755Y297180D02*
X325000Y297750D01*
X354330Y297180D02*
X355000Y297750D01*
X355283Y298133D02*
X355283Y303848D01*
X355000Y304250D01*
X355283Y298133D02*
X355000Y297750D01*
X117158Y173355D02*
X97155Y173355D01*
X94298Y176213D01*
X80963Y176213D01*
X117158Y173355D02*
X118000Y173000D01*
X80963Y176213D02*
X80000Y176000D01*
X278130Y227648D02*
X296228Y227648D01*
X278130Y227648D02*
X274320Y231458D01*
X296228Y227648D02*
X296500Y227500D01*
X274320Y231458D02*
X274000Y232000D01*
X223838Y299085D02*
X223838Y319000D01*
X223838Y328613D01*
X223838Y299085D02*
X219075Y294323D01*
X223838Y328613D02*
X224500Y329000D01*
X219075Y294323D02*
X219000Y293500D01*
X237173Y414338D02*
X251460Y414338D01*
X237173Y414338D02*
X233363Y418148D01*
X251460Y414338D02*
X252000Y414500D01*
X233363Y418148D02*
X233000Y418500D01*
X349568Y292418D02*
X349568Y280988D01*
X356235Y274320D01*
X356235Y245745D01*
X339090Y228600D01*
X338000Y227000D01*
X214313Y413385D02*
X209550Y418148D01*
X214313Y413385D02*
X215000Y412500D01*
X209550Y418148D02*
X209000Y418500D01*
X205000Y318500D02*
X223338Y318500D01*
X223838Y319000D01*
X219000Y293500D02*
X226500Y286000D01*
X229500Y286000D02*
X231250Y284250D01*
X233250Y284250D01*
X241000Y276500D01*
X229500Y286000D02*
X226500Y286000D01*
X115000Y343000D02*
X105500Y352500D01*
X115000Y343000D02*
X116000Y343000D01*
D43*
X116000Y343000D03*
D45*
X127500Y355500D02*
X130500Y355500D01*
X127500Y355500D02*
X120000Y363000D01*
D43*
X120000Y363000D03*
D45*
X113678Y378500D02*
X115178Y380000D01*
X113678Y378500D02*
X103500Y378500D01*
D43*
X115178Y380000D03*
X60000Y338000D03*
D45*
X65000Y343000D01*
X80000Y343000D01*
X183000Y292000D02*
X193000Y292000D01*
X205000Y304000D02*
X205000Y318500D01*
X205000Y304000D02*
X193000Y292000D01*
X205000Y449500D02*
X205000Y480000D01*
D43*
X209322Y483000D03*
D45*
X208000Y483000D01*
X205000Y480000D01*
D43*
X237000Y481000D03*
D45*
X245000Y489000D02*
X245000Y493000D01*
X245000Y489000D02*
X237000Y481000D01*
X245000Y493000D02*
X246500Y494500D01*
X160378Y237500D02*
X149000Y237500D01*
X160378Y237500D02*
X164878Y242000D01*
X167896Y255672D02*
X167896Y268493D01*
X175053Y275650D01*
X164878Y252654D02*
X164878Y242000D01*
X164878Y252654D02*
X167896Y255672D01*
X74700Y88000D02*
X73700Y87000D01*
D46*
X61000Y87000D01*
D43*
X61000Y87000D03*
D46*
X103593Y85086D02*
X115914Y85086D01*
X126000Y75000D01*
X100679Y88000D02*
X74700Y88000D01*
X100679Y88000D02*
X103593Y85086D01*
X106310Y104690D02*
X102000Y109000D01*
X115690Y104690D02*
X124000Y96380D01*
X115690Y104690D02*
X106310Y104690D01*
D45*
X299500Y460500D02*
X299500Y464500D01*
X304794Y469794D02*
X304794Y492706D01*
X298000Y499500D01*
X304794Y469794D02*
X299500Y464500D01*
D48*
X125000Y232500D03*
D45*
X175053Y284053D02*
X183000Y292000D01*
X175053Y284053D02*
X175053Y275650D01*
X205000Y203000D02*
X204000Y202000D01*
X193500Y202000D01*
D22*
X130000Y117000D02*
X128000Y117000D01*
D44*
X293000Y243000D02*
X338000Y243000D01*
X293000Y243000D02*
X274250Y261750D01*
X41000Y291000D02*
X36050Y295950D01*
X19000Y295950D01*
D43*
X41000Y291000D03*
D22*
X347500Y275500D02*
X347500Y268500D01*
X347500Y275500D02*
X342000Y281000D01*
D43*
X342000Y281000D03*
X347000Y336000D03*
D22*
X355000Y328000D01*
X355000Y317250D01*
X347500Y268500D02*
X347500Y252500D01*
X338000Y243000D01*
D44*
X279000Y520000D02*
X275000Y524000D01*
X255500Y524000D01*
D43*
X279000Y520000D03*
X236000Y570000D03*
D44*
X212000Y570000D01*
D45*
X279000Y520000D02*
X279000Y461500D01*
X252000Y434500D01*
D47*
X183000Y470000D03*
D45*
X183826Y458674D02*
X193000Y449500D01*
X183826Y458674D02*
X183826Y458827D01*
X183000Y459653D01*
X183000Y470000D01*
X120000Y267000D02*
X120000Y256500D01*
X120000Y267000D02*
X95747Y267000D01*
X78422Y271190D02*
X55806Y293806D01*
X91557Y271190D02*
X95747Y267000D01*
X91557Y271190D02*
X78422Y271190D01*
X55806Y293806D02*
X43806Y293806D01*
X41000Y291000D01*
X249500Y249000D02*
X262250Y261750D01*
X274250Y261750D01*
X128000Y117000D02*
X128588Y113348D01*
X144780Y327660D02*
X183487Y366367D01*
X192405Y375285D01*
X144780Y327660D02*
X57915Y327660D01*
X51435Y334140D01*
X51435Y366713D01*
X192405Y375285D02*
X193000Y375500D01*
X51435Y366713D02*
X51000Y367000D01*
X159068Y151448D02*
X159068Y137160D01*
X159068Y151448D02*
X155258Y155258D01*
X155258Y162878D01*
X250508Y249555D02*
X260985Y239078D01*
X159068Y137160D02*
X159730Y136500D01*
X249500Y249000D02*
X250508Y249555D01*
D43*
X191595Y165688D03*
X260985Y239078D03*
D45*
X189000Y318500D02*
X205000Y334500D01*
X189000Y318500D02*
X189000Y318000D01*
D43*
X189000Y318000D03*
X183487Y365940D03*
D45*
X183487Y366367D01*
X274250Y275250D02*
X274250Y261750D01*
X287000Y312059D02*
X289322Y314381D01*
X289322Y319619D01*
X289000Y319941D01*
X289000Y334000D01*
X282000Y341000D01*
X259000Y341000D02*
X252000Y348000D01*
X235187Y348000D01*
X211014Y340514D02*
X205000Y334500D01*
X227700Y340514D02*
X235187Y348000D01*
X227700Y340514D02*
X211014Y340514D01*
X274250Y275250D02*
X287000Y288000D01*
X287000Y312059D01*
X282000Y341000D02*
X259000Y341000D01*
X158702Y166322D02*
X155258Y162878D01*
X186000Y165688D02*
X191595Y165688D01*
X186000Y165688D02*
X185366Y166322D01*
X158702Y166322D01*
D44*
X48700Y78500D02*
X40500Y78500D01*
X36000Y83000D01*
D43*
X36000Y83000D03*
X29000Y105000D03*
D44*
X29000Y114000D01*
X14500Y128500D02*
X14500Y135000D01*
X14500Y128500D02*
X29000Y114000D01*
D42*
X142500Y24800D02*
X148200Y30500D01*
X168400Y30500D01*
D22*
X80500Y97500D02*
X74700Y97500D01*
D44*
X80500Y97500D02*
X87000Y104000D01*
D43*
X87000Y104000D03*
X80000Y143000D03*
D44*
X76000Y147000D01*
X70000Y147000D01*
X69800Y147200D01*
D43*
X97000Y365000D03*
D45*
X139000Y385000D02*
X147500Y376500D01*
X139000Y385000D02*
X121500Y385000D01*
X112000Y365000D02*
X97000Y365000D01*
X121500Y374500D02*
X121500Y385000D01*
X121500Y374500D02*
X112000Y365000D01*
X227000Y149000D02*
X227000Y146210D01*
X213360Y132570D01*
D43*
X227000Y149000D03*
D45*
X231400Y182600D02*
X219600Y182600D01*
X231400Y182600D02*
X232000Y182000D01*
D43*
X232000Y182000D03*
D22*
X22700Y160000D02*
X20600Y162100D01*
X22700Y160000D02*
X36000Y160000D01*
D43*
X36000Y160000D03*
X80000Y166658D03*
D22*
X80342Y167000D01*
X89500Y167000D01*
D45*
X80010Y133350D02*
X80010Y127635D01*
X80010Y133350D02*
X97155Y150495D01*
D49*
X93345Y163830D02*
X100965Y163830D01*
X93345Y163830D02*
X90488Y166688D01*
D45*
X80010Y127635D02*
X79300Y127200D01*
X90488Y166688D02*
X89500Y167000D01*
D49*
X100965Y163830D02*
X128873Y163830D01*
X143685Y100000D02*
X143685Y74248D01*
X153353Y64580D01*
X198215Y64580D01*
X204788Y71153D01*
X204788Y126683D01*
X206000Y128000D01*
D43*
X97155Y150495D03*
X100965Y163830D03*
D49*
X143703Y149000D02*
X144000Y149000D01*
D43*
X144000Y149000D03*
X138678Y100000D03*
D49*
X143685Y100000D01*
X143703Y149000D02*
X128873Y163830D01*
D44*
X48700Y97500D02*
X48200Y97000D01*
X35000Y97000D01*
X20000Y82000D02*
X15000Y82000D01*
X20000Y82000D02*
X35000Y97000D01*
X40500Y62500D02*
X40500Y52480D01*
X21000Y82000D02*
X20000Y82000D01*
X21000Y82000D02*
X40500Y62500D01*
X48700Y97500D02*
X48700Y107700D01*
D22*
X49000Y108000D01*
D43*
X49000Y108000D03*
X49000Y126000D03*
D22*
X50200Y127200D01*
D44*
X60300Y127200D01*
D43*
X49000Y152000D03*
D22*
X34100Y199100D02*
X20600Y199100D01*
X34100Y199100D02*
X36000Y201000D01*
X36000Y215800D01*
X34400Y217400D01*
D43*
X21000Y185000D03*
D22*
X20600Y185400D01*
X20600Y199100D01*
X162000Y154770D02*
X170000Y146770D01*
X162000Y154770D02*
X162000Y160000D01*
D43*
X162000Y160000D03*
X165000Y191000D03*
D22*
X212600Y198600D02*
X219600Y198600D01*
X205000Y191000D02*
X165000Y191000D01*
X205000Y191000D02*
X212600Y198600D01*
D45*
X80500Y157000D02*
X70500Y167000D01*
X80500Y157000D02*
X118000Y157000D01*
X128000Y147000D01*
X128000Y145000D01*
D43*
X57000Y281000D03*
D44*
X65000Y273000D01*
X65000Y267000D01*
D22*
X70500Y197500D02*
X70500Y167000D01*
X70500Y197500D02*
X67000Y201000D01*
D43*
X67000Y201000D03*
D45*
X94941Y248000D02*
X75941Y267000D01*
X65000Y267000D01*
X96000Y247500D02*
X101000Y247500D01*
X96000Y247500D02*
X95500Y248000D01*
X94941Y248000D01*
X233500Y232500D02*
X241000Y225000D01*
X241000Y204500D02*
X246500Y199000D01*
X241000Y216000D02*
X241000Y225000D01*
X241000Y216000D02*
X241000Y204500D01*
X177500Y202500D02*
X177500Y202000D01*
X205619Y215678D02*
X205941Y216000D01*
X241000Y216000D01*
X205619Y215678D02*
X190678Y215678D01*
X177500Y202500D01*
X188322Y215678D02*
X190678Y215678D01*
X188322Y215678D02*
X183000Y221000D01*
D43*
X183000Y221000D03*
X125000Y184806D03*
D45*
X114747Y184806D01*
X112619Y182678D01*
X100322Y182678D01*
X82000Y201000D01*
X67000Y201000D01*
D43*
X159366Y258366D03*
D45*
X159366Y243366D01*
X158500Y242500D02*
X149000Y242500D01*
X158500Y242500D02*
X159366Y243366D01*
D22*
X82500Y78500D02*
X74700Y78500D01*
X82500Y78500D02*
X110000Y50000D01*
D45*
X126000Y50000D02*
X155000Y50000D01*
X174500Y50000D01*
X192500Y32000D02*
X190500Y30000D01*
X192500Y32000D02*
X174500Y50000D01*
D43*
X182000Y342617D03*
X193000Y248000D03*
D45*
X203000Y238000D01*
X203000Y222000D01*
D43*
X203000Y222000D03*
X155000Y43000D03*
D45*
X155000Y50000D01*
X205000Y355000D02*
X205000Y375500D01*
X205000Y355000D02*
X192617Y342617D01*
X182000Y342617D01*
X108000Y96380D02*
X102620Y96380D01*
X94000Y105000D02*
X94000Y112000D01*
X90000Y116000D01*
X74000Y116000D01*
X69000Y121000D01*
X69000Y133000D01*
X57400Y144600D01*
X35500Y144600D01*
X94000Y105000D02*
X102620Y96380D01*
D22*
X100000Y75000D02*
X110000Y75000D01*
X100000Y75000D02*
X97000Y78000D01*
D43*
X97000Y78000D03*
X59000Y116000D03*
D22*
X44900Y116000D01*
X35500Y125400D01*
D43*
X107000Y337000D03*
D45*
X209000Y353612D02*
X209000Y375500D01*
X190710Y335322D02*
X181830Y335322D01*
X170358Y323850D01*
X122850Y323850D02*
X119000Y320000D01*
D43*
X119000Y320000D03*
D45*
X190710Y335322D02*
X209000Y353612D01*
X170358Y323850D02*
X122850Y323850D01*
X125000Y285000D02*
X125000Y256500D01*
X91000Y308650D02*
X75650Y308650D01*
X75000Y308000D01*
X75000Y292388D01*
X82388Y285000D01*
X125000Y285000D01*
X121650Y308650D02*
X91000Y308650D01*
X121650Y308650D02*
X130000Y317000D01*
X177000Y317000D02*
X189000Y329000D01*
D43*
X189000Y329000D03*
X182000Y355261D03*
D45*
X177000Y317000D02*
X130000Y317000D01*
X197000Y360000D02*
X197000Y375500D01*
X192261Y355261D02*
X182000Y355261D01*
X192261Y355261D02*
X197000Y360000D01*
X130000Y272424D02*
X130000Y256500D01*
X130000Y272424D02*
X131576Y274000D01*
D43*
X131576Y274000D03*
X117000Y277000D03*
D45*
X113000Y281000D01*
X81000Y281000D01*
X27950Y334050D02*
X19000Y334050D01*
X27950Y334050D02*
X81000Y281000D01*
X177165Y366665D02*
X177165Y389573D01*
X177165Y366665D02*
X144828Y334328D01*
X131923Y334328D01*
X177165Y389573D02*
X178000Y390500D01*
D43*
X131923Y334328D03*
D45*
X135000Y267560D02*
X135000Y256500D01*
X135000Y267560D02*
X141440Y274000D01*
D43*
X141440Y274000D03*
X108000Y274000D03*
D45*
X107000Y275000D01*
X34650Y321350D02*
X19000Y321350D01*
X81000Y275000D02*
X107000Y275000D01*
X81000Y275000D02*
X34650Y321350D01*
X166688Y394335D02*
X177165Y394335D01*
X166688Y394335D02*
X164783Y392430D01*
X164783Y364808D01*
X177165Y394335D02*
X178000Y394500D01*
D43*
X164783Y364808D03*
D45*
X148000Y264500D02*
X140000Y256500D01*
X148000Y264500D02*
X148000Y292000D01*
D43*
X148000Y292000D03*
X126000Y342694D03*
D45*
X127306Y344000D01*
X149112Y344000D01*
X177546Y398294D02*
X178000Y398384D01*
X178000Y398500D01*
X165258Y398294D02*
X158461Y391496D01*
X165258Y398294D02*
X177546Y398294D01*
X158461Y353349D02*
X149112Y344000D01*
X158461Y353349D02*
X158461Y391496D01*
X149543Y259080D02*
X149543Y247650D01*
X192061Y348939D02*
X200978Y357855D01*
X200978Y375285D01*
X149543Y247650D02*
X149000Y247500D01*
X200978Y375285D02*
X201000Y375500D01*
D43*
X166731Y276269D03*
D45*
X149543Y259080D01*
D43*
X171105Y344000D03*
D45*
X176043Y348939D01*
X192061Y348939D01*
D44*
X302500Y184500D02*
X311500Y184500D01*
X327500Y200500D01*
D45*
X135049Y208452D02*
X135000Y208500D01*
D22*
X135049Y208452D02*
X135049Y174230D01*
D45*
X134000Y173000D01*
D49*
X135255Y173355D02*
X233363Y173355D01*
X243840Y162878D01*
X280035Y162878D01*
X300990Y183833D01*
D45*
X135255Y173355D02*
X134000Y173000D01*
X300990Y183833D02*
X302500Y184500D01*
D49*
X279500Y184500D02*
X275000Y184500D01*
X295500Y200500D02*
X302500Y200500D01*
X295500Y200500D02*
X279500Y184500D01*
X76153Y426720D02*
X38100Y426720D01*
X76153Y426720D02*
X85678Y417195D01*
X96203Y417195D01*
X156210Y299000D02*
X156210Y275273D01*
D45*
X145733Y201930D02*
X166688Y201930D01*
X145733Y201930D02*
X140018Y207645D01*
X38100Y426720D02*
X38000Y427500D01*
X140000Y208500D02*
X140018Y207645D01*
D49*
X294323Y212408D02*
X294323Y201930D01*
X294323Y212408D02*
X285750Y220980D01*
X294323Y201930D02*
X295500Y200500D01*
D43*
X96203Y417195D03*
X156210Y275273D03*
X166688Y201930D03*
X285750Y220980D03*
X156210Y299000D03*
D22*
X101000Y217500D02*
X99000Y217500D01*
X70500Y217500D01*
X60000Y207000D02*
X53000Y207000D01*
X60000Y207000D02*
X70500Y217500D01*
X50000Y167000D02*
X43000Y167000D01*
X38000Y172000D02*
X38000Y192000D01*
X53000Y207000D01*
X38000Y172000D02*
X43000Y167000D01*
X53000Y207000D02*
X44000Y216000D01*
X44000Y224000D01*
X40000Y228000D01*
X32000Y228000D01*
X23000Y237000D01*
X23000Y239000D01*
D45*
X115000Y208500D02*
X120000Y208500D01*
X125000Y208500D01*
X130000Y208500D01*
X115000Y208500D02*
X110000Y208500D01*
X101500Y208500D01*
X99000Y211000D02*
X99000Y217500D01*
X99000Y211000D02*
X101500Y208500D01*
X110000Y208500D02*
X110000Y198000D01*
X112000Y196000D02*
X115000Y196000D01*
X120000Y196000D01*
X124000Y196000D01*
X127000Y196000D01*
X130000Y199000D01*
X130000Y208500D01*
X112000Y196000D02*
X110000Y198000D01*
X125000Y197000D02*
X125000Y208500D01*
X125000Y197000D02*
X124000Y196000D01*
X120000Y196000D02*
X120000Y208500D01*
X115000Y208500D02*
X115000Y196000D01*
X112000Y196000D02*
X112000Y195000D01*
X106000Y189000D01*
D43*
X106000Y189000D03*
X171000Y213000D03*
D45*
X166500Y217500D01*
X149000Y217500D01*
X165258Y232410D02*
X168688Y235840D01*
X165258Y232410D02*
X149543Y232410D01*
X149000Y232500D01*
X168688Y235840D02*
X168688Y251000D01*
X169190Y251503D01*
X169190Y251578D01*
X171706Y254094D01*
X183000Y274201D02*
X183000Y276000D01*
X183000Y274201D02*
X171706Y262907D01*
X171706Y254094D01*
X168164Y227500D02*
X149000Y227500D01*
X173000Y232336D02*
X173000Y248000D01*
X180000Y255500D02*
X182000Y255500D01*
X180000Y255500D02*
X180000Y255000D01*
X173000Y248000D01*
X173000Y232336D02*
X168164Y227500D01*
D22*
X101000Y242500D02*
X91500Y242500D01*
X81000Y253000D01*
D43*
X81000Y253000D03*
X40000Y237000D03*
D22*
X49500Y246500D02*
X49500Y247500D01*
X49500Y246500D02*
X40000Y237000D01*
X53500Y222500D02*
X101000Y222500D01*
X53500Y222500D02*
X53000Y223000D01*
D45*
X149000Y222500D02*
X170552Y222500D01*
X182000Y233948D02*
X182000Y239500D01*
X182000Y233948D02*
X170552Y222500D01*
D22*
X101000Y232500D02*
X77500Y232500D01*
X75000Y235000D01*
D43*
X75000Y235000D03*
X63000Y183000D03*
D22*
X50000Y183000D01*
D45*
X252118Y394383D02*
X252000Y394500D01*
X289186Y394383D02*
X303848Y379721D01*
X289186Y394383D02*
X252118Y394383D01*
X303848Y342653D02*
X306500Y340000D01*
X303848Y342653D02*
X303848Y379721D01*
X178000Y402500D02*
X155888Y402500D01*
X143578Y390190D01*
X100810Y390190D02*
X91000Y400000D01*
X79000Y400000D01*
X36500Y384000D02*
X20000Y367500D01*
X100810Y390190D02*
X143578Y390190D01*
X79000Y400000D02*
X63000Y384000D01*
X36500Y384000D01*
X154500Y406500D02*
X178000Y406500D01*
X103000Y394000D02*
X93000Y404000D01*
X76000Y404000D01*
X33500Y389000D02*
X20000Y402500D01*
X61000Y389000D02*
X76000Y404000D01*
X61000Y389000D02*
X33500Y389000D01*
X103000Y394000D02*
X142000Y394000D01*
X154500Y406500D01*
D47*
X293000Y375000D03*
D45*
X237500Y375000D01*
X237000Y375500D01*
X178000Y422500D02*
X159500Y422500D01*
X150000Y413000D02*
X149000Y413000D01*
D43*
X149000Y413000D03*
X149000Y366000D03*
D45*
X142000Y366000D01*
X131500Y376500D01*
X150000Y413000D02*
X159500Y422500D01*
X149000Y366000D02*
X146500Y363500D01*
X146500Y355500D01*
X312500Y227500D02*
X323500Y227500D01*
X324000Y228000D01*
X325000Y227000D01*
D43*
X325000Y227000D03*
X313000Y263000D03*
D45*
X311750Y261750D01*
X295750Y261750D01*
D43*
X249000Y262000D03*
D45*
X199000Y262000D01*
X210843Y302294D02*
X211294Y302294D01*
X216000Y307000D01*
X195678Y287129D02*
X195678Y265322D01*
X195678Y287129D02*
X210843Y302294D01*
X216000Y307000D02*
X216000Y310000D01*
D43*
X216000Y310000D03*
X232500Y354254D03*
D45*
X195678Y265322D02*
X199000Y262000D01*
X233000Y354754D02*
X233000Y375500D01*
X233000Y354754D02*
X232500Y354254D01*
X178000Y430500D02*
X138500Y430500D01*
X138000Y430000D02*
X135000Y427000D01*
X135000Y407500D01*
X156000Y448000D02*
X164000Y456000D01*
X177000Y456000D01*
D47*
X177000Y456000D03*
X107000Y426000D03*
D45*
X111000Y430000D01*
X138000Y430000D02*
X138500Y430500D01*
X138000Y430000D02*
X111000Y430000D01*
X98500Y434500D02*
X178000Y434500D01*
X98500Y434500D02*
X89000Y425000D01*
D43*
X89000Y425000D03*
X89000Y391000D03*
D45*
X89000Y380000D01*
X87500Y378500D01*
X152500Y426500D02*
X178000Y426500D01*
X152500Y426500D02*
X149000Y423000D01*
D43*
X149000Y423000D03*
X125000Y423000D03*
D45*
X110000Y408000D01*
X110000Y407500D01*
X89500Y354500D02*
X89500Y352500D01*
X89500Y354500D02*
X81000Y363000D01*
D47*
X81000Y363000D03*
X80000Y411000D03*
D45*
X81000Y410000D01*
X108000Y410000D01*
X110000Y408000D01*
X262500Y494500D02*
X263000Y494000D01*
X263000Y481000D01*
D47*
X263000Y481000D03*
X288000Y474000D03*
D45*
X287000Y473000D01*
X287000Y437000D01*
X272500Y422500D02*
X252000Y422500D01*
X272500Y422500D02*
X287000Y437000D01*
X297500Y474000D02*
X297500Y483000D01*
X297500Y474000D02*
X291000Y467500D01*
X291000Y433000D01*
X276500Y418500D02*
X252000Y418500D01*
X276500Y418500D02*
X291000Y433000D01*
X261000Y329000D02*
X261000Y313500D01*
X241000Y293500D01*
X261000Y329000D02*
X253000Y337000D01*
X251000Y337000D01*
D43*
X251000Y337000D03*
X275331Y440000D03*
D45*
X272810Y437480D01*
X272810Y433422D01*
X265888Y426500D02*
X252000Y426500D01*
X265888Y426500D02*
X272810Y433422D01*
X213000Y495000D02*
X213000Y501500D01*
X200500Y514000D01*
X197000Y487000D02*
X201000Y483000D01*
X197000Y487000D02*
X197000Y495000D01*
X201000Y483000D02*
X201000Y449500D01*
D50*
X169000Y493500D02*
X170500Y495000D01*
X197000Y495000D01*
D45*
X184500Y514000D02*
X184500Y530500D01*
X185000Y531000D01*
D47*
X185000Y531000D03*
X184000Y483000D03*
D45*
X197000Y470000D01*
X197000Y449500D01*
X213000Y375500D02*
X213164Y375336D01*
X213164Y348836D01*
D43*
X213164Y348836D03*
X195623Y310623D03*
D45*
X193322Y308322D02*
X138322Y308322D01*
X193322Y308322D02*
X195623Y310623D01*
X125950Y295950D02*
X91000Y295950D01*
X125950Y295950D02*
X138322Y308322D01*
X312238Y407762D02*
X312500Y407500D01*
D49*
X312238Y407762D02*
X300262Y407762D01*
D45*
X299500Y407000D01*
X287000Y410500D02*
X299500Y423000D01*
X287000Y410500D02*
X252000Y410500D01*
X299500Y423000D02*
X299500Y444500D01*
D22*
X320500Y268500D02*
X331500Y268500D01*
X325000Y304250D02*
X311250Y304250D01*
X308000Y281000D02*
X320500Y268500D01*
X308000Y281000D02*
X308000Y301000D01*
X311250Y304250D01*
D45*
X246670Y453985D02*
X258175Y467580D01*
X324803Y318135D02*
X325000Y317250D01*
X246670Y453985D02*
X237000Y449500D01*
D43*
X286703Y403860D03*
X258175Y467580D03*
D45*
X307658Y382905D02*
X307658Y361343D01*
X324803Y344198D02*
X324803Y318135D01*
X324803Y344198D02*
X307658Y361343D01*
X307658Y382905D02*
X286703Y403860D01*
X306250Y310750D02*
X325000Y310750D01*
X299000Y318000D02*
X298000Y318000D01*
D43*
X298000Y318000D03*
X248000Y475000D03*
D45*
X243000Y475000D01*
X299000Y318000D02*
X306250Y310750D01*
X233000Y465000D02*
X243000Y475000D01*
X233000Y465000D02*
X233000Y449657D01*
X232949Y449519D01*
X232968Y449500D01*
X233000Y449500D01*
X229000Y449500D02*
X229000Y504000D01*
X212500Y520500D02*
X212500Y546000D01*
X212500Y520500D02*
X229000Y504000D01*
X252073Y390573D02*
X252000Y390500D01*
X252073Y390573D02*
X287608Y390573D01*
X300038Y378143D01*
X300038Y372428D01*
X281940Y354330D01*
X274320Y354330D01*
X274000Y353500D01*
D51*
X327500Y184500D02*
X327500Y136500D01*
X284000Y93000D01*
D52*
X284000Y83000D03*
D51*
X284000Y93000D01*
X22000Y427500D02*
X22000Y454000D01*
X84000Y516000D01*
D52*
X84000Y516000D03*
D45*
X240500Y329000D02*
X240500Y320500D01*
X236000Y316000D01*
D43*
X236000Y316000D03*
X202000Y273000D03*
D45*
X215500Y273000D01*
X219000Y276500D01*
D43*
X280653Y453578D03*
D45*
X264500Y430500D02*
X252000Y430500D01*
X269000Y435000D02*
X269000Y446000D01*
X272578Y449578D01*
X276653Y449578D02*
X280653Y453578D01*
X276653Y449578D02*
X272578Y449578D01*
X269000Y435000D02*
X264500Y430500D01*
D44*
X195500Y546000D02*
X195500Y569500D01*
X196000Y570000D01*
M02*
