G04 EAGLE Gerber RS-274X export*
G75*
%MOMM*%
%FSLAX34Y34*%
%LPD*%
%INSoldermask Bottom*%
%IPPOS*%
%AMOC8*
5,1,8,0,0,1.08239X$1,22.5*%
G01*
%ADD10C,2.082800*%
%ADD11C,1.111200*%
%ADD12C,1.785400*%
%ADD13C,2.183200*%
%ADD14C,0.908800*%
%ADD15C,0.958800*%
%ADD16C,1.403200*%
%ADD17C,15.203200*%


D10*
X142500Y24800D03*
X117100Y24800D03*
D11*
X197000Y430500D03*
X197000Y418500D03*
X197000Y406500D03*
X197000Y394500D03*
X209000Y430500D03*
X209000Y418500D03*
X209000Y406500D03*
X209000Y394500D03*
X221000Y430500D03*
X221000Y418500D03*
X221000Y406500D03*
X221000Y394500D03*
X233000Y430500D03*
X233000Y418500D03*
X233000Y406500D03*
X233000Y394500D03*
D10*
X51000Y367000D03*
X52000Y403000D03*
X281000Y575000D03*
X20000Y402500D03*
X20000Y367500D03*
X306500Y340000D03*
X325000Y575000D03*
X274000Y353500D03*
D12*
X28500Y52480D03*
X78500Y52480D03*
D13*
X18500Y25480D03*
X88500Y25480D03*
D14*
X101000Y117000D03*
X102000Y125000D03*
X102000Y109000D03*
X213440Y159750D03*
X222000Y160000D03*
X205000Y160000D03*
X209000Y14000D03*
X15000Y112000D03*
X66000Y67000D03*
X177000Y160000D03*
X227000Y520000D03*
X298000Y513000D03*
X258000Y279000D03*
X283000Y317000D03*
X43000Y280000D03*
X276000Y215000D03*
X249000Y171000D03*
X175000Y104000D03*
X63000Y230330D03*
X80000Y176000D03*
X23000Y269000D03*
X349000Y221000D03*
X274000Y232000D03*
X205000Y203000D03*
D15*
X154000Y463000D03*
X80000Y343000D03*
D14*
X116000Y343000D03*
X120000Y363000D03*
X115178Y380000D03*
X60000Y338000D03*
X209322Y483000D03*
X237000Y481000D03*
X61000Y87000D03*
D16*
X125000Y232500D03*
D14*
X41000Y291000D03*
X342000Y281000D03*
X347000Y336000D03*
X279000Y520000D03*
X236000Y570000D03*
D15*
X183000Y470000D03*
D14*
X191595Y165688D03*
X260985Y239078D03*
X189000Y318000D03*
X183487Y365940D03*
X36000Y83000D03*
X29000Y105000D03*
X87000Y104000D03*
X80000Y143000D03*
X97000Y365000D03*
X227000Y149000D03*
X232000Y182000D03*
X36000Y160000D03*
X80000Y166658D03*
X97155Y150495D03*
X100965Y163830D03*
X144000Y149000D03*
X138678Y100000D03*
X49000Y108000D03*
X49000Y126000D03*
X49000Y152000D03*
X21000Y185000D03*
X162000Y160000D03*
X165000Y191000D03*
X57000Y281000D03*
X67000Y201000D03*
X183000Y221000D03*
X125000Y184806D03*
X159366Y258366D03*
X182000Y342617D03*
X193000Y248000D03*
X203000Y222000D03*
X155000Y43000D03*
X97000Y78000D03*
X59000Y116000D03*
X107000Y337000D03*
X119000Y320000D03*
X189000Y329000D03*
X182000Y355261D03*
X131576Y274000D03*
X117000Y277000D03*
X131923Y334328D03*
X141440Y274000D03*
X108000Y274000D03*
X164783Y364808D03*
X148000Y292000D03*
X126000Y342694D03*
X166731Y276269D03*
X171105Y344000D03*
X96203Y417195D03*
X156210Y275273D03*
X166688Y201930D03*
X285750Y220980D03*
X156210Y299000D03*
X106000Y189000D03*
X171000Y213000D03*
X81000Y253000D03*
X40000Y237000D03*
X75000Y235000D03*
X63000Y183000D03*
D15*
X293000Y375000D03*
D14*
X149000Y413000D03*
X149000Y366000D03*
X325000Y227000D03*
X313000Y263000D03*
X249000Y262000D03*
X216000Y310000D03*
X232500Y354254D03*
D15*
X177000Y456000D03*
X107000Y426000D03*
D14*
X89000Y425000D03*
X89000Y391000D03*
X149000Y423000D03*
X125000Y423000D03*
D15*
X81000Y363000D03*
X80000Y411000D03*
X263000Y481000D03*
X288000Y474000D03*
D14*
X251000Y337000D03*
X275331Y440000D03*
D15*
X185000Y531000D03*
X184000Y483000D03*
D14*
X213164Y348836D03*
X195623Y310623D03*
X286703Y403860D03*
X258175Y467580D03*
X298000Y318000D03*
X248000Y475000D03*
D17*
X284000Y83000D03*
X84000Y516000D03*
D14*
X236000Y316000D03*
X202000Y273000D03*
X280653Y453578D03*
M02*
