G04 EAGLE Gerber RS-274X export*
G75*
%MOMM*%
%FSLAX34Y34*%
%LPD*%
%INTop Copper*%
%IPPOS*%
%AMOC8*
5,1,8,0,0,1.08239X$1,22.5*%
G01*
%ADD10R,1.050000X0.900000*%
%ADD11R,1.400000X1.400000*%
%ADD12R,0.550000X1.200000*%
%ADD13C,1.879600*%
%ADD14R,1.016000X0.635000*%
%ADD15R,0.650000X1.250000*%
%ADD16R,0.900000X1.050000*%
%ADD17R,0.270000X1.150000*%
%ADD18R,1.150000X0.270000*%
%ADD19R,3.150000X3.150000*%
%ADD20R,2.000000X0.200000*%
%ADD21R,0.200000X2.000000*%
%ADD22R,4.700000X4.700000*%
%ADD23C,0.908000*%
%ADD24R,1.900000X1.100000*%
%ADD25R,1.200000X1.400000*%
%ADD26R,1.350000X0.400000*%
%ADD27C,1.582200*%
%ADD28C,1.980000*%
%ADD29R,1.550000X1.500000*%
%ADD30R,1.100000X0.750000*%
%ADD31R,0.500000X0.900000*%
%ADD32R,0.500000X0.500000*%
%ADD33C,0.304800*%
%ADD34C,0.654800*%
%ADD35C,0.177800*%
%ADD36C,1.050000*%
%ADD37C,0.508000*%
%ADD38C,1.143000*%
%ADD39C,0.812800*%
%ADD40C,15.000000*%

G36*
X241012Y452499D02*
X241012Y452499D01*
X241011Y452499D01*
X241012Y452500D01*
X241012Y502500D01*
X241002Y502512D01*
X241001Y502511D01*
X241000Y502512D01*
X214612Y502512D01*
X214612Y522488D01*
X241000Y522488D01*
X241012Y522499D01*
X241011Y522499D01*
X241012Y522500D01*
X241012Y549500D01*
X241002Y549512D01*
X241001Y549511D01*
X241000Y549512D01*
X214612Y549512D01*
X214612Y569488D01*
X241000Y569488D01*
X241012Y569499D01*
X241011Y569499D01*
X241012Y569500D01*
X241012Y596500D01*
X241002Y596512D01*
X241001Y596511D01*
X241000Y596512D01*
X196600Y596512D01*
X196588Y596502D01*
X196589Y596501D01*
X196588Y596500D01*
X196588Y591500D01*
X196599Y591488D01*
X196599Y591489D01*
X196600Y591488D01*
X235988Y591488D01*
X235988Y574512D01*
X209600Y574512D01*
X209588Y574502D01*
X209589Y574501D01*
X209588Y574500D01*
X209588Y544500D01*
X209599Y544488D01*
X209599Y544489D01*
X209600Y544488D01*
X235988Y544488D01*
X235988Y527512D01*
X209600Y527512D01*
X209588Y527502D01*
X209589Y527501D01*
X209588Y527500D01*
X209588Y497500D01*
X209599Y497488D01*
X209599Y497489D01*
X209600Y497488D01*
X235988Y497488D01*
X235988Y480512D01*
X187000Y480512D01*
X186988Y480502D01*
X186989Y480501D01*
X186988Y480500D01*
X186988Y475500D01*
X186999Y475488D01*
X186999Y475489D01*
X187000Y475488D01*
X235988Y475488D01*
X235988Y461512D01*
X187000Y461512D01*
X186988Y461502D01*
X186989Y461501D01*
X186988Y461500D01*
X186988Y452500D01*
X186999Y452488D01*
X186999Y452489D01*
X187000Y452488D01*
X241000Y452488D01*
X241012Y452499D01*
G37*
D10*
G36*
X51232Y-12978D02*
X60324Y-18228D01*
X55824Y-26022D01*
X46732Y-20772D01*
X51232Y-12978D01*
G37*
G36*
X37376Y-4978D02*
X46468Y-10228D01*
X41968Y-18022D01*
X32876Y-12772D01*
X37376Y-4978D01*
G37*
G36*
X70237Y109873D02*
X62813Y102449D01*
X56449Y108813D01*
X63873Y116237D01*
X70237Y109873D01*
G37*
G36*
X81551Y121187D02*
X74127Y113763D01*
X67763Y120127D01*
X75187Y127551D01*
X81551Y121187D01*
G37*
X218570Y112640D03*
X234570Y112640D03*
D11*
X171900Y134600D03*
X134900Y134600D03*
D12*
X109500Y166700D03*
X100000Y166700D03*
X90500Y166700D03*
X90500Y140700D03*
X109500Y140700D03*
D13*
X21200Y47500D03*
X21200Y22100D03*
D14*
X206800Y6800D03*
X226800Y16300D03*
X226800Y-2700D03*
D10*
X234000Y201620D03*
X218000Y201620D03*
X20400Y82400D03*
X36400Y82400D03*
D15*
X211500Y142000D03*
X230500Y142000D03*
X221000Y163000D03*
D10*
X161000Y156000D03*
X145000Y156000D03*
D16*
X15500Y206000D03*
X15500Y222000D03*
X34000Y206000D03*
X34000Y222000D03*
D17*
X108000Y253500D03*
X113000Y253500D03*
X118000Y253500D03*
X123000Y253500D03*
X128000Y253500D03*
X133000Y253500D03*
X138000Y253500D03*
D18*
X147000Y262500D03*
X147000Y267500D03*
X147000Y272500D03*
X147000Y277500D03*
X147000Y282500D03*
X147000Y287500D03*
X147000Y292500D03*
D17*
X138000Y301500D03*
X133000Y301500D03*
X128000Y301500D03*
X123000Y301500D03*
X118000Y301500D03*
X113000Y301500D03*
X108000Y301500D03*
D18*
X99000Y292500D03*
X99000Y287500D03*
X99000Y282500D03*
X99000Y277500D03*
X99000Y272500D03*
X99000Y267500D03*
X99000Y262500D03*
D19*
X123000Y277500D03*
D16*
X53000Y306000D03*
X53000Y290000D03*
X23500Y530000D03*
X23500Y514000D03*
X188500Y176500D03*
X188500Y192500D03*
D10*
X145500Y175500D03*
X161500Y175500D03*
D16*
X24000Y558500D03*
X24000Y574500D03*
D10*
X218000Y185000D03*
X234000Y185000D03*
X32500Y306500D03*
X16500Y306500D03*
D16*
X71500Y221500D03*
X71500Y205500D03*
X57000Y249500D03*
X57000Y265500D03*
X235000Y234500D03*
X235000Y218500D03*
X215500Y259000D03*
X215500Y275000D03*
X217000Y235000D03*
X217000Y219000D03*
D10*
X91000Y211000D03*
X107000Y211000D03*
X91000Y190000D03*
X107000Y190000D03*
D20*
X93000Y409500D03*
X93000Y405500D03*
X93000Y401500D03*
X93000Y397500D03*
X93000Y393500D03*
X93000Y389500D03*
X93000Y385500D03*
X93000Y381500D03*
X93000Y377500D03*
X93000Y373500D03*
X93000Y369500D03*
X93000Y365500D03*
D21*
X108000Y350500D03*
X112000Y350500D03*
X116000Y350500D03*
X120000Y350500D03*
X124000Y350500D03*
X128000Y350500D03*
X132000Y350500D03*
X136000Y350500D03*
X140000Y350500D03*
X144000Y350500D03*
X148000Y350500D03*
X152000Y350500D03*
D20*
X167000Y365500D03*
X167000Y369500D03*
X167000Y373500D03*
X167000Y377500D03*
X167000Y381500D03*
X167000Y385500D03*
X167000Y389500D03*
X167000Y393500D03*
X167000Y397500D03*
X167000Y401500D03*
X167000Y405500D03*
X167000Y409500D03*
D21*
X152000Y424500D03*
X148000Y424500D03*
X144000Y424500D03*
X140000Y424500D03*
X136000Y424500D03*
X132000Y424500D03*
X128000Y424500D03*
X124000Y424500D03*
X120000Y424500D03*
X116000Y424500D03*
X112000Y424500D03*
X108000Y424500D03*
D22*
X130000Y387500D03*
D23*
X112000Y405500D03*
X112000Y393500D03*
X112000Y381500D03*
X112000Y369500D03*
X124000Y405500D03*
X124000Y393500D03*
X124000Y381500D03*
X124000Y369500D03*
X136000Y405500D03*
X136000Y393500D03*
X136000Y381500D03*
X136000Y369500D03*
X148000Y405500D03*
X148000Y393500D03*
X148000Y381500D03*
X148000Y369500D03*
D10*
X32500Y462500D03*
X16500Y462500D03*
X16000Y433000D03*
X32000Y433000D03*
X16500Y357500D03*
X32500Y357500D03*
D16*
X53000Y221500D03*
X53000Y205500D03*
X180500Y494000D03*
X180500Y478000D03*
X180000Y440500D03*
X180000Y456500D03*
X237000Y343000D03*
X237000Y359000D03*
D10*
X159500Y476500D03*
X143500Y476500D03*
D16*
X215500Y297000D03*
X215500Y313000D03*
X216500Y359500D03*
X216500Y343500D03*
X237000Y313500D03*
X237000Y297500D03*
D10*
X33000Y289000D03*
X17000Y289000D03*
X72500Y457000D03*
X88500Y457000D03*
D24*
X27500Y383000D03*
X27500Y408000D03*
D25*
X214500Y409000D03*
X214500Y387000D03*
X231500Y387000D03*
X231500Y409000D03*
D26*
X45480Y158500D03*
X45480Y152000D03*
X45480Y145500D03*
X45480Y139000D03*
X45480Y132500D03*
D27*
X45480Y170500D03*
X45480Y120500D03*
D28*
X18480Y180500D03*
X18480Y110500D03*
D29*
X18480Y155500D03*
X18480Y135500D03*
D16*
X237000Y258000D03*
X237000Y274000D03*
D10*
X231000Y40000D03*
X215000Y40000D03*
D15*
X216500Y64500D03*
X235500Y64500D03*
X226000Y85500D03*
D16*
X18000Y251000D03*
X18000Y267000D03*
X34000Y267000D03*
X34000Y251000D03*
D30*
X123500Y476000D03*
X106500Y476000D03*
D13*
X49000Y499000D03*
X190000Y217000D03*
X35000Y600000D03*
X35000Y332000D03*
X68000Y432000D03*
X191000Y338000D03*
X191000Y288000D03*
X191000Y313000D03*
D10*
X88000Y476000D03*
X72000Y476000D03*
D31*
X189500Y457000D03*
D32*
X189500Y478000D03*
D33*
X21200Y6972D02*
X39672Y-11500D01*
X21200Y6972D02*
X21200Y22100D01*
X10779Y72779D02*
X20400Y82400D01*
X10779Y72779D02*
X10779Y69006D01*
D34*
X10779Y69006D03*
D33*
X45480Y132500D02*
X62814Y132500D01*
X63157Y132157D02*
X74657Y120657D01*
X161000Y156000D02*
X175000Y156000D01*
X176000Y155000D01*
D34*
X176000Y155000D03*
D35*
X218000Y201000D02*
X218000Y201620D01*
X217000Y202620D01*
X217000Y219000D01*
X15500Y206000D02*
X15500Y204000D01*
X15500Y201500D01*
X62814Y132500D02*
X63157Y132157D01*
D34*
X63157Y132157D03*
D35*
X221500Y85500D02*
X226000Y85500D01*
X221500Y85500D02*
X214000Y93000D01*
D34*
X214000Y93000D03*
D35*
X237000Y274000D02*
X237000Y297500D01*
X221500Y313000D01*
X215500Y313000D01*
D33*
X100000Y166700D02*
X100000Y154000D01*
D34*
X100000Y154000D03*
D35*
X147000Y282500D02*
X167500Y282500D01*
X175000Y275000D02*
X215500Y275000D01*
X175000Y275000D02*
X167500Y282500D01*
X215500Y275000D02*
X236000Y275000D01*
X237000Y274000D01*
D34*
X83201Y270799D03*
D35*
X86770Y270799D01*
X98983Y272517D02*
X99000Y272500D01*
X98983Y272517D02*
X88488Y272517D01*
X86770Y270799D01*
X53000Y306000D02*
X55000Y308000D01*
X66941Y308000D01*
D34*
X66941Y308000D03*
D35*
X16500Y306500D02*
X16500Y289500D01*
X17000Y289000D01*
X16500Y306500D02*
X10349Y312651D01*
X10349Y327002D01*
D34*
X10349Y327002D03*
D35*
X234000Y185000D02*
X235000Y184000D01*
X229000Y118210D02*
X234570Y112640D01*
X229000Y118210D02*
X229000Y127000D01*
D34*
X229000Y127000D03*
D33*
X71500Y205500D02*
X53000Y205500D01*
X71500Y205500D02*
X71500Y191500D01*
D35*
X72000Y191000D01*
D34*
X72000Y191000D03*
D35*
X18000Y240000D02*
X18000Y251000D01*
X18000Y240000D02*
X15000Y237000D01*
D34*
X15000Y237000D03*
D35*
X57000Y265500D02*
X57000Y278000D01*
D34*
X57000Y278000D03*
D35*
X10349Y327002D02*
X10349Y351349D01*
X16500Y357500D01*
X120000Y424500D02*
X120000Y450000D01*
X123000Y453000D01*
D34*
X123000Y453000D03*
D35*
X231500Y409000D02*
X239106Y416606D01*
X239106Y421000D01*
D34*
X239106Y421000D03*
D35*
X186944Y389500D02*
X167000Y389500D01*
X186944Y389500D02*
X192444Y384000D01*
X192444Y360527D01*
X205027Y347944D01*
X205056Y347944D01*
X209500Y343500D02*
X216500Y343500D01*
X209500Y343500D02*
X205056Y347944D01*
X143500Y467500D02*
X143500Y476500D01*
X143500Y467500D02*
X148000Y463000D01*
D34*
X148000Y463000D03*
D36*
X168000Y461000D03*
D37*
X24000Y574500D02*
X24000Y589000D01*
X35000Y600000D01*
D35*
X217620Y202000D02*
X218000Y201620D01*
X217620Y202000D02*
X213000Y202000D01*
X211000Y204000D01*
X207000Y204000D01*
D34*
X207000Y204000D03*
D35*
X221000Y163000D02*
X223000Y163000D01*
X221000Y163000D02*
X229000Y171000D01*
X231000Y171000D01*
D34*
X231000Y171000D03*
D35*
X231000Y173000D01*
X235000Y177000D02*
X235000Y184000D01*
X235000Y177000D02*
X231000Y173000D01*
X39605Y213917D02*
X29083Y213917D01*
X29000Y214000D01*
X48022Y205500D02*
X53000Y205500D01*
X48022Y205500D02*
X39605Y213917D01*
X29000Y214000D02*
X23500Y214000D01*
X15500Y206000D01*
X99313Y282813D02*
X103991Y282813D01*
X99313Y282813D02*
X99000Y282500D01*
X215138Y380492D02*
X236474Y359156D01*
X215138Y380492D02*
X215138Y386715D01*
X236474Y359156D02*
X237000Y359000D01*
X215138Y386715D02*
X214500Y387000D01*
X16002Y433832D02*
X16002Y462280D01*
X16002Y433832D02*
X16000Y433000D01*
X16002Y462280D02*
X16500Y462500D01*
X15113Y432943D02*
X15113Y359156D01*
X16002Y358267D01*
X15113Y432943D02*
X16000Y433000D01*
X16002Y358267D02*
X16500Y357500D01*
X215138Y387604D02*
X215138Y392049D01*
X232029Y408940D01*
X215138Y387604D02*
X214500Y387000D01*
X231500Y409000D02*
X232029Y408940D01*
X99568Y272923D02*
X99000Y272500D01*
X152019Y389382D02*
X166243Y389382D01*
X152019Y389382D02*
X148463Y392938D01*
X166243Y389382D02*
X167000Y389500D01*
X148463Y392938D02*
X148000Y393500D01*
X130000Y387500D02*
X111125Y406273D01*
X112000Y405500D01*
X15000Y237000D02*
X15000Y235022D01*
X8333Y228355D01*
X8333Y211167D01*
X15500Y204000D01*
X17000Y289000D02*
X11000Y289000D01*
X9000Y287000D01*
X9000Y260000D01*
X18000Y251000D01*
X88500Y454500D02*
X88500Y457000D01*
X82000Y448000D02*
X52000Y448000D01*
X82000Y448000D02*
X88500Y454500D01*
D34*
X52000Y448000D03*
D33*
X226000Y45000D02*
X231000Y40000D01*
X226000Y45000D02*
X226000Y85500D01*
D38*
X123000Y277500D03*
D35*
X118000Y282500D02*
X99000Y282500D01*
X118000Y282500D02*
X123000Y277500D01*
X227000Y284000D02*
X237000Y274000D01*
X227000Y284000D02*
X227000Y286000D01*
D34*
X227000Y286000D03*
D35*
X210000Y337000D02*
X216500Y343500D01*
X210000Y337000D02*
X210000Y333000D01*
D34*
X210000Y333000D03*
D37*
X180000Y456500D02*
X180500Y457000D01*
X180000Y456500D02*
X172500Y456500D01*
X168000Y461000D01*
X189000Y456500D02*
X189500Y457000D01*
D39*
X189000Y456500D02*
X180000Y456500D01*
D35*
X216500Y41500D02*
X215000Y40000D01*
D33*
X216500Y41500D02*
X216500Y64500D01*
D35*
X216500Y71500D01*
D33*
X206000Y82000D01*
D34*
X206000Y82000D03*
X239106Y328000D03*
D35*
X239106Y315606D01*
X237000Y313500D01*
X48000Y278000D02*
X48000Y242000D01*
X48000Y278000D02*
X37000Y289000D01*
X33000Y289000D01*
X43000Y299000D01*
X43000Y309522D02*
X50478Y317000D01*
X116000Y317000D02*
X118000Y315000D01*
X118000Y301500D01*
X43000Y299000D02*
X43000Y309522D01*
X50478Y317000D02*
X108000Y317000D01*
X116000Y317000D01*
X108000Y336000D02*
X108000Y350500D01*
X108000Y336000D02*
X108000Y317000D01*
D33*
X82000Y466000D02*
X72000Y476000D01*
X82000Y466000D02*
X98000Y466000D01*
X108000Y456000D01*
X108000Y447000D01*
X72000Y476000D02*
X49000Y499000D01*
D35*
X167000Y409500D02*
X178471Y409500D01*
X185486Y416515D01*
X185486Y420077D01*
X180562Y425000D01*
D34*
X180562Y425000D03*
X91000Y443000D03*
D35*
X104000Y443000D01*
D33*
X108000Y447000D01*
X105000Y443000D02*
X91000Y443000D01*
D35*
X105000Y443000D02*
X108000Y440000D01*
X108000Y424500D01*
X53340Y221361D02*
X61341Y213360D01*
X62230Y213360D01*
X53340Y221361D02*
X53000Y221500D01*
D34*
X62230Y213360D03*
D35*
X53000Y221500D02*
X53000Y237000D01*
X48000Y242000D01*
D34*
X92000Y344941D03*
D35*
X100941Y336000D01*
X108000Y336000D01*
D33*
X53528Y-19500D02*
X65905Y-31876D01*
D35*
X66244Y-32000D01*
D33*
X81000Y-32000D01*
X86409Y-37409D01*
X88053Y-37699D01*
X98699Y-37699D01*
X101901Y-40901D01*
X107901Y-40901D01*
D35*
X108000Y-41000D01*
D33*
X137000Y-41000D01*
X138000Y-40000D01*
X154000Y-40000D01*
X155333Y-38667D01*
D35*
X156171Y-38667D01*
D33*
X162838Y-32000D01*
X175000Y-32000D01*
X206800Y-200D02*
X206800Y6800D01*
X206800Y-200D02*
X175000Y-32000D01*
X53528Y-19500D02*
X53528Y-528D01*
X42000Y11000D02*
X42000Y42000D01*
X36500Y47500D01*
X21200Y47500D01*
X42000Y11000D02*
X53528Y-528D01*
X69300Y166700D02*
X90500Y166700D01*
D35*
X69300Y166700D02*
X69000Y167000D01*
D34*
X69000Y167000D03*
D35*
X34000Y237000D02*
X34000Y251000D01*
D34*
X34000Y237000D03*
D33*
X193860Y112640D02*
X218570Y112640D01*
X193860Y112640D02*
X171900Y134600D01*
X239491Y68491D02*
X235500Y64500D01*
X239491Y91719D02*
X218570Y112640D01*
X239491Y91719D02*
X239491Y68491D01*
X219570Y113640D02*
X219570Y135570D01*
D35*
X219570Y113640D02*
X218570Y112640D01*
D33*
X226000Y142000D02*
X230500Y142000D01*
X226000Y142000D02*
X219570Y135570D01*
X235500Y64500D02*
X235500Y55500D01*
X240856Y50144D01*
X235300Y16300D02*
X226800Y16300D01*
X240856Y21856D02*
X240856Y50144D01*
X240856Y21856D02*
X235300Y16300D01*
X217000Y7100D02*
X226800Y-2700D01*
X217000Y7100D02*
X217000Y20000D01*
X205000Y32000D01*
X193000Y81838D02*
X193000Y91000D01*
X185000Y99000D01*
X181838Y99000D02*
X163171Y117667D01*
X151833Y117667D01*
X134900Y134600D01*
X205000Y69838D02*
X205000Y32000D01*
X205000Y69838D02*
X193000Y81838D01*
X185000Y99000D02*
X181838Y99000D01*
X63343Y109343D02*
X36400Y82400D01*
X45480Y158500D02*
X61500Y158500D01*
X79300Y140700D02*
X90500Y140700D01*
X79300Y140700D02*
X61500Y158500D01*
D35*
X90500Y140700D02*
X92000Y139200D01*
D33*
X92000Y130000D01*
X97500Y124500D01*
D35*
X98000Y124000D01*
D33*
X124300Y124000D02*
X134900Y134600D01*
X124300Y124000D02*
X98000Y124000D01*
D35*
X65686Y107000D02*
X63343Y109343D01*
D33*
X80000Y107000D02*
X97500Y124500D01*
X80000Y107000D02*
X65686Y107000D01*
D35*
X145000Y156000D02*
X145000Y159000D01*
D33*
X152000Y166000D01*
X187500Y166000D01*
X211500Y142000D01*
X71500Y235000D02*
X57000Y249500D01*
X71500Y235000D02*
X71500Y221500D01*
D35*
X65000Y249500D02*
X57000Y249500D01*
X65000Y249500D02*
X68000Y252500D01*
X73500Y292500D02*
X99000Y292500D01*
X68000Y287000D02*
X68000Y252500D01*
X68000Y287000D02*
X73500Y292500D01*
D33*
X190000Y217000D02*
X203500Y230500D01*
D34*
X190000Y256000D03*
D33*
X193000Y259000D01*
X215500Y259000D01*
X217000Y235000D02*
X212500Y230500D01*
X203500Y230500D01*
D34*
X173000Y287000D03*
D35*
X172500Y287500D02*
X147000Y287500D01*
X172500Y287500D02*
X173000Y287000D01*
D34*
X85059Y227000D03*
D33*
X79559Y221500D01*
X71500Y221500D01*
X130000Y156000D02*
X145000Y156000D01*
X130000Y156000D02*
X128000Y158000D01*
D34*
X128000Y158000D03*
D33*
X123000Y163000D01*
X123000Y217000D01*
D34*
X123000Y217000D03*
D35*
X109500Y174500D02*
X109500Y166700D01*
X109500Y174500D02*
X105000Y179000D01*
X61000Y179000D02*
X34000Y206000D01*
X61000Y179000D02*
X105000Y179000D01*
X34000Y222000D02*
X15500Y222000D01*
X24000Y230500D01*
X24000Y237000D01*
D34*
X24000Y237000D03*
X159000Y331000D03*
D35*
X155029Y331000D01*
X149473Y336556D01*
X120000Y336556D02*
X120000Y350500D01*
X120000Y336556D02*
X149473Y336556D01*
X112000Y330000D02*
X112000Y350500D01*
X123000Y319000D02*
X123000Y301500D01*
X123000Y319000D02*
X112000Y330000D01*
X128000Y324201D02*
X128000Y301500D01*
X128201Y324201D02*
X126201Y326201D01*
X128000Y324201D02*
X128201Y324201D01*
D34*
X126201Y326201D03*
X85000Y333000D03*
D35*
X85000Y357500D01*
X93000Y365500D01*
X133000Y320059D02*
X133000Y301500D01*
X133000Y320059D02*
X133941Y321000D01*
D34*
X133941Y321000D03*
X78000Y328000D03*
D35*
X71000Y335000D01*
X71000Y364000D01*
X76500Y369500D01*
X93000Y369500D01*
X138000Y315000D02*
X138000Y301500D01*
X140000Y317000D02*
X148000Y317000D01*
X140000Y317000D02*
X138000Y315000D01*
D34*
X148000Y317000D03*
X69326Y326000D03*
D35*
X65000Y330326D01*
X92667Y373167D02*
X93000Y373500D01*
X75138Y373167D02*
X65000Y363029D01*
X75138Y373167D02*
X92667Y373167D01*
X65000Y363029D02*
X65000Y330326D01*
X147000Y292500D02*
X158500Y292500D01*
X148000Y333000D02*
X116000Y333000D01*
X116000Y350500D01*
X163000Y297000D02*
X158500Y292500D01*
X163000Y297000D02*
X163000Y318000D01*
X148000Y333000D01*
D33*
X188500Y192500D02*
X201500Y192500D01*
X209000Y185000D02*
X218000Y185000D01*
X209000Y185000D02*
X201500Y192500D01*
D35*
X145500Y175500D02*
X145000Y175000D01*
D33*
X131000Y175000D01*
D34*
X131000Y175000D03*
X166000Y190000D03*
D33*
X168500Y192500D01*
X188500Y192500D01*
D35*
X133000Y214000D02*
X133000Y253500D01*
X128000Y178000D02*
X131000Y175000D01*
X128000Y209000D02*
X133000Y214000D01*
X128000Y209000D02*
X128000Y178000D01*
D33*
X140500Y196500D02*
X161500Y175500D01*
D35*
X140500Y196500D02*
X138000Y199000D01*
X138000Y253500D01*
D37*
X10616Y545116D02*
X24000Y558500D01*
X10616Y520884D02*
X17500Y514000D01*
X23500Y514000D01*
X10616Y520884D02*
X10616Y545116D01*
D33*
X24003Y513842D02*
X24003Y482727D01*
D35*
X24003Y513842D02*
X23500Y514000D01*
D34*
X24003Y482727D03*
X54000Y368000D03*
D33*
X54000Y346000D01*
X56000Y344000D01*
D34*
X56000Y344000D03*
X31000Y279000D03*
D33*
X40000Y279000D01*
X43000Y276000D01*
X43000Y236000D01*
D34*
X43000Y236000D03*
X134000Y190000D03*
D33*
X140500Y196500D01*
D35*
X107000Y190000D02*
X107000Y211000D01*
X108000Y243000D02*
X108000Y253500D01*
X108000Y243000D02*
X110000Y241000D01*
X113000Y241000D01*
X118000Y241000D01*
X123000Y241000D01*
X126000Y241000D01*
X128000Y243000D01*
X128000Y253500D01*
X123000Y253500D02*
X123000Y241000D01*
X118000Y241000D02*
X118000Y253500D01*
X113000Y253500D02*
X113000Y241000D01*
X99000Y262500D02*
X91500Y262500D01*
X89000Y260000D01*
X89000Y250000D01*
X98000Y241000D02*
X110000Y241000D01*
X98000Y241000D02*
X89000Y250000D01*
X108000Y253500D02*
X108000Y212000D01*
X107000Y211000D01*
X147000Y262500D02*
X155500Y262500D01*
X165000Y253000D01*
D34*
X165000Y253000D03*
X125000Y232000D03*
D35*
X125000Y239000D01*
X123000Y241000D01*
X64000Y301000D02*
X53000Y290000D01*
X64000Y301000D02*
X75000Y301000D01*
D34*
X75000Y301000D03*
D35*
X230022Y258000D02*
X237000Y258000D01*
X230022Y258000D02*
X220939Y267083D01*
X147983Y276517D02*
X147000Y277500D01*
X163541Y276517D02*
X172975Y267083D01*
X163541Y276517D02*
X147983Y276517D01*
X172975Y267083D02*
X220939Y267083D01*
X162529Y272500D02*
X147000Y272500D01*
X187029Y248000D02*
X227000Y248000D01*
X235000Y240000D01*
X235000Y234500D01*
X187029Y248000D02*
X162529Y272500D01*
X99000Y287500D02*
X77500Y287500D01*
X75000Y285000D01*
D34*
X75000Y285000D03*
X61000Y323000D03*
D35*
X49000Y323000D02*
X32500Y306500D01*
X49000Y323000D02*
X61000Y323000D01*
X98917Y197917D02*
X91000Y190000D01*
X98917Y233083D02*
X82000Y250000D01*
X82000Y261000D01*
X88500Y267500D02*
X99000Y267500D01*
X98917Y233083D02*
X98917Y197917D01*
X82000Y261000D02*
X88500Y267500D01*
X226000Y227500D02*
X235000Y218500D01*
X162500Y267500D02*
X147000Y267500D01*
X226000Y241000D02*
X226000Y227500D01*
X226000Y241000D02*
X223000Y244000D01*
X186000Y244000D01*
X162500Y267500D01*
X91000Y234000D02*
X91000Y211000D01*
X99000Y277500D02*
X81500Y277500D01*
X77000Y248000D02*
X91000Y234000D01*
X77000Y248000D02*
X77000Y273000D01*
X81500Y277500D01*
X186124Y369500D02*
X187246Y368378D01*
X186124Y369500D02*
X167000Y369500D01*
X187246Y368378D02*
X187246Y341530D01*
X191000Y338000D01*
D34*
X58000Y377000D03*
D35*
X58500Y377500D01*
X93000Y377500D01*
X93000Y381500D02*
X64500Y381500D01*
X59000Y387000D01*
X54000Y387000D01*
X47000Y344000D02*
X35000Y332000D01*
X47000Y380000D02*
X54000Y387000D01*
X47000Y380000D02*
X47000Y344000D01*
X152000Y350500D02*
X167000Y335500D01*
X167000Y312000D02*
X191000Y288000D01*
X167000Y312000D02*
X167000Y335500D01*
X34000Y267000D02*
X18000Y267000D01*
X70500Y397500D02*
X93000Y397500D01*
X70500Y397500D02*
X66000Y393000D01*
D34*
X66000Y393000D03*
X19432Y278006D03*
D35*
X19432Y268432D02*
X18000Y267000D01*
X19432Y268432D02*
X19432Y278006D01*
X30000Y405500D02*
X93000Y405500D01*
X30000Y405500D02*
X27500Y408000D01*
X32004Y406273D02*
X32004Y432943D01*
X32000Y433000D01*
X27500Y408000D02*
X32004Y406273D01*
X32893Y449834D02*
X32893Y462280D01*
X32893Y449834D02*
X68898Y413829D01*
X74000Y413829D01*
X32893Y462280D02*
X32500Y462500D01*
X78329Y409500D02*
X93000Y409500D01*
X78329Y409500D02*
X74000Y413829D01*
X41000Y383000D02*
X27500Y383000D01*
X59500Y401500D02*
X93000Y401500D01*
X59500Y401500D02*
X41000Y383000D01*
X32893Y382270D02*
X32893Y358267D01*
X32500Y357500D01*
X32893Y382270D02*
X27500Y383000D01*
X167000Y397500D02*
X190500Y397500D01*
X200000Y388000D02*
X200000Y364000D01*
X204500Y359500D01*
X216500Y359500D01*
X200000Y388000D02*
X190500Y397500D01*
X188500Y393500D02*
X167000Y393500D01*
X196000Y386000D02*
X196000Y362000D01*
X206500Y351500D01*
X205000Y307500D02*
X215500Y297000D01*
X196000Y386000D02*
X188500Y393500D01*
X205000Y323000D02*
X205000Y307500D01*
X206500Y351500D02*
X224500Y351500D01*
X227000Y349000D02*
X227000Y335000D01*
X215000Y323000D01*
X205000Y323000D01*
X227000Y349000D02*
X224500Y351500D01*
X190500Y401500D02*
X167000Y401500D01*
X198000Y409000D02*
X205359Y409000D01*
X214500Y409000D01*
X198000Y409000D02*
X190500Y401500D01*
X236474Y345821D02*
X236474Y343154D01*
X236474Y345821D02*
X224028Y358267D01*
X224028Y366268D01*
X213360Y376936D01*
X207137Y376936D01*
X205359Y378714D01*
X205359Y409000D01*
X236474Y343154D02*
X237000Y343000D01*
D37*
X189500Y478000D02*
X180500Y478000D01*
D35*
X182542Y385500D02*
X167000Y385500D01*
X182542Y385500D02*
X186503Y381539D01*
D34*
X186503Y381539D03*
X151000Y453000D03*
D35*
X159500Y476500D02*
X160000Y477000D01*
D33*
X159500Y476500D02*
X159500Y491500D01*
X162000Y494000D02*
X180500Y494000D01*
X162000Y494000D02*
X159500Y491500D01*
X158500Y460500D02*
X151000Y453000D01*
X158500Y475500D02*
X159500Y476500D01*
X158500Y475500D02*
X158500Y460500D01*
D35*
X144000Y448000D02*
X144000Y424500D01*
X123500Y468500D02*
X123500Y476000D01*
X123500Y468500D02*
X144000Y448000D01*
X167132Y365379D02*
X167132Y340487D01*
X190246Y317373D01*
X190246Y313817D01*
X167132Y365379D02*
X167000Y365500D01*
X190246Y313817D02*
X191000Y313000D01*
D40*
X125000Y41000D03*
D34*
X174000Y176000D03*
D33*
X188000Y176000D01*
D35*
X188500Y176500D01*
D40*
X121000Y565000D03*
D37*
X45000Y530000D02*
X23500Y530000D01*
X80000Y565000D02*
X121000Y565000D01*
X80000Y565000D02*
X45000Y530000D01*
D35*
X231500Y387000D02*
X231500Y373500D01*
X233000Y372000D01*
D34*
X233000Y372000D03*
X193000Y419000D03*
D35*
X179500Y405500D01*
X167000Y405500D01*
X193000Y427500D02*
X180000Y440500D01*
X193000Y427500D02*
X193000Y419000D01*
X116700Y140700D02*
X109500Y140700D01*
X116700Y140700D02*
X123000Y147000D01*
D34*
X123000Y147000D03*
X202000Y166000D03*
D35*
X211000Y175000D01*
X224000Y175000D01*
X226083Y177083D01*
X234000Y198522D02*
X234000Y201620D01*
X226083Y190605D02*
X226083Y177083D01*
X226083Y190605D02*
X234000Y198522D01*
D33*
X106500Y476000D02*
X88000Y476000D01*
D35*
X116000Y458000D02*
X116000Y424500D01*
D34*
X116000Y458000D03*
X55000Y461000D03*
D35*
X68500Y461000D01*
X72500Y457000D01*
M02*
