G04 EAGLE Gerber RS-274X export*
G75*
%MOMM*%
%FSLAX34Y34*%
%LPD*%
%INSilkscreen Bottom*%
%IPPOS*%
%AMOC8*
5,1,8,0,0,1.08239X$1,22.5*%
G01*
%ADD10C,0.127000*%


D10*
X198458Y470427D02*
X208618Y472685D01*
X201845Y474943D01*
X208618Y477200D01*
X198458Y479458D01*
X208618Y485351D02*
X208618Y488173D01*
X208618Y485351D02*
X208616Y485270D01*
X208610Y485190D01*
X208601Y485110D01*
X208587Y485031D01*
X208570Y484952D01*
X208549Y484874D01*
X208525Y484797D01*
X208497Y484722D01*
X208465Y484648D01*
X208430Y484575D01*
X208391Y484505D01*
X208349Y484436D01*
X208304Y484369D01*
X208256Y484304D01*
X208204Y484242D01*
X208150Y484183D01*
X208093Y484126D01*
X208034Y484072D01*
X207972Y484020D01*
X207907Y483972D01*
X207840Y483927D01*
X207772Y483885D01*
X207701Y483846D01*
X207628Y483811D01*
X207554Y483779D01*
X207479Y483751D01*
X207402Y483727D01*
X207324Y483706D01*
X207245Y483689D01*
X207166Y483675D01*
X207086Y483666D01*
X207006Y483660D01*
X206925Y483658D01*
X204102Y483658D01*
X204102Y483657D02*
X204009Y483659D01*
X203916Y483665D01*
X203823Y483674D01*
X203730Y483688D01*
X203639Y483705D01*
X203548Y483726D01*
X203458Y483751D01*
X203369Y483779D01*
X203281Y483811D01*
X203195Y483847D01*
X203110Y483886D01*
X203027Y483929D01*
X202946Y483975D01*
X202867Y484025D01*
X202790Y484077D01*
X202715Y484133D01*
X202643Y484192D01*
X202573Y484254D01*
X202505Y484318D01*
X202441Y484386D01*
X202379Y484456D01*
X202320Y484528D01*
X202264Y484603D01*
X202212Y484680D01*
X202162Y484759D01*
X202116Y484840D01*
X202073Y484923D01*
X202034Y485008D01*
X201998Y485094D01*
X201966Y485182D01*
X201938Y485271D01*
X201913Y485361D01*
X201892Y485452D01*
X201875Y485543D01*
X201861Y485636D01*
X201852Y485729D01*
X201846Y485822D01*
X201844Y485915D01*
X201846Y486008D01*
X201852Y486101D01*
X201861Y486194D01*
X201875Y486287D01*
X201892Y486378D01*
X201913Y486469D01*
X201938Y486559D01*
X201966Y486648D01*
X201998Y486736D01*
X202034Y486822D01*
X202073Y486907D01*
X202116Y486990D01*
X202162Y487071D01*
X202212Y487150D01*
X202264Y487227D01*
X202320Y487302D01*
X202379Y487374D01*
X202441Y487444D01*
X202505Y487512D01*
X202573Y487576D01*
X202643Y487638D01*
X202715Y487697D01*
X202790Y487753D01*
X202867Y487805D01*
X202946Y487855D01*
X203027Y487901D01*
X203110Y487944D01*
X203195Y487983D01*
X203281Y488019D01*
X203369Y488051D01*
X203458Y488079D01*
X203548Y488104D01*
X203639Y488125D01*
X203730Y488142D01*
X203823Y488156D01*
X203916Y488165D01*
X204009Y488171D01*
X204102Y488173D01*
X205231Y488173D01*
X205231Y483658D01*
X204667Y494485D02*
X204667Y497025D01*
X204666Y494485D02*
X204668Y494398D01*
X204674Y494310D01*
X204683Y494223D01*
X204697Y494137D01*
X204714Y494051D01*
X204735Y493967D01*
X204760Y493883D01*
X204789Y493800D01*
X204821Y493719D01*
X204856Y493639D01*
X204895Y493561D01*
X204938Y493484D01*
X204984Y493410D01*
X205033Y493338D01*
X205085Y493268D01*
X205141Y493200D01*
X205199Y493135D01*
X205260Y493072D01*
X205324Y493013D01*
X205391Y492956D01*
X205459Y492902D01*
X205531Y492851D01*
X205604Y492804D01*
X205679Y492759D01*
X205757Y492718D01*
X205836Y492681D01*
X205916Y492647D01*
X205998Y492617D01*
X206081Y492590D01*
X206166Y492567D01*
X206251Y492548D01*
X206337Y492533D01*
X206424Y492521D01*
X206511Y492513D01*
X206598Y492509D01*
X206686Y492509D01*
X206773Y492513D01*
X206860Y492521D01*
X206947Y492533D01*
X207033Y492548D01*
X207118Y492567D01*
X207203Y492590D01*
X207286Y492617D01*
X207368Y492647D01*
X207448Y492681D01*
X207527Y492718D01*
X207605Y492759D01*
X207680Y492804D01*
X207753Y492851D01*
X207825Y492902D01*
X207893Y492956D01*
X207960Y493013D01*
X208024Y493072D01*
X208085Y493135D01*
X208143Y493200D01*
X208199Y493268D01*
X208251Y493338D01*
X208300Y493410D01*
X208346Y493484D01*
X208389Y493561D01*
X208428Y493639D01*
X208463Y493719D01*
X208495Y493800D01*
X208524Y493883D01*
X208549Y493967D01*
X208570Y494051D01*
X208587Y494137D01*
X208601Y494223D01*
X208610Y494310D01*
X208616Y494398D01*
X208618Y494485D01*
X208618Y497025D01*
X203538Y497025D01*
X203457Y497023D01*
X203377Y497017D01*
X203297Y497008D01*
X203218Y496994D01*
X203139Y496977D01*
X203061Y496956D01*
X202984Y496932D01*
X202909Y496904D01*
X202835Y496872D01*
X202762Y496837D01*
X202692Y496798D01*
X202623Y496756D01*
X202556Y496711D01*
X202491Y496663D01*
X202429Y496611D01*
X202370Y496557D01*
X202313Y496500D01*
X202259Y496441D01*
X202207Y496379D01*
X202159Y496314D01*
X202114Y496247D01*
X202072Y496179D01*
X202033Y496108D01*
X201998Y496035D01*
X201966Y495961D01*
X201938Y495886D01*
X201914Y495809D01*
X201893Y495731D01*
X201876Y495652D01*
X201862Y495573D01*
X201853Y495493D01*
X201847Y495413D01*
X201845Y495332D01*
X201845Y493074D01*
X201845Y502245D02*
X208618Y502245D01*
X201845Y502245D02*
X201845Y505632D01*
X202973Y505632D01*
X204667Y510944D02*
X204667Y513484D01*
X204666Y510944D02*
X204668Y510857D01*
X204674Y510769D01*
X204683Y510682D01*
X204697Y510596D01*
X204714Y510510D01*
X204735Y510426D01*
X204760Y510342D01*
X204789Y510259D01*
X204821Y510178D01*
X204856Y510098D01*
X204895Y510020D01*
X204938Y509943D01*
X204984Y509869D01*
X205033Y509797D01*
X205085Y509727D01*
X205141Y509659D01*
X205199Y509594D01*
X205260Y509531D01*
X205324Y509472D01*
X205391Y509415D01*
X205459Y509361D01*
X205531Y509310D01*
X205604Y509263D01*
X205679Y509218D01*
X205757Y509177D01*
X205836Y509140D01*
X205916Y509106D01*
X205998Y509076D01*
X206081Y509049D01*
X206166Y509026D01*
X206251Y509007D01*
X206337Y508992D01*
X206424Y508980D01*
X206511Y508972D01*
X206598Y508968D01*
X206686Y508968D01*
X206773Y508972D01*
X206860Y508980D01*
X206947Y508992D01*
X207033Y509007D01*
X207118Y509026D01*
X207203Y509049D01*
X207286Y509076D01*
X207368Y509106D01*
X207448Y509140D01*
X207527Y509177D01*
X207605Y509218D01*
X207680Y509263D01*
X207753Y509310D01*
X207825Y509361D01*
X207893Y509415D01*
X207960Y509472D01*
X208024Y509531D01*
X208085Y509594D01*
X208143Y509659D01*
X208199Y509727D01*
X208251Y509797D01*
X208300Y509869D01*
X208346Y509943D01*
X208389Y510020D01*
X208428Y510098D01*
X208463Y510178D01*
X208495Y510259D01*
X208524Y510342D01*
X208549Y510426D01*
X208570Y510510D01*
X208587Y510596D01*
X208601Y510682D01*
X208610Y510769D01*
X208616Y510857D01*
X208618Y510944D01*
X208618Y513484D01*
X203538Y513484D01*
X203457Y513482D01*
X203377Y513476D01*
X203297Y513467D01*
X203218Y513453D01*
X203139Y513436D01*
X203061Y513415D01*
X202984Y513391D01*
X202909Y513363D01*
X202835Y513331D01*
X202762Y513296D01*
X202692Y513257D01*
X202623Y513215D01*
X202556Y513170D01*
X202491Y513122D01*
X202429Y513070D01*
X202370Y513016D01*
X202313Y512959D01*
X202259Y512900D01*
X202207Y512838D01*
X202159Y512773D01*
X202114Y512706D01*
X202072Y512638D01*
X202033Y512567D01*
X201998Y512494D01*
X201966Y512420D01*
X201938Y512345D01*
X201914Y512268D01*
X201893Y512190D01*
X201876Y512111D01*
X201862Y512032D01*
X201853Y511952D01*
X201847Y511872D01*
X201845Y511791D01*
X201845Y509533D01*
X198458Y518696D02*
X208618Y518696D01*
X208618Y521519D01*
X208616Y521600D01*
X208610Y521680D01*
X208601Y521760D01*
X208587Y521839D01*
X208570Y521918D01*
X208549Y521996D01*
X208525Y522073D01*
X208497Y522148D01*
X208465Y522222D01*
X208430Y522295D01*
X208391Y522366D01*
X208349Y522434D01*
X208304Y522501D01*
X208256Y522566D01*
X208204Y522628D01*
X208150Y522687D01*
X208093Y522744D01*
X208034Y522798D01*
X207972Y522850D01*
X207907Y522898D01*
X207840Y522943D01*
X207772Y522985D01*
X207701Y523024D01*
X207628Y523059D01*
X207554Y523091D01*
X207479Y523119D01*
X207402Y523143D01*
X207324Y523164D01*
X207245Y523181D01*
X207166Y523195D01*
X207086Y523204D01*
X207006Y523210D01*
X206925Y523212D01*
X203538Y523212D01*
X203457Y523210D01*
X203377Y523204D01*
X203297Y523195D01*
X203218Y523181D01*
X203139Y523164D01*
X203061Y523143D01*
X202984Y523119D01*
X202909Y523091D01*
X202835Y523059D01*
X202762Y523024D01*
X202692Y522985D01*
X202623Y522943D01*
X202556Y522898D01*
X202491Y522850D01*
X202429Y522798D01*
X202370Y522744D01*
X202313Y522687D01*
X202259Y522628D01*
X202207Y522566D01*
X202159Y522501D01*
X202114Y522434D01*
X202072Y522366D01*
X202033Y522295D01*
X201998Y522222D01*
X201966Y522148D01*
X201938Y522073D01*
X201914Y521996D01*
X201893Y521918D01*
X201876Y521839D01*
X201862Y521760D01*
X201853Y521680D01*
X201847Y521600D01*
X201845Y521519D01*
X201845Y518696D01*
X198458Y527643D02*
X206925Y527643D01*
X207006Y527645D01*
X207086Y527651D01*
X207166Y527660D01*
X207245Y527674D01*
X207324Y527691D01*
X207402Y527712D01*
X207479Y527736D01*
X207554Y527764D01*
X207628Y527796D01*
X207701Y527831D01*
X207772Y527870D01*
X207840Y527912D01*
X207907Y527957D01*
X207972Y528005D01*
X208034Y528057D01*
X208093Y528111D01*
X208150Y528168D01*
X208204Y528227D01*
X208256Y528289D01*
X208304Y528354D01*
X208349Y528421D01*
X208391Y528490D01*
X208430Y528560D01*
X208465Y528633D01*
X208497Y528707D01*
X208525Y528782D01*
X208549Y528859D01*
X208570Y528937D01*
X208587Y529016D01*
X208601Y529095D01*
X208610Y529175D01*
X208616Y529255D01*
X208618Y529336D01*
X208618Y534728D02*
X208618Y537550D01*
X208618Y534728D02*
X208616Y534647D01*
X208610Y534567D01*
X208601Y534487D01*
X208587Y534408D01*
X208570Y534329D01*
X208549Y534251D01*
X208525Y534174D01*
X208497Y534099D01*
X208465Y534025D01*
X208430Y533952D01*
X208391Y533882D01*
X208349Y533813D01*
X208304Y533746D01*
X208256Y533681D01*
X208204Y533619D01*
X208150Y533560D01*
X208093Y533503D01*
X208034Y533449D01*
X207972Y533397D01*
X207907Y533349D01*
X207840Y533304D01*
X207772Y533262D01*
X207701Y533223D01*
X207628Y533188D01*
X207554Y533156D01*
X207479Y533128D01*
X207402Y533104D01*
X207324Y533083D01*
X207245Y533066D01*
X207166Y533052D01*
X207086Y533043D01*
X207006Y533037D01*
X206925Y533035D01*
X204102Y533035D01*
X204009Y533037D01*
X203916Y533043D01*
X203823Y533052D01*
X203730Y533066D01*
X203639Y533083D01*
X203548Y533104D01*
X203458Y533129D01*
X203369Y533157D01*
X203281Y533189D01*
X203195Y533225D01*
X203110Y533264D01*
X203027Y533307D01*
X202946Y533353D01*
X202867Y533403D01*
X202790Y533455D01*
X202715Y533511D01*
X202643Y533570D01*
X202573Y533632D01*
X202505Y533696D01*
X202441Y533764D01*
X202379Y533834D01*
X202320Y533906D01*
X202264Y533981D01*
X202212Y534058D01*
X202162Y534137D01*
X202116Y534218D01*
X202073Y534301D01*
X202034Y534386D01*
X201998Y534472D01*
X201966Y534560D01*
X201938Y534649D01*
X201913Y534739D01*
X201892Y534830D01*
X201875Y534921D01*
X201861Y535014D01*
X201852Y535107D01*
X201846Y535200D01*
X201844Y535293D01*
X201846Y535386D01*
X201852Y535479D01*
X201861Y535572D01*
X201875Y535665D01*
X201892Y535756D01*
X201913Y535847D01*
X201938Y535937D01*
X201966Y536026D01*
X201998Y536114D01*
X202034Y536200D01*
X202073Y536285D01*
X202116Y536368D01*
X202162Y536449D01*
X202212Y536528D01*
X202264Y536605D01*
X202320Y536680D01*
X202379Y536752D01*
X202441Y536822D01*
X202505Y536890D01*
X202573Y536954D01*
X202643Y537016D01*
X202715Y537075D01*
X202790Y537131D01*
X202867Y537183D01*
X202946Y537233D01*
X203027Y537279D01*
X203110Y537322D01*
X203195Y537361D01*
X203281Y537397D01*
X203369Y537429D01*
X203458Y537457D01*
X203548Y537482D01*
X203639Y537503D01*
X203730Y537520D01*
X203823Y537534D01*
X203916Y537543D01*
X204009Y537549D01*
X204102Y537551D01*
X204102Y537550D02*
X205231Y537550D01*
X205231Y533035D01*
X208618Y547925D02*
X208618Y552441D01*
X208618Y547925D02*
X198458Y547925D01*
X198458Y552441D01*
X202973Y551312D02*
X202973Y547925D01*
X208618Y558695D02*
X208618Y560953D01*
X208618Y558695D02*
X208616Y558602D01*
X208610Y558509D01*
X208601Y558416D01*
X208587Y558323D01*
X208570Y558232D01*
X208549Y558141D01*
X208524Y558051D01*
X208496Y557962D01*
X208464Y557874D01*
X208428Y557788D01*
X208389Y557703D01*
X208346Y557620D01*
X208300Y557539D01*
X208250Y557460D01*
X208198Y557383D01*
X208142Y557308D01*
X208083Y557236D01*
X208021Y557166D01*
X207957Y557098D01*
X207889Y557034D01*
X207819Y556972D01*
X207747Y556913D01*
X207672Y556857D01*
X207595Y556805D01*
X207516Y556755D01*
X207435Y556709D01*
X207352Y556666D01*
X207267Y556627D01*
X207181Y556591D01*
X207093Y556559D01*
X207004Y556531D01*
X206914Y556506D01*
X206823Y556485D01*
X206732Y556468D01*
X206639Y556454D01*
X206546Y556445D01*
X206453Y556439D01*
X206360Y556437D01*
X206360Y556438D02*
X200716Y556438D01*
X200716Y556437D02*
X200623Y556439D01*
X200530Y556445D01*
X200437Y556454D01*
X200344Y556468D01*
X200253Y556485D01*
X200162Y556506D01*
X200072Y556531D01*
X199983Y556559D01*
X199895Y556591D01*
X199809Y556627D01*
X199724Y556666D01*
X199641Y556709D01*
X199560Y556755D01*
X199481Y556805D01*
X199404Y556857D01*
X199329Y556913D01*
X199257Y556972D01*
X199187Y557034D01*
X199119Y557098D01*
X199055Y557166D01*
X198993Y557236D01*
X198934Y557308D01*
X198878Y557383D01*
X198826Y557460D01*
X198776Y557539D01*
X198730Y557620D01*
X198687Y557703D01*
X198648Y557788D01*
X198612Y557874D01*
X198580Y557962D01*
X198552Y558051D01*
X198527Y558141D01*
X198506Y558232D01*
X198489Y558323D01*
X198475Y558416D01*
X198466Y558508D01*
X198460Y558602D01*
X198458Y558695D01*
X198458Y560953D01*
X202973Y569340D02*
X202973Y571033D01*
X208618Y571033D01*
X208618Y567646D01*
X208616Y567553D01*
X208610Y567460D01*
X208601Y567367D01*
X208587Y567274D01*
X208570Y567183D01*
X208549Y567092D01*
X208524Y567002D01*
X208496Y566913D01*
X208464Y566825D01*
X208428Y566739D01*
X208389Y566654D01*
X208346Y566571D01*
X208300Y566490D01*
X208250Y566411D01*
X208198Y566334D01*
X208142Y566259D01*
X208083Y566187D01*
X208021Y566117D01*
X207957Y566049D01*
X207889Y565985D01*
X207819Y565923D01*
X207747Y565864D01*
X207672Y565808D01*
X207595Y565756D01*
X207516Y565706D01*
X207435Y565660D01*
X207352Y565617D01*
X207267Y565578D01*
X207181Y565542D01*
X207093Y565510D01*
X207004Y565482D01*
X206914Y565457D01*
X206823Y565436D01*
X206732Y565419D01*
X206639Y565405D01*
X206546Y565396D01*
X206453Y565390D01*
X206360Y565388D01*
X206360Y565389D02*
X200716Y565389D01*
X200716Y565388D02*
X200623Y565390D01*
X200530Y565396D01*
X200437Y565405D01*
X200344Y565419D01*
X200253Y565436D01*
X200162Y565457D01*
X200072Y565482D01*
X199983Y565510D01*
X199895Y565542D01*
X199809Y565578D01*
X199724Y565617D01*
X199641Y565660D01*
X199560Y565706D01*
X199481Y565756D01*
X199404Y565808D01*
X199329Y565864D01*
X199257Y565923D01*
X199187Y565985D01*
X199119Y566049D01*
X199055Y566117D01*
X198993Y566187D01*
X198934Y566259D01*
X198878Y566334D01*
X198826Y566411D01*
X198776Y566490D01*
X198730Y566571D01*
X198687Y566654D01*
X198648Y566739D01*
X198612Y566825D01*
X198580Y566913D01*
X198552Y567002D01*
X198527Y567092D01*
X198506Y567183D01*
X198489Y567274D01*
X198475Y567367D01*
X198466Y567459D01*
X198460Y567553D01*
X198458Y567646D01*
X198458Y571033D01*
X215831Y462419D02*
X225991Y462419D01*
X221476Y465806D02*
X215831Y462419D01*
X221476Y465806D02*
X215831Y469192D01*
X225991Y469192D01*
X225991Y473735D02*
X215831Y477121D01*
X225991Y480508D01*
X223451Y479661D02*
X223451Y474581D01*
X225991Y484807D02*
X215831Y484807D01*
X219218Y484807D02*
X219218Y487630D01*
X219220Y487711D01*
X219226Y487791D01*
X219235Y487871D01*
X219249Y487950D01*
X219266Y488029D01*
X219287Y488107D01*
X219311Y488184D01*
X219339Y488259D01*
X219371Y488333D01*
X219406Y488406D01*
X219445Y488477D01*
X219487Y488545D01*
X219532Y488612D01*
X219580Y488677D01*
X219632Y488739D01*
X219686Y488798D01*
X219743Y488855D01*
X219802Y488909D01*
X219864Y488961D01*
X219929Y489009D01*
X219996Y489054D01*
X220065Y489096D01*
X220135Y489135D01*
X220208Y489170D01*
X220282Y489202D01*
X220357Y489230D01*
X220434Y489254D01*
X220512Y489275D01*
X220591Y489292D01*
X220670Y489306D01*
X220750Y489315D01*
X220830Y489321D01*
X220911Y489323D01*
X225991Y489323D01*
X225991Y494651D02*
X219218Y494651D01*
X219218Y499731D01*
X219220Y499812D01*
X219226Y499892D01*
X219235Y499972D01*
X219249Y500051D01*
X219266Y500130D01*
X219287Y500208D01*
X219311Y500285D01*
X219339Y500360D01*
X219371Y500434D01*
X219406Y500507D01*
X219445Y500578D01*
X219487Y500646D01*
X219532Y500713D01*
X219580Y500778D01*
X219632Y500840D01*
X219686Y500899D01*
X219743Y500956D01*
X219802Y501010D01*
X219864Y501062D01*
X219929Y501110D01*
X219996Y501155D01*
X220065Y501197D01*
X220135Y501236D01*
X220208Y501271D01*
X220282Y501303D01*
X220357Y501331D01*
X220434Y501355D01*
X220512Y501376D01*
X220591Y501393D01*
X220670Y501407D01*
X220750Y501416D01*
X220830Y501422D01*
X220911Y501424D01*
X220911Y501425D02*
X225991Y501425D01*
X225991Y498038D02*
X219218Y498038D01*
X225991Y508103D02*
X225991Y510926D01*
X225991Y508103D02*
X225989Y508022D01*
X225983Y507942D01*
X225974Y507862D01*
X225960Y507783D01*
X225943Y507704D01*
X225922Y507626D01*
X225898Y507549D01*
X225870Y507474D01*
X225838Y507400D01*
X225803Y507327D01*
X225764Y507257D01*
X225722Y507188D01*
X225677Y507121D01*
X225629Y507056D01*
X225577Y506994D01*
X225523Y506935D01*
X225466Y506878D01*
X225407Y506824D01*
X225345Y506772D01*
X225280Y506724D01*
X225213Y506679D01*
X225145Y506637D01*
X225074Y506598D01*
X225001Y506563D01*
X224927Y506531D01*
X224852Y506503D01*
X224775Y506479D01*
X224697Y506458D01*
X224618Y506441D01*
X224539Y506427D01*
X224459Y506418D01*
X224379Y506412D01*
X224298Y506410D01*
X221476Y506410D01*
X221383Y506412D01*
X221290Y506418D01*
X221197Y506427D01*
X221104Y506441D01*
X221013Y506458D01*
X220922Y506479D01*
X220832Y506504D01*
X220743Y506532D01*
X220655Y506564D01*
X220569Y506600D01*
X220484Y506639D01*
X220401Y506682D01*
X220320Y506728D01*
X220241Y506778D01*
X220164Y506830D01*
X220089Y506886D01*
X220017Y506945D01*
X219947Y507007D01*
X219879Y507071D01*
X219815Y507139D01*
X219753Y507209D01*
X219694Y507281D01*
X219638Y507356D01*
X219586Y507433D01*
X219536Y507512D01*
X219490Y507593D01*
X219447Y507676D01*
X219408Y507761D01*
X219372Y507847D01*
X219340Y507935D01*
X219312Y508024D01*
X219287Y508114D01*
X219266Y508205D01*
X219249Y508296D01*
X219235Y508389D01*
X219226Y508482D01*
X219220Y508575D01*
X219218Y508668D01*
X219220Y508761D01*
X219226Y508854D01*
X219235Y508947D01*
X219249Y509040D01*
X219266Y509131D01*
X219287Y509222D01*
X219312Y509312D01*
X219340Y509401D01*
X219372Y509489D01*
X219408Y509575D01*
X219447Y509660D01*
X219490Y509743D01*
X219536Y509824D01*
X219586Y509903D01*
X219638Y509980D01*
X219694Y510055D01*
X219753Y510127D01*
X219815Y510197D01*
X219879Y510265D01*
X219947Y510329D01*
X220017Y510391D01*
X220089Y510450D01*
X220164Y510506D01*
X220241Y510558D01*
X220320Y510608D01*
X220401Y510654D01*
X220484Y510697D01*
X220569Y510736D01*
X220655Y510772D01*
X220743Y510804D01*
X220832Y510832D01*
X220922Y510857D01*
X221013Y510878D01*
X221104Y510895D01*
X221197Y510909D01*
X221290Y510918D01*
X221383Y510924D01*
X221476Y510926D01*
X222605Y510926D01*
X222605Y506410D01*
X225991Y519778D02*
X215831Y519778D01*
X225991Y519778D02*
X225991Y516955D01*
X225989Y516874D01*
X225983Y516794D01*
X225974Y516714D01*
X225960Y516635D01*
X225943Y516556D01*
X225922Y516478D01*
X225898Y516401D01*
X225870Y516326D01*
X225838Y516252D01*
X225803Y516179D01*
X225764Y516109D01*
X225722Y516040D01*
X225677Y515973D01*
X225629Y515908D01*
X225577Y515846D01*
X225523Y515787D01*
X225466Y515730D01*
X225407Y515676D01*
X225345Y515624D01*
X225280Y515576D01*
X225213Y515531D01*
X225145Y515489D01*
X225074Y515450D01*
X225001Y515415D01*
X224927Y515383D01*
X224852Y515355D01*
X224775Y515331D01*
X224697Y515310D01*
X224618Y515293D01*
X224539Y515279D01*
X224459Y515270D01*
X224379Y515264D01*
X224298Y515262D01*
X220911Y515262D01*
X220830Y515264D01*
X220750Y515270D01*
X220670Y515279D01*
X220591Y515293D01*
X220512Y515310D01*
X220434Y515331D01*
X220357Y515355D01*
X220282Y515383D01*
X220208Y515415D01*
X220135Y515450D01*
X220065Y515489D01*
X219996Y515531D01*
X219929Y515576D01*
X219864Y515624D01*
X219802Y515676D01*
X219743Y515730D01*
X219686Y515787D01*
X219632Y515846D01*
X219580Y515908D01*
X219532Y515973D01*
X219487Y516040D01*
X219445Y516109D01*
X219406Y516179D01*
X219371Y516252D01*
X219339Y516326D01*
X219311Y516401D01*
X219287Y516478D01*
X219266Y516556D01*
X219249Y516635D01*
X219235Y516714D01*
X219226Y516794D01*
X219220Y516874D01*
X219218Y516955D01*
X219218Y519778D01*
X215831Y530656D02*
X225991Y530656D01*
X221476Y534042D02*
X215831Y530656D01*
X221476Y534042D02*
X215831Y537429D01*
X225991Y537429D01*
X225991Y541971D02*
X215831Y545358D01*
X225991Y548745D01*
X223451Y547898D02*
X223451Y542818D01*
X216960Y552823D02*
X215831Y552823D01*
X215831Y558467D01*
X225991Y555645D01*
X223169Y563110D02*
X223063Y563112D01*
X222958Y563118D01*
X222853Y563128D01*
X222748Y563142D01*
X222644Y563159D01*
X222541Y563181D01*
X222439Y563206D01*
X222337Y563235D01*
X222237Y563268D01*
X222138Y563305D01*
X222041Y563345D01*
X221945Y563389D01*
X221850Y563437D01*
X221758Y563488D01*
X221668Y563543D01*
X221579Y563600D01*
X221493Y563661D01*
X221410Y563726D01*
X221328Y563793D01*
X221250Y563863D01*
X221174Y563937D01*
X221100Y564013D01*
X221030Y564091D01*
X220963Y564173D01*
X220898Y564256D01*
X220837Y564342D01*
X220780Y564431D01*
X220725Y564521D01*
X220674Y564613D01*
X220626Y564708D01*
X220582Y564804D01*
X220542Y564901D01*
X220505Y565000D01*
X220472Y565100D01*
X220443Y565202D01*
X220418Y565304D01*
X220396Y565407D01*
X220379Y565511D01*
X220365Y565616D01*
X220355Y565721D01*
X220349Y565826D01*
X220347Y565932D01*
X220349Y566038D01*
X220355Y566143D01*
X220365Y566248D01*
X220379Y566353D01*
X220396Y566457D01*
X220418Y566560D01*
X220443Y566662D01*
X220472Y566764D01*
X220505Y566864D01*
X220542Y566963D01*
X220582Y567060D01*
X220626Y567156D01*
X220674Y567251D01*
X220725Y567343D01*
X220780Y567433D01*
X220837Y567522D01*
X220898Y567608D01*
X220963Y567691D01*
X221030Y567773D01*
X221100Y567851D01*
X221174Y567927D01*
X221250Y568001D01*
X221328Y568071D01*
X221410Y568138D01*
X221493Y568203D01*
X221579Y568264D01*
X221668Y568321D01*
X221758Y568376D01*
X221850Y568427D01*
X221945Y568475D01*
X222041Y568519D01*
X222138Y568559D01*
X222237Y568596D01*
X222337Y568629D01*
X222439Y568658D01*
X222541Y568683D01*
X222644Y568705D01*
X222748Y568722D01*
X222853Y568736D01*
X222958Y568746D01*
X223063Y568752D01*
X223169Y568754D01*
X223275Y568752D01*
X223380Y568746D01*
X223485Y568736D01*
X223590Y568722D01*
X223694Y568705D01*
X223797Y568683D01*
X223899Y568658D01*
X224001Y568629D01*
X224101Y568596D01*
X224200Y568559D01*
X224297Y568519D01*
X224393Y568475D01*
X224488Y568427D01*
X224580Y568376D01*
X224670Y568321D01*
X224759Y568264D01*
X224845Y568203D01*
X224928Y568138D01*
X225010Y568071D01*
X225088Y568001D01*
X225164Y567927D01*
X225238Y567851D01*
X225308Y567773D01*
X225375Y567691D01*
X225440Y567608D01*
X225501Y567522D01*
X225558Y567433D01*
X225613Y567343D01*
X225664Y567251D01*
X225712Y567156D01*
X225756Y567060D01*
X225796Y566963D01*
X225833Y566864D01*
X225866Y566764D01*
X225895Y566662D01*
X225920Y566560D01*
X225942Y566457D01*
X225959Y566353D01*
X225973Y566248D01*
X225983Y566143D01*
X225989Y566038D01*
X225991Y565932D01*
X225989Y565826D01*
X225983Y565721D01*
X225973Y565616D01*
X225959Y565511D01*
X225942Y565407D01*
X225920Y565304D01*
X225895Y565202D01*
X225866Y565100D01*
X225833Y565000D01*
X225796Y564901D01*
X225756Y564804D01*
X225712Y564708D01*
X225664Y564613D01*
X225613Y564521D01*
X225558Y564431D01*
X225501Y564342D01*
X225440Y564256D01*
X225375Y564173D01*
X225308Y564091D01*
X225238Y564013D01*
X225164Y563937D01*
X225088Y563863D01*
X225010Y563793D01*
X224928Y563726D01*
X224845Y563661D01*
X224759Y563600D01*
X224670Y563543D01*
X224580Y563488D01*
X224488Y563437D01*
X224393Y563389D01*
X224297Y563345D01*
X224200Y563305D01*
X224101Y563268D01*
X224001Y563235D01*
X223899Y563206D01*
X223797Y563181D01*
X223694Y563159D01*
X223590Y563142D01*
X223485Y563128D01*
X223380Y563118D01*
X223275Y563112D01*
X223169Y563110D01*
X218089Y563674D02*
X217996Y563676D01*
X217903Y563682D01*
X217810Y563691D01*
X217717Y563705D01*
X217626Y563722D01*
X217535Y563743D01*
X217445Y563768D01*
X217356Y563796D01*
X217268Y563828D01*
X217182Y563864D01*
X217097Y563903D01*
X217014Y563946D01*
X216933Y563992D01*
X216854Y564042D01*
X216777Y564094D01*
X216702Y564150D01*
X216630Y564209D01*
X216560Y564271D01*
X216492Y564335D01*
X216428Y564403D01*
X216366Y564473D01*
X216307Y564545D01*
X216251Y564620D01*
X216199Y564697D01*
X216149Y564776D01*
X216103Y564857D01*
X216060Y564940D01*
X216021Y565025D01*
X215985Y565111D01*
X215953Y565199D01*
X215925Y565288D01*
X215900Y565378D01*
X215879Y565469D01*
X215862Y565560D01*
X215848Y565653D01*
X215839Y565746D01*
X215833Y565839D01*
X215831Y565932D01*
X215833Y566025D01*
X215839Y566118D01*
X215848Y566211D01*
X215862Y566304D01*
X215879Y566395D01*
X215900Y566486D01*
X215925Y566576D01*
X215953Y566665D01*
X215985Y566753D01*
X216021Y566839D01*
X216060Y566924D01*
X216103Y567007D01*
X216149Y567088D01*
X216199Y567167D01*
X216251Y567244D01*
X216307Y567319D01*
X216366Y567391D01*
X216428Y567461D01*
X216492Y567529D01*
X216560Y567593D01*
X216630Y567655D01*
X216702Y567714D01*
X216777Y567770D01*
X216854Y567822D01*
X216933Y567872D01*
X217014Y567918D01*
X217097Y567961D01*
X217182Y568000D01*
X217268Y568036D01*
X217356Y568068D01*
X217445Y568096D01*
X217535Y568121D01*
X217626Y568142D01*
X217717Y568159D01*
X217810Y568173D01*
X217903Y568182D01*
X217996Y568188D01*
X218089Y568190D01*
X218182Y568188D01*
X218275Y568182D01*
X218368Y568173D01*
X218461Y568159D01*
X218552Y568142D01*
X218643Y568121D01*
X218733Y568096D01*
X218822Y568068D01*
X218910Y568036D01*
X218996Y568000D01*
X219081Y567961D01*
X219164Y567918D01*
X219245Y567872D01*
X219324Y567822D01*
X219401Y567770D01*
X219476Y567714D01*
X219548Y567655D01*
X219618Y567593D01*
X219686Y567529D01*
X219750Y567461D01*
X219812Y567391D01*
X219871Y567319D01*
X219927Y567244D01*
X219979Y567167D01*
X220029Y567088D01*
X220075Y567007D01*
X220118Y566924D01*
X220157Y566839D01*
X220193Y566753D01*
X220225Y566665D01*
X220253Y566576D01*
X220278Y566486D01*
X220299Y566395D01*
X220316Y566304D01*
X220330Y566211D01*
X220339Y566118D01*
X220345Y566025D01*
X220347Y565932D01*
X220345Y565839D01*
X220339Y565746D01*
X220330Y565653D01*
X220316Y565560D01*
X220299Y565469D01*
X220278Y565378D01*
X220253Y565288D01*
X220225Y565199D01*
X220193Y565111D01*
X220157Y565025D01*
X220118Y564940D01*
X220075Y564857D01*
X220029Y564776D01*
X219979Y564697D01*
X219927Y564620D01*
X219871Y564545D01*
X219812Y564473D01*
X219750Y564403D01*
X219686Y564335D01*
X219618Y564271D01*
X219548Y564209D01*
X219476Y564150D01*
X219401Y564094D01*
X219324Y564042D01*
X219245Y563992D01*
X219164Y563946D01*
X219081Y563903D01*
X218996Y563864D01*
X218910Y563828D01*
X218822Y563796D01*
X218733Y563768D01*
X218643Y563743D01*
X218552Y563722D01*
X218461Y563705D01*
X218368Y563691D01*
X218275Y563682D01*
X218182Y563676D01*
X218089Y563674D01*
X220347Y573397D02*
X220347Y576783D01*
X220349Y576876D01*
X220355Y576969D01*
X220364Y577062D01*
X220378Y577155D01*
X220395Y577246D01*
X220416Y577337D01*
X220441Y577427D01*
X220469Y577516D01*
X220501Y577604D01*
X220537Y577690D01*
X220576Y577775D01*
X220619Y577858D01*
X220665Y577939D01*
X220715Y578018D01*
X220767Y578095D01*
X220823Y578170D01*
X220882Y578242D01*
X220944Y578312D01*
X221008Y578380D01*
X221076Y578444D01*
X221146Y578506D01*
X221218Y578565D01*
X221293Y578621D01*
X221370Y578673D01*
X221449Y578723D01*
X221530Y578769D01*
X221613Y578812D01*
X221698Y578851D01*
X221784Y578887D01*
X221872Y578919D01*
X221961Y578947D01*
X222051Y578972D01*
X222142Y578993D01*
X222233Y579010D01*
X222326Y579024D01*
X222419Y579033D01*
X222512Y579039D01*
X222605Y579041D01*
X223169Y579041D01*
X223275Y579039D01*
X223380Y579033D01*
X223485Y579023D01*
X223590Y579009D01*
X223694Y578992D01*
X223797Y578970D01*
X223899Y578945D01*
X224001Y578916D01*
X224101Y578883D01*
X224200Y578846D01*
X224297Y578806D01*
X224393Y578762D01*
X224488Y578714D01*
X224580Y578663D01*
X224670Y578608D01*
X224759Y578551D01*
X224845Y578490D01*
X224928Y578425D01*
X225010Y578358D01*
X225088Y578288D01*
X225164Y578214D01*
X225238Y578138D01*
X225308Y578060D01*
X225375Y577978D01*
X225440Y577895D01*
X225501Y577809D01*
X225558Y577720D01*
X225613Y577630D01*
X225664Y577538D01*
X225712Y577443D01*
X225756Y577347D01*
X225796Y577250D01*
X225833Y577151D01*
X225866Y577051D01*
X225895Y576949D01*
X225920Y576847D01*
X225942Y576744D01*
X225959Y576640D01*
X225973Y576535D01*
X225983Y576430D01*
X225989Y576325D01*
X225991Y576219D01*
X225989Y576113D01*
X225983Y576008D01*
X225973Y575903D01*
X225959Y575798D01*
X225942Y575694D01*
X225920Y575591D01*
X225895Y575489D01*
X225866Y575387D01*
X225833Y575287D01*
X225796Y575188D01*
X225756Y575091D01*
X225712Y574995D01*
X225664Y574900D01*
X225613Y574808D01*
X225558Y574718D01*
X225501Y574629D01*
X225440Y574543D01*
X225375Y574460D01*
X225308Y574378D01*
X225238Y574300D01*
X225164Y574224D01*
X225088Y574150D01*
X225010Y574080D01*
X224928Y574013D01*
X224845Y573948D01*
X224759Y573887D01*
X224670Y573830D01*
X224580Y573775D01*
X224488Y573724D01*
X224393Y573676D01*
X224297Y573632D01*
X224200Y573592D01*
X224101Y573555D01*
X224001Y573522D01*
X223899Y573493D01*
X223797Y573468D01*
X223694Y573446D01*
X223590Y573429D01*
X223485Y573415D01*
X223380Y573405D01*
X223275Y573399D01*
X223169Y573397D01*
X220347Y573397D01*
X220347Y573396D02*
X220213Y573398D01*
X220079Y573404D01*
X219946Y573414D01*
X219813Y573428D01*
X219680Y573445D01*
X219548Y573467D01*
X219417Y573493D01*
X219286Y573522D01*
X219157Y573556D01*
X219028Y573593D01*
X218901Y573634D01*
X218775Y573679D01*
X218650Y573727D01*
X218527Y573779D01*
X218405Y573835D01*
X218285Y573894D01*
X218167Y573957D01*
X218050Y574024D01*
X217936Y574093D01*
X217824Y574166D01*
X217714Y574243D01*
X217607Y574322D01*
X217502Y574405D01*
X217399Y574491D01*
X217299Y574580D01*
X217201Y574672D01*
X217107Y574766D01*
X217015Y574864D01*
X216926Y574964D01*
X216840Y575067D01*
X216757Y575172D01*
X216678Y575279D01*
X216601Y575389D01*
X216528Y575501D01*
X216459Y575615D01*
X216392Y575732D01*
X216329Y575850D01*
X216270Y575970D01*
X216214Y576091D01*
X216162Y576215D01*
X216114Y576339D01*
X216069Y576466D01*
X216028Y576593D01*
X215991Y576722D01*
X215957Y576851D01*
X215928Y576982D01*
X215902Y577113D01*
X215880Y577245D01*
X215863Y577378D01*
X215849Y577511D01*
X215839Y577644D01*
X215833Y577778D01*
X215831Y577912D01*
X243365Y467117D02*
X233205Y463730D01*
X233205Y470503D02*
X243365Y467117D01*
X243365Y476153D02*
X243365Y478975D01*
X243365Y476153D02*
X243363Y476072D01*
X243357Y475992D01*
X243348Y475912D01*
X243334Y475833D01*
X243317Y475754D01*
X243296Y475676D01*
X243272Y475599D01*
X243244Y475524D01*
X243212Y475450D01*
X243177Y475377D01*
X243138Y475307D01*
X243096Y475238D01*
X243051Y475171D01*
X243003Y475106D01*
X242951Y475044D01*
X242897Y474985D01*
X242840Y474928D01*
X242781Y474874D01*
X242719Y474822D01*
X242654Y474774D01*
X242587Y474729D01*
X242519Y474687D01*
X242448Y474648D01*
X242375Y474613D01*
X242301Y474581D01*
X242226Y474553D01*
X242149Y474529D01*
X242071Y474508D01*
X241992Y474491D01*
X241913Y474477D01*
X241833Y474468D01*
X241753Y474462D01*
X241672Y474460D01*
X238849Y474460D01*
X238756Y474462D01*
X238663Y474468D01*
X238570Y474477D01*
X238477Y474491D01*
X238386Y474508D01*
X238295Y474529D01*
X238205Y474554D01*
X238116Y474582D01*
X238028Y474614D01*
X237942Y474650D01*
X237857Y474689D01*
X237774Y474732D01*
X237693Y474778D01*
X237614Y474828D01*
X237537Y474880D01*
X237462Y474936D01*
X237390Y474995D01*
X237320Y475057D01*
X237252Y475121D01*
X237188Y475189D01*
X237126Y475259D01*
X237067Y475331D01*
X237011Y475406D01*
X236959Y475483D01*
X236909Y475562D01*
X236863Y475643D01*
X236820Y475726D01*
X236781Y475811D01*
X236745Y475897D01*
X236713Y475985D01*
X236685Y476074D01*
X236660Y476164D01*
X236639Y476255D01*
X236622Y476346D01*
X236608Y476439D01*
X236599Y476532D01*
X236593Y476625D01*
X236591Y476718D01*
X236593Y476811D01*
X236599Y476904D01*
X236608Y476997D01*
X236622Y477090D01*
X236639Y477181D01*
X236660Y477272D01*
X236685Y477362D01*
X236713Y477451D01*
X236745Y477539D01*
X236781Y477625D01*
X236820Y477710D01*
X236863Y477793D01*
X236909Y477874D01*
X236959Y477953D01*
X237011Y478030D01*
X237067Y478105D01*
X237126Y478177D01*
X237188Y478247D01*
X237252Y478315D01*
X237320Y478379D01*
X237390Y478441D01*
X237462Y478500D01*
X237537Y478556D01*
X237614Y478608D01*
X237693Y478658D01*
X237774Y478704D01*
X237857Y478747D01*
X237942Y478786D01*
X238028Y478822D01*
X238116Y478854D01*
X238205Y478882D01*
X238295Y478907D01*
X238386Y478928D01*
X238477Y478945D01*
X238570Y478959D01*
X238663Y478968D01*
X238756Y478974D01*
X238849Y478976D01*
X238849Y478975D02*
X239978Y478975D01*
X239978Y474460D01*
X243365Y483790D02*
X236592Y483790D01*
X236592Y487176D01*
X237721Y487176D01*
X239414Y491423D02*
X240543Y494245D01*
X239414Y491422D02*
X239385Y491353D01*
X239351Y491286D01*
X239315Y491220D01*
X239275Y491156D01*
X239231Y491095D01*
X239185Y491035D01*
X239136Y490979D01*
X239084Y490924D01*
X239029Y490873D01*
X238971Y490824D01*
X238912Y490779D01*
X238849Y490736D01*
X238785Y490697D01*
X238719Y490661D01*
X238651Y490629D01*
X238582Y490600D01*
X238511Y490575D01*
X238439Y490553D01*
X238366Y490535D01*
X238292Y490521D01*
X238217Y490511D01*
X238142Y490505D01*
X238067Y490502D01*
X237992Y490503D01*
X237917Y490509D01*
X237842Y490518D01*
X237768Y490530D01*
X237695Y490547D01*
X237622Y490567D01*
X237551Y490592D01*
X237481Y490619D01*
X237412Y490651D01*
X237346Y490685D01*
X237281Y490723D01*
X237218Y490765D01*
X237157Y490809D01*
X237099Y490857D01*
X237044Y490908D01*
X236990Y490961D01*
X236940Y491017D01*
X236893Y491076D01*
X236849Y491136D01*
X236808Y491199D01*
X236770Y491265D01*
X236736Y491331D01*
X236705Y491400D01*
X236678Y491470D01*
X236654Y491542D01*
X236634Y491614D01*
X236618Y491688D01*
X236605Y491762D01*
X236597Y491837D01*
X236592Y491912D01*
X236591Y491987D01*
X236592Y491988D02*
X236596Y492142D01*
X236603Y492296D01*
X236615Y492449D01*
X236630Y492603D01*
X236649Y492756D01*
X236671Y492908D01*
X236698Y493060D01*
X236727Y493211D01*
X236761Y493362D01*
X236798Y493511D01*
X236838Y493660D01*
X236883Y493808D01*
X236930Y493954D01*
X236982Y494099D01*
X237036Y494244D01*
X237095Y494386D01*
X237156Y494528D01*
X240543Y494245D02*
X240572Y494314D01*
X240606Y494381D01*
X240642Y494447D01*
X240682Y494511D01*
X240726Y494572D01*
X240772Y494632D01*
X240821Y494688D01*
X240873Y494743D01*
X240928Y494794D01*
X240986Y494843D01*
X241045Y494888D01*
X241108Y494931D01*
X241172Y494970D01*
X241238Y495006D01*
X241306Y495038D01*
X241375Y495067D01*
X241446Y495092D01*
X241518Y495114D01*
X241591Y495132D01*
X241665Y495146D01*
X241740Y495156D01*
X241815Y495162D01*
X241890Y495165D01*
X241965Y495164D01*
X242040Y495158D01*
X242115Y495149D01*
X242189Y495137D01*
X242262Y495120D01*
X242335Y495100D01*
X242406Y495075D01*
X242476Y495048D01*
X242545Y495016D01*
X242611Y494982D01*
X242676Y494944D01*
X242739Y494902D01*
X242800Y494858D01*
X242858Y494810D01*
X242913Y494759D01*
X242967Y494706D01*
X243017Y494650D01*
X243064Y494591D01*
X243108Y494531D01*
X243149Y494468D01*
X243187Y494402D01*
X243221Y494336D01*
X243252Y494267D01*
X243279Y494197D01*
X243303Y494125D01*
X243323Y494053D01*
X243339Y493979D01*
X243352Y493905D01*
X243360Y493830D01*
X243365Y493755D01*
X243366Y493680D01*
X243365Y493680D02*
X243359Y493454D01*
X243348Y493228D01*
X243331Y493002D01*
X243309Y492777D01*
X243282Y492552D01*
X243249Y492328D01*
X243212Y492105D01*
X243168Y491882D01*
X243120Y491661D01*
X243066Y491441D01*
X243008Y491222D01*
X242944Y491005D01*
X242875Y490790D01*
X242801Y490576D01*
X243365Y499349D02*
X236592Y499349D01*
X233769Y499067D02*
X233205Y499067D01*
X233205Y499631D01*
X233769Y499631D01*
X233769Y499067D01*
X238849Y503606D02*
X241107Y503606D01*
X238849Y503606D02*
X238756Y503608D01*
X238663Y503614D01*
X238570Y503623D01*
X238477Y503637D01*
X238386Y503654D01*
X238295Y503675D01*
X238205Y503700D01*
X238116Y503728D01*
X238028Y503760D01*
X237942Y503796D01*
X237857Y503835D01*
X237774Y503878D01*
X237693Y503924D01*
X237614Y503974D01*
X237537Y504026D01*
X237462Y504082D01*
X237390Y504141D01*
X237320Y504203D01*
X237252Y504267D01*
X237188Y504335D01*
X237126Y504405D01*
X237067Y504477D01*
X237011Y504552D01*
X236959Y504629D01*
X236909Y504708D01*
X236863Y504789D01*
X236820Y504872D01*
X236781Y504957D01*
X236745Y505043D01*
X236713Y505131D01*
X236685Y505220D01*
X236660Y505310D01*
X236639Y505401D01*
X236622Y505492D01*
X236608Y505585D01*
X236599Y505678D01*
X236593Y505771D01*
X236591Y505864D01*
X236593Y505957D01*
X236599Y506050D01*
X236608Y506143D01*
X236622Y506236D01*
X236639Y506327D01*
X236660Y506418D01*
X236685Y506508D01*
X236713Y506597D01*
X236745Y506685D01*
X236781Y506771D01*
X236820Y506856D01*
X236863Y506939D01*
X236909Y507020D01*
X236959Y507099D01*
X237011Y507176D01*
X237067Y507251D01*
X237126Y507323D01*
X237188Y507393D01*
X237252Y507461D01*
X237320Y507525D01*
X237390Y507587D01*
X237462Y507646D01*
X237537Y507702D01*
X237614Y507754D01*
X237693Y507804D01*
X237774Y507850D01*
X237857Y507893D01*
X237942Y507932D01*
X238028Y507968D01*
X238116Y508000D01*
X238205Y508028D01*
X238295Y508053D01*
X238386Y508074D01*
X238477Y508091D01*
X238570Y508105D01*
X238663Y508114D01*
X238756Y508120D01*
X238849Y508122D01*
X241107Y508122D01*
X241200Y508120D01*
X241293Y508114D01*
X241386Y508105D01*
X241479Y508091D01*
X241570Y508074D01*
X241661Y508053D01*
X241751Y508028D01*
X241840Y508000D01*
X241928Y507968D01*
X242014Y507932D01*
X242099Y507893D01*
X242182Y507850D01*
X242263Y507804D01*
X242342Y507754D01*
X242419Y507702D01*
X242494Y507646D01*
X242566Y507587D01*
X242636Y507525D01*
X242704Y507461D01*
X242768Y507393D01*
X242830Y507323D01*
X242889Y507251D01*
X242945Y507176D01*
X242997Y507099D01*
X243047Y507020D01*
X243093Y506939D01*
X243136Y506856D01*
X243175Y506771D01*
X243211Y506685D01*
X243243Y506597D01*
X243271Y506508D01*
X243296Y506418D01*
X243317Y506327D01*
X243334Y506236D01*
X243348Y506143D01*
X243357Y506050D01*
X243363Y505957D01*
X243365Y505864D01*
X243363Y505771D01*
X243357Y505678D01*
X243348Y505585D01*
X243334Y505492D01*
X243317Y505401D01*
X243296Y505310D01*
X243271Y505220D01*
X243243Y505131D01*
X243211Y505043D01*
X243175Y504957D01*
X243136Y504872D01*
X243093Y504789D01*
X243047Y504708D01*
X242997Y504629D01*
X242945Y504552D01*
X242889Y504477D01*
X242830Y504405D01*
X242768Y504335D01*
X242704Y504267D01*
X242636Y504203D01*
X242566Y504141D01*
X242494Y504082D01*
X242419Y504026D01*
X242342Y503974D01*
X242263Y503924D01*
X242182Y503878D01*
X242099Y503835D01*
X242014Y503796D01*
X241928Y503760D01*
X241840Y503728D01*
X241751Y503700D01*
X241661Y503675D01*
X241570Y503654D01*
X241479Y503637D01*
X241386Y503623D01*
X241293Y503614D01*
X241200Y503608D01*
X241107Y503606D01*
X243365Y512864D02*
X236592Y512864D01*
X236592Y515687D01*
X236594Y515768D01*
X236600Y515848D01*
X236609Y515928D01*
X236623Y516007D01*
X236640Y516086D01*
X236661Y516164D01*
X236685Y516241D01*
X236713Y516316D01*
X236745Y516390D01*
X236780Y516463D01*
X236819Y516534D01*
X236861Y516602D01*
X236906Y516669D01*
X236954Y516734D01*
X237006Y516796D01*
X237060Y516855D01*
X237117Y516912D01*
X237176Y516966D01*
X237238Y517018D01*
X237303Y517066D01*
X237370Y517111D01*
X237439Y517153D01*
X237509Y517192D01*
X237582Y517227D01*
X237656Y517259D01*
X237731Y517287D01*
X237808Y517311D01*
X237886Y517332D01*
X237965Y517349D01*
X238044Y517363D01*
X238124Y517372D01*
X238204Y517378D01*
X238285Y517380D01*
X243365Y517380D01*
X237721Y528255D02*
X237721Y531078D01*
X237723Y531184D01*
X237729Y531289D01*
X237739Y531394D01*
X237753Y531499D01*
X237770Y531603D01*
X237792Y531706D01*
X237817Y531808D01*
X237846Y531910D01*
X237879Y532010D01*
X237916Y532109D01*
X237956Y532206D01*
X238000Y532302D01*
X238048Y532397D01*
X238099Y532489D01*
X238154Y532579D01*
X238211Y532668D01*
X238272Y532754D01*
X238337Y532837D01*
X238404Y532919D01*
X238474Y532997D01*
X238548Y533073D01*
X238624Y533147D01*
X238702Y533217D01*
X238784Y533284D01*
X238867Y533349D01*
X238953Y533410D01*
X239042Y533467D01*
X239132Y533522D01*
X239224Y533573D01*
X239319Y533621D01*
X239415Y533665D01*
X239512Y533705D01*
X239611Y533742D01*
X239711Y533775D01*
X239813Y533804D01*
X239915Y533829D01*
X240018Y533851D01*
X240122Y533868D01*
X240227Y533882D01*
X240332Y533892D01*
X240437Y533898D01*
X240543Y533900D01*
X240649Y533898D01*
X240754Y533892D01*
X240859Y533882D01*
X240964Y533868D01*
X241068Y533851D01*
X241171Y533829D01*
X241273Y533804D01*
X241375Y533775D01*
X241475Y533742D01*
X241574Y533705D01*
X241671Y533665D01*
X241767Y533621D01*
X241862Y533573D01*
X241954Y533522D01*
X242044Y533467D01*
X242133Y533410D01*
X242219Y533349D01*
X242302Y533284D01*
X242384Y533217D01*
X242462Y533147D01*
X242538Y533073D01*
X242612Y532997D01*
X242682Y532919D01*
X242749Y532837D01*
X242814Y532754D01*
X242875Y532668D01*
X242932Y532579D01*
X242987Y532489D01*
X243038Y532397D01*
X243086Y532302D01*
X243130Y532206D01*
X243170Y532109D01*
X243207Y532010D01*
X243240Y531910D01*
X243269Y531808D01*
X243294Y531706D01*
X243316Y531603D01*
X243333Y531499D01*
X243347Y531394D01*
X243357Y531289D01*
X243363Y531184D01*
X243365Y531078D01*
X243365Y528255D01*
X233205Y528255D01*
X233205Y531078D01*
X233207Y531171D01*
X233213Y531264D01*
X233222Y531357D01*
X233236Y531450D01*
X233253Y531541D01*
X233274Y531632D01*
X233299Y531722D01*
X233327Y531811D01*
X233359Y531899D01*
X233395Y531985D01*
X233434Y532070D01*
X233477Y532153D01*
X233523Y532234D01*
X233573Y532313D01*
X233625Y532390D01*
X233681Y532465D01*
X233740Y532537D01*
X233802Y532607D01*
X233866Y532675D01*
X233934Y532739D01*
X234004Y532801D01*
X234076Y532860D01*
X234151Y532916D01*
X234228Y532968D01*
X234307Y533018D01*
X234388Y533064D01*
X234471Y533107D01*
X234556Y533146D01*
X234642Y533182D01*
X234730Y533214D01*
X234819Y533242D01*
X234909Y533267D01*
X235000Y533288D01*
X235091Y533305D01*
X235184Y533319D01*
X235277Y533328D01*
X235370Y533334D01*
X235463Y533336D01*
X235556Y533334D01*
X235649Y533328D01*
X235742Y533319D01*
X235835Y533305D01*
X235926Y533288D01*
X236017Y533267D01*
X236107Y533242D01*
X236196Y533214D01*
X236284Y533182D01*
X236370Y533146D01*
X236455Y533107D01*
X236538Y533064D01*
X236619Y533018D01*
X236698Y532968D01*
X236775Y532916D01*
X236850Y532860D01*
X236922Y532801D01*
X236992Y532739D01*
X237060Y532675D01*
X237124Y532607D01*
X237186Y532537D01*
X237245Y532465D01*
X237301Y532390D01*
X237353Y532313D01*
X237403Y532234D01*
X237449Y532153D01*
X237492Y532070D01*
X237531Y531985D01*
X237567Y531899D01*
X237599Y531811D01*
X237627Y531722D01*
X237652Y531632D01*
X237673Y531541D01*
X237690Y531450D01*
X237704Y531357D01*
X237713Y531264D01*
X237719Y531171D01*
X237721Y531078D01*
X243365Y538017D02*
X243365Y540840D01*
X243363Y540946D01*
X243357Y541051D01*
X243347Y541156D01*
X243333Y541261D01*
X243316Y541365D01*
X243294Y541468D01*
X243269Y541570D01*
X243240Y541672D01*
X243207Y541772D01*
X243170Y541871D01*
X243130Y541968D01*
X243086Y542064D01*
X243038Y542159D01*
X242987Y542251D01*
X242932Y542341D01*
X242875Y542430D01*
X242814Y542516D01*
X242749Y542599D01*
X242682Y542681D01*
X242612Y542759D01*
X242538Y542835D01*
X242462Y542909D01*
X242384Y542979D01*
X242302Y543046D01*
X242219Y543111D01*
X242133Y543172D01*
X242044Y543229D01*
X241954Y543284D01*
X241862Y543335D01*
X241767Y543383D01*
X241671Y543427D01*
X241574Y543467D01*
X241475Y543504D01*
X241375Y543537D01*
X241273Y543566D01*
X241171Y543591D01*
X241068Y543613D01*
X240964Y543630D01*
X240859Y543644D01*
X240754Y543654D01*
X240649Y543660D01*
X240543Y543662D01*
X240437Y543660D01*
X240332Y543654D01*
X240227Y543644D01*
X240122Y543630D01*
X240018Y543613D01*
X239915Y543591D01*
X239813Y543566D01*
X239711Y543537D01*
X239611Y543504D01*
X239512Y543467D01*
X239415Y543427D01*
X239319Y543383D01*
X239224Y543335D01*
X239132Y543284D01*
X239042Y543229D01*
X238953Y543172D01*
X238867Y543111D01*
X238784Y543046D01*
X238702Y542979D01*
X238624Y542909D01*
X238548Y542835D01*
X238474Y542759D01*
X238404Y542681D01*
X238337Y542599D01*
X238272Y542516D01*
X238211Y542430D01*
X238154Y542341D01*
X238099Y542251D01*
X238048Y542159D01*
X238000Y542064D01*
X237956Y541968D01*
X237916Y541871D01*
X237879Y541772D01*
X237846Y541672D01*
X237817Y541570D01*
X237792Y541468D01*
X237770Y541365D01*
X237753Y541261D01*
X237739Y541156D01*
X237729Y541051D01*
X237723Y540946D01*
X237721Y540840D01*
X233205Y541404D02*
X233205Y538017D01*
X233205Y541404D02*
X233207Y541497D01*
X233213Y541590D01*
X233222Y541683D01*
X233236Y541776D01*
X233253Y541867D01*
X233274Y541958D01*
X233299Y542048D01*
X233327Y542137D01*
X233359Y542225D01*
X233395Y542311D01*
X233434Y542396D01*
X233477Y542479D01*
X233523Y542560D01*
X233573Y542639D01*
X233625Y542716D01*
X233681Y542791D01*
X233740Y542863D01*
X233802Y542933D01*
X233866Y543001D01*
X233934Y543065D01*
X234004Y543127D01*
X234076Y543186D01*
X234151Y543242D01*
X234228Y543294D01*
X234307Y543344D01*
X234388Y543390D01*
X234471Y543433D01*
X234556Y543472D01*
X234642Y543508D01*
X234730Y543540D01*
X234819Y543568D01*
X234909Y543593D01*
X235000Y543614D01*
X235091Y543631D01*
X235184Y543645D01*
X235277Y543654D01*
X235370Y543660D01*
X235463Y543662D01*
X235556Y543660D01*
X235649Y543654D01*
X235742Y543645D01*
X235835Y543631D01*
X235926Y543614D01*
X236017Y543593D01*
X236107Y543568D01*
X236196Y543540D01*
X236284Y543508D01*
X236370Y543472D01*
X236455Y543433D01*
X236538Y543390D01*
X236619Y543344D01*
X236698Y543294D01*
X236775Y543242D01*
X236850Y543186D01*
X236922Y543127D01*
X236992Y543065D01*
X237060Y543001D01*
X237124Y542933D01*
X237186Y542863D01*
X237245Y542791D01*
X237301Y542716D01*
X237353Y542639D01*
X237403Y542560D01*
X237449Y542479D01*
X237492Y542396D01*
X237531Y542311D01*
X237567Y542225D01*
X237599Y542137D01*
X237627Y542048D01*
X237652Y541958D01*
X237673Y541867D01*
X237690Y541776D01*
X237704Y541683D01*
X237713Y541590D01*
X237719Y541497D01*
X237721Y541404D01*
X237721Y539146D01*
X233205Y554158D02*
X243365Y554158D01*
X243365Y558673D01*
X243365Y562442D02*
X236592Y562442D01*
X233769Y562160D02*
X233205Y562160D01*
X233205Y562724D01*
X233769Y562724D01*
X233769Y562160D01*
X236592Y565793D02*
X236592Y569180D01*
X233205Y566922D02*
X241672Y566922D01*
X241753Y566924D01*
X241833Y566930D01*
X241913Y566939D01*
X241992Y566953D01*
X242071Y566970D01*
X242149Y566991D01*
X242226Y567015D01*
X242301Y567043D01*
X242375Y567075D01*
X242448Y567110D01*
X242519Y567149D01*
X242587Y567191D01*
X242654Y567236D01*
X242719Y567284D01*
X242781Y567336D01*
X242840Y567390D01*
X242897Y567447D01*
X242951Y567506D01*
X243003Y567568D01*
X243051Y567633D01*
X243096Y567700D01*
X243138Y567769D01*
X243177Y567839D01*
X243212Y567912D01*
X243244Y567986D01*
X243272Y568061D01*
X243296Y568138D01*
X243317Y568216D01*
X243334Y568295D01*
X243348Y568374D01*
X243357Y568454D01*
X243363Y568534D01*
X243365Y568615D01*
X243365Y569180D01*
X243365Y574908D02*
X243365Y577730D01*
X243365Y574908D02*
X243363Y574827D01*
X243357Y574747D01*
X243348Y574667D01*
X243334Y574588D01*
X243317Y574509D01*
X243296Y574431D01*
X243272Y574354D01*
X243244Y574279D01*
X243212Y574205D01*
X243177Y574132D01*
X243138Y574062D01*
X243096Y573993D01*
X243051Y573926D01*
X243003Y573861D01*
X242951Y573799D01*
X242897Y573740D01*
X242840Y573683D01*
X242781Y573629D01*
X242719Y573577D01*
X242654Y573529D01*
X242587Y573484D01*
X242519Y573442D01*
X242448Y573403D01*
X242375Y573368D01*
X242301Y573336D01*
X242226Y573308D01*
X242149Y573284D01*
X242071Y573263D01*
X241992Y573246D01*
X241913Y573232D01*
X241833Y573223D01*
X241753Y573217D01*
X241672Y573215D01*
X238849Y573215D01*
X238849Y573214D02*
X238756Y573216D01*
X238663Y573222D01*
X238570Y573231D01*
X238477Y573245D01*
X238386Y573262D01*
X238295Y573283D01*
X238205Y573308D01*
X238116Y573336D01*
X238028Y573368D01*
X237942Y573404D01*
X237857Y573443D01*
X237774Y573486D01*
X237693Y573532D01*
X237614Y573582D01*
X237537Y573634D01*
X237462Y573690D01*
X237390Y573749D01*
X237320Y573811D01*
X237252Y573875D01*
X237188Y573943D01*
X237126Y574013D01*
X237067Y574085D01*
X237011Y574160D01*
X236959Y574237D01*
X236909Y574316D01*
X236863Y574397D01*
X236820Y574480D01*
X236781Y574565D01*
X236745Y574651D01*
X236713Y574739D01*
X236685Y574828D01*
X236660Y574918D01*
X236639Y575009D01*
X236622Y575100D01*
X236608Y575193D01*
X236599Y575286D01*
X236593Y575379D01*
X236591Y575472D01*
X236593Y575565D01*
X236599Y575658D01*
X236608Y575751D01*
X236622Y575844D01*
X236639Y575935D01*
X236660Y576026D01*
X236685Y576116D01*
X236713Y576205D01*
X236745Y576293D01*
X236781Y576379D01*
X236820Y576464D01*
X236863Y576547D01*
X236909Y576628D01*
X236959Y576707D01*
X237011Y576784D01*
X237067Y576859D01*
X237126Y576931D01*
X237188Y577001D01*
X237252Y577069D01*
X237320Y577133D01*
X237390Y577195D01*
X237462Y577254D01*
X237537Y577310D01*
X237614Y577362D01*
X237693Y577412D01*
X237774Y577458D01*
X237857Y577501D01*
X237942Y577540D01*
X238028Y577576D01*
X238116Y577608D01*
X238205Y577636D01*
X238295Y577661D01*
X238386Y577682D01*
X238477Y577699D01*
X238570Y577713D01*
X238663Y577722D01*
X238756Y577728D01*
X238849Y577730D01*
X239978Y577730D01*
X239978Y573215D01*
M02*
